G04 #@! TF.GenerationSoftware,KiCad,Pcbnew,7.0.10*
G04 #@! TF.CreationDate,2024-03-21T01:02:57+01:00*
G04 #@! TF.ProjectId,allium58,616c6c69-756d-4353-982e-6b696361645f,rev?*
G04 #@! TF.SameCoordinates,Original*
G04 #@! TF.FileFunction,Legend,Bot*
G04 #@! TF.FilePolarity,Positive*
%FSLAX46Y46*%
G04 Gerber Fmt 4.6, Leading zero omitted, Abs format (unit mm)*
G04 Created by KiCad (PCBNEW 7.0.10) date 2024-03-21 01:02:57*
%MOMM*%
%LPD*%
G01*
G04 APERTURE LIST*
G04 Aperture macros list*
%AMRoundRect*
0 Rectangle with rounded corners*
0 $1 Rounding radius*
0 $2 $3 $4 $5 $6 $7 $8 $9 X,Y pos of 4 corners*
0 Add a 4 corners polygon primitive as box body*
4,1,4,$2,$3,$4,$5,$6,$7,$8,$9,$2,$3,0*
0 Add four circle primitives for the rounded corners*
1,1,$1+$1,$2,$3*
1,1,$1+$1,$4,$5*
1,1,$1+$1,$6,$7*
1,1,$1+$1,$8,$9*
0 Add four rect primitives between the rounded corners*
20,1,$1+$1,$2,$3,$4,$5,0*
20,1,$1+$1,$4,$5,$6,$7,0*
20,1,$1+$1,$6,$7,$8,$9,0*
20,1,$1+$1,$8,$9,$2,$3,0*%
G04 Aperture macros list end*
%ADD10C,0.150000*%
%ADD11C,0.100000*%
%ADD12C,0.120000*%
%ADD13C,1.924000*%
%ADD14C,2.900000*%
%ADD15C,3.000000*%
%ADD16C,5.250000*%
%ADD17RoundRect,0.580000X-0.870000X-0.895000X0.870000X-0.895000X0.870000X0.895000X-0.870000X0.895000X0*%
%ADD18RoundRect,0.580000X0.340093X-1.200942X1.210093X0.305942X-0.340093X1.200942X-1.210093X-0.305942X0*%
%ADD19O,2.150000X1.600000*%
%ADD20RoundRect,0.400000X0.675000X-0.400000X0.675000X0.400000X-0.675000X0.400000X-0.675000X-0.400000X0*%
%ADD21C,5.100000*%
%ADD22RoundRect,0.200000X-0.500000X0.700000X-0.500000X-0.700000X0.500000X-0.700000X0.500000X0.700000X0*%
%ADD23C,4.400000*%
%ADD24RoundRect,0.200000X-0.500000X-0.400000X0.500000X-0.400000X0.500000X0.400000X-0.500000X0.400000X0*%
%ADD25C,1.300000*%
%ADD26RoundRect,0.200000X-0.350000X-0.750000X0.350000X-0.750000X0.350000X0.750000X-0.350000X0.750000X0*%
G04 APERTURE END LIST*
D10*
X153396744Y-42076019D02*
X153206268Y-42076019D01*
X153206268Y-42076019D02*
X153111030Y-42123638D01*
X153111030Y-42123638D02*
X153015792Y-42218876D01*
X153015792Y-42218876D02*
X152968173Y-42409352D01*
X152968173Y-42409352D02*
X152968173Y-42742685D01*
X152968173Y-42742685D02*
X153015792Y-42933161D01*
X153015792Y-42933161D02*
X153111030Y-43028400D01*
X153111030Y-43028400D02*
X153206268Y-43076019D01*
X153206268Y-43076019D02*
X153396744Y-43076019D01*
X153396744Y-43076019D02*
X153491982Y-43028400D01*
X153491982Y-43028400D02*
X153587220Y-42933161D01*
X153587220Y-42933161D02*
X153634839Y-42742685D01*
X153634839Y-42742685D02*
X153634839Y-42409352D01*
X153634839Y-42409352D02*
X153587220Y-42218876D01*
X153587220Y-42218876D02*
X153491982Y-42123638D01*
X153491982Y-42123638D02*
X153396744Y-42076019D01*
X152539601Y-43076019D02*
X152539601Y-42076019D01*
X152539601Y-42076019D02*
X151968173Y-43076019D01*
X151968173Y-43076019D02*
X151968173Y-42076019D01*
X150777697Y-42028400D02*
X151634839Y-43314114D01*
X150253887Y-42076019D02*
X150063411Y-42076019D01*
X150063411Y-42076019D02*
X149968173Y-42123638D01*
X149968173Y-42123638D02*
X149872935Y-42218876D01*
X149872935Y-42218876D02*
X149825316Y-42409352D01*
X149825316Y-42409352D02*
X149825316Y-42742685D01*
X149825316Y-42742685D02*
X149872935Y-42933161D01*
X149872935Y-42933161D02*
X149968173Y-43028400D01*
X149968173Y-43028400D02*
X150063411Y-43076019D01*
X150063411Y-43076019D02*
X150253887Y-43076019D01*
X150253887Y-43076019D02*
X150349125Y-43028400D01*
X150349125Y-43028400D02*
X150444363Y-42933161D01*
X150444363Y-42933161D02*
X150491982Y-42742685D01*
X150491982Y-42742685D02*
X150491982Y-42409352D01*
X150491982Y-42409352D02*
X150444363Y-42218876D01*
X150444363Y-42218876D02*
X150349125Y-42123638D01*
X150349125Y-42123638D02*
X150253887Y-42076019D01*
X149063411Y-42552209D02*
X149396744Y-42552209D01*
X149396744Y-43076019D02*
X149396744Y-42076019D01*
X149396744Y-42076019D02*
X148920554Y-42076019D01*
X148206268Y-42552209D02*
X148539601Y-42552209D01*
X148539601Y-43076019D02*
X148539601Y-42076019D01*
X148539601Y-42076019D02*
X148063411Y-42076019D01*
X152812613Y-38326219D02*
X152812613Y-37326219D01*
X152812613Y-37326219D02*
X152431661Y-37326219D01*
X152431661Y-37326219D02*
X152336423Y-37373838D01*
X152336423Y-37373838D02*
X152288804Y-37421457D01*
X152288804Y-37421457D02*
X152241185Y-37516695D01*
X152241185Y-37516695D02*
X152241185Y-37659552D01*
X152241185Y-37659552D02*
X152288804Y-37754790D01*
X152288804Y-37754790D02*
X152336423Y-37802409D01*
X152336423Y-37802409D02*
X152431661Y-37850028D01*
X152431661Y-37850028D02*
X152812613Y-37850028D01*
X151860232Y-38278600D02*
X151717375Y-38326219D01*
X151717375Y-38326219D02*
X151479280Y-38326219D01*
X151479280Y-38326219D02*
X151384042Y-38278600D01*
X151384042Y-38278600D02*
X151336423Y-38230980D01*
X151336423Y-38230980D02*
X151288804Y-38135742D01*
X151288804Y-38135742D02*
X151288804Y-38040504D01*
X151288804Y-38040504D02*
X151336423Y-37945266D01*
X151336423Y-37945266D02*
X151384042Y-37897647D01*
X151384042Y-37897647D02*
X151479280Y-37850028D01*
X151479280Y-37850028D02*
X151669756Y-37802409D01*
X151669756Y-37802409D02*
X151764994Y-37754790D01*
X151764994Y-37754790D02*
X151812613Y-37707171D01*
X151812613Y-37707171D02*
X151860232Y-37611933D01*
X151860232Y-37611933D02*
X151860232Y-37516695D01*
X151860232Y-37516695D02*
X151812613Y-37421457D01*
X151812613Y-37421457D02*
X151764994Y-37373838D01*
X151764994Y-37373838D02*
X151669756Y-37326219D01*
X151669756Y-37326219D02*
X151431661Y-37326219D01*
X151431661Y-37326219D02*
X151288804Y-37373838D01*
X150955470Y-37326219D02*
X150717375Y-38326219D01*
X150717375Y-38326219D02*
X150526899Y-37611933D01*
X150526899Y-37611933D02*
X150336423Y-38326219D01*
X150336423Y-38326219D02*
X150098328Y-37326219D01*
X149193566Y-38326219D02*
X149764994Y-38326219D01*
X149479280Y-38326219D02*
X149479280Y-37326219D01*
X149479280Y-37326219D02*
X149574518Y-37469076D01*
X149574518Y-37469076D02*
X149669756Y-37564314D01*
X149669756Y-37564314D02*
X149764994Y-37611933D01*
D11*
X124823100Y-52525000D02*
X124823100Y-56875000D01*
X124823100Y-52525000D02*
X129043100Y-52525000D01*
X124823100Y-56875000D02*
X129043100Y-56875000D01*
X129043100Y-52525000D02*
X131243100Y-53575000D01*
X129043100Y-56875000D02*
X131243100Y-57925000D01*
X131243100Y-57700000D02*
X131243100Y-57925000D01*
X132043100Y-57700000D02*
X131243100Y-57700000D01*
X132043100Y-57925000D02*
X132043100Y-57700000D01*
X136663100Y-53575000D02*
X131243100Y-53575000D01*
X136663100Y-53575000D02*
X136663100Y-57925000D01*
X136663100Y-57925000D02*
X132043100Y-57925000D01*
X105823100Y-50125000D02*
X105823100Y-54475000D01*
X105823100Y-50125000D02*
X110043100Y-50125000D01*
X105823100Y-54475000D02*
X110043100Y-54475000D01*
X110043100Y-50125000D02*
X112243100Y-51175000D01*
X110043100Y-54475000D02*
X112243100Y-55525000D01*
X112243100Y-55300000D02*
X112243100Y-55525000D01*
X113043100Y-55300000D02*
X112243100Y-55300000D01*
X113043100Y-55525000D02*
X113043100Y-55300000D01*
X117663100Y-51175000D02*
X112243100Y-51175000D01*
X117663100Y-51175000D02*
X117663100Y-55525000D01*
X117663100Y-55525000D02*
X113043100Y-55525000D01*
X86723100Y-48735000D02*
X86723100Y-53085000D01*
X86723100Y-48735000D02*
X90943100Y-48735000D01*
X86723100Y-53085000D02*
X90943100Y-53085000D01*
X90943100Y-48735000D02*
X93143100Y-49785000D01*
X90943100Y-53085000D02*
X93143100Y-54135000D01*
X93143100Y-53910000D02*
X93143100Y-54135000D01*
X93943100Y-53910000D02*
X93143100Y-53910000D01*
X93943100Y-54135000D02*
X93943100Y-53910000D01*
X98563100Y-49785000D02*
X93143100Y-49785000D01*
X98563100Y-49785000D02*
X98563100Y-54135000D01*
X98563100Y-54135000D02*
X93943100Y-54135000D01*
X67723100Y-50125000D02*
X67723100Y-54475000D01*
X67723100Y-50125000D02*
X71943100Y-50125000D01*
X67723100Y-54475000D02*
X71943100Y-54475000D01*
X71943100Y-50125000D02*
X74143100Y-51175000D01*
X71943100Y-54475000D02*
X74143100Y-55525000D01*
X74143100Y-55300000D02*
X74143100Y-55525000D01*
X74943100Y-55300000D02*
X74143100Y-55300000D01*
X74943100Y-55525000D02*
X74943100Y-55300000D01*
X79563100Y-51175000D02*
X74143100Y-51175000D01*
X79563100Y-51175000D02*
X79563100Y-55525000D01*
X79563100Y-55525000D02*
X74943100Y-55525000D01*
X48623100Y-54925000D02*
X48623100Y-59275000D01*
X48623100Y-54925000D02*
X52843100Y-54925000D01*
X48623100Y-59275000D02*
X52843100Y-59275000D01*
X52843100Y-54925000D02*
X55043100Y-55975000D01*
X52843100Y-59275000D02*
X55043100Y-60325000D01*
X55043100Y-60100000D02*
X55043100Y-60325000D01*
X55843100Y-60100000D02*
X55043100Y-60100000D01*
X55843100Y-60325000D02*
X55843100Y-60100000D01*
X60463100Y-55975000D02*
X55043100Y-55975000D01*
X60463100Y-55975000D02*
X60463100Y-60325000D01*
X60463100Y-60325000D02*
X55843100Y-60325000D01*
X29623100Y-56425000D02*
X29623100Y-60775000D01*
X29623100Y-56425000D02*
X33843100Y-56425000D01*
X29623100Y-60775000D02*
X33843100Y-60775000D01*
X33843100Y-56425000D02*
X36043100Y-57475000D01*
X33843100Y-60775000D02*
X36043100Y-61825000D01*
X36043100Y-61600000D02*
X36043100Y-61825000D01*
X36843100Y-61600000D02*
X36043100Y-61600000D01*
X36843100Y-61825000D02*
X36843100Y-61600000D01*
X41463100Y-57475000D02*
X36043100Y-57475000D01*
X41463100Y-57475000D02*
X41463100Y-61825000D01*
X41463100Y-61825000D02*
X36843100Y-61825000D01*
X124823100Y-71625000D02*
X124823100Y-75975000D01*
X124823100Y-71625000D02*
X129043100Y-71625000D01*
X124823100Y-75975000D02*
X129043100Y-75975000D01*
X129043100Y-71625000D02*
X131243100Y-72675000D01*
X129043100Y-75975000D02*
X131243100Y-77025000D01*
X131243100Y-76800000D02*
X131243100Y-77025000D01*
X132043100Y-76800000D02*
X131243100Y-76800000D01*
X132043100Y-77025000D02*
X132043100Y-76800000D01*
X136663100Y-72675000D02*
X131243100Y-72675000D01*
X136663100Y-72675000D02*
X136663100Y-77025000D01*
X136663100Y-77025000D02*
X132043100Y-77025000D01*
X105823100Y-69225000D02*
X105823100Y-73575000D01*
X105823100Y-69225000D02*
X110043100Y-69225000D01*
X105823100Y-73575000D02*
X110043100Y-73575000D01*
X110043100Y-69225000D02*
X112243100Y-70275000D01*
X110043100Y-73575000D02*
X112243100Y-74625000D01*
X112243100Y-74400000D02*
X112243100Y-74625000D01*
X113043100Y-74400000D02*
X112243100Y-74400000D01*
X113043100Y-74625000D02*
X113043100Y-74400000D01*
X117663100Y-70275000D02*
X112243100Y-70275000D01*
X117663100Y-70275000D02*
X117663100Y-74625000D01*
X117663100Y-74625000D02*
X113043100Y-74625000D01*
X86723100Y-67825000D02*
X86723100Y-72175000D01*
X86723100Y-67825000D02*
X90943100Y-67825000D01*
X86723100Y-72175000D02*
X90943100Y-72175000D01*
X90943100Y-67825000D02*
X93143100Y-68875000D01*
X90943100Y-72175000D02*
X93143100Y-73225000D01*
X93143100Y-73000000D02*
X93143100Y-73225000D01*
X93943100Y-73000000D02*
X93143100Y-73000000D01*
X93943100Y-73225000D02*
X93943100Y-73000000D01*
X98563100Y-68875000D02*
X93143100Y-68875000D01*
X98563100Y-68875000D02*
X98563100Y-73225000D01*
X98563100Y-73225000D02*
X93943100Y-73225000D01*
X67723100Y-69125000D02*
X67723100Y-73475000D01*
X67723100Y-69125000D02*
X71943100Y-69125000D01*
X67723100Y-73475000D02*
X71943100Y-73475000D01*
X71943100Y-69125000D02*
X74143100Y-70175000D01*
X71943100Y-73475000D02*
X74143100Y-74525000D01*
X74143100Y-74300000D02*
X74143100Y-74525000D01*
X74943100Y-74300000D02*
X74143100Y-74300000D01*
X74943100Y-74525000D02*
X74943100Y-74300000D01*
X79563100Y-70175000D02*
X74143100Y-70175000D01*
X79563100Y-70175000D02*
X79563100Y-74525000D01*
X79563100Y-74525000D02*
X74943100Y-74525000D01*
X48623100Y-73825000D02*
X48623100Y-78175000D01*
X48623100Y-73825000D02*
X52843100Y-73825000D01*
X48623100Y-78175000D02*
X52843100Y-78175000D01*
X52843100Y-73825000D02*
X55043100Y-74875000D01*
X52843100Y-78175000D02*
X55043100Y-79225000D01*
X55043100Y-79000000D02*
X55043100Y-79225000D01*
X55843100Y-79000000D02*
X55043100Y-79000000D01*
X55843100Y-79225000D02*
X55843100Y-79000000D01*
X60463100Y-74875000D02*
X55043100Y-74875000D01*
X60463100Y-74875000D02*
X60463100Y-79225000D01*
X60463100Y-79225000D02*
X55843100Y-79225000D01*
X29623100Y-75325000D02*
X29623100Y-79675000D01*
X29623100Y-75325000D02*
X33843100Y-75325000D01*
X29623100Y-79675000D02*
X33843100Y-79675000D01*
X33843100Y-75325000D02*
X36043100Y-76375000D01*
X33843100Y-79675000D02*
X36043100Y-80725000D01*
X36043100Y-80500000D02*
X36043100Y-80725000D01*
X36843100Y-80500000D02*
X36043100Y-80500000D01*
X36843100Y-80725000D02*
X36843100Y-80500000D01*
X41463100Y-76375000D02*
X36043100Y-76375000D01*
X41463100Y-76375000D02*
X41463100Y-80725000D01*
X41463100Y-80725000D02*
X36843100Y-80725000D01*
X124823100Y-90625000D02*
X124823100Y-94975000D01*
X124823100Y-90625000D02*
X129043100Y-90625000D01*
X124823100Y-94975000D02*
X129043100Y-94975000D01*
X129043100Y-90625000D02*
X131243100Y-91675000D01*
X129043100Y-94975000D02*
X131243100Y-96025000D01*
X131243100Y-95800000D02*
X131243100Y-96025000D01*
X132043100Y-95800000D02*
X131243100Y-95800000D01*
X132043100Y-96025000D02*
X132043100Y-95800000D01*
X136663100Y-91675000D02*
X131243100Y-91675000D01*
X136663100Y-91675000D02*
X136663100Y-96025000D01*
X136663100Y-96025000D02*
X132043100Y-96025000D01*
X105823100Y-88225000D02*
X105823100Y-92575000D01*
X105823100Y-88225000D02*
X110043100Y-88225000D01*
X105823100Y-92575000D02*
X110043100Y-92575000D01*
X110043100Y-88225000D02*
X112243100Y-89275000D01*
X110043100Y-92575000D02*
X112243100Y-93625000D01*
X112243100Y-93400000D02*
X112243100Y-93625000D01*
X113043100Y-93400000D02*
X112243100Y-93400000D01*
X113043100Y-93625000D02*
X113043100Y-93400000D01*
X117663100Y-89275000D02*
X112243100Y-89275000D01*
X117663100Y-89275000D02*
X117663100Y-93625000D01*
X117663100Y-93625000D02*
X113043100Y-93625000D01*
X86723100Y-86925000D02*
X86723100Y-91275000D01*
X86723100Y-86925000D02*
X90943100Y-86925000D01*
X86723100Y-91275000D02*
X90943100Y-91275000D01*
X90943100Y-86925000D02*
X93143100Y-87975000D01*
X90943100Y-91275000D02*
X93143100Y-92325000D01*
X93143100Y-92100000D02*
X93143100Y-92325000D01*
X93943100Y-92100000D02*
X93143100Y-92100000D01*
X93943100Y-92325000D02*
X93943100Y-92100000D01*
X98563100Y-87975000D02*
X93143100Y-87975000D01*
X98563100Y-87975000D02*
X98563100Y-92325000D01*
X98563100Y-92325000D02*
X93943100Y-92325000D01*
X67723100Y-88225000D02*
X67723100Y-92575000D01*
X67723100Y-88225000D02*
X71943100Y-88225000D01*
X67723100Y-92575000D02*
X71943100Y-92575000D01*
X71943100Y-88225000D02*
X74143100Y-89275000D01*
X71943100Y-92575000D02*
X74143100Y-93625000D01*
X74143100Y-93400000D02*
X74143100Y-93625000D01*
X74943100Y-93400000D02*
X74143100Y-93400000D01*
X74943100Y-93625000D02*
X74943100Y-93400000D01*
X79563100Y-89275000D02*
X74143100Y-89275000D01*
X79563100Y-89275000D02*
X79563100Y-93625000D01*
X79563100Y-93625000D02*
X74943100Y-93625000D01*
X48623100Y-93025000D02*
X48623100Y-97375000D01*
X48623100Y-93025000D02*
X52843100Y-93025000D01*
X48623100Y-97375000D02*
X52843100Y-97375000D01*
X52843100Y-93025000D02*
X55043100Y-94075000D01*
X52843100Y-97375000D02*
X55043100Y-98425000D01*
X55043100Y-98200000D02*
X55043100Y-98425000D01*
X55843100Y-98200000D02*
X55043100Y-98200000D01*
X55843100Y-98425000D02*
X55843100Y-98200000D01*
X60463100Y-94075000D02*
X55043100Y-94075000D01*
X60463100Y-94075000D02*
X60463100Y-98425000D01*
X60463100Y-98425000D02*
X55843100Y-98425000D01*
X29623100Y-94525000D02*
X29623100Y-98875000D01*
X29623100Y-94525000D02*
X33843100Y-94525000D01*
X29623100Y-98875000D02*
X33843100Y-98875000D01*
X33843100Y-94525000D02*
X36043100Y-95575000D01*
X33843100Y-98875000D02*
X36043100Y-99925000D01*
X36043100Y-99700000D02*
X36043100Y-99925000D01*
X36843100Y-99700000D02*
X36043100Y-99700000D01*
X36843100Y-99925000D02*
X36843100Y-99700000D01*
X41463100Y-95575000D02*
X36043100Y-95575000D01*
X41463100Y-95575000D02*
X41463100Y-99925000D01*
X41463100Y-99925000D02*
X36843100Y-99925000D01*
X124823100Y-109625000D02*
X124823100Y-113975000D01*
X124823100Y-109625000D02*
X129043100Y-109625000D01*
X124823100Y-113975000D02*
X129043100Y-113975000D01*
X129043100Y-109625000D02*
X131243100Y-110675000D01*
X129043100Y-113975000D02*
X131243100Y-115025000D01*
X131243100Y-114800000D02*
X131243100Y-115025000D01*
X132043100Y-114800000D02*
X131243100Y-114800000D01*
X132043100Y-115025000D02*
X132043100Y-114800000D01*
X136663100Y-110675000D02*
X131243100Y-110675000D01*
X136663100Y-110675000D02*
X136663100Y-115025000D01*
X136663100Y-115025000D02*
X132043100Y-115025000D01*
X105823100Y-107325000D02*
X105823100Y-111675000D01*
X105823100Y-107325000D02*
X110043100Y-107325000D01*
X105823100Y-111675000D02*
X110043100Y-111675000D01*
X110043100Y-107325000D02*
X112243100Y-108375000D01*
X110043100Y-111675000D02*
X112243100Y-112725000D01*
X112243100Y-112500000D02*
X112243100Y-112725000D01*
X113043100Y-112500000D02*
X112243100Y-112500000D01*
X113043100Y-112725000D02*
X113043100Y-112500000D01*
X117663100Y-108375000D02*
X112243100Y-108375000D01*
X117663100Y-108375000D02*
X117663100Y-112725000D01*
X117663100Y-112725000D02*
X113043100Y-112725000D01*
X86723100Y-105925000D02*
X86723100Y-110275000D01*
X86723100Y-105925000D02*
X90943100Y-105925000D01*
X86723100Y-110275000D02*
X90943100Y-110275000D01*
X90943100Y-105925000D02*
X93143100Y-106975000D01*
X90943100Y-110275000D02*
X93143100Y-111325000D01*
X93143100Y-111100000D02*
X93143100Y-111325000D01*
X93943100Y-111100000D02*
X93143100Y-111100000D01*
X93943100Y-111325000D02*
X93943100Y-111100000D01*
X98563100Y-106975000D02*
X93143100Y-106975000D01*
X98563100Y-106975000D02*
X98563100Y-111325000D01*
X98563100Y-111325000D02*
X93943100Y-111325000D01*
X67723100Y-107325000D02*
X67723100Y-111675000D01*
X67723100Y-107325000D02*
X71943100Y-107325000D01*
X67723100Y-111675000D02*
X71943100Y-111675000D01*
X71943100Y-107325000D02*
X74143100Y-108375000D01*
X71943100Y-111675000D02*
X74143100Y-112725000D01*
X74143100Y-112500000D02*
X74143100Y-112725000D01*
X74943100Y-112500000D02*
X74143100Y-112500000D01*
X74943100Y-112725000D02*
X74943100Y-112500000D01*
X79563100Y-108375000D02*
X74143100Y-108375000D01*
X79563100Y-108375000D02*
X79563100Y-112725000D01*
X79563100Y-112725000D02*
X74943100Y-112725000D01*
X48623100Y-112025000D02*
X48623100Y-116375000D01*
X48623100Y-112025000D02*
X52843100Y-112025000D01*
X48623100Y-116375000D02*
X52843100Y-116375000D01*
X52843100Y-112025000D02*
X55043100Y-113075000D01*
X52843100Y-116375000D02*
X55043100Y-117425000D01*
X55043100Y-117200000D02*
X55043100Y-117425000D01*
X55843100Y-117200000D02*
X55043100Y-117200000D01*
X55843100Y-117425000D02*
X55843100Y-117200000D01*
X60463100Y-113075000D02*
X55043100Y-113075000D01*
X60463100Y-113075000D02*
X60463100Y-117425000D01*
X60463100Y-117425000D02*
X55843100Y-117425000D01*
X29573100Y-113525000D02*
X29573100Y-117875000D01*
X29573100Y-113525000D02*
X33793100Y-113525000D01*
X29573100Y-117875000D02*
X33793100Y-117875000D01*
X33793100Y-113525000D02*
X35993100Y-114575000D01*
X33793100Y-117875000D02*
X35993100Y-118925000D01*
X35993100Y-118700000D02*
X35993100Y-118925000D01*
X36793100Y-118700000D02*
X35993100Y-118700000D01*
X36793100Y-118925000D02*
X36793100Y-118700000D01*
X41413100Y-114575000D02*
X35993100Y-114575000D01*
X41413100Y-114575000D02*
X41413100Y-118925000D01*
X41413100Y-118925000D02*
X36793100Y-118925000D01*
X143923100Y-100025000D02*
X143923100Y-104375000D01*
X143923100Y-100025000D02*
X148143100Y-100025000D01*
X143923100Y-104375000D02*
X148143100Y-104375000D01*
X148143100Y-100025000D02*
X150343100Y-101075000D01*
X148143100Y-104375000D02*
X150343100Y-105425000D01*
X150343100Y-105200000D02*
X150343100Y-105425000D01*
X151143100Y-105200000D02*
X150343100Y-105200000D01*
X151143100Y-105425000D02*
X151143100Y-105200000D01*
X155763100Y-101075000D02*
X150343100Y-101075000D01*
X155763100Y-101075000D02*
X155763100Y-105425000D01*
X155763100Y-105425000D02*
X151143100Y-105425000D01*
X145917314Y-134164463D02*
X149684525Y-136339463D01*
X145917314Y-134164463D02*
X148027314Y-130509836D01*
X149684525Y-136339463D02*
X151794525Y-132684836D01*
X148027314Y-130509836D02*
X150036641Y-129129580D01*
X151794525Y-132684836D02*
X153803851Y-131304580D01*
X153608996Y-131192080D02*
X153803851Y-131304580D01*
X154008996Y-130499260D02*
X153608996Y-131192080D01*
X154203851Y-130611760D02*
X154008996Y-130499260D01*
X152746641Y-124435722D02*
X150036641Y-129129580D01*
X152746641Y-124435722D02*
X156513851Y-126610722D01*
X156513851Y-126610722D02*
X154203851Y-130611760D01*
X115323100Y-128525000D02*
X115323100Y-132875000D01*
X115323100Y-128525000D02*
X119543100Y-128525000D01*
X115323100Y-132875000D02*
X119543100Y-132875000D01*
X119543100Y-128525000D02*
X121743100Y-129575000D01*
X119543100Y-132875000D02*
X121743100Y-133925000D01*
X121743100Y-133700000D02*
X121743100Y-133925000D01*
X122543100Y-133700000D02*
X121743100Y-133700000D01*
X122543100Y-133925000D02*
X122543100Y-133700000D01*
X127163100Y-129575000D02*
X121743100Y-129575000D01*
X127163100Y-129575000D02*
X127163100Y-133925000D01*
X127163100Y-133925000D02*
X122543100Y-133925000D01*
X96323100Y-126275000D02*
X96323100Y-130625000D01*
X96323100Y-126275000D02*
X100543100Y-126275000D01*
X96323100Y-130625000D02*
X100543100Y-130625000D01*
X100543100Y-126275000D02*
X102743100Y-127325000D01*
X100543100Y-130625000D02*
X102743100Y-131675000D01*
X102743100Y-131450000D02*
X102743100Y-131675000D01*
X103543100Y-131450000D02*
X102743100Y-131450000D01*
X103543100Y-131675000D02*
X103543100Y-131450000D01*
X108163100Y-127325000D02*
X102743100Y-127325000D01*
X108163100Y-127325000D02*
X108163100Y-131675000D01*
X108163100Y-131675000D02*
X103543100Y-131675000D01*
X77223100Y-126275000D02*
X77223100Y-130625000D01*
X77223100Y-126275000D02*
X81443100Y-126275000D01*
X77223100Y-130625000D02*
X81443100Y-130625000D01*
X81443100Y-126275000D02*
X83643100Y-127325000D01*
X81443100Y-130625000D02*
X83643100Y-131675000D01*
X83643100Y-131450000D02*
X83643100Y-131675000D01*
X84443100Y-131450000D02*
X83643100Y-131450000D01*
X84443100Y-131675000D02*
X84443100Y-131450000D01*
X89063100Y-127325000D02*
X83643100Y-127325000D01*
X89063100Y-127325000D02*
X89063100Y-131675000D01*
X89063100Y-131675000D02*
X84443100Y-131675000D01*
D10*
X138388100Y-47300000D02*
X138388100Y-52700000D01*
X136888100Y-47300000D02*
X138388100Y-47300000D01*
X137138100Y-49500000D02*
X138138100Y-49500000D01*
X137638100Y-49600000D02*
X137138100Y-50500000D01*
X138138100Y-50500000D02*
X137638100Y-49600000D01*
X137138100Y-50500000D02*
X138138100Y-50500000D01*
X136888100Y-52700000D02*
X136888100Y-47300000D01*
X136888100Y-52700000D02*
X138388100Y-52700000D01*
X119388100Y-44900000D02*
X119388100Y-50300000D01*
X117888100Y-44900000D02*
X119388100Y-44900000D01*
X118138100Y-47100000D02*
X119138100Y-47100000D01*
X118638100Y-47200000D02*
X118138100Y-48100000D01*
X119138100Y-48100000D02*
X118638100Y-47200000D01*
X118138100Y-48100000D02*
X119138100Y-48100000D01*
X117888100Y-50300000D02*
X117888100Y-44900000D01*
X117888100Y-50300000D02*
X119388100Y-50300000D01*
X100288100Y-43510000D02*
X100288100Y-48910000D01*
X98788100Y-43510000D02*
X100288100Y-43510000D01*
X99038100Y-45710000D02*
X100038100Y-45710000D01*
X99538100Y-45810000D02*
X99038100Y-46710000D01*
X100038100Y-46710000D02*
X99538100Y-45810000D01*
X99038100Y-46710000D02*
X100038100Y-46710000D01*
X98788100Y-48910000D02*
X98788100Y-43510000D01*
X98788100Y-48910000D02*
X100288100Y-48910000D01*
X81288100Y-44900000D02*
X81288100Y-50300000D01*
X79788100Y-44900000D02*
X81288100Y-44900000D01*
X80038100Y-47100000D02*
X81038100Y-47100000D01*
X80538100Y-47200000D02*
X80038100Y-48100000D01*
X81038100Y-48100000D02*
X80538100Y-47200000D01*
X80038100Y-48100000D02*
X81038100Y-48100000D01*
X79788100Y-50300000D02*
X79788100Y-44900000D01*
X79788100Y-50300000D02*
X81288100Y-50300000D01*
X62188100Y-49700000D02*
X62188100Y-55100000D01*
X60688100Y-49700000D02*
X62188100Y-49700000D01*
X60938100Y-51900000D02*
X61938100Y-51900000D01*
X61438100Y-52000000D02*
X60938100Y-52900000D01*
X61938100Y-52900000D02*
X61438100Y-52000000D01*
X60938100Y-52900000D02*
X61938100Y-52900000D01*
X60688100Y-55100000D02*
X60688100Y-49700000D01*
X60688100Y-55100000D02*
X62188100Y-55100000D01*
X43188100Y-51200000D02*
X43188100Y-56600000D01*
X41688100Y-51200000D02*
X43188100Y-51200000D01*
X41938100Y-53400000D02*
X42938100Y-53400000D01*
X42438100Y-53500000D02*
X41938100Y-54400000D01*
X42938100Y-54400000D02*
X42438100Y-53500000D01*
X41938100Y-54400000D02*
X42938100Y-54400000D01*
X41688100Y-56600000D02*
X41688100Y-51200000D01*
X41688100Y-56600000D02*
X43188100Y-56600000D01*
X138388100Y-66400000D02*
X138388100Y-71800000D01*
X136888100Y-66400000D02*
X138388100Y-66400000D01*
X137138100Y-68600000D02*
X138138100Y-68600000D01*
X137638100Y-68700000D02*
X137138100Y-69600000D01*
X138138100Y-69600000D02*
X137638100Y-68700000D01*
X137138100Y-69600000D02*
X138138100Y-69600000D01*
X136888100Y-71800000D02*
X136888100Y-66400000D01*
X136888100Y-71800000D02*
X138388100Y-71800000D01*
X119388100Y-64000000D02*
X119388100Y-69400000D01*
X117888100Y-64000000D02*
X119388100Y-64000000D01*
X118138100Y-66200000D02*
X119138100Y-66200000D01*
X118638100Y-66300000D02*
X118138100Y-67200000D01*
X119138100Y-67200000D02*
X118638100Y-66300000D01*
X118138100Y-67200000D02*
X119138100Y-67200000D01*
X117888100Y-69400000D02*
X117888100Y-64000000D01*
X117888100Y-69400000D02*
X119388100Y-69400000D01*
X100288100Y-62600000D02*
X100288100Y-68000000D01*
X98788100Y-62600000D02*
X100288100Y-62600000D01*
X99038100Y-64800000D02*
X100038100Y-64800000D01*
X99538100Y-64900000D02*
X99038100Y-65800000D01*
X100038100Y-65800000D02*
X99538100Y-64900000D01*
X99038100Y-65800000D02*
X100038100Y-65800000D01*
X98788100Y-68000000D02*
X98788100Y-62600000D01*
X98788100Y-68000000D02*
X100288100Y-68000000D01*
X81288100Y-63900000D02*
X81288100Y-69300000D01*
X79788100Y-63900000D02*
X81288100Y-63900000D01*
X80038100Y-66100000D02*
X81038100Y-66100000D01*
X80538100Y-66200000D02*
X80038100Y-67100000D01*
X81038100Y-67100000D02*
X80538100Y-66200000D01*
X80038100Y-67100000D02*
X81038100Y-67100000D01*
X79788100Y-69300000D02*
X79788100Y-63900000D01*
X79788100Y-69300000D02*
X81288100Y-69300000D01*
X62188100Y-68600000D02*
X62188100Y-74000000D01*
X60688100Y-68600000D02*
X62188100Y-68600000D01*
X60938100Y-70800000D02*
X61938100Y-70800000D01*
X61438100Y-70900000D02*
X60938100Y-71800000D01*
X61938100Y-71800000D02*
X61438100Y-70900000D01*
X60938100Y-71800000D02*
X61938100Y-71800000D01*
X60688100Y-74000000D02*
X60688100Y-68600000D01*
X60688100Y-74000000D02*
X62188100Y-74000000D01*
X43188100Y-70100000D02*
X43188100Y-75500000D01*
X41688100Y-70100000D02*
X43188100Y-70100000D01*
X41938100Y-72300000D02*
X42938100Y-72300000D01*
X42438100Y-72400000D02*
X41938100Y-73300000D01*
X42938100Y-73300000D02*
X42438100Y-72400000D01*
X41938100Y-73300000D02*
X42938100Y-73300000D01*
X41688100Y-75500000D02*
X41688100Y-70100000D01*
X41688100Y-75500000D02*
X43188100Y-75500000D01*
X138388100Y-85400000D02*
X138388100Y-90800000D01*
X136888100Y-85400000D02*
X138388100Y-85400000D01*
X137138100Y-87600000D02*
X138138100Y-87600000D01*
X137638100Y-87700000D02*
X137138100Y-88600000D01*
X138138100Y-88600000D02*
X137638100Y-87700000D01*
X137138100Y-88600000D02*
X138138100Y-88600000D01*
X136888100Y-90800000D02*
X136888100Y-85400000D01*
X136888100Y-90800000D02*
X138388100Y-90800000D01*
X119388100Y-83000000D02*
X119388100Y-88400000D01*
X117888100Y-83000000D02*
X119388100Y-83000000D01*
X118138100Y-85200000D02*
X119138100Y-85200000D01*
X118638100Y-85300000D02*
X118138100Y-86200000D01*
X119138100Y-86200000D02*
X118638100Y-85300000D01*
X118138100Y-86200000D02*
X119138100Y-86200000D01*
X117888100Y-88400000D02*
X117888100Y-83000000D01*
X117888100Y-88400000D02*
X119388100Y-88400000D01*
X100288100Y-81700000D02*
X100288100Y-87100000D01*
X98788100Y-81700000D02*
X100288100Y-81700000D01*
X99038100Y-83900000D02*
X100038100Y-83900000D01*
X99538100Y-84000000D02*
X99038100Y-84900000D01*
X100038100Y-84900000D02*
X99538100Y-84000000D01*
X99038100Y-84900000D02*
X100038100Y-84900000D01*
X98788100Y-87100000D02*
X98788100Y-81700000D01*
X98788100Y-87100000D02*
X100288100Y-87100000D01*
X81288100Y-83000000D02*
X81288100Y-88400000D01*
X79788100Y-83000000D02*
X81288100Y-83000000D01*
X80038100Y-85200000D02*
X81038100Y-85200000D01*
X80538100Y-85300000D02*
X80038100Y-86200000D01*
X81038100Y-86200000D02*
X80538100Y-85300000D01*
X80038100Y-86200000D02*
X81038100Y-86200000D01*
X79788100Y-88400000D02*
X79788100Y-83000000D01*
X79788100Y-88400000D02*
X81288100Y-88400000D01*
X62188100Y-87800000D02*
X62188100Y-93200000D01*
X60688100Y-87800000D02*
X62188100Y-87800000D01*
X60938100Y-90000000D02*
X61938100Y-90000000D01*
X61438100Y-90100000D02*
X60938100Y-91000000D01*
X61938100Y-91000000D02*
X61438100Y-90100000D01*
X60938100Y-91000000D02*
X61938100Y-91000000D01*
X60688100Y-93200000D02*
X60688100Y-87800000D01*
X60688100Y-93200000D02*
X62188100Y-93200000D01*
X43188100Y-89300000D02*
X43188100Y-94700000D01*
X41688100Y-89300000D02*
X43188100Y-89300000D01*
X41938100Y-91500000D02*
X42938100Y-91500000D01*
X42438100Y-91600000D02*
X41938100Y-92500000D01*
X42938100Y-92500000D02*
X42438100Y-91600000D01*
X41938100Y-92500000D02*
X42938100Y-92500000D01*
X41688100Y-94700000D02*
X41688100Y-89300000D01*
X41688100Y-94700000D02*
X43188100Y-94700000D01*
X138388100Y-104400000D02*
X138388100Y-109800000D01*
X136888100Y-104400000D02*
X138388100Y-104400000D01*
X137138100Y-106600000D02*
X138138100Y-106600000D01*
X137638100Y-106700000D02*
X137138100Y-107600000D01*
X138138100Y-107600000D02*
X137638100Y-106700000D01*
X137138100Y-107600000D02*
X138138100Y-107600000D01*
X136888100Y-109800000D02*
X136888100Y-104400000D01*
X136888100Y-109800000D02*
X138388100Y-109800000D01*
X119388100Y-102100000D02*
X119388100Y-107500000D01*
X117888100Y-102100000D02*
X119388100Y-102100000D01*
X118138100Y-104300000D02*
X119138100Y-104300000D01*
X118638100Y-104400000D02*
X118138100Y-105300000D01*
X119138100Y-105300000D02*
X118638100Y-104400000D01*
X118138100Y-105300000D02*
X119138100Y-105300000D01*
X117888100Y-107500000D02*
X117888100Y-102100000D01*
X117888100Y-107500000D02*
X119388100Y-107500000D01*
X100288100Y-100700000D02*
X100288100Y-106100000D01*
X98788100Y-100700000D02*
X100288100Y-100700000D01*
X99038100Y-102900000D02*
X100038100Y-102900000D01*
X99538100Y-103000000D02*
X99038100Y-103900000D01*
X100038100Y-103900000D02*
X99538100Y-103000000D01*
X99038100Y-103900000D02*
X100038100Y-103900000D01*
X98788100Y-106100000D02*
X98788100Y-100700000D01*
X98788100Y-106100000D02*
X100288100Y-106100000D01*
X81288100Y-102100000D02*
X81288100Y-107500000D01*
X79788100Y-102100000D02*
X81288100Y-102100000D01*
X80038100Y-104300000D02*
X81038100Y-104300000D01*
X80538100Y-104400000D02*
X80038100Y-105300000D01*
X81038100Y-105300000D02*
X80538100Y-104400000D01*
X80038100Y-105300000D02*
X81038100Y-105300000D01*
X79788100Y-107500000D02*
X79788100Y-102100000D01*
X79788100Y-107500000D02*
X81288100Y-107500000D01*
X62188100Y-106800000D02*
X62188100Y-112200000D01*
X60688100Y-106800000D02*
X62188100Y-106800000D01*
X60938100Y-109000000D02*
X61938100Y-109000000D01*
X61438100Y-109100000D02*
X60938100Y-110000000D01*
X61938100Y-110000000D02*
X61438100Y-109100000D01*
X60938100Y-110000000D02*
X61938100Y-110000000D01*
X60688100Y-112200000D02*
X60688100Y-106800000D01*
X60688100Y-112200000D02*
X62188100Y-112200000D01*
X43138100Y-108300000D02*
X43138100Y-113700000D01*
X41638100Y-108300000D02*
X43138100Y-108300000D01*
X41888100Y-110500000D02*
X42888100Y-110500000D01*
X42388100Y-110600000D02*
X41888100Y-111500000D01*
X42888100Y-111500000D02*
X42388100Y-110600000D01*
X41888100Y-111500000D02*
X42888100Y-111500000D01*
X41638100Y-113700000D02*
X41638100Y-108300000D01*
X41638100Y-113700000D02*
X43138100Y-113700000D01*
X157488100Y-94800000D02*
X157488100Y-100200000D01*
X155988100Y-94800000D02*
X157488100Y-94800000D01*
X156238100Y-97000000D02*
X157238100Y-97000000D01*
X156738100Y-97100000D02*
X156238100Y-98000000D01*
X157238100Y-98000000D02*
X156738100Y-97100000D01*
X156238100Y-98000000D02*
X157238100Y-98000000D01*
X155988100Y-100200000D02*
X155988100Y-94800000D01*
X155988100Y-100200000D02*
X157488100Y-100200000D01*
X156502800Y-115765600D02*
X156502800Y-121165600D01*
X155002800Y-115765600D02*
X156502800Y-115765600D01*
X155252800Y-117965600D02*
X156252800Y-117965600D01*
X155752800Y-118065600D02*
X155252800Y-118965600D01*
X156252800Y-118965600D02*
X155752800Y-118065600D01*
X155252800Y-118965600D02*
X156252800Y-118965600D01*
X155002800Y-121165600D02*
X155002800Y-115765600D01*
X155002800Y-121165600D02*
X156502800Y-121165600D01*
X128888100Y-123300000D02*
X128888100Y-128700000D01*
X127388100Y-123300000D02*
X128888100Y-123300000D01*
X127638100Y-125500000D02*
X128638100Y-125500000D01*
X128138100Y-125600000D02*
X127638100Y-126500000D01*
X128638100Y-126500000D02*
X128138100Y-125600000D01*
X127638100Y-126500000D02*
X128638100Y-126500000D01*
X127388100Y-128700000D02*
X127388100Y-123300000D01*
X127388100Y-128700000D02*
X128888100Y-128700000D01*
X109888100Y-121050000D02*
X109888100Y-126450000D01*
X108388100Y-121050000D02*
X109888100Y-121050000D01*
X108638100Y-123250000D02*
X109638100Y-123250000D01*
X109138100Y-123350000D02*
X108638100Y-124250000D01*
X109638100Y-124250000D02*
X109138100Y-123350000D01*
X108638100Y-124250000D02*
X109638100Y-124250000D01*
X108388100Y-126450000D02*
X108388100Y-121050000D01*
X108388100Y-126450000D02*
X109888100Y-126450000D01*
X90788100Y-121050000D02*
X90788100Y-126450000D01*
X89288100Y-121050000D02*
X90788100Y-121050000D01*
X89538100Y-123250000D02*
X90538100Y-123250000D01*
X90038100Y-123350000D02*
X89538100Y-124250000D01*
X90538100Y-124250000D02*
X90038100Y-123350000D01*
X89538100Y-124250000D02*
X90538100Y-124250000D01*
X89288100Y-126450000D02*
X89288100Y-121050000D01*
X89288100Y-126450000D02*
X90788100Y-126450000D01*
D12*
X147688100Y-39153000D02*
X147688100Y-38363000D01*
X148288100Y-37353000D02*
X153988100Y-37353000D01*
X149538100Y-40203000D02*
X151238100Y-40203000D01*
X149738100Y-36063000D02*
X149938100Y-35853000D01*
X149738100Y-37353000D02*
X149738100Y-36063000D01*
X149938100Y-35853000D02*
X150838100Y-35853000D01*
X151038100Y-36063000D02*
X150838100Y-35853000D01*
X151038100Y-36063000D02*
X151038100Y-37353000D01*
X152538100Y-40203000D02*
X152738100Y-40203000D01*
X154588100Y-38363000D02*
X154588100Y-39153000D01*
%LPC*%
D13*
X158749500Y-41522000D03*
X158749500Y-44062000D03*
X158749500Y-46602000D03*
X158749500Y-49142000D03*
X158749500Y-51682000D03*
X158749500Y-54222000D03*
X158749500Y-56762000D03*
X158749500Y-59302000D03*
X158749500Y-61842000D03*
X158749500Y-64382000D03*
X158749500Y-66922000D03*
X158749500Y-69462000D03*
X143529500Y-69462000D03*
X143529500Y-66922000D03*
X143529500Y-64382000D03*
X143529500Y-61842000D03*
X143529500Y-59302000D03*
X143529500Y-56762000D03*
X143529500Y-54222000D03*
X143529500Y-51682000D03*
X143529500Y-49142000D03*
X143529500Y-46602000D03*
X143529500Y-44062000D03*
X143529500Y-41522000D03*
D14*
X166370000Y-46505000D03*
X166370000Y-40005000D03*
D15*
X127238100Y-54700000D03*
D16*
X131638100Y-50000000D03*
D15*
X134238100Y-55750000D03*
D17*
X123563100Y-54700000D03*
X137913100Y-55750000D03*
D15*
X108238100Y-52300000D03*
D16*
X112638100Y-47600000D03*
D15*
X115238100Y-53350000D03*
D17*
X104563100Y-52300000D03*
X118913100Y-53350000D03*
D15*
X89138100Y-50910000D03*
D16*
X93538100Y-46210000D03*
D15*
X96138100Y-51960000D03*
D17*
X85463100Y-50910000D03*
X99813100Y-51960000D03*
D15*
X70138100Y-52300000D03*
D16*
X74538100Y-47600000D03*
D15*
X77138100Y-53350000D03*
D17*
X66463100Y-52300000D03*
X80813100Y-53350000D03*
D15*
X51038100Y-57100000D03*
D16*
X55438100Y-52400000D03*
D15*
X58038100Y-58150000D03*
D17*
X47363100Y-57100000D03*
X61713100Y-58150000D03*
D15*
X32038100Y-58600000D03*
D16*
X36438100Y-53900000D03*
D15*
X39038100Y-59650000D03*
D17*
X28363100Y-58600000D03*
X42713100Y-59650000D03*
D15*
X127238100Y-73800000D03*
D16*
X131638100Y-69100000D03*
D15*
X134238100Y-74850000D03*
D17*
X123563100Y-73800000D03*
X137913100Y-74850000D03*
D15*
X108238100Y-71400000D03*
D16*
X112638100Y-66700000D03*
D15*
X115238100Y-72450000D03*
D17*
X104563100Y-71400000D03*
X118913100Y-72450000D03*
D15*
X89138100Y-70000000D03*
D16*
X93538100Y-65300000D03*
D15*
X96138100Y-71050000D03*
D17*
X85463100Y-70000000D03*
X99813100Y-71050000D03*
D15*
X70138100Y-71300000D03*
D16*
X74538100Y-66600000D03*
D15*
X77138100Y-72350000D03*
D17*
X66463100Y-71300000D03*
X80813100Y-72350000D03*
D15*
X51038100Y-76000000D03*
D16*
X55438100Y-71300000D03*
D15*
X58038100Y-77050000D03*
D17*
X47363100Y-76000000D03*
X61713100Y-77050000D03*
D15*
X32038100Y-77500000D03*
D16*
X36438100Y-72800000D03*
D15*
X39038100Y-78550000D03*
D17*
X28363100Y-77500000D03*
X42713100Y-78550000D03*
D15*
X127238100Y-92800000D03*
D16*
X131638100Y-88100000D03*
D15*
X134238100Y-93850000D03*
D17*
X123563100Y-92800000D03*
X137913100Y-93850000D03*
D15*
X108238100Y-90400000D03*
D16*
X112638100Y-85700000D03*
D15*
X115238100Y-91450000D03*
D17*
X104563100Y-90400000D03*
X118913100Y-91450000D03*
D15*
X89138100Y-89100000D03*
D16*
X93538100Y-84400000D03*
D15*
X96138100Y-90150000D03*
D17*
X85463100Y-89100000D03*
X99813100Y-90150000D03*
D15*
X70138100Y-90400000D03*
D16*
X74538100Y-85700000D03*
D15*
X77138100Y-91450000D03*
D17*
X66463100Y-90400000D03*
X80813100Y-91450000D03*
D15*
X51038100Y-95200000D03*
D16*
X55438100Y-90500000D03*
D15*
X58038100Y-96250000D03*
D17*
X47363100Y-95200000D03*
X61713100Y-96250000D03*
D15*
X32038100Y-96700000D03*
D16*
X36438100Y-92000000D03*
D15*
X39038100Y-97750000D03*
D17*
X28363100Y-96700000D03*
X42713100Y-97750000D03*
D15*
X127238100Y-111800000D03*
D16*
X131638100Y-107100000D03*
D15*
X134238100Y-112850000D03*
D17*
X123563100Y-111800000D03*
X137913100Y-112850000D03*
D15*
X108238100Y-109500000D03*
D16*
X112638100Y-104800000D03*
D15*
X115238100Y-110550000D03*
D17*
X104563100Y-109500000D03*
X118913100Y-110550000D03*
D15*
X89138100Y-108100000D03*
D16*
X93538100Y-103400000D03*
D15*
X96138100Y-109150000D03*
D17*
X85463100Y-108100000D03*
X99813100Y-109150000D03*
D15*
X70138100Y-109500000D03*
D16*
X74538100Y-104800000D03*
D15*
X77138100Y-110550000D03*
D17*
X66463100Y-109500000D03*
X80813100Y-110550000D03*
D15*
X51038100Y-114200000D03*
D16*
X55438100Y-109500000D03*
D15*
X58038100Y-115250000D03*
D17*
X47363100Y-114200000D03*
X61713100Y-115250000D03*
D15*
X31988100Y-115700000D03*
D16*
X36388100Y-111000000D03*
D15*
X38988100Y-116750000D03*
D17*
X28313100Y-115700000D03*
X42663100Y-116750000D03*
D15*
X146338100Y-102200000D03*
D16*
X150738100Y-97500000D03*
D15*
X153338100Y-103250000D03*
D17*
X142663100Y-102200000D03*
X157013100Y-103250000D03*
D15*
X149008419Y-133160512D03*
D16*
X147138100Y-127000000D03*
D15*
X153417746Y-127623334D03*
D18*
X147170919Y-136343155D03*
X155255246Y-124440691D03*
D15*
X117738100Y-130700000D03*
D16*
X122138100Y-126000000D03*
D15*
X124738100Y-131750000D03*
D17*
X114063100Y-130700000D03*
X128413100Y-131750000D03*
D15*
X98738100Y-128450000D03*
D16*
X103138100Y-123750000D03*
D15*
X105738100Y-129500000D03*
D17*
X95063100Y-128450000D03*
X109413100Y-129500000D03*
D15*
X79638100Y-128450000D03*
D16*
X84038100Y-123750000D03*
D15*
X86638100Y-129500000D03*
D17*
X75963100Y-128450000D03*
X90313100Y-129500000D03*
D19*
X150952200Y-75930000D03*
D20*
X150952200Y-73930000D03*
D21*
X122538100Y-59600000D03*
X46338100Y-61800000D03*
X122538100Y-97600000D03*
X46338100Y-100000000D03*
X147138100Y-114800000D03*
D22*
X137638100Y-48225000D03*
X137638100Y-51775000D03*
X118638100Y-45825000D03*
X118638100Y-49375000D03*
X99538100Y-44435000D03*
X99538100Y-47985000D03*
X80538100Y-45825000D03*
X80538100Y-49375000D03*
X61438100Y-50625000D03*
X61438100Y-54175000D03*
X42438100Y-52125000D03*
X42438100Y-55675000D03*
X137638100Y-67325000D03*
X137638100Y-70875000D03*
X118638100Y-64925000D03*
X118638100Y-68475000D03*
X99538100Y-63525000D03*
X99538100Y-67075000D03*
X80538100Y-64825000D03*
X80538100Y-68375000D03*
X61438100Y-69525000D03*
X61438100Y-73075000D03*
X42438100Y-71025000D03*
X42438100Y-74575000D03*
X137638100Y-86325000D03*
X137638100Y-89875000D03*
X118638100Y-83925000D03*
X118638100Y-87475000D03*
X99538100Y-82625000D03*
X99538100Y-86175000D03*
X80538100Y-83925000D03*
X80538100Y-87475000D03*
X61438100Y-88725000D03*
X61438100Y-92275000D03*
X42438100Y-90225000D03*
X42438100Y-93775000D03*
X137638100Y-105325000D03*
X137638100Y-108875000D03*
X118638100Y-103025000D03*
X118638100Y-106575000D03*
X99538100Y-101625000D03*
X99538100Y-105175000D03*
X80538100Y-103025000D03*
X80538100Y-106575000D03*
X61438100Y-107725000D03*
X61438100Y-111275000D03*
X42388100Y-109225000D03*
X42388100Y-112775000D03*
X156738100Y-95725000D03*
X156738100Y-99275000D03*
X155752800Y-116690600D03*
X155752800Y-120240600D03*
X128138100Y-124225000D03*
X128138100Y-127775000D03*
X109138100Y-121975000D03*
X109138100Y-125525000D03*
X90038100Y-121975000D03*
X90038100Y-125525000D03*
D23*
X166138100Y-85000000D03*
X144138100Y-85000000D03*
D24*
X147488100Y-37653000D03*
X147488100Y-39863000D03*
D25*
X149638100Y-38753000D03*
X152638100Y-38753000D03*
D24*
X154788100Y-37653000D03*
X154788100Y-39863000D03*
D26*
X148888100Y-40513000D03*
X151888100Y-40513000D03*
X153388100Y-40513000D03*
%LPD*%
M02*
