%TF.GenerationSoftware,KiCad,Pcbnew,7.0.10*%
%TF.CreationDate,2024-03-21T01:03:03+01:00*%
%TF.ProjectId,allium58,616c6c69-756d-4353-982e-6b696361645f,rev?*%
%TF.SameCoordinates,Original*%
%TF.FileFunction,Drillmap*%
%TF.FilePolarity,Positive*%
%FSLAX45Y45*%
G04 Gerber Fmt 4.5, Leading zero omitted, Abs format (unit mm)*
G04 Created by KiCad (PCBNEW 7.0.10) date 2024-03-21 01:03:03*
%MOMM*%
%LPD*%
G01*
G04 APERTURE LIST*
%ADD10C,0.200000*%
%ADD11C,0.100000*%
%ADD12C,0.130000*%
%ADD13C,0.240000*%
G04 APERTURE END LIST*
D10*
X16814992Y-3708676D02*
X15774208Y-3708676D01*
X2817813Y-12078973D02*
X2787563Y-12075929D01*
X14097859Y-13939120D02*
X14265428Y-14036134D01*
X16814992Y-3708676D02*
X16836166Y-3710807D01*
X7381878Y-13281601D02*
X7381878Y-13159797D01*
X13930290Y-13842106D02*
X14097859Y-13939120D01*
X7381878Y-12794385D02*
X7381878Y-12672581D01*
X16046956Y-12285474D02*
X16214526Y-11998842D01*
X5978361Y-12078973D02*
X6505120Y-12078973D01*
X16873719Y-3726596D02*
X16889256Y-3739412D01*
X4924845Y-12078973D02*
X5451603Y-12078973D01*
X7314856Y-3721565D02*
X6221859Y-3758537D01*
X14768137Y-14327176D02*
X14784926Y-14335728D01*
X16920060Y-7597836D02*
X16920060Y-8228530D01*
X11611075Y-3708676D02*
X10570291Y-3708676D01*
X7031878Y-12078973D02*
X7102460Y-12086078D01*
X14784926Y-14335728D02*
X14800792Y-14340447D01*
X2785966Y-4215619D02*
X2667813Y-4343676D01*
X7102460Y-12086078D02*
X7168180Y-12106456D01*
X7168180Y-12106456D02*
X7227635Y-12138706D01*
X14432998Y-14133148D02*
X14600567Y-14230162D01*
X12690543Y-13551166D02*
X13427495Y-13551166D01*
X16889256Y-3739412D02*
X16902072Y-3754949D01*
X2733917Y-12053374D02*
X2711721Y-12035065D01*
X7384922Y-13431415D02*
X7381878Y-13401166D01*
X16836166Y-3710807D02*
X16855882Y-3716921D01*
X9742734Y-13551166D02*
X10479687Y-13551166D01*
X3344571Y-12078973D02*
X3871329Y-12078973D01*
X2667813Y-11928973D02*
X2667813Y-10980811D01*
X2787563Y-12075929D02*
X2759397Y-12067195D01*
X15879387Y-12572106D02*
X16046956Y-12285474D01*
X2670857Y-11959223D02*
X2667813Y-11928973D01*
X3124881Y-4096385D02*
X2785966Y-4215619D01*
X2667813Y-6240000D02*
X2667813Y-5291838D01*
X7501628Y-13548121D02*
X7473463Y-13539388D01*
X16920060Y-3813676D02*
X16920060Y-4444370D01*
X13692641Y-3708676D02*
X12651858Y-3708676D01*
X7393656Y-13459581D02*
X7384922Y-13431415D01*
X9529508Y-3708676D02*
X8488725Y-3708676D01*
X7447982Y-13525566D02*
X7425786Y-13507257D01*
X7531878Y-13551166D02*
X8268830Y-13551166D01*
X12651858Y-3708676D02*
X11611075Y-3708676D01*
X10570291Y-3708676D02*
X9529508Y-3708676D01*
X7407478Y-13485062D02*
X7393656Y-13459581D01*
X14265428Y-14036134D02*
X14432998Y-14133148D01*
X16811715Y-10069083D02*
X16864783Y-9665766D01*
X4371737Y-3894556D02*
X3661243Y-3988516D01*
X13595151Y-13648078D02*
X13762720Y-13745092D01*
X16920060Y-5705756D02*
X16920060Y-6336449D01*
X6505120Y-12078973D02*
X7031878Y-12078973D01*
X7381878Y-13401166D02*
X7381878Y-13281601D01*
X2667813Y-5291838D02*
X2667813Y-4343676D01*
X14733425Y-3708676D02*
X13692641Y-3708676D01*
X2667813Y-8136324D02*
X2667813Y-7188162D01*
X13762720Y-13745092D02*
X13930290Y-13842106D01*
X7279424Y-12181427D02*
X7322145Y-12233216D01*
X16920060Y-6967143D02*
X16920060Y-7597836D01*
X2679591Y-11987389D02*
X2670857Y-11959223D01*
X16902072Y-3754949D02*
X16911747Y-3772785D01*
X15544248Y-13145370D02*
X15711817Y-12858738D01*
X15209109Y-13718634D02*
X15376678Y-13432002D01*
X15774208Y-3708676D02*
X14733425Y-3708676D01*
X10479687Y-13551166D02*
X11216639Y-13551166D01*
X7354395Y-12292671D02*
X7374773Y-12358391D01*
X2667813Y-7188162D02*
X2667813Y-6240000D01*
X7425786Y-13507257D02*
X7407478Y-13485062D01*
X15711817Y-12858738D02*
X15879387Y-12572106D01*
X7381878Y-12550777D02*
X7381878Y-12428973D01*
X16645012Y-10864913D02*
X16739104Y-10469525D01*
X2759397Y-12067195D02*
X2733917Y-12053374D01*
X4398087Y-12078973D02*
X4924845Y-12078973D01*
X7381878Y-13037993D02*
X7381878Y-12916189D01*
X14815687Y-14341397D02*
X14829566Y-14338644D01*
X5233047Y-3817049D02*
X4371737Y-3894556D01*
X2711721Y-12035065D02*
X2693413Y-12012870D01*
X14854083Y-14322288D02*
X14864629Y-14308815D01*
X16855882Y-3716921D02*
X16873719Y-3726596D01*
X8268830Y-13551166D02*
X9005782Y-13551166D01*
X14600567Y-14230162D02*
X14768137Y-14327176D01*
X6221859Y-3758537D02*
X5233047Y-3817049D01*
X2693413Y-12012870D02*
X2679591Y-11987389D01*
X16739104Y-10469525D02*
X16811715Y-10069083D01*
X2817813Y-12078973D02*
X3344571Y-12078973D01*
X15041540Y-14005266D02*
X15209109Y-13718634D01*
X13427581Y-13551064D02*
X13595151Y-13648078D01*
X3661243Y-3988516D02*
X3124881Y-4096385D01*
X15376678Y-13432002D02*
X15544248Y-13145370D01*
X2667813Y-9084487D02*
X2667813Y-8136324D01*
X7381878Y-12672581D02*
X7381878Y-12550777D01*
X16911747Y-3772785D02*
X16917860Y-3792501D01*
X16527502Y-11253067D02*
X16645012Y-10864913D01*
X7322145Y-12233216D02*
X7354395Y-12292671D01*
X5451603Y-12078973D02*
X5978361Y-12078973D01*
X14864629Y-14308815D02*
X14873970Y-14291898D01*
X16917860Y-3792501D02*
X16919992Y-3813676D01*
X16214479Y-11998954D02*
X16384637Y-11631807D01*
X16864783Y-9665766D02*
X16900244Y-9261756D01*
X7374773Y-12358391D02*
X7381878Y-12428973D01*
X7473463Y-13539388D02*
X7447982Y-13525566D01*
X16920060Y-6336449D02*
X16920060Y-6967143D01*
X16920060Y-5075063D02*
X16920060Y-5705756D01*
X14873970Y-14291898D02*
X15041540Y-14005266D01*
X14842380Y-14332253D02*
X14854083Y-14322288D01*
X7381878Y-12916189D02*
X7381878Y-12794385D01*
X2667813Y-10980811D02*
X2667813Y-10032649D01*
X16920060Y-8228530D02*
X16920060Y-8859223D01*
X7381878Y-13159797D02*
X7381878Y-13037993D01*
X14829566Y-14338644D02*
X14842380Y-14332253D01*
X8488725Y-3708676D02*
X7314856Y-3721565D01*
X16920060Y-4444370D02*
X16920060Y-5075063D01*
X7227635Y-12138706D02*
X7279424Y-12181427D01*
X3871329Y-12078973D02*
X4398087Y-12078973D01*
X11216639Y-13551166D02*
X11953591Y-13551166D01*
X9005782Y-13551166D02*
X9742734Y-13551166D01*
X11953591Y-13551166D02*
X12690543Y-13551166D01*
X2667813Y-10032649D02*
X2667813Y-9084487D01*
X7531878Y-13551166D02*
X7501628Y-13548121D01*
X16900244Y-9261756D02*
X16920035Y-8859232D01*
X14800792Y-14340447D02*
X14815687Y-14341397D01*
X16384637Y-11631807D02*
X16527502Y-11253067D01*
D11*
X2872980Y-4402060D02*
X2902980Y-4432060D01*
X2902980Y-4402060D02*
X2872980Y-4432060D01*
X4219180Y-4955780D02*
X4249180Y-4985780D01*
X4249180Y-4955780D02*
X4219180Y-4985780D01*
X4231880Y-8709900D02*
X4261880Y-8739900D01*
X4261880Y-8709900D02*
X4231880Y-8739900D01*
X4236960Y-6769340D02*
X4266960Y-6799340D01*
X4266960Y-6769340D02*
X4236960Y-6799340D01*
X4242040Y-10472700D02*
X4272040Y-10502700D01*
X4272040Y-10472700D02*
X4242040Y-10502700D01*
X4630660Y-4214100D02*
X4660660Y-4244100D01*
X4660660Y-4214100D02*
X4630660Y-4244100D01*
X4744960Y-11910300D02*
X4774960Y-11940300D01*
X4774960Y-11910300D02*
X4744960Y-11940300D01*
X6108940Y-6477240D02*
X6138940Y-6507240D01*
X6138940Y-6477240D02*
X6108940Y-6507240D01*
X6134340Y-8694660D02*
X6164340Y-8724660D01*
X6164340Y-8694660D02*
X6134340Y-8724660D01*
X6134340Y-10015500D02*
X6164340Y-10045500D01*
X6164340Y-10015500D02*
X6134340Y-10045500D01*
X6136880Y-8181580D02*
X6166880Y-8211580D01*
X6166880Y-8181580D02*
X6136880Y-8211580D01*
X6144500Y-4818620D02*
X6174500Y-4848620D01*
X6174500Y-4818620D02*
X6144500Y-4848620D01*
X6649960Y-4224260D02*
X6679960Y-4254260D01*
X6679960Y-4224260D02*
X6649960Y-4254260D01*
X6662660Y-11818900D02*
X6692660Y-11848900D01*
X6692660Y-11818900D02*
X6662660Y-11848900D01*
X7561820Y-11958600D02*
X7591820Y-11988600D01*
X7591820Y-11958600D02*
X7561820Y-11988600D01*
X8039340Y-10012900D02*
X8069340Y-10042900D01*
X8069340Y-10012900D02*
X8039340Y-10042900D01*
X8044420Y-4218130D02*
X8074420Y-4248130D01*
X8074420Y-4218130D02*
X8044420Y-4248130D01*
X8046960Y-6147040D02*
X8076960Y-6177040D01*
X8076960Y-6147040D02*
X8046960Y-6177040D01*
X8059660Y-8186660D02*
X8089660Y-8216660D01*
X8089660Y-8186660D02*
X8059660Y-8216660D01*
X8069820Y-7869160D02*
X8099820Y-7899160D01*
X8099820Y-7869160D02*
X8069820Y-7899160D01*
X8547340Y-11836600D02*
X8577340Y-11866600D01*
X8577340Y-11836600D02*
X8547340Y-11866600D01*
X8549880Y-4125200D02*
X8579880Y-4155200D01*
X8579880Y-4125200D02*
X8549880Y-4155200D01*
X9007080Y-12085600D02*
X9037080Y-12115600D01*
X9037080Y-12085600D02*
X9007080Y-12115600D01*
X9494760Y-11984000D02*
X9524760Y-12014000D01*
X9524760Y-11984000D02*
X9494760Y-12014000D01*
X9893540Y-4216640D02*
X9923540Y-4246640D01*
X9923540Y-4216640D02*
X9893540Y-4246640D01*
X9939260Y-7876780D02*
X9969260Y-7906780D01*
X9969260Y-7876780D02*
X9939260Y-7906780D01*
X9939260Y-10007800D02*
X9969260Y-10037800D01*
X9969260Y-10007800D02*
X9939260Y-10037800D01*
X9957040Y-6134340D02*
X9987040Y-6164340D01*
X9987040Y-6134340D02*
X9957040Y-6164340D01*
X10472700Y-11793500D02*
X10502700Y-11823500D01*
X10502700Y-11793500D02*
X10472700Y-11823500D01*
X10891800Y-12070300D02*
X10921800Y-12100300D01*
X10921800Y-12070300D02*
X10891800Y-12100300D01*
X11343900Y-11900100D02*
X11373900Y-11930100D01*
X11373900Y-11900100D02*
X11343900Y-11930100D01*
X11834100Y-4221720D02*
X11864100Y-4251720D01*
X11864100Y-4221720D02*
X11834100Y-4251720D01*
X11839200Y-10147500D02*
X11869200Y-10177500D01*
X11869200Y-10147500D02*
X11839200Y-10177500D01*
X11846800Y-7892020D02*
X11876800Y-7922020D01*
X11876800Y-7892020D02*
X11846800Y-7922020D01*
X11851900Y-6312140D02*
X11881900Y-6342140D01*
X11881900Y-6312140D02*
X11851900Y-6342140D01*
X12516300Y-10269500D02*
X12546300Y-10299500D01*
X12546300Y-10269500D02*
X12516300Y-10299500D01*
X12799300Y-12194800D02*
X12829300Y-12224800D01*
X12829300Y-12194800D02*
X12799300Y-12224800D01*
X13716200Y-7886940D02*
X13746200Y-7916940D01*
X13746200Y-7886940D02*
X13716200Y-7916940D01*
X13749300Y-4457940D02*
X13779300Y-4487940D01*
X13779300Y-4457940D02*
X13749300Y-4487940D01*
X13756900Y-6317220D02*
X13786900Y-6347220D01*
X13786900Y-6317220D02*
X13756900Y-6347220D01*
X13767000Y-10386300D02*
X13797000Y-10416300D01*
X13797000Y-10386300D02*
X13767000Y-10416300D01*
X13824250Y-4112500D02*
X13854250Y-4142500D01*
X13854250Y-4112500D02*
X13824250Y-4142500D01*
X13881300Y-11816300D02*
X13911300Y-11846300D01*
X13911300Y-11816300D02*
X13881300Y-11846300D01*
X13904200Y-4112500D02*
X13934200Y-4142500D01*
X13934200Y-4112500D02*
X13904200Y-4142500D01*
X14049000Y-3993120D02*
X14079000Y-4023120D01*
X14079000Y-3993120D02*
X14049000Y-4023120D01*
X14064200Y-10277100D02*
X14094200Y-10307100D01*
X14094200Y-10277100D02*
X14064200Y-10307100D01*
X14087080Y-4181080D02*
X14117080Y-4211080D01*
X14117080Y-4181080D02*
X14087080Y-4211080D01*
X15362160Y-11709640D02*
X15392160Y-11739640D01*
X15392160Y-11709640D02*
X15362160Y-11739640D01*
X15397700Y-4658600D02*
X15427700Y-4688600D01*
X15427700Y-4658600D02*
X15397700Y-4688600D01*
X15661900Y-4635740D02*
X15691900Y-4665740D01*
X15691900Y-4635740D02*
X15661900Y-4665740D01*
X16083500Y-10620000D02*
X16113500Y-10650000D01*
X16113500Y-10620000D02*
X16083500Y-10650000D01*
X16192700Y-8191740D02*
X16222700Y-8221740D01*
X16222700Y-8191740D02*
X16192700Y-8221740D01*
X15132720Y-7393000D02*
G75*
G03*
X15057720Y-7393000I-37500J0D01*
G01*
X15057720Y-7393000D02*
G75*
G03*
X15132720Y-7393000I37500J0D01*
G01*
X15132720Y-7593000D02*
G75*
G03*
X15057720Y-7593000I-37500J0D01*
G01*
X15057720Y-7593000D02*
G75*
G03*
X15132720Y-7593000I37500J0D01*
G01*
X14352950Y-4111560D02*
X14352950Y-4192840D01*
X14312310Y-4152200D02*
X14393590Y-4152200D01*
X14352950Y-4365560D02*
X14352950Y-4446840D01*
X14312310Y-4406200D02*
X14393590Y-4406200D01*
X14352950Y-4619560D02*
X14352950Y-4700840D01*
X14312310Y-4660200D02*
X14393590Y-4660200D01*
X14352950Y-4873560D02*
X14352950Y-4954840D01*
X14312310Y-4914200D02*
X14393590Y-4914200D01*
X14352950Y-5127560D02*
X14352950Y-5208840D01*
X14312310Y-5168200D02*
X14393590Y-5168200D01*
X14352950Y-5381560D02*
X14352950Y-5462840D01*
X14312310Y-5422200D02*
X14393590Y-5422200D01*
X14352950Y-5635560D02*
X14352950Y-5716840D01*
X14312310Y-5676200D02*
X14393590Y-5676200D01*
X14352950Y-5889560D02*
X14352950Y-5970840D01*
X14312310Y-5930200D02*
X14393590Y-5930200D01*
X14352950Y-6143560D02*
X14352950Y-6224840D01*
X14312310Y-6184200D02*
X14393590Y-6184200D01*
X14352950Y-6397560D02*
X14352950Y-6478840D01*
X14312310Y-6438200D02*
X14393590Y-6438200D01*
X14352950Y-6651560D02*
X14352950Y-6732840D01*
X14312310Y-6692200D02*
X14393590Y-6692200D01*
X14352950Y-6905560D02*
X14352950Y-6986840D01*
X14312310Y-6946200D02*
X14393590Y-6946200D01*
X15874950Y-4111560D02*
X15874950Y-4192840D01*
X15834310Y-4152200D02*
X15915590Y-4152200D01*
X15874950Y-4365560D02*
X15874950Y-4446840D01*
X15834310Y-4406200D02*
X15915590Y-4406200D01*
X15874950Y-4619560D02*
X15874950Y-4700840D01*
X15834310Y-4660200D02*
X15915590Y-4660200D01*
X15874950Y-4873560D02*
X15874950Y-4954840D01*
X15834310Y-4914200D02*
X15915590Y-4914200D01*
X15874950Y-5127560D02*
X15874950Y-5208840D01*
X15834310Y-5168200D02*
X15915590Y-5168200D01*
X15874950Y-5381560D02*
X15874950Y-5462840D01*
X15834310Y-5422200D02*
X15915590Y-5422200D01*
X15874950Y-5635560D02*
X15874950Y-5716840D01*
X15834310Y-5676200D02*
X15915590Y-5676200D01*
X15874950Y-5889560D02*
X15874950Y-5970840D01*
X15834310Y-5930200D02*
X15915590Y-5930200D01*
X15874950Y-6143560D02*
X15874950Y-6224840D01*
X15834310Y-6184200D02*
X15915590Y-6184200D01*
X15874950Y-6397560D02*
X15874950Y-6478840D01*
X15834310Y-6438200D02*
X15915590Y-6438200D01*
X15874950Y-6651560D02*
X15874950Y-6732840D01*
X15834310Y-6692200D02*
X15915590Y-6692200D01*
X15874950Y-6905560D02*
X15874950Y-6986840D01*
X15834310Y-6946200D02*
X15915590Y-6946200D01*
D12*
X16682962Y-4046462D02*
X16682962Y-3954538D01*
X16591038Y-3954538D01*
X16591038Y-4046462D01*
X16682962Y-4046462D01*
X16682962Y-4696462D02*
X16682962Y-4604538D01*
X16591038Y-4604538D01*
X16591038Y-4696462D01*
X16682962Y-4696462D01*
D13*
X14413810Y-8620000D02*
X14533810Y-8500000D01*
X14413810Y-8380000D01*
X14293810Y-8500000D01*
X14413810Y-8620000D01*
X16613810Y-8620000D02*
X16733810Y-8500000D01*
X16613810Y-8380000D01*
X16493810Y-8500000D01*
X16613810Y-8620000D01*
D10*
X2918589Y-14662881D02*
X2918589Y-14462881D01*
X2918589Y-14462881D02*
X2966208Y-14462881D01*
X2966208Y-14462881D02*
X2994780Y-14472405D01*
X2994780Y-14472405D02*
X3013827Y-14491453D01*
X3013827Y-14491453D02*
X3023351Y-14510500D01*
X3023351Y-14510500D02*
X3032875Y-14548595D01*
X3032875Y-14548595D02*
X3032875Y-14577167D01*
X3032875Y-14577167D02*
X3023351Y-14615262D01*
X3023351Y-14615262D02*
X3013827Y-14634310D01*
X3013827Y-14634310D02*
X2994780Y-14653357D01*
X2994780Y-14653357D02*
X2966208Y-14662881D01*
X2966208Y-14662881D02*
X2918589Y-14662881D01*
X3118589Y-14662881D02*
X3118589Y-14529548D01*
X3118589Y-14567643D02*
X3128113Y-14548595D01*
X3128113Y-14548595D02*
X3137637Y-14539072D01*
X3137637Y-14539072D02*
X3156685Y-14529548D01*
X3156685Y-14529548D02*
X3175732Y-14529548D01*
X3242399Y-14662881D02*
X3242399Y-14529548D01*
X3242399Y-14462881D02*
X3232875Y-14472405D01*
X3232875Y-14472405D02*
X3242399Y-14481929D01*
X3242399Y-14481929D02*
X3251923Y-14472405D01*
X3251923Y-14472405D02*
X3242399Y-14462881D01*
X3242399Y-14462881D02*
X3242399Y-14481929D01*
X3366208Y-14662881D02*
X3347161Y-14653357D01*
X3347161Y-14653357D02*
X3337637Y-14634310D01*
X3337637Y-14634310D02*
X3337637Y-14462881D01*
X3470970Y-14662881D02*
X3451923Y-14653357D01*
X3451923Y-14653357D02*
X3442399Y-14634310D01*
X3442399Y-14634310D02*
X3442399Y-14462881D01*
X3699542Y-14662881D02*
X3699542Y-14462881D01*
X3699542Y-14462881D02*
X3766208Y-14605738D01*
X3766208Y-14605738D02*
X3832875Y-14462881D01*
X3832875Y-14462881D02*
X3832875Y-14662881D01*
X4013827Y-14662881D02*
X4013827Y-14558119D01*
X4013827Y-14558119D02*
X4004304Y-14539072D01*
X4004304Y-14539072D02*
X3985256Y-14529548D01*
X3985256Y-14529548D02*
X3947161Y-14529548D01*
X3947161Y-14529548D02*
X3928113Y-14539072D01*
X4013827Y-14653357D02*
X3994780Y-14662881D01*
X3994780Y-14662881D02*
X3947161Y-14662881D01*
X3947161Y-14662881D02*
X3928113Y-14653357D01*
X3928113Y-14653357D02*
X3918589Y-14634310D01*
X3918589Y-14634310D02*
X3918589Y-14615262D01*
X3918589Y-14615262D02*
X3928113Y-14596214D01*
X3928113Y-14596214D02*
X3947161Y-14586691D01*
X3947161Y-14586691D02*
X3994780Y-14586691D01*
X3994780Y-14586691D02*
X4013827Y-14577167D01*
X4109066Y-14529548D02*
X4109066Y-14729548D01*
X4109066Y-14539072D02*
X4128113Y-14529548D01*
X4128113Y-14529548D02*
X4166208Y-14529548D01*
X4166208Y-14529548D02*
X4185256Y-14539072D01*
X4185256Y-14539072D02*
X4194780Y-14548595D01*
X4194780Y-14548595D02*
X4204304Y-14567643D01*
X4204304Y-14567643D02*
X4204304Y-14624786D01*
X4204304Y-14624786D02*
X4194780Y-14643833D01*
X4194780Y-14643833D02*
X4185256Y-14653357D01*
X4185256Y-14653357D02*
X4166208Y-14662881D01*
X4166208Y-14662881D02*
X4128113Y-14662881D01*
X4128113Y-14662881D02*
X4109066Y-14653357D01*
X4290018Y-14643833D02*
X4299542Y-14653357D01*
X4299542Y-14653357D02*
X4290018Y-14662881D01*
X4290018Y-14662881D02*
X4280494Y-14653357D01*
X4280494Y-14653357D02*
X4290018Y-14643833D01*
X4290018Y-14643833D02*
X4290018Y-14662881D01*
X4290018Y-14539072D02*
X4299542Y-14548595D01*
X4299542Y-14548595D02*
X4290018Y-14558119D01*
X4290018Y-14558119D02*
X4280494Y-14548595D01*
X4280494Y-14548595D02*
X4290018Y-14539072D01*
X4290018Y-14539072D02*
X4290018Y-14558119D01*
D11*
X2627813Y-14976397D02*
X2657813Y-15006397D01*
X2657813Y-14976397D02*
X2627813Y-15006397D01*
D10*
X2956685Y-14882881D02*
X2975732Y-14882881D01*
X2975732Y-14882881D02*
X2994780Y-14892405D01*
X2994780Y-14892405D02*
X3004304Y-14901929D01*
X3004304Y-14901929D02*
X3013827Y-14920976D01*
X3013827Y-14920976D02*
X3023351Y-14959072D01*
X3023351Y-14959072D02*
X3023351Y-15006691D01*
X3023351Y-15006691D02*
X3013827Y-15044786D01*
X3013827Y-15044786D02*
X3004304Y-15063833D01*
X3004304Y-15063833D02*
X2994780Y-15073357D01*
X2994780Y-15073357D02*
X2975732Y-15082881D01*
X2975732Y-15082881D02*
X2956685Y-15082881D01*
X2956685Y-15082881D02*
X2937637Y-15073357D01*
X2937637Y-15073357D02*
X2928113Y-15063833D01*
X2928113Y-15063833D02*
X2918589Y-15044786D01*
X2918589Y-15044786D02*
X2909066Y-15006691D01*
X2909066Y-15006691D02*
X2909066Y-14959072D01*
X2909066Y-14959072D02*
X2918589Y-14920976D01*
X2918589Y-14920976D02*
X2928113Y-14901929D01*
X2928113Y-14901929D02*
X2937637Y-14892405D01*
X2937637Y-14892405D02*
X2956685Y-14882881D01*
X3109066Y-15063833D02*
X3118589Y-15073357D01*
X3118589Y-15073357D02*
X3109066Y-15082881D01*
X3109066Y-15082881D02*
X3099542Y-15073357D01*
X3099542Y-15073357D02*
X3109066Y-15063833D01*
X3109066Y-15063833D02*
X3109066Y-15082881D01*
X3185256Y-14882881D02*
X3309066Y-14882881D01*
X3309066Y-14882881D02*
X3242399Y-14959072D01*
X3242399Y-14959072D02*
X3270970Y-14959072D01*
X3270970Y-14959072D02*
X3290018Y-14968595D01*
X3290018Y-14968595D02*
X3299542Y-14978119D01*
X3299542Y-14978119D02*
X3309066Y-14997167D01*
X3309066Y-14997167D02*
X3309066Y-15044786D01*
X3309066Y-15044786D02*
X3299542Y-15063833D01*
X3299542Y-15063833D02*
X3290018Y-15073357D01*
X3290018Y-15073357D02*
X3270970Y-15082881D01*
X3270970Y-15082881D02*
X3213827Y-15082881D01*
X3213827Y-15082881D02*
X3194780Y-15073357D01*
X3194780Y-15073357D02*
X3185256Y-15063833D01*
X3432875Y-14882881D02*
X3451923Y-14882881D01*
X3451923Y-14882881D02*
X3470970Y-14892405D01*
X3470970Y-14892405D02*
X3480494Y-14901929D01*
X3480494Y-14901929D02*
X3490018Y-14920976D01*
X3490018Y-14920976D02*
X3499542Y-14959072D01*
X3499542Y-14959072D02*
X3499542Y-15006691D01*
X3499542Y-15006691D02*
X3490018Y-15044786D01*
X3490018Y-15044786D02*
X3480494Y-15063833D01*
X3480494Y-15063833D02*
X3470970Y-15073357D01*
X3470970Y-15073357D02*
X3451923Y-15082881D01*
X3451923Y-15082881D02*
X3432875Y-15082881D01*
X3432875Y-15082881D02*
X3413827Y-15073357D01*
X3413827Y-15073357D02*
X3404304Y-15063833D01*
X3404304Y-15063833D02*
X3394780Y-15044786D01*
X3394780Y-15044786D02*
X3385256Y-15006691D01*
X3385256Y-15006691D02*
X3385256Y-14959072D01*
X3385256Y-14959072D02*
X3394780Y-14920976D01*
X3394780Y-14920976D02*
X3404304Y-14901929D01*
X3404304Y-14901929D02*
X3413827Y-14892405D01*
X3413827Y-14892405D02*
X3432875Y-14882881D01*
X3623351Y-14882881D02*
X3642399Y-14882881D01*
X3642399Y-14882881D02*
X3661447Y-14892405D01*
X3661447Y-14892405D02*
X3670970Y-14901929D01*
X3670970Y-14901929D02*
X3680494Y-14920976D01*
X3680494Y-14920976D02*
X3690018Y-14959072D01*
X3690018Y-14959072D02*
X3690018Y-15006691D01*
X3690018Y-15006691D02*
X3680494Y-15044786D01*
X3680494Y-15044786D02*
X3670970Y-15063833D01*
X3670970Y-15063833D02*
X3661447Y-15073357D01*
X3661447Y-15073357D02*
X3642399Y-15082881D01*
X3642399Y-15082881D02*
X3623351Y-15082881D01*
X3623351Y-15082881D02*
X3604304Y-15073357D01*
X3604304Y-15073357D02*
X3594780Y-15063833D01*
X3594780Y-15063833D02*
X3585256Y-15044786D01*
X3585256Y-15044786D02*
X3575732Y-15006691D01*
X3575732Y-15006691D02*
X3575732Y-14959072D01*
X3575732Y-14959072D02*
X3585256Y-14920976D01*
X3585256Y-14920976D02*
X3594780Y-14901929D01*
X3594780Y-14901929D02*
X3604304Y-14892405D01*
X3604304Y-14892405D02*
X3623351Y-14882881D01*
X3775732Y-15082881D02*
X3775732Y-14949548D01*
X3775732Y-14968595D02*
X3785256Y-14959072D01*
X3785256Y-14959072D02*
X3804304Y-14949548D01*
X3804304Y-14949548D02*
X3832875Y-14949548D01*
X3832875Y-14949548D02*
X3851923Y-14959072D01*
X3851923Y-14959072D02*
X3861447Y-14978119D01*
X3861447Y-14978119D02*
X3861447Y-15082881D01*
X3861447Y-14978119D02*
X3870970Y-14959072D01*
X3870970Y-14959072D02*
X3890018Y-14949548D01*
X3890018Y-14949548D02*
X3918589Y-14949548D01*
X3918589Y-14949548D02*
X3937637Y-14959072D01*
X3937637Y-14959072D02*
X3947161Y-14978119D01*
X3947161Y-14978119D02*
X3947161Y-15082881D01*
X4042399Y-15082881D02*
X4042399Y-14949548D01*
X4042399Y-14968595D02*
X4051923Y-14959072D01*
X4051923Y-14959072D02*
X4070970Y-14949548D01*
X4070970Y-14949548D02*
X4099542Y-14949548D01*
X4099542Y-14949548D02*
X4118589Y-14959072D01*
X4118589Y-14959072D02*
X4128113Y-14978119D01*
X4128113Y-14978119D02*
X4128113Y-15082881D01*
X4128113Y-14978119D02*
X4137637Y-14959072D01*
X4137637Y-14959072D02*
X4156685Y-14949548D01*
X4156685Y-14949548D02*
X4185256Y-14949548D01*
X4185256Y-14949548D02*
X4204304Y-14959072D01*
X4204304Y-14959072D02*
X4213828Y-14978119D01*
X4213828Y-14978119D02*
X4213828Y-15082881D01*
X4604304Y-14873357D02*
X4432875Y-15130500D01*
X4861447Y-14882881D02*
X4880494Y-14882881D01*
X4880494Y-14882881D02*
X4899542Y-14892405D01*
X4899542Y-14892405D02*
X4909066Y-14901929D01*
X4909066Y-14901929D02*
X4918590Y-14920976D01*
X4918590Y-14920976D02*
X4928113Y-14959072D01*
X4928113Y-14959072D02*
X4928113Y-15006691D01*
X4928113Y-15006691D02*
X4918590Y-15044786D01*
X4918590Y-15044786D02*
X4909066Y-15063833D01*
X4909066Y-15063833D02*
X4899542Y-15073357D01*
X4899542Y-15073357D02*
X4880494Y-15082881D01*
X4880494Y-15082881D02*
X4861447Y-15082881D01*
X4861447Y-15082881D02*
X4842399Y-15073357D01*
X4842399Y-15073357D02*
X4832875Y-15063833D01*
X4832875Y-15063833D02*
X4823352Y-15044786D01*
X4823352Y-15044786D02*
X4813828Y-15006691D01*
X4813828Y-15006691D02*
X4813828Y-14959072D01*
X4813828Y-14959072D02*
X4823352Y-14920976D01*
X4823352Y-14920976D02*
X4832875Y-14901929D01*
X4832875Y-14901929D02*
X4842399Y-14892405D01*
X4842399Y-14892405D02*
X4861447Y-14882881D01*
X5013828Y-15063833D02*
X5023352Y-15073357D01*
X5023352Y-15073357D02*
X5013828Y-15082881D01*
X5013828Y-15082881D02*
X5004304Y-15073357D01*
X5004304Y-15073357D02*
X5013828Y-15063833D01*
X5013828Y-15063833D02*
X5013828Y-15082881D01*
X5147161Y-14882881D02*
X5166209Y-14882881D01*
X5166209Y-14882881D02*
X5185256Y-14892405D01*
X5185256Y-14892405D02*
X5194780Y-14901929D01*
X5194780Y-14901929D02*
X5204304Y-14920976D01*
X5204304Y-14920976D02*
X5213828Y-14959072D01*
X5213828Y-14959072D02*
X5213828Y-15006691D01*
X5213828Y-15006691D02*
X5204304Y-15044786D01*
X5204304Y-15044786D02*
X5194780Y-15063833D01*
X5194780Y-15063833D02*
X5185256Y-15073357D01*
X5185256Y-15073357D02*
X5166209Y-15082881D01*
X5166209Y-15082881D02*
X5147161Y-15082881D01*
X5147161Y-15082881D02*
X5128113Y-15073357D01*
X5128113Y-15073357D02*
X5118590Y-15063833D01*
X5118590Y-15063833D02*
X5109066Y-15044786D01*
X5109066Y-15044786D02*
X5099542Y-15006691D01*
X5099542Y-15006691D02*
X5099542Y-14959072D01*
X5099542Y-14959072D02*
X5109066Y-14920976D01*
X5109066Y-14920976D02*
X5118590Y-14901929D01*
X5118590Y-14901929D02*
X5128113Y-14892405D01*
X5128113Y-14892405D02*
X5147161Y-14882881D01*
X5404304Y-15082881D02*
X5290018Y-15082881D01*
X5347161Y-15082881D02*
X5347161Y-14882881D01*
X5347161Y-14882881D02*
X5328113Y-14911453D01*
X5328113Y-14911453D02*
X5309066Y-14930500D01*
X5309066Y-14930500D02*
X5290018Y-14940024D01*
X5594780Y-15082881D02*
X5480494Y-15082881D01*
X5537637Y-15082881D02*
X5537637Y-14882881D01*
X5537637Y-14882881D02*
X5518590Y-14911453D01*
X5518590Y-14911453D02*
X5499542Y-14930500D01*
X5499542Y-14930500D02*
X5480494Y-14940024D01*
X5709066Y-14968595D02*
X5690018Y-14959072D01*
X5690018Y-14959072D02*
X5680494Y-14949548D01*
X5680494Y-14949548D02*
X5670971Y-14930500D01*
X5670971Y-14930500D02*
X5670971Y-14920976D01*
X5670971Y-14920976D02*
X5680494Y-14901929D01*
X5680494Y-14901929D02*
X5690018Y-14892405D01*
X5690018Y-14892405D02*
X5709066Y-14882881D01*
X5709066Y-14882881D02*
X5747161Y-14882881D01*
X5747161Y-14882881D02*
X5766209Y-14892405D01*
X5766209Y-14892405D02*
X5775732Y-14901929D01*
X5775732Y-14901929D02*
X5785256Y-14920976D01*
X5785256Y-14920976D02*
X5785256Y-14930500D01*
X5785256Y-14930500D02*
X5775732Y-14949548D01*
X5775732Y-14949548D02*
X5766209Y-14959072D01*
X5766209Y-14959072D02*
X5747161Y-14968595D01*
X5747161Y-14968595D02*
X5709066Y-14968595D01*
X5709066Y-14968595D02*
X5690018Y-14978119D01*
X5690018Y-14978119D02*
X5680494Y-14987643D01*
X5680494Y-14987643D02*
X5670971Y-15006691D01*
X5670971Y-15006691D02*
X5670971Y-15044786D01*
X5670971Y-15044786D02*
X5680494Y-15063833D01*
X5680494Y-15063833D02*
X5690018Y-15073357D01*
X5690018Y-15073357D02*
X5709066Y-15082881D01*
X5709066Y-15082881D02*
X5747161Y-15082881D01*
X5747161Y-15082881D02*
X5766209Y-15073357D01*
X5766209Y-15073357D02*
X5775732Y-15063833D01*
X5775732Y-15063833D02*
X5785256Y-15044786D01*
X5785256Y-15044786D02*
X5785256Y-15006691D01*
X5785256Y-15006691D02*
X5775732Y-14987643D01*
X5775732Y-14987643D02*
X5766209Y-14978119D01*
X5766209Y-14978119D02*
X5747161Y-14968595D01*
X5861447Y-14882881D02*
X5861447Y-14920976D01*
X5937637Y-14882881D02*
X5937637Y-14920976D01*
X6232875Y-15159072D02*
X6223352Y-15149548D01*
X6223352Y-15149548D02*
X6204304Y-15120976D01*
X6204304Y-15120976D02*
X6194780Y-15101929D01*
X6194780Y-15101929D02*
X6185256Y-15073357D01*
X6185256Y-15073357D02*
X6175733Y-15025738D01*
X6175733Y-15025738D02*
X6175733Y-14987643D01*
X6175733Y-14987643D02*
X6185256Y-14940024D01*
X6185256Y-14940024D02*
X6194780Y-14911453D01*
X6194780Y-14911453D02*
X6204304Y-14892405D01*
X6204304Y-14892405D02*
X6223352Y-14863833D01*
X6223352Y-14863833D02*
X6232875Y-14854310D01*
X6404304Y-14882881D02*
X6309066Y-14882881D01*
X6309066Y-14882881D02*
X6299542Y-14978119D01*
X6299542Y-14978119D02*
X6309066Y-14968595D01*
X6309066Y-14968595D02*
X6328113Y-14959072D01*
X6328113Y-14959072D02*
X6375733Y-14959072D01*
X6375733Y-14959072D02*
X6394780Y-14968595D01*
X6394780Y-14968595D02*
X6404304Y-14978119D01*
X6404304Y-14978119D02*
X6413828Y-14997167D01*
X6413828Y-14997167D02*
X6413828Y-15044786D01*
X6413828Y-15044786D02*
X6404304Y-15063833D01*
X6404304Y-15063833D02*
X6394780Y-15073357D01*
X6394780Y-15073357D02*
X6375733Y-15082881D01*
X6375733Y-15082881D02*
X6328113Y-15082881D01*
X6328113Y-15082881D02*
X6309066Y-15073357D01*
X6309066Y-15073357D02*
X6299542Y-15063833D01*
X6490018Y-14901929D02*
X6499542Y-14892405D01*
X6499542Y-14892405D02*
X6518590Y-14882881D01*
X6518590Y-14882881D02*
X6566209Y-14882881D01*
X6566209Y-14882881D02*
X6585256Y-14892405D01*
X6585256Y-14892405D02*
X6594780Y-14901929D01*
X6594780Y-14901929D02*
X6604304Y-14920976D01*
X6604304Y-14920976D02*
X6604304Y-14940024D01*
X6604304Y-14940024D02*
X6594780Y-14968595D01*
X6594780Y-14968595D02*
X6480494Y-15082881D01*
X6480494Y-15082881D02*
X6604304Y-15082881D01*
X6842399Y-15082881D02*
X6842399Y-14882881D01*
X6928114Y-15082881D02*
X6928114Y-14978119D01*
X6928114Y-14978119D02*
X6918590Y-14959072D01*
X6918590Y-14959072D02*
X6899542Y-14949548D01*
X6899542Y-14949548D02*
X6870971Y-14949548D01*
X6870971Y-14949548D02*
X6851923Y-14959072D01*
X6851923Y-14959072D02*
X6842399Y-14968595D01*
X7051923Y-15082881D02*
X7032875Y-15073357D01*
X7032875Y-15073357D02*
X7023352Y-15063833D01*
X7023352Y-15063833D02*
X7013828Y-15044786D01*
X7013828Y-15044786D02*
X7013828Y-14987643D01*
X7013828Y-14987643D02*
X7023352Y-14968595D01*
X7023352Y-14968595D02*
X7032875Y-14959072D01*
X7032875Y-14959072D02*
X7051923Y-14949548D01*
X7051923Y-14949548D02*
X7080495Y-14949548D01*
X7080495Y-14949548D02*
X7099542Y-14959072D01*
X7099542Y-14959072D02*
X7109066Y-14968595D01*
X7109066Y-14968595D02*
X7118590Y-14987643D01*
X7118590Y-14987643D02*
X7118590Y-15044786D01*
X7118590Y-15044786D02*
X7109066Y-15063833D01*
X7109066Y-15063833D02*
X7099542Y-15073357D01*
X7099542Y-15073357D02*
X7080495Y-15082881D01*
X7080495Y-15082881D02*
X7051923Y-15082881D01*
X7232875Y-15082881D02*
X7213828Y-15073357D01*
X7213828Y-15073357D02*
X7204304Y-15054310D01*
X7204304Y-15054310D02*
X7204304Y-14882881D01*
X7385256Y-15073357D02*
X7366209Y-15082881D01*
X7366209Y-15082881D02*
X7328114Y-15082881D01*
X7328114Y-15082881D02*
X7309066Y-15073357D01*
X7309066Y-15073357D02*
X7299542Y-15054310D01*
X7299542Y-15054310D02*
X7299542Y-14978119D01*
X7299542Y-14978119D02*
X7309066Y-14959072D01*
X7309066Y-14959072D02*
X7328114Y-14949548D01*
X7328114Y-14949548D02*
X7366209Y-14949548D01*
X7366209Y-14949548D02*
X7385256Y-14959072D01*
X7385256Y-14959072D02*
X7394780Y-14978119D01*
X7394780Y-14978119D02*
X7394780Y-14997167D01*
X7394780Y-14997167D02*
X7299542Y-15016214D01*
X7470971Y-15073357D02*
X7490018Y-15082881D01*
X7490018Y-15082881D02*
X7528114Y-15082881D01*
X7528114Y-15082881D02*
X7547161Y-15073357D01*
X7547161Y-15073357D02*
X7556685Y-15054310D01*
X7556685Y-15054310D02*
X7556685Y-15044786D01*
X7556685Y-15044786D02*
X7547161Y-15025738D01*
X7547161Y-15025738D02*
X7528114Y-15016214D01*
X7528114Y-15016214D02*
X7499542Y-15016214D01*
X7499542Y-15016214D02*
X7480495Y-15006691D01*
X7480495Y-15006691D02*
X7470971Y-14987643D01*
X7470971Y-14987643D02*
X7470971Y-14978119D01*
X7470971Y-14978119D02*
X7480495Y-14959072D01*
X7480495Y-14959072D02*
X7499542Y-14949548D01*
X7499542Y-14949548D02*
X7528114Y-14949548D01*
X7528114Y-14949548D02*
X7547161Y-14959072D01*
X7623352Y-15159072D02*
X7632876Y-15149548D01*
X7632876Y-15149548D02*
X7651923Y-15120976D01*
X7651923Y-15120976D02*
X7661447Y-15101929D01*
X7661447Y-15101929D02*
X7670971Y-15073357D01*
X7670971Y-15073357D02*
X7680495Y-15025738D01*
X7680495Y-15025738D02*
X7680495Y-14987643D01*
X7680495Y-14987643D02*
X7670971Y-14940024D01*
X7670971Y-14940024D02*
X7661447Y-14911453D01*
X7661447Y-14911453D02*
X7651923Y-14892405D01*
X7651923Y-14892405D02*
X7632876Y-14863833D01*
X7632876Y-14863833D02*
X7623352Y-14854310D01*
D11*
X2657813Y-15255397D02*
G75*
G03*
X2582813Y-15255397I-37500J0D01*
G01*
X2582813Y-15255397D02*
G75*
G03*
X2657813Y-15255397I37500J0D01*
G01*
D10*
X2956685Y-15146881D02*
X2975732Y-15146881D01*
X2975732Y-15146881D02*
X2994780Y-15156405D01*
X2994780Y-15156405D02*
X3004304Y-15165929D01*
X3004304Y-15165929D02*
X3013827Y-15184976D01*
X3013827Y-15184976D02*
X3023351Y-15223072D01*
X3023351Y-15223072D02*
X3023351Y-15270691D01*
X3023351Y-15270691D02*
X3013827Y-15308786D01*
X3013827Y-15308786D02*
X3004304Y-15327833D01*
X3004304Y-15327833D02*
X2994780Y-15337357D01*
X2994780Y-15337357D02*
X2975732Y-15346881D01*
X2975732Y-15346881D02*
X2956685Y-15346881D01*
X2956685Y-15346881D02*
X2937637Y-15337357D01*
X2937637Y-15337357D02*
X2928113Y-15327833D01*
X2928113Y-15327833D02*
X2918589Y-15308786D01*
X2918589Y-15308786D02*
X2909066Y-15270691D01*
X2909066Y-15270691D02*
X2909066Y-15223072D01*
X2909066Y-15223072D02*
X2918589Y-15184976D01*
X2918589Y-15184976D02*
X2928113Y-15165929D01*
X2928113Y-15165929D02*
X2937637Y-15156405D01*
X2937637Y-15156405D02*
X2956685Y-15146881D01*
X3109066Y-15327833D02*
X3118589Y-15337357D01*
X3118589Y-15337357D02*
X3109066Y-15346881D01*
X3109066Y-15346881D02*
X3099542Y-15337357D01*
X3099542Y-15337357D02*
X3109066Y-15327833D01*
X3109066Y-15327833D02*
X3109066Y-15346881D01*
X3185256Y-15146881D02*
X3318589Y-15146881D01*
X3318589Y-15146881D02*
X3232875Y-15346881D01*
X3490018Y-15146881D02*
X3394780Y-15146881D01*
X3394780Y-15146881D02*
X3385256Y-15242119D01*
X3385256Y-15242119D02*
X3394780Y-15232595D01*
X3394780Y-15232595D02*
X3413827Y-15223072D01*
X3413827Y-15223072D02*
X3461447Y-15223072D01*
X3461447Y-15223072D02*
X3480494Y-15232595D01*
X3480494Y-15232595D02*
X3490018Y-15242119D01*
X3490018Y-15242119D02*
X3499542Y-15261167D01*
X3499542Y-15261167D02*
X3499542Y-15308786D01*
X3499542Y-15308786D02*
X3490018Y-15327833D01*
X3490018Y-15327833D02*
X3480494Y-15337357D01*
X3480494Y-15337357D02*
X3461447Y-15346881D01*
X3461447Y-15346881D02*
X3413827Y-15346881D01*
X3413827Y-15346881D02*
X3394780Y-15337357D01*
X3394780Y-15337357D02*
X3385256Y-15327833D01*
X3623351Y-15146881D02*
X3642399Y-15146881D01*
X3642399Y-15146881D02*
X3661447Y-15156405D01*
X3661447Y-15156405D02*
X3670970Y-15165929D01*
X3670970Y-15165929D02*
X3680494Y-15184976D01*
X3680494Y-15184976D02*
X3690018Y-15223072D01*
X3690018Y-15223072D02*
X3690018Y-15270691D01*
X3690018Y-15270691D02*
X3680494Y-15308786D01*
X3680494Y-15308786D02*
X3670970Y-15327833D01*
X3670970Y-15327833D02*
X3661447Y-15337357D01*
X3661447Y-15337357D02*
X3642399Y-15346881D01*
X3642399Y-15346881D02*
X3623351Y-15346881D01*
X3623351Y-15346881D02*
X3604304Y-15337357D01*
X3604304Y-15337357D02*
X3594780Y-15327833D01*
X3594780Y-15327833D02*
X3585256Y-15308786D01*
X3585256Y-15308786D02*
X3575732Y-15270691D01*
X3575732Y-15270691D02*
X3575732Y-15223072D01*
X3575732Y-15223072D02*
X3585256Y-15184976D01*
X3585256Y-15184976D02*
X3594780Y-15165929D01*
X3594780Y-15165929D02*
X3604304Y-15156405D01*
X3604304Y-15156405D02*
X3623351Y-15146881D01*
X3775732Y-15346881D02*
X3775732Y-15213548D01*
X3775732Y-15232595D02*
X3785256Y-15223072D01*
X3785256Y-15223072D02*
X3804304Y-15213548D01*
X3804304Y-15213548D02*
X3832875Y-15213548D01*
X3832875Y-15213548D02*
X3851923Y-15223072D01*
X3851923Y-15223072D02*
X3861447Y-15242119D01*
X3861447Y-15242119D02*
X3861447Y-15346881D01*
X3861447Y-15242119D02*
X3870970Y-15223072D01*
X3870970Y-15223072D02*
X3890018Y-15213548D01*
X3890018Y-15213548D02*
X3918589Y-15213548D01*
X3918589Y-15213548D02*
X3937637Y-15223072D01*
X3937637Y-15223072D02*
X3947161Y-15242119D01*
X3947161Y-15242119D02*
X3947161Y-15346881D01*
X4042399Y-15346881D02*
X4042399Y-15213548D01*
X4042399Y-15232595D02*
X4051923Y-15223072D01*
X4051923Y-15223072D02*
X4070970Y-15213548D01*
X4070970Y-15213548D02*
X4099542Y-15213548D01*
X4099542Y-15213548D02*
X4118589Y-15223072D01*
X4118589Y-15223072D02*
X4128113Y-15242119D01*
X4128113Y-15242119D02*
X4128113Y-15346881D01*
X4128113Y-15242119D02*
X4137637Y-15223072D01*
X4137637Y-15223072D02*
X4156685Y-15213548D01*
X4156685Y-15213548D02*
X4185256Y-15213548D01*
X4185256Y-15213548D02*
X4204304Y-15223072D01*
X4204304Y-15223072D02*
X4213828Y-15242119D01*
X4213828Y-15242119D02*
X4213828Y-15346881D01*
X4604304Y-15137357D02*
X4432875Y-15394500D01*
X4861447Y-15146881D02*
X4880494Y-15146881D01*
X4880494Y-15146881D02*
X4899542Y-15156405D01*
X4899542Y-15156405D02*
X4909066Y-15165929D01*
X4909066Y-15165929D02*
X4918590Y-15184976D01*
X4918590Y-15184976D02*
X4928113Y-15223072D01*
X4928113Y-15223072D02*
X4928113Y-15270691D01*
X4928113Y-15270691D02*
X4918590Y-15308786D01*
X4918590Y-15308786D02*
X4909066Y-15327833D01*
X4909066Y-15327833D02*
X4899542Y-15337357D01*
X4899542Y-15337357D02*
X4880494Y-15346881D01*
X4880494Y-15346881D02*
X4861447Y-15346881D01*
X4861447Y-15346881D02*
X4842399Y-15337357D01*
X4842399Y-15337357D02*
X4832875Y-15327833D01*
X4832875Y-15327833D02*
X4823352Y-15308786D01*
X4823352Y-15308786D02*
X4813828Y-15270691D01*
X4813828Y-15270691D02*
X4813828Y-15223072D01*
X4813828Y-15223072D02*
X4823352Y-15184976D01*
X4823352Y-15184976D02*
X4832875Y-15165929D01*
X4832875Y-15165929D02*
X4842399Y-15156405D01*
X4842399Y-15156405D02*
X4861447Y-15146881D01*
X5013828Y-15327833D02*
X5023352Y-15337357D01*
X5023352Y-15337357D02*
X5013828Y-15346881D01*
X5013828Y-15346881D02*
X5004304Y-15337357D01*
X5004304Y-15337357D02*
X5013828Y-15327833D01*
X5013828Y-15327833D02*
X5013828Y-15346881D01*
X5147161Y-15146881D02*
X5166209Y-15146881D01*
X5166209Y-15146881D02*
X5185256Y-15156405D01*
X5185256Y-15156405D02*
X5194780Y-15165929D01*
X5194780Y-15165929D02*
X5204304Y-15184976D01*
X5204304Y-15184976D02*
X5213828Y-15223072D01*
X5213828Y-15223072D02*
X5213828Y-15270691D01*
X5213828Y-15270691D02*
X5204304Y-15308786D01*
X5204304Y-15308786D02*
X5194780Y-15327833D01*
X5194780Y-15327833D02*
X5185256Y-15337357D01*
X5185256Y-15337357D02*
X5166209Y-15346881D01*
X5166209Y-15346881D02*
X5147161Y-15346881D01*
X5147161Y-15346881D02*
X5128113Y-15337357D01*
X5128113Y-15337357D02*
X5118590Y-15327833D01*
X5118590Y-15327833D02*
X5109066Y-15308786D01*
X5109066Y-15308786D02*
X5099542Y-15270691D01*
X5099542Y-15270691D02*
X5099542Y-15223072D01*
X5099542Y-15223072D02*
X5109066Y-15184976D01*
X5109066Y-15184976D02*
X5118590Y-15165929D01*
X5118590Y-15165929D02*
X5128113Y-15156405D01*
X5128113Y-15156405D02*
X5147161Y-15146881D01*
X5290018Y-15165929D02*
X5299542Y-15156405D01*
X5299542Y-15156405D02*
X5318590Y-15146881D01*
X5318590Y-15146881D02*
X5366209Y-15146881D01*
X5366209Y-15146881D02*
X5385256Y-15156405D01*
X5385256Y-15156405D02*
X5394780Y-15165929D01*
X5394780Y-15165929D02*
X5404304Y-15184976D01*
X5404304Y-15184976D02*
X5404304Y-15204024D01*
X5404304Y-15204024D02*
X5394780Y-15232595D01*
X5394780Y-15232595D02*
X5280494Y-15346881D01*
X5280494Y-15346881D02*
X5404304Y-15346881D01*
X5499542Y-15346881D02*
X5537637Y-15346881D01*
X5537637Y-15346881D02*
X5556685Y-15337357D01*
X5556685Y-15337357D02*
X5566209Y-15327833D01*
X5566209Y-15327833D02*
X5585256Y-15299262D01*
X5585256Y-15299262D02*
X5594780Y-15261167D01*
X5594780Y-15261167D02*
X5594780Y-15184976D01*
X5594780Y-15184976D02*
X5585256Y-15165929D01*
X5585256Y-15165929D02*
X5575733Y-15156405D01*
X5575733Y-15156405D02*
X5556685Y-15146881D01*
X5556685Y-15146881D02*
X5518590Y-15146881D01*
X5518590Y-15146881D02*
X5499542Y-15156405D01*
X5499542Y-15156405D02*
X5490018Y-15165929D01*
X5490018Y-15165929D02*
X5480494Y-15184976D01*
X5480494Y-15184976D02*
X5480494Y-15232595D01*
X5480494Y-15232595D02*
X5490018Y-15251643D01*
X5490018Y-15251643D02*
X5499542Y-15261167D01*
X5499542Y-15261167D02*
X5518590Y-15270691D01*
X5518590Y-15270691D02*
X5556685Y-15270691D01*
X5556685Y-15270691D02*
X5575733Y-15261167D01*
X5575733Y-15261167D02*
X5585256Y-15251643D01*
X5585256Y-15251643D02*
X5594780Y-15232595D01*
X5775732Y-15146881D02*
X5680494Y-15146881D01*
X5680494Y-15146881D02*
X5670971Y-15242119D01*
X5670971Y-15242119D02*
X5680494Y-15232595D01*
X5680494Y-15232595D02*
X5699542Y-15223072D01*
X5699542Y-15223072D02*
X5747161Y-15223072D01*
X5747161Y-15223072D02*
X5766209Y-15232595D01*
X5766209Y-15232595D02*
X5775732Y-15242119D01*
X5775732Y-15242119D02*
X5785256Y-15261167D01*
X5785256Y-15261167D02*
X5785256Y-15308786D01*
X5785256Y-15308786D02*
X5775732Y-15327833D01*
X5775732Y-15327833D02*
X5766209Y-15337357D01*
X5766209Y-15337357D02*
X5747161Y-15346881D01*
X5747161Y-15346881D02*
X5699542Y-15346881D01*
X5699542Y-15346881D02*
X5680494Y-15337357D01*
X5680494Y-15337357D02*
X5670971Y-15327833D01*
X5861447Y-15146881D02*
X5861447Y-15184976D01*
X5937637Y-15146881D02*
X5937637Y-15184976D01*
X6232875Y-15423072D02*
X6223352Y-15413548D01*
X6223352Y-15413548D02*
X6204304Y-15384976D01*
X6204304Y-15384976D02*
X6194780Y-15365929D01*
X6194780Y-15365929D02*
X6185256Y-15337357D01*
X6185256Y-15337357D02*
X6175733Y-15289738D01*
X6175733Y-15289738D02*
X6175733Y-15251643D01*
X6175733Y-15251643D02*
X6185256Y-15204024D01*
X6185256Y-15204024D02*
X6194780Y-15175453D01*
X6194780Y-15175453D02*
X6204304Y-15156405D01*
X6204304Y-15156405D02*
X6223352Y-15127833D01*
X6223352Y-15127833D02*
X6232875Y-15118310D01*
X6299542Y-15165929D02*
X6309066Y-15156405D01*
X6309066Y-15156405D02*
X6328113Y-15146881D01*
X6328113Y-15146881D02*
X6375733Y-15146881D01*
X6375733Y-15146881D02*
X6394780Y-15156405D01*
X6394780Y-15156405D02*
X6404304Y-15165929D01*
X6404304Y-15165929D02*
X6413828Y-15184976D01*
X6413828Y-15184976D02*
X6413828Y-15204024D01*
X6413828Y-15204024D02*
X6404304Y-15232595D01*
X6404304Y-15232595D02*
X6290018Y-15346881D01*
X6290018Y-15346881D02*
X6413828Y-15346881D01*
X6651923Y-15346881D02*
X6651923Y-15146881D01*
X6737637Y-15346881D02*
X6737637Y-15242119D01*
X6737637Y-15242119D02*
X6728114Y-15223072D01*
X6728114Y-15223072D02*
X6709066Y-15213548D01*
X6709066Y-15213548D02*
X6680494Y-15213548D01*
X6680494Y-15213548D02*
X6661447Y-15223072D01*
X6661447Y-15223072D02*
X6651923Y-15232595D01*
X6861447Y-15346881D02*
X6842399Y-15337357D01*
X6842399Y-15337357D02*
X6832875Y-15327833D01*
X6832875Y-15327833D02*
X6823352Y-15308786D01*
X6823352Y-15308786D02*
X6823352Y-15251643D01*
X6823352Y-15251643D02*
X6832875Y-15232595D01*
X6832875Y-15232595D02*
X6842399Y-15223072D01*
X6842399Y-15223072D02*
X6861447Y-15213548D01*
X6861447Y-15213548D02*
X6890018Y-15213548D01*
X6890018Y-15213548D02*
X6909066Y-15223072D01*
X6909066Y-15223072D02*
X6918590Y-15232595D01*
X6918590Y-15232595D02*
X6928114Y-15251643D01*
X6928114Y-15251643D02*
X6928114Y-15308786D01*
X6928114Y-15308786D02*
X6918590Y-15327833D01*
X6918590Y-15327833D02*
X6909066Y-15337357D01*
X6909066Y-15337357D02*
X6890018Y-15346881D01*
X6890018Y-15346881D02*
X6861447Y-15346881D01*
X7042399Y-15346881D02*
X7023352Y-15337357D01*
X7023352Y-15337357D02*
X7013828Y-15318310D01*
X7013828Y-15318310D02*
X7013828Y-15146881D01*
X7194780Y-15337357D02*
X7175733Y-15346881D01*
X7175733Y-15346881D02*
X7137637Y-15346881D01*
X7137637Y-15346881D02*
X7118590Y-15337357D01*
X7118590Y-15337357D02*
X7109066Y-15318310D01*
X7109066Y-15318310D02*
X7109066Y-15242119D01*
X7109066Y-15242119D02*
X7118590Y-15223072D01*
X7118590Y-15223072D02*
X7137637Y-15213548D01*
X7137637Y-15213548D02*
X7175733Y-15213548D01*
X7175733Y-15213548D02*
X7194780Y-15223072D01*
X7194780Y-15223072D02*
X7204304Y-15242119D01*
X7204304Y-15242119D02*
X7204304Y-15261167D01*
X7204304Y-15261167D02*
X7109066Y-15280214D01*
X7280495Y-15337357D02*
X7299542Y-15346881D01*
X7299542Y-15346881D02*
X7337637Y-15346881D01*
X7337637Y-15346881D02*
X7356685Y-15337357D01*
X7356685Y-15337357D02*
X7366209Y-15318310D01*
X7366209Y-15318310D02*
X7366209Y-15308786D01*
X7366209Y-15308786D02*
X7356685Y-15289738D01*
X7356685Y-15289738D02*
X7337637Y-15280214D01*
X7337637Y-15280214D02*
X7309066Y-15280214D01*
X7309066Y-15280214D02*
X7290018Y-15270691D01*
X7290018Y-15270691D02*
X7280495Y-15251643D01*
X7280495Y-15251643D02*
X7280495Y-15242119D01*
X7280495Y-15242119D02*
X7290018Y-15223072D01*
X7290018Y-15223072D02*
X7309066Y-15213548D01*
X7309066Y-15213548D02*
X7337637Y-15213548D01*
X7337637Y-15213548D02*
X7356685Y-15223072D01*
X7432876Y-15423072D02*
X7442399Y-15413548D01*
X7442399Y-15413548D02*
X7461447Y-15384976D01*
X7461447Y-15384976D02*
X7470971Y-15365929D01*
X7470971Y-15365929D02*
X7480495Y-15337357D01*
X7480495Y-15337357D02*
X7490018Y-15289738D01*
X7490018Y-15289738D02*
X7490018Y-15251643D01*
X7490018Y-15251643D02*
X7480495Y-15204024D01*
X7480495Y-15204024D02*
X7470971Y-15175453D01*
X7470971Y-15175453D02*
X7461447Y-15156405D01*
X7461447Y-15156405D02*
X7442399Y-15127833D01*
X7442399Y-15127833D02*
X7432876Y-15118310D01*
D11*
X2617173Y-15478757D02*
X2617173Y-15560037D01*
X2576533Y-15519397D02*
X2657813Y-15519397D01*
D10*
X2956685Y-15410881D02*
X2975732Y-15410881D01*
X2975732Y-15410881D02*
X2994780Y-15420405D01*
X2994780Y-15420405D02*
X3004304Y-15429929D01*
X3004304Y-15429929D02*
X3013827Y-15448976D01*
X3013827Y-15448976D02*
X3023351Y-15487072D01*
X3023351Y-15487072D02*
X3023351Y-15534691D01*
X3023351Y-15534691D02*
X3013827Y-15572786D01*
X3013827Y-15572786D02*
X3004304Y-15591833D01*
X3004304Y-15591833D02*
X2994780Y-15601357D01*
X2994780Y-15601357D02*
X2975732Y-15610881D01*
X2975732Y-15610881D02*
X2956685Y-15610881D01*
X2956685Y-15610881D02*
X2937637Y-15601357D01*
X2937637Y-15601357D02*
X2928113Y-15591833D01*
X2928113Y-15591833D02*
X2918589Y-15572786D01*
X2918589Y-15572786D02*
X2909066Y-15534691D01*
X2909066Y-15534691D02*
X2909066Y-15487072D01*
X2909066Y-15487072D02*
X2918589Y-15448976D01*
X2918589Y-15448976D02*
X2928113Y-15429929D01*
X2928113Y-15429929D02*
X2937637Y-15420405D01*
X2937637Y-15420405D02*
X2956685Y-15410881D01*
X3109066Y-15591833D02*
X3118589Y-15601357D01*
X3118589Y-15601357D02*
X3109066Y-15610881D01*
X3109066Y-15610881D02*
X3099542Y-15601357D01*
X3099542Y-15601357D02*
X3109066Y-15591833D01*
X3109066Y-15591833D02*
X3109066Y-15610881D01*
X3232875Y-15496595D02*
X3213827Y-15487072D01*
X3213827Y-15487072D02*
X3204304Y-15477548D01*
X3204304Y-15477548D02*
X3194780Y-15458500D01*
X3194780Y-15458500D02*
X3194780Y-15448976D01*
X3194780Y-15448976D02*
X3204304Y-15429929D01*
X3204304Y-15429929D02*
X3213827Y-15420405D01*
X3213827Y-15420405D02*
X3232875Y-15410881D01*
X3232875Y-15410881D02*
X3270970Y-15410881D01*
X3270970Y-15410881D02*
X3290018Y-15420405D01*
X3290018Y-15420405D02*
X3299542Y-15429929D01*
X3299542Y-15429929D02*
X3309066Y-15448976D01*
X3309066Y-15448976D02*
X3309066Y-15458500D01*
X3309066Y-15458500D02*
X3299542Y-15477548D01*
X3299542Y-15477548D02*
X3290018Y-15487072D01*
X3290018Y-15487072D02*
X3270970Y-15496595D01*
X3270970Y-15496595D02*
X3232875Y-15496595D01*
X3232875Y-15496595D02*
X3213827Y-15506119D01*
X3213827Y-15506119D02*
X3204304Y-15515643D01*
X3204304Y-15515643D02*
X3194780Y-15534691D01*
X3194780Y-15534691D02*
X3194780Y-15572786D01*
X3194780Y-15572786D02*
X3204304Y-15591833D01*
X3204304Y-15591833D02*
X3213827Y-15601357D01*
X3213827Y-15601357D02*
X3232875Y-15610881D01*
X3232875Y-15610881D02*
X3270970Y-15610881D01*
X3270970Y-15610881D02*
X3290018Y-15601357D01*
X3290018Y-15601357D02*
X3299542Y-15591833D01*
X3299542Y-15591833D02*
X3309066Y-15572786D01*
X3309066Y-15572786D02*
X3309066Y-15534691D01*
X3309066Y-15534691D02*
X3299542Y-15515643D01*
X3299542Y-15515643D02*
X3290018Y-15506119D01*
X3290018Y-15506119D02*
X3270970Y-15496595D01*
X3499542Y-15610881D02*
X3385256Y-15610881D01*
X3442399Y-15610881D02*
X3442399Y-15410881D01*
X3442399Y-15410881D02*
X3423351Y-15439453D01*
X3423351Y-15439453D02*
X3404304Y-15458500D01*
X3404304Y-15458500D02*
X3385256Y-15468024D01*
X3566208Y-15410881D02*
X3690018Y-15410881D01*
X3690018Y-15410881D02*
X3623351Y-15487072D01*
X3623351Y-15487072D02*
X3651923Y-15487072D01*
X3651923Y-15487072D02*
X3670970Y-15496595D01*
X3670970Y-15496595D02*
X3680494Y-15506119D01*
X3680494Y-15506119D02*
X3690018Y-15525167D01*
X3690018Y-15525167D02*
X3690018Y-15572786D01*
X3690018Y-15572786D02*
X3680494Y-15591833D01*
X3680494Y-15591833D02*
X3670970Y-15601357D01*
X3670970Y-15601357D02*
X3651923Y-15610881D01*
X3651923Y-15610881D02*
X3594780Y-15610881D01*
X3594780Y-15610881D02*
X3575732Y-15601357D01*
X3575732Y-15601357D02*
X3566208Y-15591833D01*
X3775732Y-15610881D02*
X3775732Y-15477548D01*
X3775732Y-15496595D02*
X3785256Y-15487072D01*
X3785256Y-15487072D02*
X3804304Y-15477548D01*
X3804304Y-15477548D02*
X3832875Y-15477548D01*
X3832875Y-15477548D02*
X3851923Y-15487072D01*
X3851923Y-15487072D02*
X3861447Y-15506119D01*
X3861447Y-15506119D02*
X3861447Y-15610881D01*
X3861447Y-15506119D02*
X3870970Y-15487072D01*
X3870970Y-15487072D02*
X3890018Y-15477548D01*
X3890018Y-15477548D02*
X3918589Y-15477548D01*
X3918589Y-15477548D02*
X3937637Y-15487072D01*
X3937637Y-15487072D02*
X3947161Y-15506119D01*
X3947161Y-15506119D02*
X3947161Y-15610881D01*
X4042399Y-15610881D02*
X4042399Y-15477548D01*
X4042399Y-15496595D02*
X4051923Y-15487072D01*
X4051923Y-15487072D02*
X4070970Y-15477548D01*
X4070970Y-15477548D02*
X4099542Y-15477548D01*
X4099542Y-15477548D02*
X4118589Y-15487072D01*
X4118589Y-15487072D02*
X4128113Y-15506119D01*
X4128113Y-15506119D02*
X4128113Y-15610881D01*
X4128113Y-15506119D02*
X4137637Y-15487072D01*
X4137637Y-15487072D02*
X4156685Y-15477548D01*
X4156685Y-15477548D02*
X4185256Y-15477548D01*
X4185256Y-15477548D02*
X4204304Y-15487072D01*
X4204304Y-15487072D02*
X4213828Y-15506119D01*
X4213828Y-15506119D02*
X4213828Y-15610881D01*
X4604304Y-15401357D02*
X4432875Y-15658500D01*
X4861447Y-15410881D02*
X4880494Y-15410881D01*
X4880494Y-15410881D02*
X4899542Y-15420405D01*
X4899542Y-15420405D02*
X4909066Y-15429929D01*
X4909066Y-15429929D02*
X4918590Y-15448976D01*
X4918590Y-15448976D02*
X4928113Y-15487072D01*
X4928113Y-15487072D02*
X4928113Y-15534691D01*
X4928113Y-15534691D02*
X4918590Y-15572786D01*
X4918590Y-15572786D02*
X4909066Y-15591833D01*
X4909066Y-15591833D02*
X4899542Y-15601357D01*
X4899542Y-15601357D02*
X4880494Y-15610881D01*
X4880494Y-15610881D02*
X4861447Y-15610881D01*
X4861447Y-15610881D02*
X4842399Y-15601357D01*
X4842399Y-15601357D02*
X4832875Y-15591833D01*
X4832875Y-15591833D02*
X4823352Y-15572786D01*
X4823352Y-15572786D02*
X4813828Y-15534691D01*
X4813828Y-15534691D02*
X4813828Y-15487072D01*
X4813828Y-15487072D02*
X4823352Y-15448976D01*
X4823352Y-15448976D02*
X4832875Y-15429929D01*
X4832875Y-15429929D02*
X4842399Y-15420405D01*
X4842399Y-15420405D02*
X4861447Y-15410881D01*
X5013828Y-15591833D02*
X5023352Y-15601357D01*
X5023352Y-15601357D02*
X5013828Y-15610881D01*
X5013828Y-15610881D02*
X5004304Y-15601357D01*
X5004304Y-15601357D02*
X5013828Y-15591833D01*
X5013828Y-15591833D02*
X5013828Y-15610881D01*
X5147161Y-15410881D02*
X5166209Y-15410881D01*
X5166209Y-15410881D02*
X5185256Y-15420405D01*
X5185256Y-15420405D02*
X5194780Y-15429929D01*
X5194780Y-15429929D02*
X5204304Y-15448976D01*
X5204304Y-15448976D02*
X5213828Y-15487072D01*
X5213828Y-15487072D02*
X5213828Y-15534691D01*
X5213828Y-15534691D02*
X5204304Y-15572786D01*
X5204304Y-15572786D02*
X5194780Y-15591833D01*
X5194780Y-15591833D02*
X5185256Y-15601357D01*
X5185256Y-15601357D02*
X5166209Y-15610881D01*
X5166209Y-15610881D02*
X5147161Y-15610881D01*
X5147161Y-15610881D02*
X5128113Y-15601357D01*
X5128113Y-15601357D02*
X5118590Y-15591833D01*
X5118590Y-15591833D02*
X5109066Y-15572786D01*
X5109066Y-15572786D02*
X5099542Y-15534691D01*
X5099542Y-15534691D02*
X5099542Y-15487072D01*
X5099542Y-15487072D02*
X5109066Y-15448976D01*
X5109066Y-15448976D02*
X5118590Y-15429929D01*
X5118590Y-15429929D02*
X5128113Y-15420405D01*
X5128113Y-15420405D02*
X5147161Y-15410881D01*
X5280494Y-15410881D02*
X5404304Y-15410881D01*
X5404304Y-15410881D02*
X5337637Y-15487072D01*
X5337637Y-15487072D02*
X5366209Y-15487072D01*
X5366209Y-15487072D02*
X5385256Y-15496595D01*
X5385256Y-15496595D02*
X5394780Y-15506119D01*
X5394780Y-15506119D02*
X5404304Y-15525167D01*
X5404304Y-15525167D02*
X5404304Y-15572786D01*
X5404304Y-15572786D02*
X5394780Y-15591833D01*
X5394780Y-15591833D02*
X5385256Y-15601357D01*
X5385256Y-15601357D02*
X5366209Y-15610881D01*
X5366209Y-15610881D02*
X5309066Y-15610881D01*
X5309066Y-15610881D02*
X5290018Y-15601357D01*
X5290018Y-15601357D02*
X5280494Y-15591833D01*
X5480494Y-15429929D02*
X5490018Y-15420405D01*
X5490018Y-15420405D02*
X5509066Y-15410881D01*
X5509066Y-15410881D02*
X5556685Y-15410881D01*
X5556685Y-15410881D02*
X5575733Y-15420405D01*
X5575733Y-15420405D02*
X5585256Y-15429929D01*
X5585256Y-15429929D02*
X5594780Y-15448976D01*
X5594780Y-15448976D02*
X5594780Y-15468024D01*
X5594780Y-15468024D02*
X5585256Y-15496595D01*
X5585256Y-15496595D02*
X5470971Y-15610881D01*
X5470971Y-15610881D02*
X5594780Y-15610881D01*
X5718590Y-15410881D02*
X5737637Y-15410881D01*
X5737637Y-15410881D02*
X5756685Y-15420405D01*
X5756685Y-15420405D02*
X5766209Y-15429929D01*
X5766209Y-15429929D02*
X5775732Y-15448976D01*
X5775732Y-15448976D02*
X5785256Y-15487072D01*
X5785256Y-15487072D02*
X5785256Y-15534691D01*
X5785256Y-15534691D02*
X5775732Y-15572786D01*
X5775732Y-15572786D02*
X5766209Y-15591833D01*
X5766209Y-15591833D02*
X5756685Y-15601357D01*
X5756685Y-15601357D02*
X5737637Y-15610881D01*
X5737637Y-15610881D02*
X5718590Y-15610881D01*
X5718590Y-15610881D02*
X5699542Y-15601357D01*
X5699542Y-15601357D02*
X5690018Y-15591833D01*
X5690018Y-15591833D02*
X5680494Y-15572786D01*
X5680494Y-15572786D02*
X5670971Y-15534691D01*
X5670971Y-15534691D02*
X5670971Y-15487072D01*
X5670971Y-15487072D02*
X5680494Y-15448976D01*
X5680494Y-15448976D02*
X5690018Y-15429929D01*
X5690018Y-15429929D02*
X5699542Y-15420405D01*
X5699542Y-15420405D02*
X5718590Y-15410881D01*
X5861447Y-15410881D02*
X5861447Y-15448976D01*
X5937637Y-15410881D02*
X5937637Y-15448976D01*
X6232875Y-15687072D02*
X6223352Y-15677548D01*
X6223352Y-15677548D02*
X6204304Y-15648976D01*
X6204304Y-15648976D02*
X6194780Y-15629929D01*
X6194780Y-15629929D02*
X6185256Y-15601357D01*
X6185256Y-15601357D02*
X6175733Y-15553738D01*
X6175733Y-15553738D02*
X6175733Y-15515643D01*
X6175733Y-15515643D02*
X6185256Y-15468024D01*
X6185256Y-15468024D02*
X6194780Y-15439453D01*
X6194780Y-15439453D02*
X6204304Y-15420405D01*
X6204304Y-15420405D02*
X6223352Y-15391833D01*
X6223352Y-15391833D02*
X6232875Y-15382310D01*
X6299542Y-15429929D02*
X6309066Y-15420405D01*
X6309066Y-15420405D02*
X6328113Y-15410881D01*
X6328113Y-15410881D02*
X6375733Y-15410881D01*
X6375733Y-15410881D02*
X6394780Y-15420405D01*
X6394780Y-15420405D02*
X6404304Y-15429929D01*
X6404304Y-15429929D02*
X6413828Y-15448976D01*
X6413828Y-15448976D02*
X6413828Y-15468024D01*
X6413828Y-15468024D02*
X6404304Y-15496595D01*
X6404304Y-15496595D02*
X6290018Y-15610881D01*
X6290018Y-15610881D02*
X6413828Y-15610881D01*
X6585256Y-15477548D02*
X6585256Y-15610881D01*
X6537637Y-15401357D02*
X6490018Y-15544214D01*
X6490018Y-15544214D02*
X6613828Y-15544214D01*
X6842399Y-15610881D02*
X6842399Y-15410881D01*
X6928114Y-15610881D02*
X6928114Y-15506119D01*
X6928114Y-15506119D02*
X6918590Y-15487072D01*
X6918590Y-15487072D02*
X6899542Y-15477548D01*
X6899542Y-15477548D02*
X6870971Y-15477548D01*
X6870971Y-15477548D02*
X6851923Y-15487072D01*
X6851923Y-15487072D02*
X6842399Y-15496595D01*
X7051923Y-15610881D02*
X7032875Y-15601357D01*
X7032875Y-15601357D02*
X7023352Y-15591833D01*
X7023352Y-15591833D02*
X7013828Y-15572786D01*
X7013828Y-15572786D02*
X7013828Y-15515643D01*
X7013828Y-15515643D02*
X7023352Y-15496595D01*
X7023352Y-15496595D02*
X7032875Y-15487072D01*
X7032875Y-15487072D02*
X7051923Y-15477548D01*
X7051923Y-15477548D02*
X7080495Y-15477548D01*
X7080495Y-15477548D02*
X7099542Y-15487072D01*
X7099542Y-15487072D02*
X7109066Y-15496595D01*
X7109066Y-15496595D02*
X7118590Y-15515643D01*
X7118590Y-15515643D02*
X7118590Y-15572786D01*
X7118590Y-15572786D02*
X7109066Y-15591833D01*
X7109066Y-15591833D02*
X7099542Y-15601357D01*
X7099542Y-15601357D02*
X7080495Y-15610881D01*
X7080495Y-15610881D02*
X7051923Y-15610881D01*
X7232875Y-15610881D02*
X7213828Y-15601357D01*
X7213828Y-15601357D02*
X7204304Y-15582310D01*
X7204304Y-15582310D02*
X7204304Y-15410881D01*
X7385256Y-15601357D02*
X7366209Y-15610881D01*
X7366209Y-15610881D02*
X7328114Y-15610881D01*
X7328114Y-15610881D02*
X7309066Y-15601357D01*
X7309066Y-15601357D02*
X7299542Y-15582310D01*
X7299542Y-15582310D02*
X7299542Y-15506119D01*
X7299542Y-15506119D02*
X7309066Y-15487072D01*
X7309066Y-15487072D02*
X7328114Y-15477548D01*
X7328114Y-15477548D02*
X7366209Y-15477548D01*
X7366209Y-15477548D02*
X7385256Y-15487072D01*
X7385256Y-15487072D02*
X7394780Y-15506119D01*
X7394780Y-15506119D02*
X7394780Y-15525167D01*
X7394780Y-15525167D02*
X7299542Y-15544214D01*
X7470971Y-15601357D02*
X7490018Y-15610881D01*
X7490018Y-15610881D02*
X7528114Y-15610881D01*
X7528114Y-15610881D02*
X7547161Y-15601357D01*
X7547161Y-15601357D02*
X7556685Y-15582310D01*
X7556685Y-15582310D02*
X7556685Y-15572786D01*
X7556685Y-15572786D02*
X7547161Y-15553738D01*
X7547161Y-15553738D02*
X7528114Y-15544214D01*
X7528114Y-15544214D02*
X7499542Y-15544214D01*
X7499542Y-15544214D02*
X7480495Y-15534691D01*
X7480495Y-15534691D02*
X7470971Y-15515643D01*
X7470971Y-15515643D02*
X7470971Y-15506119D01*
X7470971Y-15506119D02*
X7480495Y-15487072D01*
X7480495Y-15487072D02*
X7499542Y-15477548D01*
X7499542Y-15477548D02*
X7528114Y-15477548D01*
X7528114Y-15477548D02*
X7547161Y-15487072D01*
X7623352Y-15687072D02*
X7632876Y-15677548D01*
X7632876Y-15677548D02*
X7651923Y-15648976D01*
X7651923Y-15648976D02*
X7661447Y-15629929D01*
X7661447Y-15629929D02*
X7670971Y-15601357D01*
X7670971Y-15601357D02*
X7680495Y-15553738D01*
X7680495Y-15553738D02*
X7680495Y-15515643D01*
X7680495Y-15515643D02*
X7670971Y-15468024D01*
X7670971Y-15468024D02*
X7661447Y-15439453D01*
X7661447Y-15439453D02*
X7651923Y-15420405D01*
X7651923Y-15420405D02*
X7632876Y-15391833D01*
X7632876Y-15391833D02*
X7623352Y-15382310D01*
D12*
X2638775Y-15829360D02*
X2638775Y-15737435D01*
X2546850Y-15737435D01*
X2546850Y-15829360D01*
X2638775Y-15829360D01*
D10*
X3023351Y-15874881D02*
X2909066Y-15874881D01*
X2966208Y-15874881D02*
X2966208Y-15674881D01*
X2966208Y-15674881D02*
X2947161Y-15703453D01*
X2947161Y-15703453D02*
X2928113Y-15722500D01*
X2928113Y-15722500D02*
X2909066Y-15732024D01*
X3109066Y-15855833D02*
X3118589Y-15865357D01*
X3118589Y-15865357D02*
X3109066Y-15874881D01*
X3109066Y-15874881D02*
X3099542Y-15865357D01*
X3099542Y-15865357D02*
X3109066Y-15855833D01*
X3109066Y-15855833D02*
X3109066Y-15874881D01*
X3185256Y-15674881D02*
X3309066Y-15674881D01*
X3309066Y-15674881D02*
X3242399Y-15751072D01*
X3242399Y-15751072D02*
X3270970Y-15751072D01*
X3270970Y-15751072D02*
X3290018Y-15760595D01*
X3290018Y-15760595D02*
X3299542Y-15770119D01*
X3299542Y-15770119D02*
X3309066Y-15789167D01*
X3309066Y-15789167D02*
X3309066Y-15836786D01*
X3309066Y-15836786D02*
X3299542Y-15855833D01*
X3299542Y-15855833D02*
X3290018Y-15865357D01*
X3290018Y-15865357D02*
X3270970Y-15874881D01*
X3270970Y-15874881D02*
X3213827Y-15874881D01*
X3213827Y-15874881D02*
X3194780Y-15865357D01*
X3194780Y-15865357D02*
X3185256Y-15855833D01*
X3432875Y-15674881D02*
X3451923Y-15674881D01*
X3451923Y-15674881D02*
X3470970Y-15684405D01*
X3470970Y-15684405D02*
X3480494Y-15693929D01*
X3480494Y-15693929D02*
X3490018Y-15712976D01*
X3490018Y-15712976D02*
X3499542Y-15751072D01*
X3499542Y-15751072D02*
X3499542Y-15798691D01*
X3499542Y-15798691D02*
X3490018Y-15836786D01*
X3490018Y-15836786D02*
X3480494Y-15855833D01*
X3480494Y-15855833D02*
X3470970Y-15865357D01*
X3470970Y-15865357D02*
X3451923Y-15874881D01*
X3451923Y-15874881D02*
X3432875Y-15874881D01*
X3432875Y-15874881D02*
X3413827Y-15865357D01*
X3413827Y-15865357D02*
X3404304Y-15855833D01*
X3404304Y-15855833D02*
X3394780Y-15836786D01*
X3394780Y-15836786D02*
X3385256Y-15798691D01*
X3385256Y-15798691D02*
X3385256Y-15751072D01*
X3385256Y-15751072D02*
X3394780Y-15712976D01*
X3394780Y-15712976D02*
X3404304Y-15693929D01*
X3404304Y-15693929D02*
X3413827Y-15684405D01*
X3413827Y-15684405D02*
X3432875Y-15674881D01*
X3623351Y-15674881D02*
X3642399Y-15674881D01*
X3642399Y-15674881D02*
X3661447Y-15684405D01*
X3661447Y-15684405D02*
X3670970Y-15693929D01*
X3670970Y-15693929D02*
X3680494Y-15712976D01*
X3680494Y-15712976D02*
X3690018Y-15751072D01*
X3690018Y-15751072D02*
X3690018Y-15798691D01*
X3690018Y-15798691D02*
X3680494Y-15836786D01*
X3680494Y-15836786D02*
X3670970Y-15855833D01*
X3670970Y-15855833D02*
X3661447Y-15865357D01*
X3661447Y-15865357D02*
X3642399Y-15874881D01*
X3642399Y-15874881D02*
X3623351Y-15874881D01*
X3623351Y-15874881D02*
X3604304Y-15865357D01*
X3604304Y-15865357D02*
X3594780Y-15855833D01*
X3594780Y-15855833D02*
X3585256Y-15836786D01*
X3585256Y-15836786D02*
X3575732Y-15798691D01*
X3575732Y-15798691D02*
X3575732Y-15751072D01*
X3575732Y-15751072D02*
X3585256Y-15712976D01*
X3585256Y-15712976D02*
X3594780Y-15693929D01*
X3594780Y-15693929D02*
X3604304Y-15684405D01*
X3604304Y-15684405D02*
X3623351Y-15674881D01*
X3775732Y-15874881D02*
X3775732Y-15741548D01*
X3775732Y-15760595D02*
X3785256Y-15751072D01*
X3785256Y-15751072D02*
X3804304Y-15741548D01*
X3804304Y-15741548D02*
X3832875Y-15741548D01*
X3832875Y-15741548D02*
X3851923Y-15751072D01*
X3851923Y-15751072D02*
X3861447Y-15770119D01*
X3861447Y-15770119D02*
X3861447Y-15874881D01*
X3861447Y-15770119D02*
X3870970Y-15751072D01*
X3870970Y-15751072D02*
X3890018Y-15741548D01*
X3890018Y-15741548D02*
X3918589Y-15741548D01*
X3918589Y-15741548D02*
X3937637Y-15751072D01*
X3937637Y-15751072D02*
X3947161Y-15770119D01*
X3947161Y-15770119D02*
X3947161Y-15874881D01*
X4042399Y-15874881D02*
X4042399Y-15741548D01*
X4042399Y-15760595D02*
X4051923Y-15751072D01*
X4051923Y-15751072D02*
X4070970Y-15741548D01*
X4070970Y-15741548D02*
X4099542Y-15741548D01*
X4099542Y-15741548D02*
X4118589Y-15751072D01*
X4118589Y-15751072D02*
X4128113Y-15770119D01*
X4128113Y-15770119D02*
X4128113Y-15874881D01*
X4128113Y-15770119D02*
X4137637Y-15751072D01*
X4137637Y-15751072D02*
X4156685Y-15741548D01*
X4156685Y-15741548D02*
X4185256Y-15741548D01*
X4185256Y-15741548D02*
X4204304Y-15751072D01*
X4204304Y-15751072D02*
X4213828Y-15770119D01*
X4213828Y-15770119D02*
X4213828Y-15874881D01*
X4604304Y-15665357D02*
X4432875Y-15922500D01*
X4861447Y-15674881D02*
X4880494Y-15674881D01*
X4880494Y-15674881D02*
X4899542Y-15684405D01*
X4899542Y-15684405D02*
X4909066Y-15693929D01*
X4909066Y-15693929D02*
X4918590Y-15712976D01*
X4918590Y-15712976D02*
X4928113Y-15751072D01*
X4928113Y-15751072D02*
X4928113Y-15798691D01*
X4928113Y-15798691D02*
X4918590Y-15836786D01*
X4918590Y-15836786D02*
X4909066Y-15855833D01*
X4909066Y-15855833D02*
X4899542Y-15865357D01*
X4899542Y-15865357D02*
X4880494Y-15874881D01*
X4880494Y-15874881D02*
X4861447Y-15874881D01*
X4861447Y-15874881D02*
X4842399Y-15865357D01*
X4842399Y-15865357D02*
X4832875Y-15855833D01*
X4832875Y-15855833D02*
X4823352Y-15836786D01*
X4823352Y-15836786D02*
X4813828Y-15798691D01*
X4813828Y-15798691D02*
X4813828Y-15751072D01*
X4813828Y-15751072D02*
X4823352Y-15712976D01*
X4823352Y-15712976D02*
X4832875Y-15693929D01*
X4832875Y-15693929D02*
X4842399Y-15684405D01*
X4842399Y-15684405D02*
X4861447Y-15674881D01*
X5013828Y-15855833D02*
X5023352Y-15865357D01*
X5023352Y-15865357D02*
X5013828Y-15874881D01*
X5013828Y-15874881D02*
X5004304Y-15865357D01*
X5004304Y-15865357D02*
X5013828Y-15855833D01*
X5013828Y-15855833D02*
X5013828Y-15874881D01*
X5147161Y-15674881D02*
X5166209Y-15674881D01*
X5166209Y-15674881D02*
X5185256Y-15684405D01*
X5185256Y-15684405D02*
X5194780Y-15693929D01*
X5194780Y-15693929D02*
X5204304Y-15712976D01*
X5204304Y-15712976D02*
X5213828Y-15751072D01*
X5213828Y-15751072D02*
X5213828Y-15798691D01*
X5213828Y-15798691D02*
X5204304Y-15836786D01*
X5204304Y-15836786D02*
X5194780Y-15855833D01*
X5194780Y-15855833D02*
X5185256Y-15865357D01*
X5185256Y-15865357D02*
X5166209Y-15874881D01*
X5166209Y-15874881D02*
X5147161Y-15874881D01*
X5147161Y-15874881D02*
X5128113Y-15865357D01*
X5128113Y-15865357D02*
X5118590Y-15855833D01*
X5118590Y-15855833D02*
X5109066Y-15836786D01*
X5109066Y-15836786D02*
X5099542Y-15798691D01*
X5099542Y-15798691D02*
X5099542Y-15751072D01*
X5099542Y-15751072D02*
X5109066Y-15712976D01*
X5109066Y-15712976D02*
X5118590Y-15693929D01*
X5118590Y-15693929D02*
X5128113Y-15684405D01*
X5128113Y-15684405D02*
X5147161Y-15674881D01*
X5394780Y-15674881D02*
X5299542Y-15674881D01*
X5299542Y-15674881D02*
X5290018Y-15770119D01*
X5290018Y-15770119D02*
X5299542Y-15760595D01*
X5299542Y-15760595D02*
X5318590Y-15751072D01*
X5318590Y-15751072D02*
X5366209Y-15751072D01*
X5366209Y-15751072D02*
X5385256Y-15760595D01*
X5385256Y-15760595D02*
X5394780Y-15770119D01*
X5394780Y-15770119D02*
X5404304Y-15789167D01*
X5404304Y-15789167D02*
X5404304Y-15836786D01*
X5404304Y-15836786D02*
X5394780Y-15855833D01*
X5394780Y-15855833D02*
X5385256Y-15865357D01*
X5385256Y-15865357D02*
X5366209Y-15874881D01*
X5366209Y-15874881D02*
X5318590Y-15874881D01*
X5318590Y-15874881D02*
X5299542Y-15865357D01*
X5299542Y-15865357D02*
X5290018Y-15855833D01*
X5594780Y-15874881D02*
X5480494Y-15874881D01*
X5537637Y-15874881D02*
X5537637Y-15674881D01*
X5537637Y-15674881D02*
X5518590Y-15703453D01*
X5518590Y-15703453D02*
X5499542Y-15722500D01*
X5499542Y-15722500D02*
X5480494Y-15732024D01*
X5670971Y-15693929D02*
X5680494Y-15684405D01*
X5680494Y-15684405D02*
X5699542Y-15674881D01*
X5699542Y-15674881D02*
X5747161Y-15674881D01*
X5747161Y-15674881D02*
X5766209Y-15684405D01*
X5766209Y-15684405D02*
X5775732Y-15693929D01*
X5775732Y-15693929D02*
X5785256Y-15712976D01*
X5785256Y-15712976D02*
X5785256Y-15732024D01*
X5785256Y-15732024D02*
X5775732Y-15760595D01*
X5775732Y-15760595D02*
X5661447Y-15874881D01*
X5661447Y-15874881D02*
X5785256Y-15874881D01*
X5861447Y-15674881D02*
X5861447Y-15712976D01*
X5937637Y-15674881D02*
X5937637Y-15712976D01*
X6232875Y-15951072D02*
X6223352Y-15941548D01*
X6223352Y-15941548D02*
X6204304Y-15912976D01*
X6204304Y-15912976D02*
X6194780Y-15893929D01*
X6194780Y-15893929D02*
X6185256Y-15865357D01*
X6185256Y-15865357D02*
X6175733Y-15817738D01*
X6175733Y-15817738D02*
X6175733Y-15779643D01*
X6175733Y-15779643D02*
X6185256Y-15732024D01*
X6185256Y-15732024D02*
X6194780Y-15703453D01*
X6194780Y-15703453D02*
X6204304Y-15684405D01*
X6204304Y-15684405D02*
X6223352Y-15655833D01*
X6223352Y-15655833D02*
X6232875Y-15646310D01*
X6299542Y-15693929D02*
X6309066Y-15684405D01*
X6309066Y-15684405D02*
X6328113Y-15674881D01*
X6328113Y-15674881D02*
X6375733Y-15674881D01*
X6375733Y-15674881D02*
X6394780Y-15684405D01*
X6394780Y-15684405D02*
X6404304Y-15693929D01*
X6404304Y-15693929D02*
X6413828Y-15712976D01*
X6413828Y-15712976D02*
X6413828Y-15732024D01*
X6413828Y-15732024D02*
X6404304Y-15760595D01*
X6404304Y-15760595D02*
X6290018Y-15874881D01*
X6290018Y-15874881D02*
X6413828Y-15874881D01*
X6651923Y-15874881D02*
X6651923Y-15674881D01*
X6737637Y-15874881D02*
X6737637Y-15770119D01*
X6737637Y-15770119D02*
X6728114Y-15751072D01*
X6728114Y-15751072D02*
X6709066Y-15741548D01*
X6709066Y-15741548D02*
X6680494Y-15741548D01*
X6680494Y-15741548D02*
X6661447Y-15751072D01*
X6661447Y-15751072D02*
X6651923Y-15760595D01*
X6861447Y-15874881D02*
X6842399Y-15865357D01*
X6842399Y-15865357D02*
X6832875Y-15855833D01*
X6832875Y-15855833D02*
X6823352Y-15836786D01*
X6823352Y-15836786D02*
X6823352Y-15779643D01*
X6823352Y-15779643D02*
X6832875Y-15760595D01*
X6832875Y-15760595D02*
X6842399Y-15751072D01*
X6842399Y-15751072D02*
X6861447Y-15741548D01*
X6861447Y-15741548D02*
X6890018Y-15741548D01*
X6890018Y-15741548D02*
X6909066Y-15751072D01*
X6909066Y-15751072D02*
X6918590Y-15760595D01*
X6918590Y-15760595D02*
X6928114Y-15779643D01*
X6928114Y-15779643D02*
X6928114Y-15836786D01*
X6928114Y-15836786D02*
X6918590Y-15855833D01*
X6918590Y-15855833D02*
X6909066Y-15865357D01*
X6909066Y-15865357D02*
X6890018Y-15874881D01*
X6890018Y-15874881D02*
X6861447Y-15874881D01*
X7042399Y-15874881D02*
X7023352Y-15865357D01*
X7023352Y-15865357D02*
X7013828Y-15846310D01*
X7013828Y-15846310D02*
X7013828Y-15674881D01*
X7194780Y-15865357D02*
X7175733Y-15874881D01*
X7175733Y-15874881D02*
X7137637Y-15874881D01*
X7137637Y-15874881D02*
X7118590Y-15865357D01*
X7118590Y-15865357D02*
X7109066Y-15846310D01*
X7109066Y-15846310D02*
X7109066Y-15770119D01*
X7109066Y-15770119D02*
X7118590Y-15751072D01*
X7118590Y-15751072D02*
X7137637Y-15741548D01*
X7137637Y-15741548D02*
X7175733Y-15741548D01*
X7175733Y-15741548D02*
X7194780Y-15751072D01*
X7194780Y-15751072D02*
X7204304Y-15770119D01*
X7204304Y-15770119D02*
X7204304Y-15789167D01*
X7204304Y-15789167D02*
X7109066Y-15808214D01*
X7280495Y-15865357D02*
X7299542Y-15874881D01*
X7299542Y-15874881D02*
X7337637Y-15874881D01*
X7337637Y-15874881D02*
X7356685Y-15865357D01*
X7356685Y-15865357D02*
X7366209Y-15846310D01*
X7366209Y-15846310D02*
X7366209Y-15836786D01*
X7366209Y-15836786D02*
X7356685Y-15817738D01*
X7356685Y-15817738D02*
X7337637Y-15808214D01*
X7337637Y-15808214D02*
X7309066Y-15808214D01*
X7309066Y-15808214D02*
X7290018Y-15798691D01*
X7290018Y-15798691D02*
X7280495Y-15779643D01*
X7280495Y-15779643D02*
X7280495Y-15770119D01*
X7280495Y-15770119D02*
X7290018Y-15751072D01*
X7290018Y-15751072D02*
X7309066Y-15741548D01*
X7309066Y-15741548D02*
X7337637Y-15741548D01*
X7337637Y-15741548D02*
X7356685Y-15751072D01*
X7432876Y-15951072D02*
X7442399Y-15941548D01*
X7442399Y-15941548D02*
X7461447Y-15912976D01*
X7461447Y-15912976D02*
X7470971Y-15893929D01*
X7470971Y-15893929D02*
X7480495Y-15865357D01*
X7480495Y-15865357D02*
X7490018Y-15817738D01*
X7490018Y-15817738D02*
X7490018Y-15779643D01*
X7490018Y-15779643D02*
X7480495Y-15732024D01*
X7480495Y-15732024D02*
X7470971Y-15703453D01*
X7470971Y-15703453D02*
X7461447Y-15684405D01*
X7461447Y-15684405D02*
X7442399Y-15655833D01*
X7442399Y-15655833D02*
X7432876Y-15646310D01*
X2557813Y-16147397D02*
X2657813Y-16047397D01*
X2557813Y-15947397D01*
X2457813Y-16047397D01*
X2557813Y-16147397D01*
X2909066Y-15957929D02*
X2918589Y-15948405D01*
X2918589Y-15948405D02*
X2937637Y-15938881D01*
X2937637Y-15938881D02*
X2985256Y-15938881D01*
X2985256Y-15938881D02*
X3004304Y-15948405D01*
X3004304Y-15948405D02*
X3013827Y-15957929D01*
X3013827Y-15957929D02*
X3023351Y-15976976D01*
X3023351Y-15976976D02*
X3023351Y-15996024D01*
X3023351Y-15996024D02*
X3013827Y-16024595D01*
X3013827Y-16024595D02*
X2899542Y-16138881D01*
X2899542Y-16138881D02*
X3023351Y-16138881D01*
X3109066Y-16119833D02*
X3118589Y-16129357D01*
X3118589Y-16129357D02*
X3109066Y-16138881D01*
X3109066Y-16138881D02*
X3099542Y-16129357D01*
X3099542Y-16129357D02*
X3109066Y-16119833D01*
X3109066Y-16119833D02*
X3109066Y-16138881D01*
X3290018Y-16005548D02*
X3290018Y-16138881D01*
X3242399Y-15929357D02*
X3194780Y-16072214D01*
X3194780Y-16072214D02*
X3318589Y-16072214D01*
X3432875Y-15938881D02*
X3451923Y-15938881D01*
X3451923Y-15938881D02*
X3470970Y-15948405D01*
X3470970Y-15948405D02*
X3480494Y-15957929D01*
X3480494Y-15957929D02*
X3490018Y-15976976D01*
X3490018Y-15976976D02*
X3499542Y-16015072D01*
X3499542Y-16015072D02*
X3499542Y-16062691D01*
X3499542Y-16062691D02*
X3490018Y-16100786D01*
X3490018Y-16100786D02*
X3480494Y-16119833D01*
X3480494Y-16119833D02*
X3470970Y-16129357D01*
X3470970Y-16129357D02*
X3451923Y-16138881D01*
X3451923Y-16138881D02*
X3432875Y-16138881D01*
X3432875Y-16138881D02*
X3413827Y-16129357D01*
X3413827Y-16129357D02*
X3404304Y-16119833D01*
X3404304Y-16119833D02*
X3394780Y-16100786D01*
X3394780Y-16100786D02*
X3385256Y-16062691D01*
X3385256Y-16062691D02*
X3385256Y-16015072D01*
X3385256Y-16015072D02*
X3394780Y-15976976D01*
X3394780Y-15976976D02*
X3404304Y-15957929D01*
X3404304Y-15957929D02*
X3413827Y-15948405D01*
X3413827Y-15948405D02*
X3432875Y-15938881D01*
X3623351Y-15938881D02*
X3642399Y-15938881D01*
X3642399Y-15938881D02*
X3661447Y-15948405D01*
X3661447Y-15948405D02*
X3670970Y-15957929D01*
X3670970Y-15957929D02*
X3680494Y-15976976D01*
X3680494Y-15976976D02*
X3690018Y-16015072D01*
X3690018Y-16015072D02*
X3690018Y-16062691D01*
X3690018Y-16062691D02*
X3680494Y-16100786D01*
X3680494Y-16100786D02*
X3670970Y-16119833D01*
X3670970Y-16119833D02*
X3661447Y-16129357D01*
X3661447Y-16129357D02*
X3642399Y-16138881D01*
X3642399Y-16138881D02*
X3623351Y-16138881D01*
X3623351Y-16138881D02*
X3604304Y-16129357D01*
X3604304Y-16129357D02*
X3594780Y-16119833D01*
X3594780Y-16119833D02*
X3585256Y-16100786D01*
X3585256Y-16100786D02*
X3575732Y-16062691D01*
X3575732Y-16062691D02*
X3575732Y-16015072D01*
X3575732Y-16015072D02*
X3585256Y-15976976D01*
X3585256Y-15976976D02*
X3594780Y-15957929D01*
X3594780Y-15957929D02*
X3604304Y-15948405D01*
X3604304Y-15948405D02*
X3623351Y-15938881D01*
X3775732Y-16138881D02*
X3775732Y-16005548D01*
X3775732Y-16024595D02*
X3785256Y-16015072D01*
X3785256Y-16015072D02*
X3804304Y-16005548D01*
X3804304Y-16005548D02*
X3832875Y-16005548D01*
X3832875Y-16005548D02*
X3851923Y-16015072D01*
X3851923Y-16015072D02*
X3861447Y-16034119D01*
X3861447Y-16034119D02*
X3861447Y-16138881D01*
X3861447Y-16034119D02*
X3870970Y-16015072D01*
X3870970Y-16015072D02*
X3890018Y-16005548D01*
X3890018Y-16005548D02*
X3918589Y-16005548D01*
X3918589Y-16005548D02*
X3937637Y-16015072D01*
X3937637Y-16015072D02*
X3947161Y-16034119D01*
X3947161Y-16034119D02*
X3947161Y-16138881D01*
X4042399Y-16138881D02*
X4042399Y-16005548D01*
X4042399Y-16024595D02*
X4051923Y-16015072D01*
X4051923Y-16015072D02*
X4070970Y-16005548D01*
X4070970Y-16005548D02*
X4099542Y-16005548D01*
X4099542Y-16005548D02*
X4118589Y-16015072D01*
X4118589Y-16015072D02*
X4128113Y-16034119D01*
X4128113Y-16034119D02*
X4128113Y-16138881D01*
X4128113Y-16034119D02*
X4137637Y-16015072D01*
X4137637Y-16015072D02*
X4156685Y-16005548D01*
X4156685Y-16005548D02*
X4185256Y-16005548D01*
X4185256Y-16005548D02*
X4204304Y-16015072D01*
X4204304Y-16015072D02*
X4213828Y-16034119D01*
X4213828Y-16034119D02*
X4213828Y-16138881D01*
X4604304Y-15929357D02*
X4432875Y-16186500D01*
X4861447Y-15938881D02*
X4880494Y-15938881D01*
X4880494Y-15938881D02*
X4899542Y-15948405D01*
X4899542Y-15948405D02*
X4909066Y-15957929D01*
X4909066Y-15957929D02*
X4918590Y-15976976D01*
X4918590Y-15976976D02*
X4928113Y-16015072D01*
X4928113Y-16015072D02*
X4928113Y-16062691D01*
X4928113Y-16062691D02*
X4918590Y-16100786D01*
X4918590Y-16100786D02*
X4909066Y-16119833D01*
X4909066Y-16119833D02*
X4899542Y-16129357D01*
X4899542Y-16129357D02*
X4880494Y-16138881D01*
X4880494Y-16138881D02*
X4861447Y-16138881D01*
X4861447Y-16138881D02*
X4842399Y-16129357D01*
X4842399Y-16129357D02*
X4832875Y-16119833D01*
X4832875Y-16119833D02*
X4823352Y-16100786D01*
X4823352Y-16100786D02*
X4813828Y-16062691D01*
X4813828Y-16062691D02*
X4813828Y-16015072D01*
X4813828Y-16015072D02*
X4823352Y-15976976D01*
X4823352Y-15976976D02*
X4832875Y-15957929D01*
X4832875Y-15957929D02*
X4842399Y-15948405D01*
X4842399Y-15948405D02*
X4861447Y-15938881D01*
X5013828Y-16119833D02*
X5023352Y-16129357D01*
X5023352Y-16129357D02*
X5013828Y-16138881D01*
X5013828Y-16138881D02*
X5004304Y-16129357D01*
X5004304Y-16129357D02*
X5013828Y-16119833D01*
X5013828Y-16119833D02*
X5013828Y-16138881D01*
X5147161Y-15938881D02*
X5166209Y-15938881D01*
X5166209Y-15938881D02*
X5185256Y-15948405D01*
X5185256Y-15948405D02*
X5194780Y-15957929D01*
X5194780Y-15957929D02*
X5204304Y-15976976D01*
X5204304Y-15976976D02*
X5213828Y-16015072D01*
X5213828Y-16015072D02*
X5213828Y-16062691D01*
X5213828Y-16062691D02*
X5204304Y-16100786D01*
X5204304Y-16100786D02*
X5194780Y-16119833D01*
X5194780Y-16119833D02*
X5185256Y-16129357D01*
X5185256Y-16129357D02*
X5166209Y-16138881D01*
X5166209Y-16138881D02*
X5147161Y-16138881D01*
X5147161Y-16138881D02*
X5128113Y-16129357D01*
X5128113Y-16129357D02*
X5118590Y-16119833D01*
X5118590Y-16119833D02*
X5109066Y-16100786D01*
X5109066Y-16100786D02*
X5099542Y-16062691D01*
X5099542Y-16062691D02*
X5099542Y-16015072D01*
X5099542Y-16015072D02*
X5109066Y-15976976D01*
X5109066Y-15976976D02*
X5118590Y-15957929D01*
X5118590Y-15957929D02*
X5128113Y-15948405D01*
X5128113Y-15948405D02*
X5147161Y-15938881D01*
X5309066Y-16138881D02*
X5347161Y-16138881D01*
X5347161Y-16138881D02*
X5366209Y-16129357D01*
X5366209Y-16129357D02*
X5375733Y-16119833D01*
X5375733Y-16119833D02*
X5394780Y-16091262D01*
X5394780Y-16091262D02*
X5404304Y-16053167D01*
X5404304Y-16053167D02*
X5404304Y-15976976D01*
X5404304Y-15976976D02*
X5394780Y-15957929D01*
X5394780Y-15957929D02*
X5385256Y-15948405D01*
X5385256Y-15948405D02*
X5366209Y-15938881D01*
X5366209Y-15938881D02*
X5328113Y-15938881D01*
X5328113Y-15938881D02*
X5309066Y-15948405D01*
X5309066Y-15948405D02*
X5299542Y-15957929D01*
X5299542Y-15957929D02*
X5290018Y-15976976D01*
X5290018Y-15976976D02*
X5290018Y-16024595D01*
X5290018Y-16024595D02*
X5299542Y-16043643D01*
X5299542Y-16043643D02*
X5309066Y-16053167D01*
X5309066Y-16053167D02*
X5328113Y-16062691D01*
X5328113Y-16062691D02*
X5366209Y-16062691D01*
X5366209Y-16062691D02*
X5385256Y-16053167D01*
X5385256Y-16053167D02*
X5394780Y-16043643D01*
X5394780Y-16043643D02*
X5404304Y-16024595D01*
X5575733Y-16005548D02*
X5575733Y-16138881D01*
X5528113Y-15929357D02*
X5480494Y-16072214D01*
X5480494Y-16072214D02*
X5604304Y-16072214D01*
X5775732Y-15938881D02*
X5680494Y-15938881D01*
X5680494Y-15938881D02*
X5670971Y-16034119D01*
X5670971Y-16034119D02*
X5680494Y-16024595D01*
X5680494Y-16024595D02*
X5699542Y-16015072D01*
X5699542Y-16015072D02*
X5747161Y-16015072D01*
X5747161Y-16015072D02*
X5766209Y-16024595D01*
X5766209Y-16024595D02*
X5775732Y-16034119D01*
X5775732Y-16034119D02*
X5785256Y-16053167D01*
X5785256Y-16053167D02*
X5785256Y-16100786D01*
X5785256Y-16100786D02*
X5775732Y-16119833D01*
X5775732Y-16119833D02*
X5766209Y-16129357D01*
X5766209Y-16129357D02*
X5747161Y-16138881D01*
X5747161Y-16138881D02*
X5699542Y-16138881D01*
X5699542Y-16138881D02*
X5680494Y-16129357D01*
X5680494Y-16129357D02*
X5670971Y-16119833D01*
X5861447Y-15938881D02*
X5861447Y-15976976D01*
X5937637Y-15938881D02*
X5937637Y-15976976D01*
X6232875Y-16215072D02*
X6223352Y-16205548D01*
X6223352Y-16205548D02*
X6204304Y-16176976D01*
X6204304Y-16176976D02*
X6194780Y-16157929D01*
X6194780Y-16157929D02*
X6185256Y-16129357D01*
X6185256Y-16129357D02*
X6175733Y-16081738D01*
X6175733Y-16081738D02*
X6175733Y-16043643D01*
X6175733Y-16043643D02*
X6185256Y-15996024D01*
X6185256Y-15996024D02*
X6194780Y-15967453D01*
X6194780Y-15967453D02*
X6204304Y-15948405D01*
X6204304Y-15948405D02*
X6223352Y-15919833D01*
X6223352Y-15919833D02*
X6232875Y-15910310D01*
X6299542Y-15957929D02*
X6309066Y-15948405D01*
X6309066Y-15948405D02*
X6328113Y-15938881D01*
X6328113Y-15938881D02*
X6375733Y-15938881D01*
X6375733Y-15938881D02*
X6394780Y-15948405D01*
X6394780Y-15948405D02*
X6404304Y-15957929D01*
X6404304Y-15957929D02*
X6413828Y-15976976D01*
X6413828Y-15976976D02*
X6413828Y-15996024D01*
X6413828Y-15996024D02*
X6404304Y-16024595D01*
X6404304Y-16024595D02*
X6290018Y-16138881D01*
X6290018Y-16138881D02*
X6413828Y-16138881D01*
X6651923Y-16138881D02*
X6651923Y-15938881D01*
X6737637Y-16138881D02*
X6737637Y-16034119D01*
X6737637Y-16034119D02*
X6728114Y-16015072D01*
X6728114Y-16015072D02*
X6709066Y-16005548D01*
X6709066Y-16005548D02*
X6680494Y-16005548D01*
X6680494Y-16005548D02*
X6661447Y-16015072D01*
X6661447Y-16015072D02*
X6651923Y-16024595D01*
X6861447Y-16138881D02*
X6842399Y-16129357D01*
X6842399Y-16129357D02*
X6832875Y-16119833D01*
X6832875Y-16119833D02*
X6823352Y-16100786D01*
X6823352Y-16100786D02*
X6823352Y-16043643D01*
X6823352Y-16043643D02*
X6832875Y-16024595D01*
X6832875Y-16024595D02*
X6842399Y-16015072D01*
X6842399Y-16015072D02*
X6861447Y-16005548D01*
X6861447Y-16005548D02*
X6890018Y-16005548D01*
X6890018Y-16005548D02*
X6909066Y-16015072D01*
X6909066Y-16015072D02*
X6918590Y-16024595D01*
X6918590Y-16024595D02*
X6928114Y-16043643D01*
X6928114Y-16043643D02*
X6928114Y-16100786D01*
X6928114Y-16100786D02*
X6918590Y-16119833D01*
X6918590Y-16119833D02*
X6909066Y-16129357D01*
X6909066Y-16129357D02*
X6890018Y-16138881D01*
X6890018Y-16138881D02*
X6861447Y-16138881D01*
X7042399Y-16138881D02*
X7023352Y-16129357D01*
X7023352Y-16129357D02*
X7013828Y-16110310D01*
X7013828Y-16110310D02*
X7013828Y-15938881D01*
X7194780Y-16129357D02*
X7175733Y-16138881D01*
X7175733Y-16138881D02*
X7137637Y-16138881D01*
X7137637Y-16138881D02*
X7118590Y-16129357D01*
X7118590Y-16129357D02*
X7109066Y-16110310D01*
X7109066Y-16110310D02*
X7109066Y-16034119D01*
X7109066Y-16034119D02*
X7118590Y-16015072D01*
X7118590Y-16015072D02*
X7137637Y-16005548D01*
X7137637Y-16005548D02*
X7175733Y-16005548D01*
X7175733Y-16005548D02*
X7194780Y-16015072D01*
X7194780Y-16015072D02*
X7204304Y-16034119D01*
X7204304Y-16034119D02*
X7204304Y-16053167D01*
X7204304Y-16053167D02*
X7109066Y-16072214D01*
X7280495Y-16129357D02*
X7299542Y-16138881D01*
X7299542Y-16138881D02*
X7337637Y-16138881D01*
X7337637Y-16138881D02*
X7356685Y-16129357D01*
X7356685Y-16129357D02*
X7366209Y-16110310D01*
X7366209Y-16110310D02*
X7366209Y-16100786D01*
X7366209Y-16100786D02*
X7356685Y-16081738D01*
X7356685Y-16081738D02*
X7337637Y-16072214D01*
X7337637Y-16072214D02*
X7309066Y-16072214D01*
X7309066Y-16072214D02*
X7290018Y-16062691D01*
X7290018Y-16062691D02*
X7280495Y-16043643D01*
X7280495Y-16043643D02*
X7280495Y-16034119D01*
X7280495Y-16034119D02*
X7290018Y-16015072D01*
X7290018Y-16015072D02*
X7309066Y-16005548D01*
X7309066Y-16005548D02*
X7337637Y-16005548D01*
X7337637Y-16005548D02*
X7356685Y-16015072D01*
X7432876Y-16215072D02*
X7442399Y-16205548D01*
X7442399Y-16205548D02*
X7461447Y-16176976D01*
X7461447Y-16176976D02*
X7470971Y-16157929D01*
X7470971Y-16157929D02*
X7480495Y-16129357D01*
X7480495Y-16129357D02*
X7490018Y-16081738D01*
X7490018Y-16081738D02*
X7490018Y-16043643D01*
X7490018Y-16043643D02*
X7480495Y-15996024D01*
X7480495Y-15996024D02*
X7470971Y-15967453D01*
X7470971Y-15967453D02*
X7461447Y-15948405D01*
X7461447Y-15948405D02*
X7442399Y-15919833D01*
X7442399Y-15919833D02*
X7432876Y-15910310D01*
M02*
