G04 #@! TF.GenerationSoftware,KiCad,Pcbnew,7.0.10*
G04 #@! TF.CreationDate,2024-03-21T01:02:57+01:00*
G04 #@! TF.ProjectId,allium58,616c6c69-756d-4353-982e-6b696361645f,rev?*
G04 #@! TF.SameCoordinates,Original*
G04 #@! TF.FileFunction,Soldermask,Top*
G04 #@! TF.FilePolarity,Negative*
%FSLAX46Y46*%
G04 Gerber Fmt 4.6, Leading zero omitted, Abs format (unit mm)*
G04 Created by KiCad (PCBNEW 7.0.10) date 2024-03-21 01:02:57*
%MOMM*%
%LPD*%
G01*
G04 APERTURE LIST*
G04 Aperture macros list*
%AMRoundRect*
0 Rectangle with rounded corners*
0 $1 Rounding radius*
0 $2 $3 $4 $5 $6 $7 $8 $9 X,Y pos of 4 corners*
0 Add a 4 corners polygon primitive as box body*
4,1,4,$2,$3,$4,$5,$6,$7,$8,$9,$2,$3,0*
0 Add four circle primitives for the rounded corners*
1,1,$1+$1,$2,$3*
1,1,$1+$1,$4,$5*
1,1,$1+$1,$6,$7*
1,1,$1+$1,$8,$9*
0 Add four rect primitives between the rounded corners*
20,1,$1+$1,$2,$3,$4,$5,0*
20,1,$1+$1,$4,$5,$6,$7,0*
20,1,$1+$1,$6,$7,$8,$9,0*
20,1,$1+$1,$8,$9,$2,$3,0*%
G04 Aperture macros list end*
%ADD10C,2.900000*%
%ADD11C,3.000000*%
%ADD12C,5.250000*%
%ADD13O,2.150000X1.600000*%
%ADD14RoundRect,0.400000X0.675000X-0.400000X0.675000X0.400000X-0.675000X0.400000X-0.675000X-0.400000X0*%
%ADD15C,5.100000*%
%ADD16C,4.400000*%
%ADD17C,1.300000*%
G04 APERTURE END LIST*
D10*
X166370000Y-46505000D03*
X166370000Y-40005000D03*
D11*
X127238100Y-54700000D03*
D12*
X131638100Y-50000000D03*
D11*
X134238100Y-55750000D03*
X108238100Y-52300000D03*
D12*
X112638100Y-47600000D03*
D11*
X115238100Y-53350000D03*
X89138100Y-50910000D03*
D12*
X93538100Y-46210000D03*
D11*
X96138100Y-51960000D03*
X70138100Y-52300000D03*
D12*
X74538100Y-47600000D03*
D11*
X77138100Y-53350000D03*
X51038100Y-57100000D03*
D12*
X55438100Y-52400000D03*
D11*
X58038100Y-58150000D03*
X32038100Y-58600000D03*
D12*
X36438100Y-53900000D03*
D11*
X39038100Y-59650000D03*
X127238100Y-73800000D03*
D12*
X131638100Y-69100000D03*
D11*
X134238100Y-74850000D03*
X108238100Y-71400000D03*
D12*
X112638100Y-66700000D03*
D11*
X115238100Y-72450000D03*
X89138100Y-70000000D03*
D12*
X93538100Y-65300000D03*
D11*
X96138100Y-71050000D03*
X70138100Y-71300000D03*
D12*
X74538100Y-66600000D03*
D11*
X77138100Y-72350000D03*
X51038100Y-76000000D03*
D12*
X55438100Y-71300000D03*
D11*
X58038100Y-77050000D03*
X32038100Y-77500000D03*
D12*
X36438100Y-72800000D03*
D11*
X39038100Y-78550000D03*
X127238100Y-92800000D03*
D12*
X131638100Y-88100000D03*
D11*
X134238100Y-93850000D03*
X108238100Y-90400000D03*
D12*
X112638100Y-85700000D03*
D11*
X115238100Y-91450000D03*
X89138100Y-89100000D03*
D12*
X93538100Y-84400000D03*
D11*
X96138100Y-90150000D03*
X70138100Y-90400000D03*
D12*
X74538100Y-85700000D03*
D11*
X77138100Y-91450000D03*
X51038100Y-95200000D03*
D12*
X55438100Y-90500000D03*
D11*
X58038100Y-96250000D03*
X32038100Y-96700000D03*
D12*
X36438100Y-92000000D03*
D11*
X39038100Y-97750000D03*
X127238100Y-111800000D03*
D12*
X131638100Y-107100000D03*
D11*
X134238100Y-112850000D03*
X108238100Y-109500000D03*
D12*
X112638100Y-104800000D03*
D11*
X115238100Y-110550000D03*
X89138100Y-108100000D03*
D12*
X93538100Y-103400000D03*
D11*
X96138100Y-109150000D03*
X70138100Y-109500000D03*
D12*
X74538100Y-104800000D03*
D11*
X77138100Y-110550000D03*
X51038100Y-114200000D03*
D12*
X55438100Y-109500000D03*
D11*
X58038100Y-115250000D03*
X31988100Y-115700000D03*
D12*
X36388100Y-111000000D03*
D11*
X38988100Y-116750000D03*
X146338100Y-102200000D03*
D12*
X150738100Y-97500000D03*
D11*
X153338100Y-103250000D03*
X149008419Y-133160512D03*
D12*
X147138100Y-127000000D03*
D11*
X153417746Y-127623334D03*
X117738100Y-130700000D03*
D12*
X122138100Y-126000000D03*
D11*
X124738100Y-131750000D03*
X98738100Y-128450000D03*
D12*
X103138100Y-123750000D03*
D11*
X105738100Y-129500000D03*
X79638100Y-128450000D03*
D12*
X84038100Y-123750000D03*
D11*
X86638100Y-129500000D03*
D13*
X150952200Y-75930000D03*
D14*
X150952200Y-73930000D03*
D15*
X122538100Y-59600000D03*
X46338100Y-61800000D03*
X122538100Y-97600000D03*
X46338100Y-100000000D03*
X147138100Y-114800000D03*
D16*
X166138100Y-85000000D03*
X144138100Y-85000000D03*
D17*
X149638100Y-38753000D03*
X152638100Y-38753000D03*
M02*
