G04 #@! TF.GenerationSoftware,KiCad,Pcbnew,7.0.10*
G04 #@! TF.CreationDate,2024-03-21T01:02:57+01:00*
G04 #@! TF.ProjectId,allium58,616c6c69-756d-4353-982e-6b696361645f,rev?*
G04 #@! TF.SameCoordinates,Original*
G04 #@! TF.FileFunction,Paste,Bot*
G04 #@! TF.FilePolarity,Positive*
%FSLAX46Y46*%
G04 Gerber Fmt 4.6, Leading zero omitted, Abs format (unit mm)*
G04 Created by KiCad (PCBNEW 7.0.10) date 2024-03-21 01:02:57*
%MOMM*%
%LPD*%
G01*
G04 APERTURE LIST*
G04 Aperture macros list*
%AMRoundRect*
0 Rectangle with rounded corners*
0 $1 Rounding radius*
0 $2 $3 $4 $5 $6 $7 $8 $9 X,Y pos of 4 corners*
0 Add a 4 corners polygon primitive as box body*
4,1,4,$2,$3,$4,$5,$6,$7,$8,$9,$2,$3,0*
0 Add four circle primitives for the rounded corners*
1,1,$1+$1,$2,$3*
1,1,$1+$1,$4,$5*
1,1,$1+$1,$6,$7*
1,1,$1+$1,$8,$9*
0 Add four rect primitives between the rounded corners*
20,1,$1+$1,$2,$3,$4,$5,0*
20,1,$1+$1,$4,$5,$6,$7,0*
20,1,$1+$1,$6,$7,$8,$9,0*
20,1,$1+$1,$8,$9,$2,$3,0*%
G04 Aperture macros list end*
%ADD10RoundRect,0.500000X-0.750000X-0.775000X0.750000X-0.775000X0.750000X0.775000X-0.750000X0.775000X0*%
%ADD11RoundRect,0.500000X0.296170X-1.037019X1.046170X0.262019X-0.296170X1.037019X-1.046170X-0.262019X0*%
%ADD12R,1.000000X1.400000*%
%ADD13R,1.000000X0.800000*%
%ADD14R,0.700000X1.500000*%
G04 APERTURE END LIST*
D10*
X123563100Y-54700000D03*
X137913100Y-55750000D03*
X104563100Y-52300000D03*
X118913100Y-53350000D03*
X85463100Y-50910000D03*
X99813100Y-51960000D03*
X66463100Y-52300000D03*
X80813100Y-53350000D03*
X47363100Y-57100000D03*
X61713100Y-58150000D03*
X28363100Y-58600000D03*
X42713100Y-59650000D03*
X123563100Y-73800000D03*
X137913100Y-74850000D03*
X104563100Y-71400000D03*
X118913100Y-72450000D03*
X85463100Y-70000000D03*
X99813100Y-71050000D03*
X66463100Y-71300000D03*
X80813100Y-72350000D03*
X47363100Y-76000000D03*
X61713100Y-77050000D03*
X28363100Y-77500000D03*
X42713100Y-78550000D03*
X123563100Y-92800000D03*
X137913100Y-93850000D03*
X104563100Y-90400000D03*
X118913100Y-91450000D03*
X85463100Y-89100000D03*
X99813100Y-90150000D03*
X66463100Y-90400000D03*
X80813100Y-91450000D03*
X47363100Y-95200000D03*
X61713100Y-96250000D03*
X28363100Y-96700000D03*
X42713100Y-97750000D03*
X123563100Y-111800000D03*
X137913100Y-112850000D03*
X104563100Y-109500000D03*
X118913100Y-110550000D03*
X85463100Y-108100000D03*
X99813100Y-109150000D03*
X66463100Y-109500000D03*
X80813100Y-110550000D03*
X47363100Y-114200000D03*
X61713100Y-115250000D03*
X28313100Y-115700000D03*
X42663100Y-116750000D03*
X142663100Y-102200000D03*
X157013100Y-103250000D03*
D11*
X147170919Y-136343155D03*
X155255246Y-124440691D03*
D10*
X114063100Y-130700000D03*
X128413100Y-131750000D03*
X95063100Y-128450000D03*
X109413100Y-129500000D03*
X75963100Y-128450000D03*
X90313100Y-129500000D03*
D12*
X137638100Y-48225000D03*
X137638100Y-51775000D03*
X118638100Y-45825000D03*
X118638100Y-49375000D03*
X99538100Y-44435000D03*
X99538100Y-47985000D03*
X80538100Y-45825000D03*
X80538100Y-49375000D03*
X61438100Y-50625000D03*
X61438100Y-54175000D03*
X42438100Y-52125000D03*
X42438100Y-55675000D03*
X137638100Y-67325000D03*
X137638100Y-70875000D03*
X118638100Y-64925000D03*
X118638100Y-68475000D03*
X99538100Y-63525000D03*
X99538100Y-67075000D03*
X80538100Y-64825000D03*
X80538100Y-68375000D03*
X61438100Y-69525000D03*
X61438100Y-73075000D03*
X42438100Y-71025000D03*
X42438100Y-74575000D03*
X137638100Y-86325000D03*
X137638100Y-89875000D03*
X118638100Y-83925000D03*
X118638100Y-87475000D03*
X99538100Y-82625000D03*
X99538100Y-86175000D03*
X80538100Y-83925000D03*
X80538100Y-87475000D03*
X61438100Y-88725000D03*
X61438100Y-92275000D03*
X42438100Y-90225000D03*
X42438100Y-93775000D03*
X137638100Y-105325000D03*
X137638100Y-108875000D03*
X118638100Y-103025000D03*
X118638100Y-106575000D03*
X99538100Y-101625000D03*
X99538100Y-105175000D03*
X80538100Y-103025000D03*
X80538100Y-106575000D03*
X61438100Y-107725000D03*
X61438100Y-111275000D03*
X42388100Y-109225000D03*
X42388100Y-112775000D03*
X156738100Y-95725000D03*
X156738100Y-99275000D03*
X155752800Y-116690600D03*
X155752800Y-120240600D03*
X128138100Y-124225000D03*
X128138100Y-127775000D03*
X109138100Y-121975000D03*
X109138100Y-125525000D03*
X90038100Y-121975000D03*
X90038100Y-125525000D03*
D13*
X147488100Y-37653000D03*
X147488100Y-39863000D03*
X154788100Y-37653000D03*
X154788100Y-39863000D03*
D14*
X148888100Y-40513000D03*
X151888100Y-40513000D03*
X153388100Y-40513000D03*
M02*
