M48
; DRILL file {KiCad 7.0.10} date Thu 21 Mar 2024 01:03:02 AM CET
; FORMAT={-:-/ absolute / metric / decimal}
; #@! TF.CreationDate,2024-03-21T01:03:02+01:00
; #@! TF.GenerationSoftware,Kicad,Pcbnew,7.0.10
; #@! TF.FileFunction,Plated,1,2,PTH
FMAT,2
METRIC
; #@! TA.AperFunction,Plated,PTH,ViaDrill
T1C0.300
; #@! TA.AperFunction,Plated,PTH,ComponentDrill
T2C0.750
; #@! TA.AperFunction,Plated,PTH,ComponentDrill
T3C0.813
; #@! TA.AperFunction,Plated,PTH,ComponentDrill
T4C1.300
; #@! TA.AperFunction,Plated,PTH,ComponentDrill
T5C2.400
%
G90
G05
T1
X28.88Y-44.171
X42.342Y-49.708
X42.469Y-87.249
X42.52Y-67.843
X42.57Y-104.877
X46.457Y-42.291
X47.6Y-119.253
X61.239Y-64.922
X61.493Y-87.097
X61.493Y-100.305
X61.519Y-81.966
X61.595Y-48.336
X66.65Y-42.393
X66.777Y-118.339
X75.768Y-119.736
X80.543Y-100.279
X80.594Y-42.331
X80.62Y-61.62
X80.747Y-82.017
X80.848Y-78.842
X85.623Y-118.516
X85.649Y-41.402
X90.221Y-121.006
X95.098Y-119.99
X99.085Y-42.316
X99.543Y-78.918
X99.543Y-100.228
X99.72Y-61.493
X104.877Y-118.085
X109.068Y-120.853
X113.589Y-119.151
X118.491Y-42.367
X118.542Y-101.625
X118.618Y-79.07
X118.669Y-63.271
X125.313Y-102.845
X128.143Y-122.098
X137.312Y-79.019
X137.643Y-44.729
X137.719Y-63.322
X137.82Y-104.013
X138.392Y-41.275
X138.963Y-118.313
X139.192Y-41.275
X140.64Y-40.081
X140.792Y-102.921
X141.021Y-41.961
X153.772Y-117.246
X154.127Y-46.736
X156.769Y-46.507
X160.985Y-106.35
X162.077Y-82.067
T2
X150.952Y-73.93
X150.952Y-75.93
T3
X143.529Y-41.522
X143.529Y-44.062
X143.529Y-46.602
X143.529Y-49.142
X143.529Y-51.682
X143.529Y-54.222
X143.529Y-56.762
X143.529Y-59.302
X143.529Y-61.842
X143.529Y-64.382
X143.529Y-66.922
X143.529Y-69.462
X158.749Y-41.522
X158.749Y-44.062
X158.749Y-46.602
X158.749Y-49.142
X158.749Y-51.682
X158.749Y-54.222
X158.749Y-56.762
X158.749Y-59.302
X158.749Y-61.842
X158.749Y-64.382
X158.749Y-66.922
X158.749Y-69.462
T4
X166.37Y-40.005
X166.37Y-46.505
T5
X144.138Y-85.0
X166.138Y-85.0
M30
