%TF.GenerationSoftware,KiCad,Pcbnew,7.0.10*%
%TF.CreationDate,2024-03-21T01:04:33+01:00*%
%TF.ProjectId,allium58,616c6c69-756d-4353-982e-6b696361645f,rev?*%
%TF.SameCoordinates,Original*%
%TF.FileFunction,Drillmap*%
%TF.FilePolarity,Positive*%
%FSLAX45Y45*%
G04 Gerber Fmt 4.5, Leading zero omitted, Abs format (unit mm)*
G04 Created by KiCad (PCBNEW 7.0.10) date 2024-03-21 01:04:33*
%MOMM*%
%LPD*%
G01*
G04 APERTURE LIST*
%ADD10C,0.200000*%
%ADD11C,0.100000*%
%ADD12C,0.300000*%
%ADD13C,0.470000*%
%ADD14C,0.525000*%
G04 APERTURE END LIST*
D10*
X9439604Y-3708676D02*
X8398821Y-3708676D01*
X22426249Y-12075929D02*
X22396000Y-12078973D01*
X10948384Y-14036134D02*
X11115954Y-13939120D01*
X8377646Y-3710807D02*
X8398821Y-3708676D01*
X17831935Y-13159797D02*
X17831935Y-13281601D01*
X11115954Y-13939120D02*
X11283523Y-13842106D01*
X17831935Y-12672581D02*
X17831935Y-12794385D01*
X8999287Y-11998842D02*
X9166856Y-12285474D01*
X18708693Y-12078973D02*
X19235451Y-12078973D01*
X8324557Y-3739412D02*
X8340094Y-3726596D01*
X19762209Y-12078973D02*
X20288967Y-12078973D01*
X18991954Y-3758537D02*
X17898956Y-3721565D01*
X10428886Y-14335728D02*
X10445676Y-14327176D01*
X8293753Y-8228530D02*
X8293753Y-7597836D01*
X14643521Y-3708676D02*
X13602738Y-3708676D01*
X18111352Y-12086078D02*
X18181935Y-12078973D01*
X10413021Y-14340447D02*
X10428886Y-14335728D01*
X22546000Y-4343676D02*
X22427847Y-4215619D01*
X18045633Y-12106456D02*
X18111352Y-12086078D01*
X17986177Y-12138706D02*
X18045633Y-12106456D01*
X10613245Y-14230162D02*
X10780815Y-14133148D01*
X11786317Y-13551166D02*
X12523269Y-13551166D01*
X8311741Y-3754949D02*
X8324557Y-3739412D01*
X22502091Y-12035065D02*
X22479896Y-12053374D01*
X17831935Y-13401166D02*
X17828890Y-13431415D01*
X8357930Y-3716921D02*
X8377646Y-3710807D01*
X14734126Y-13551166D02*
X15471078Y-13551166D01*
X21342484Y-12078973D02*
X21869242Y-12078973D01*
X22546000Y-10980811D02*
X22546000Y-11928973D01*
X22454415Y-12067195D02*
X22426249Y-12075929D01*
X9166856Y-12285474D02*
X9334426Y-12572106D01*
X22546000Y-11928973D02*
X22542955Y-11959223D01*
X22427847Y-4215619D02*
X22088932Y-4096385D01*
X22546000Y-5291838D02*
X22546000Y-6240000D01*
X17740350Y-13539388D02*
X17712184Y-13548121D01*
X8293753Y-4444370D02*
X8293753Y-3813676D01*
X12561954Y-3708676D02*
X11521171Y-3708676D01*
X17828890Y-13431415D02*
X17820157Y-13459581D01*
X16725088Y-3708676D02*
X15684305Y-3708676D01*
X17788026Y-13507257D02*
X17765831Y-13525566D01*
X16944983Y-13551166D02*
X17681935Y-13551166D01*
X13602738Y-3708676D02*
X12561954Y-3708676D01*
X15684305Y-3708676D02*
X14643521Y-3708676D01*
X17820157Y-13459581D02*
X17806335Y-13485062D01*
X10780815Y-14133148D02*
X10948384Y-14036134D01*
X8349030Y-9665766D02*
X8402097Y-10069083D01*
X21552570Y-3988516D02*
X20842076Y-3894556D01*
X11451092Y-13745092D02*
X11618662Y-13648078D01*
X8293753Y-6336449D02*
X8293753Y-5705756D01*
X18181935Y-12078973D02*
X18708693Y-12078973D01*
X17831935Y-13281601D02*
X17831935Y-13401166D01*
X22546000Y-4343676D02*
X22546000Y-5291838D01*
X11521171Y-3708676D02*
X10480388Y-3708676D01*
X22546000Y-7188162D02*
X22546000Y-8136324D01*
X11283523Y-13842106D02*
X11451092Y-13745092D01*
X17891668Y-12233216D02*
X17934388Y-12181427D01*
X8293753Y-7597836D02*
X8293753Y-6967143D01*
X22542955Y-11959223D02*
X22534222Y-11987389D01*
X8302066Y-3772785D02*
X8311741Y-3754949D01*
X9501995Y-12858738D02*
X9669565Y-13145370D01*
X9837134Y-13432002D02*
X10004704Y-13718634D01*
X10480388Y-3708676D02*
X9439604Y-3708676D01*
X13997174Y-13551166D02*
X14734126Y-13551166D01*
X17839039Y-12358391D02*
X17859417Y-12292671D01*
X22546000Y-6240000D02*
X22546000Y-7188162D01*
X17806335Y-13485062D02*
X17788026Y-13507257D01*
X9334426Y-12572106D02*
X9501995Y-12858738D01*
X17831935Y-12428973D02*
X17831935Y-12550777D01*
X8474708Y-10469525D02*
X8568800Y-10864913D01*
X22479896Y-12053374D02*
X22454415Y-12067195D01*
X20288967Y-12078973D02*
X20815726Y-12078973D01*
X17831935Y-12916189D02*
X17831935Y-13037993D01*
X10384247Y-14338644D02*
X10398125Y-14341397D01*
X20842076Y-3894556D02*
X19980765Y-3817049D01*
X22520400Y-12012870D02*
X22502091Y-12035065D01*
X10349184Y-14308815D02*
X10359730Y-14322288D01*
X8340094Y-3726596D02*
X8357930Y-3716921D01*
X16208030Y-13551166D02*
X16944983Y-13551166D01*
X10445676Y-14327176D02*
X10613245Y-14230162D01*
X19980765Y-3817049D02*
X18991954Y-3758537D01*
X22534222Y-11987389D02*
X22520400Y-12012870D01*
X8402097Y-10069083D02*
X8474708Y-10469525D01*
X21869242Y-12078973D02*
X22396000Y-12078973D01*
X10004704Y-13718634D02*
X10172273Y-14005266D01*
X11618662Y-13648078D02*
X11786231Y-13551064D01*
X22088932Y-4096385D02*
X21552570Y-3988516D01*
X9669565Y-13145370D02*
X9837134Y-13432002D01*
X22546000Y-8136324D02*
X22546000Y-9084487D01*
X17831935Y-12550777D02*
X17831935Y-12672581D01*
X8295952Y-3792501D02*
X8302066Y-3772785D01*
X8568800Y-10864913D02*
X8686311Y-11253067D01*
X17859417Y-12292671D02*
X17891668Y-12233216D01*
X19235451Y-12078973D02*
X19762209Y-12078973D01*
X10339843Y-14291898D02*
X10349184Y-14308815D01*
X8293821Y-3813676D02*
X8295952Y-3792501D01*
X8829176Y-11631807D02*
X8999333Y-11998954D01*
X8313569Y-9261756D02*
X8349030Y-9665766D01*
X17831935Y-12428973D02*
X17839039Y-12358391D01*
X17765831Y-13525566D02*
X17740350Y-13539388D01*
X8293753Y-6967143D02*
X8293753Y-6336449D01*
X8293753Y-5705756D02*
X8293753Y-5075063D01*
X10172273Y-14005266D02*
X10339843Y-14291898D01*
X10359730Y-14322288D02*
X10371433Y-14332253D01*
X17831935Y-12794385D02*
X17831935Y-12916189D01*
X22546000Y-10032649D02*
X22546000Y-10980811D01*
X8293753Y-8859223D02*
X8293753Y-8228530D01*
X17831935Y-13037993D02*
X17831935Y-13159797D01*
X10371433Y-14332253D02*
X10384247Y-14338644D01*
X17898956Y-3721565D02*
X16725088Y-3708676D01*
X8293753Y-5075063D02*
X8293753Y-4444370D01*
X17934388Y-12181427D02*
X17986177Y-12138706D01*
X20815726Y-12078973D02*
X21342484Y-12078973D01*
X13260222Y-13551166D02*
X13997174Y-13551166D01*
X15471078Y-13551166D02*
X16208030Y-13551166D01*
X12523269Y-13551166D02*
X13260222Y-13551166D01*
X22546000Y-9084487D02*
X22546000Y-10032649D01*
X17712184Y-13548121D02*
X17681935Y-13551166D01*
X8293778Y-8859232D02*
X8313569Y-9261756D01*
X10398125Y-14341397D02*
X10413021Y-14340447D01*
X8686311Y-11253067D02*
X8829176Y-11631807D01*
D11*
X9905000Y-3830300D02*
X9995000Y-3920300D01*
X9995000Y-3830300D02*
X9905000Y-3920300D01*
X10205000Y-3830300D02*
X10295000Y-3920300D01*
X10295000Y-3830300D02*
X10205000Y-3920300D01*
D12*
X9850000Y-10220000D02*
G75*
G03*
X9550000Y-10220000I-150000J0D01*
G01*
X9550000Y-10220000D02*
G75*
G03*
X9850000Y-10220000I150000J0D01*
G01*
X10022968Y-12553949D02*
G75*
G03*
X9722968Y-12553949I-150000J0D01*
G01*
X9722968Y-12553949D02*
G75*
G03*
X10022968Y-12553949I150000J0D01*
G01*
X10282035Y-13212667D02*
G75*
G03*
X9982035Y-13212667I-150000J0D01*
G01*
X9982035Y-13212667D02*
G75*
G03*
X10282035Y-13212667I150000J0D01*
G01*
X10550000Y-10325000D02*
G75*
G03*
X10250000Y-10325000I-150000J0D01*
G01*
X10250000Y-10325000D02*
G75*
G03*
X10550000Y-10325000I150000J0D01*
G01*
X11760000Y-5470000D02*
G75*
G03*
X11460000Y-5470000I-150000J0D01*
G01*
X11460000Y-5470000D02*
G75*
G03*
X11760000Y-5470000I150000J0D01*
G01*
X11760000Y-7380000D02*
G75*
G03*
X11460000Y-7380000I-150000J0D01*
G01*
X11460000Y-7380000D02*
G75*
G03*
X11760000Y-7380000I150000J0D01*
G01*
X11760000Y-9280000D02*
G75*
G03*
X11460000Y-9280000I-150000J0D01*
G01*
X11460000Y-9280000D02*
G75*
G03*
X11760000Y-9280000I150000J0D01*
G01*
X11760000Y-11180000D02*
G75*
G03*
X11460000Y-11180000I-150000J0D01*
G01*
X11460000Y-11180000D02*
G75*
G03*
X11760000Y-11180000I150000J0D01*
G01*
X12460000Y-5575000D02*
G75*
G03*
X12160000Y-5575000I-150000J0D01*
G01*
X12160000Y-5575000D02*
G75*
G03*
X12460000Y-5575000I150000J0D01*
G01*
X12460000Y-7485000D02*
G75*
G03*
X12160000Y-7485000I-150000J0D01*
G01*
X12160000Y-7485000D02*
G75*
G03*
X12460000Y-7485000I150000J0D01*
G01*
X12460000Y-9385000D02*
G75*
G03*
X12160000Y-9385000I-150000J0D01*
G01*
X12160000Y-9385000D02*
G75*
G03*
X12460000Y-9385000I150000J0D01*
G01*
X12460000Y-11285000D02*
G75*
G03*
X12160000Y-11285000I-150000J0D01*
G01*
X12160000Y-11285000D02*
G75*
G03*
X12460000Y-11285000I150000J0D01*
G01*
X12710000Y-13070000D02*
G75*
G03*
X12410000Y-13070000I-150000J0D01*
G01*
X12410000Y-13070000D02*
G75*
G03*
X12710000Y-13070000I150000J0D01*
G01*
X13410000Y-13175000D02*
G75*
G03*
X13110000Y-13175000I-150000J0D01*
G01*
X13110000Y-13175000D02*
G75*
G03*
X13410000Y-13175000I150000J0D01*
G01*
X13660000Y-5230000D02*
G75*
G03*
X13360000Y-5230000I-150000J0D01*
G01*
X13360000Y-5230000D02*
G75*
G03*
X13660000Y-5230000I150000J0D01*
G01*
X13660000Y-7140000D02*
G75*
G03*
X13360000Y-7140000I-150000J0D01*
G01*
X13360000Y-7140000D02*
G75*
G03*
X13660000Y-7140000I150000J0D01*
G01*
X13660000Y-9040000D02*
G75*
G03*
X13360000Y-9040000I-150000J0D01*
G01*
X13360000Y-9040000D02*
G75*
G03*
X13660000Y-9040000I150000J0D01*
G01*
X13660000Y-10950000D02*
G75*
G03*
X13360000Y-10950000I-150000J0D01*
G01*
X13360000Y-10950000D02*
G75*
G03*
X13660000Y-10950000I150000J0D01*
G01*
X14360000Y-5335000D02*
G75*
G03*
X14060000Y-5335000I-150000J0D01*
G01*
X14060000Y-5335000D02*
G75*
G03*
X14360000Y-5335000I150000J0D01*
G01*
X14360000Y-7245000D02*
G75*
G03*
X14060000Y-7245000I-150000J0D01*
G01*
X14060000Y-7245000D02*
G75*
G03*
X14360000Y-7245000I150000J0D01*
G01*
X14360000Y-9145000D02*
G75*
G03*
X14060000Y-9145000I-150000J0D01*
G01*
X14060000Y-9145000D02*
G75*
G03*
X14360000Y-9145000I150000J0D01*
G01*
X14360000Y-11055000D02*
G75*
G03*
X14060000Y-11055000I-150000J0D01*
G01*
X14060000Y-11055000D02*
G75*
G03*
X14360000Y-11055000I150000J0D01*
G01*
X14610000Y-12845000D02*
G75*
G03*
X14310000Y-12845000I-150000J0D01*
G01*
X14310000Y-12845000D02*
G75*
G03*
X14610000Y-12845000I150000J0D01*
G01*
X15310000Y-12950000D02*
G75*
G03*
X15010000Y-12950000I-150000J0D01*
G01*
X15010000Y-12950000D02*
G75*
G03*
X15310000Y-12950000I150000J0D01*
G01*
X15570000Y-5091000D02*
G75*
G03*
X15270000Y-5091000I-150000J0D01*
G01*
X15270000Y-5091000D02*
G75*
G03*
X15570000Y-5091000I150000J0D01*
G01*
X15570000Y-7000000D02*
G75*
G03*
X15270000Y-7000000I-150000J0D01*
G01*
X15270000Y-7000000D02*
G75*
G03*
X15570000Y-7000000I150000J0D01*
G01*
X15570000Y-8910000D02*
G75*
G03*
X15270000Y-8910000I-150000J0D01*
G01*
X15270000Y-8910000D02*
G75*
G03*
X15570000Y-8910000I150000J0D01*
G01*
X15570000Y-10810000D02*
G75*
G03*
X15270000Y-10810000I-150000J0D01*
G01*
X15270000Y-10810000D02*
G75*
G03*
X15570000Y-10810000I150000J0D01*
G01*
X16270000Y-5196000D02*
G75*
G03*
X15970000Y-5196000I-150000J0D01*
G01*
X15970000Y-5196000D02*
G75*
G03*
X16270000Y-5196000I150000J0D01*
G01*
X16270000Y-7105000D02*
G75*
G03*
X15970000Y-7105000I-150000J0D01*
G01*
X15970000Y-7105000D02*
G75*
G03*
X16270000Y-7105000I150000J0D01*
G01*
X16270000Y-9015000D02*
G75*
G03*
X15970000Y-9015000I-150000J0D01*
G01*
X15970000Y-9015000D02*
G75*
G03*
X16270000Y-9015000I150000J0D01*
G01*
X16270000Y-10915000D02*
G75*
G03*
X15970000Y-10915000I-150000J0D01*
G01*
X15970000Y-10915000D02*
G75*
G03*
X16270000Y-10915000I150000J0D01*
G01*
X16520000Y-12845000D02*
G75*
G03*
X16220000Y-12845000I-150000J0D01*
G01*
X16220000Y-12845000D02*
G75*
G03*
X16520000Y-12845000I150000J0D01*
G01*
X17220000Y-12950000D02*
G75*
G03*
X16920000Y-12950000I-150000J0D01*
G01*
X16920000Y-12950000D02*
G75*
G03*
X17220000Y-12950000I150000J0D01*
G01*
X17470000Y-5230000D02*
G75*
G03*
X17170000Y-5230000I-150000J0D01*
G01*
X17170000Y-5230000D02*
G75*
G03*
X17470000Y-5230000I150000J0D01*
G01*
X17470000Y-7130000D02*
G75*
G03*
X17170000Y-7130000I-150000J0D01*
G01*
X17170000Y-7130000D02*
G75*
G03*
X17470000Y-7130000I150000J0D01*
G01*
X17470000Y-9040000D02*
G75*
G03*
X17170000Y-9040000I-150000J0D01*
G01*
X17170000Y-9040000D02*
G75*
G03*
X17470000Y-9040000I150000J0D01*
G01*
X17470000Y-10950000D02*
G75*
G03*
X17170000Y-10950000I-150000J0D01*
G01*
X17170000Y-10950000D02*
G75*
G03*
X17470000Y-10950000I150000J0D01*
G01*
X18170000Y-5335000D02*
G75*
G03*
X17870000Y-5335000I-150000J0D01*
G01*
X17870000Y-5335000D02*
G75*
G03*
X18170000Y-5335000I150000J0D01*
G01*
X18170000Y-7235000D02*
G75*
G03*
X17870000Y-7235000I-150000J0D01*
G01*
X17870000Y-7235000D02*
G75*
G03*
X18170000Y-7235000I150000J0D01*
G01*
X18170000Y-9145000D02*
G75*
G03*
X17870000Y-9145000I-150000J0D01*
G01*
X17870000Y-9145000D02*
G75*
G03*
X18170000Y-9145000I150000J0D01*
G01*
X18170000Y-11055000D02*
G75*
G03*
X17870000Y-11055000I-150000J0D01*
G01*
X17870000Y-11055000D02*
G75*
G03*
X18170000Y-11055000I150000J0D01*
G01*
X19380000Y-5710000D02*
G75*
G03*
X19080000Y-5710000I-150000J0D01*
G01*
X19080000Y-5710000D02*
G75*
G03*
X19380000Y-5710000I150000J0D01*
G01*
X19380000Y-7600000D02*
G75*
G03*
X19080000Y-7600000I-150000J0D01*
G01*
X19080000Y-7600000D02*
G75*
G03*
X19380000Y-7600000I150000J0D01*
G01*
X19380000Y-9520000D02*
G75*
G03*
X19080000Y-9520000I-150000J0D01*
G01*
X19080000Y-9520000D02*
G75*
G03*
X19380000Y-9520000I150000J0D01*
G01*
X19380000Y-11420000D02*
G75*
G03*
X19080000Y-11420000I-150000J0D01*
G01*
X19080000Y-11420000D02*
G75*
G03*
X19380000Y-11420000I150000J0D01*
G01*
X20080000Y-5815000D02*
G75*
G03*
X19780000Y-5815000I-150000J0D01*
G01*
X19780000Y-5815000D02*
G75*
G03*
X20080000Y-5815000I150000J0D01*
G01*
X20080000Y-7705000D02*
G75*
G03*
X19780000Y-7705000I-150000J0D01*
G01*
X19780000Y-7705000D02*
G75*
G03*
X20080000Y-7705000I150000J0D01*
G01*
X20080000Y-9625000D02*
G75*
G03*
X19780000Y-9625000I-150000J0D01*
G01*
X19780000Y-9625000D02*
G75*
G03*
X20080000Y-9625000I150000J0D01*
G01*
X20080000Y-11525000D02*
G75*
G03*
X19780000Y-11525000I-150000J0D01*
G01*
X19780000Y-11525000D02*
G75*
G03*
X20080000Y-11525000I150000J0D01*
G01*
X21280000Y-5860000D02*
G75*
G03*
X20980000Y-5860000I-150000J0D01*
G01*
X20980000Y-5860000D02*
G75*
G03*
X21280000Y-5860000I150000J0D01*
G01*
X21280000Y-7750000D02*
G75*
G03*
X20980000Y-7750000I-150000J0D01*
G01*
X20980000Y-7750000D02*
G75*
G03*
X21280000Y-7750000I150000J0D01*
G01*
X21280000Y-9670000D02*
G75*
G03*
X20980000Y-9670000I-150000J0D01*
G01*
X20980000Y-9670000D02*
G75*
G03*
X21280000Y-9670000I150000J0D01*
G01*
X21285000Y-11570000D02*
G75*
G03*
X20985000Y-11570000I-150000J0D01*
G01*
X20985000Y-11570000D02*
G75*
G03*
X21285000Y-11570000I150000J0D01*
G01*
X21980000Y-5965000D02*
G75*
G03*
X21680000Y-5965000I-150000J0D01*
G01*
X21680000Y-5965000D02*
G75*
G03*
X21980000Y-5965000I150000J0D01*
G01*
X21980000Y-7855000D02*
G75*
G03*
X21680000Y-7855000I-150000J0D01*
G01*
X21680000Y-7855000D02*
G75*
G03*
X21980000Y-7855000I150000J0D01*
G01*
X21980000Y-9775000D02*
G75*
G03*
X21680000Y-9775000I-150000J0D01*
G01*
X21680000Y-9775000D02*
G75*
G03*
X21980000Y-9775000I150000J0D01*
G01*
X21985000Y-11675000D02*
G75*
G03*
X21685000Y-11675000I-150000J0D01*
G01*
X21685000Y-11675000D02*
G75*
G03*
X21985000Y-11675000I150000J0D01*
G01*
D13*
X10500000Y-11245000D02*
X10500000Y-11715000D01*
X10265000Y-11480000D02*
X10735000Y-11480000D01*
X12960000Y-5725000D02*
X12960000Y-6195000D01*
X12725000Y-5960000D02*
X13195000Y-5960000D01*
X12960000Y-9525000D02*
X12960000Y-9995000D01*
X12725000Y-9760000D02*
X13195000Y-9760000D01*
X20580000Y-5945000D02*
X20580000Y-6415000D01*
X20345000Y-6180000D02*
X20815000Y-6180000D01*
X20580000Y-9765000D02*
X20580000Y-10235000D01*
X20345000Y-10000000D02*
X20815000Y-10000000D01*
D14*
X10325617Y-9935617D02*
X10325617Y-9564383D01*
X9954383Y-9564383D01*
X9954383Y-9935617D01*
X10325617Y-9935617D01*
X10685617Y-12885617D02*
X10685617Y-12514383D01*
X10314383Y-12514383D01*
X10314383Y-12885617D01*
X10685617Y-12885617D01*
X12235617Y-5185617D02*
X12235617Y-4814383D01*
X11864383Y-4814383D01*
X11864383Y-5185617D01*
X12235617Y-5185617D01*
X12235617Y-7095617D02*
X12235617Y-6724383D01*
X11864383Y-6724383D01*
X11864383Y-7095617D01*
X12235617Y-7095617D01*
X12235617Y-8995617D02*
X12235617Y-8624383D01*
X11864383Y-8624383D01*
X11864383Y-8995617D01*
X12235617Y-8995617D01*
X12235617Y-10895617D02*
X12235617Y-10524383D01*
X11864383Y-10524383D01*
X11864383Y-10895617D01*
X12235617Y-10895617D01*
X13185617Y-12785617D02*
X13185617Y-12414383D01*
X12814383Y-12414383D01*
X12814383Y-12785617D01*
X13185617Y-12785617D01*
X14135617Y-4945617D02*
X14135617Y-4574383D01*
X13764383Y-4574383D01*
X13764383Y-4945617D01*
X14135617Y-4945617D01*
X14135617Y-6855617D02*
X14135617Y-6484383D01*
X13764383Y-6484383D01*
X13764383Y-6855617D01*
X14135617Y-6855617D01*
X14135617Y-8755617D02*
X14135617Y-8384383D01*
X13764383Y-8384383D01*
X13764383Y-8755617D01*
X14135617Y-8755617D01*
X14135617Y-10665617D02*
X14135617Y-10294383D01*
X13764383Y-10294383D01*
X13764383Y-10665617D01*
X14135617Y-10665617D01*
X15085617Y-12560617D02*
X15085617Y-12189383D01*
X14714383Y-12189383D01*
X14714383Y-12560617D01*
X15085617Y-12560617D01*
X16045617Y-4806617D02*
X16045617Y-4435383D01*
X15674383Y-4435383D01*
X15674383Y-4806617D01*
X16045617Y-4806617D01*
X16045617Y-6715617D02*
X16045617Y-6344383D01*
X15674383Y-6344383D01*
X15674383Y-6715617D01*
X16045617Y-6715617D01*
X16045617Y-8625617D02*
X16045617Y-8254383D01*
X15674383Y-8254383D01*
X15674383Y-8625617D01*
X16045617Y-8625617D01*
X16045617Y-10525617D02*
X16045617Y-10154383D01*
X15674383Y-10154383D01*
X15674383Y-10525617D01*
X16045617Y-10525617D01*
X16995617Y-12560617D02*
X16995617Y-12189383D01*
X16624383Y-12189383D01*
X16624383Y-12560617D01*
X16995617Y-12560617D01*
X17945617Y-4945617D02*
X17945617Y-4574383D01*
X17574383Y-4574383D01*
X17574383Y-4945617D01*
X17945617Y-4945617D01*
X17945617Y-6845617D02*
X17945617Y-6474383D01*
X17574383Y-6474383D01*
X17574383Y-6845617D01*
X17945617Y-6845617D01*
X17945617Y-8755617D02*
X17945617Y-8384383D01*
X17574383Y-8384383D01*
X17574383Y-8755617D01*
X17945617Y-8755617D01*
X17945617Y-10665617D02*
X17945617Y-10294383D01*
X17574383Y-10294383D01*
X17574383Y-10665617D01*
X17945617Y-10665617D01*
X19855617Y-5425617D02*
X19855617Y-5054383D01*
X19484383Y-5054383D01*
X19484383Y-5425617D01*
X19855617Y-5425617D01*
X19855617Y-7315617D02*
X19855617Y-6944383D01*
X19484383Y-6944383D01*
X19484383Y-7315617D01*
X19855617Y-7315617D01*
X19855617Y-9235617D02*
X19855617Y-8864383D01*
X19484383Y-8864383D01*
X19484383Y-9235617D01*
X19855617Y-9235617D01*
X19855617Y-11135617D02*
X19855617Y-10764383D01*
X19484383Y-10764383D01*
X19484383Y-11135617D01*
X19855617Y-11135617D01*
X21755617Y-5575617D02*
X21755617Y-5204383D01*
X21384383Y-5204383D01*
X21384383Y-5575617D01*
X21755617Y-5575617D01*
X21755617Y-7465617D02*
X21755617Y-7094383D01*
X21384383Y-7094383D01*
X21384383Y-7465617D01*
X21755617Y-7465617D01*
X21755617Y-9385617D02*
X21755617Y-9014383D01*
X21384383Y-9014383D01*
X21384383Y-9385617D01*
X21755617Y-9385617D01*
X21760617Y-11285617D02*
X21760617Y-10914383D01*
X21389383Y-10914383D01*
X21389383Y-11285617D01*
X21760617Y-11285617D01*
D10*
X8544530Y-14662881D02*
X8544530Y-14462881D01*
X8544530Y-14462881D02*
X8592149Y-14462881D01*
X8592149Y-14462881D02*
X8620720Y-14472405D01*
X8620720Y-14472405D02*
X8639768Y-14491453D01*
X8639768Y-14491453D02*
X8649292Y-14510500D01*
X8649292Y-14510500D02*
X8658815Y-14548595D01*
X8658815Y-14548595D02*
X8658815Y-14577167D01*
X8658815Y-14577167D02*
X8649292Y-14615262D01*
X8649292Y-14615262D02*
X8639768Y-14634310D01*
X8639768Y-14634310D02*
X8620720Y-14653357D01*
X8620720Y-14653357D02*
X8592149Y-14662881D01*
X8592149Y-14662881D02*
X8544530Y-14662881D01*
X8744530Y-14662881D02*
X8744530Y-14529548D01*
X8744530Y-14567643D02*
X8754053Y-14548595D01*
X8754053Y-14548595D02*
X8763577Y-14539072D01*
X8763577Y-14539072D02*
X8782625Y-14529548D01*
X8782625Y-14529548D02*
X8801673Y-14529548D01*
X8868339Y-14662881D02*
X8868339Y-14529548D01*
X8868339Y-14462881D02*
X8858815Y-14472405D01*
X8858815Y-14472405D02*
X8868339Y-14481929D01*
X8868339Y-14481929D02*
X8877863Y-14472405D01*
X8877863Y-14472405D02*
X8868339Y-14462881D01*
X8868339Y-14462881D02*
X8868339Y-14481929D01*
X8992149Y-14662881D02*
X8973101Y-14653357D01*
X8973101Y-14653357D02*
X8963577Y-14634310D01*
X8963577Y-14634310D02*
X8963577Y-14462881D01*
X9096911Y-14662881D02*
X9077863Y-14653357D01*
X9077863Y-14653357D02*
X9068339Y-14634310D01*
X9068339Y-14634310D02*
X9068339Y-14462881D01*
X9325482Y-14662881D02*
X9325482Y-14462881D01*
X9325482Y-14462881D02*
X9392149Y-14605738D01*
X9392149Y-14605738D02*
X9458815Y-14462881D01*
X9458815Y-14462881D02*
X9458815Y-14662881D01*
X9639768Y-14662881D02*
X9639768Y-14558119D01*
X9639768Y-14558119D02*
X9630244Y-14539072D01*
X9630244Y-14539072D02*
X9611196Y-14529548D01*
X9611196Y-14529548D02*
X9573101Y-14529548D01*
X9573101Y-14529548D02*
X9554053Y-14539072D01*
X9639768Y-14653357D02*
X9620720Y-14662881D01*
X9620720Y-14662881D02*
X9573101Y-14662881D01*
X9573101Y-14662881D02*
X9554053Y-14653357D01*
X9554053Y-14653357D02*
X9544530Y-14634310D01*
X9544530Y-14634310D02*
X9544530Y-14615262D01*
X9544530Y-14615262D02*
X9554053Y-14596214D01*
X9554053Y-14596214D02*
X9573101Y-14586691D01*
X9573101Y-14586691D02*
X9620720Y-14586691D01*
X9620720Y-14586691D02*
X9639768Y-14577167D01*
X9735006Y-14529548D02*
X9735006Y-14729548D01*
X9735006Y-14539072D02*
X9754053Y-14529548D01*
X9754053Y-14529548D02*
X9792149Y-14529548D01*
X9792149Y-14529548D02*
X9811196Y-14539072D01*
X9811196Y-14539072D02*
X9820720Y-14548595D01*
X9820720Y-14548595D02*
X9830244Y-14567643D01*
X9830244Y-14567643D02*
X9830244Y-14624786D01*
X9830244Y-14624786D02*
X9820720Y-14643833D01*
X9820720Y-14643833D02*
X9811196Y-14653357D01*
X9811196Y-14653357D02*
X9792149Y-14662881D01*
X9792149Y-14662881D02*
X9754053Y-14662881D01*
X9754053Y-14662881D02*
X9735006Y-14653357D01*
X9915958Y-14643833D02*
X9925482Y-14653357D01*
X9925482Y-14653357D02*
X9915958Y-14662881D01*
X9915958Y-14662881D02*
X9906434Y-14653357D01*
X9906434Y-14653357D02*
X9915958Y-14643833D01*
X9915958Y-14643833D02*
X9915958Y-14662881D01*
X9915958Y-14539072D02*
X9925482Y-14548595D01*
X9925482Y-14548595D02*
X9915958Y-14558119D01*
X9915958Y-14558119D02*
X9906434Y-14548595D01*
X9906434Y-14548595D02*
X9915958Y-14539072D01*
X9915958Y-14539072D02*
X9915958Y-14558119D01*
D11*
X8193753Y-14946397D02*
X8283753Y-15036397D01*
X8283753Y-14946397D02*
X8193753Y-15036397D01*
D10*
X8582625Y-14882881D02*
X8601673Y-14882881D01*
X8601673Y-14882881D02*
X8620720Y-14892405D01*
X8620720Y-14892405D02*
X8630244Y-14901929D01*
X8630244Y-14901929D02*
X8639768Y-14920976D01*
X8639768Y-14920976D02*
X8649292Y-14959072D01*
X8649292Y-14959072D02*
X8649292Y-15006691D01*
X8649292Y-15006691D02*
X8639768Y-15044786D01*
X8639768Y-15044786D02*
X8630244Y-15063833D01*
X8630244Y-15063833D02*
X8620720Y-15073357D01*
X8620720Y-15073357D02*
X8601673Y-15082881D01*
X8601673Y-15082881D02*
X8582625Y-15082881D01*
X8582625Y-15082881D02*
X8563577Y-15073357D01*
X8563577Y-15073357D02*
X8554053Y-15063833D01*
X8554053Y-15063833D02*
X8544530Y-15044786D01*
X8544530Y-15044786D02*
X8535006Y-15006691D01*
X8535006Y-15006691D02*
X8535006Y-14959072D01*
X8535006Y-14959072D02*
X8544530Y-14920976D01*
X8544530Y-14920976D02*
X8554053Y-14901929D01*
X8554053Y-14901929D02*
X8563577Y-14892405D01*
X8563577Y-14892405D02*
X8582625Y-14882881D01*
X8735006Y-15063833D02*
X8744530Y-15073357D01*
X8744530Y-15073357D02*
X8735006Y-15082881D01*
X8735006Y-15082881D02*
X8725482Y-15073357D01*
X8725482Y-15073357D02*
X8735006Y-15063833D01*
X8735006Y-15063833D02*
X8735006Y-15082881D01*
X8839768Y-15082881D02*
X8877863Y-15082881D01*
X8877863Y-15082881D02*
X8896911Y-15073357D01*
X8896911Y-15073357D02*
X8906434Y-15063833D01*
X8906434Y-15063833D02*
X8925482Y-15035262D01*
X8925482Y-15035262D02*
X8935006Y-14997167D01*
X8935006Y-14997167D02*
X8935006Y-14920976D01*
X8935006Y-14920976D02*
X8925482Y-14901929D01*
X8925482Y-14901929D02*
X8915958Y-14892405D01*
X8915958Y-14892405D02*
X8896911Y-14882881D01*
X8896911Y-14882881D02*
X8858815Y-14882881D01*
X8858815Y-14882881D02*
X8839768Y-14892405D01*
X8839768Y-14892405D02*
X8830244Y-14901929D01*
X8830244Y-14901929D02*
X8820720Y-14920976D01*
X8820720Y-14920976D02*
X8820720Y-14968595D01*
X8820720Y-14968595D02*
X8830244Y-14987643D01*
X8830244Y-14987643D02*
X8839768Y-14997167D01*
X8839768Y-14997167D02*
X8858815Y-15006691D01*
X8858815Y-15006691D02*
X8896911Y-15006691D01*
X8896911Y-15006691D02*
X8915958Y-14997167D01*
X8915958Y-14997167D02*
X8925482Y-14987643D01*
X8925482Y-14987643D02*
X8935006Y-14968595D01*
X9058815Y-14882881D02*
X9077863Y-14882881D01*
X9077863Y-14882881D02*
X9096911Y-14892405D01*
X9096911Y-14892405D02*
X9106434Y-14901929D01*
X9106434Y-14901929D02*
X9115958Y-14920976D01*
X9115958Y-14920976D02*
X9125482Y-14959072D01*
X9125482Y-14959072D02*
X9125482Y-15006691D01*
X9125482Y-15006691D02*
X9115958Y-15044786D01*
X9115958Y-15044786D02*
X9106434Y-15063833D01*
X9106434Y-15063833D02*
X9096911Y-15073357D01*
X9096911Y-15073357D02*
X9077863Y-15082881D01*
X9077863Y-15082881D02*
X9058815Y-15082881D01*
X9058815Y-15082881D02*
X9039768Y-15073357D01*
X9039768Y-15073357D02*
X9030244Y-15063833D01*
X9030244Y-15063833D02*
X9020720Y-15044786D01*
X9020720Y-15044786D02*
X9011196Y-15006691D01*
X9011196Y-15006691D02*
X9011196Y-14959072D01*
X9011196Y-14959072D02*
X9020720Y-14920976D01*
X9020720Y-14920976D02*
X9030244Y-14901929D01*
X9030244Y-14901929D02*
X9039768Y-14892405D01*
X9039768Y-14892405D02*
X9058815Y-14882881D01*
X9249292Y-14882881D02*
X9268339Y-14882881D01*
X9268339Y-14882881D02*
X9287387Y-14892405D01*
X9287387Y-14892405D02*
X9296911Y-14901929D01*
X9296911Y-14901929D02*
X9306434Y-14920976D01*
X9306434Y-14920976D02*
X9315958Y-14959072D01*
X9315958Y-14959072D02*
X9315958Y-15006691D01*
X9315958Y-15006691D02*
X9306434Y-15044786D01*
X9306434Y-15044786D02*
X9296911Y-15063833D01*
X9296911Y-15063833D02*
X9287387Y-15073357D01*
X9287387Y-15073357D02*
X9268339Y-15082881D01*
X9268339Y-15082881D02*
X9249292Y-15082881D01*
X9249292Y-15082881D02*
X9230244Y-15073357D01*
X9230244Y-15073357D02*
X9220720Y-15063833D01*
X9220720Y-15063833D02*
X9211196Y-15044786D01*
X9211196Y-15044786D02*
X9201673Y-15006691D01*
X9201673Y-15006691D02*
X9201673Y-14959072D01*
X9201673Y-14959072D02*
X9211196Y-14920976D01*
X9211196Y-14920976D02*
X9220720Y-14901929D01*
X9220720Y-14901929D02*
X9230244Y-14892405D01*
X9230244Y-14892405D02*
X9249292Y-14882881D01*
X9401673Y-15082881D02*
X9401673Y-14949548D01*
X9401673Y-14968595D02*
X9411196Y-14959072D01*
X9411196Y-14959072D02*
X9430244Y-14949548D01*
X9430244Y-14949548D02*
X9458815Y-14949548D01*
X9458815Y-14949548D02*
X9477863Y-14959072D01*
X9477863Y-14959072D02*
X9487387Y-14978119D01*
X9487387Y-14978119D02*
X9487387Y-15082881D01*
X9487387Y-14978119D02*
X9496911Y-14959072D01*
X9496911Y-14959072D02*
X9515958Y-14949548D01*
X9515958Y-14949548D02*
X9544530Y-14949548D01*
X9544530Y-14949548D02*
X9563577Y-14959072D01*
X9563577Y-14959072D02*
X9573101Y-14978119D01*
X9573101Y-14978119D02*
X9573101Y-15082881D01*
X9668339Y-15082881D02*
X9668339Y-14949548D01*
X9668339Y-14968595D02*
X9677863Y-14959072D01*
X9677863Y-14959072D02*
X9696911Y-14949548D01*
X9696911Y-14949548D02*
X9725482Y-14949548D01*
X9725482Y-14949548D02*
X9744530Y-14959072D01*
X9744530Y-14959072D02*
X9754054Y-14978119D01*
X9754054Y-14978119D02*
X9754054Y-15082881D01*
X9754054Y-14978119D02*
X9763577Y-14959072D01*
X9763577Y-14959072D02*
X9782625Y-14949548D01*
X9782625Y-14949548D02*
X9811196Y-14949548D01*
X9811196Y-14949548D02*
X9830244Y-14959072D01*
X9830244Y-14959072D02*
X9839768Y-14978119D01*
X9839768Y-14978119D02*
X9839768Y-15082881D01*
X10230244Y-14873357D02*
X10058816Y-15130500D01*
X10487387Y-14882881D02*
X10506435Y-14882881D01*
X10506435Y-14882881D02*
X10525482Y-14892405D01*
X10525482Y-14892405D02*
X10535006Y-14901929D01*
X10535006Y-14901929D02*
X10544530Y-14920976D01*
X10544530Y-14920976D02*
X10554054Y-14959072D01*
X10554054Y-14959072D02*
X10554054Y-15006691D01*
X10554054Y-15006691D02*
X10544530Y-15044786D01*
X10544530Y-15044786D02*
X10535006Y-15063833D01*
X10535006Y-15063833D02*
X10525482Y-15073357D01*
X10525482Y-15073357D02*
X10506435Y-15082881D01*
X10506435Y-15082881D02*
X10487387Y-15082881D01*
X10487387Y-15082881D02*
X10468339Y-15073357D01*
X10468339Y-15073357D02*
X10458816Y-15063833D01*
X10458816Y-15063833D02*
X10449292Y-15044786D01*
X10449292Y-15044786D02*
X10439768Y-15006691D01*
X10439768Y-15006691D02*
X10439768Y-14959072D01*
X10439768Y-14959072D02*
X10449292Y-14920976D01*
X10449292Y-14920976D02*
X10458816Y-14901929D01*
X10458816Y-14901929D02*
X10468339Y-14892405D01*
X10468339Y-14892405D02*
X10487387Y-14882881D01*
X10639768Y-15063833D02*
X10649292Y-15073357D01*
X10649292Y-15073357D02*
X10639768Y-15082881D01*
X10639768Y-15082881D02*
X10630244Y-15073357D01*
X10630244Y-15073357D02*
X10639768Y-15063833D01*
X10639768Y-15063833D02*
X10639768Y-15082881D01*
X10773101Y-14882881D02*
X10792149Y-14882881D01*
X10792149Y-14882881D02*
X10811197Y-14892405D01*
X10811197Y-14892405D02*
X10820720Y-14901929D01*
X10820720Y-14901929D02*
X10830244Y-14920976D01*
X10830244Y-14920976D02*
X10839768Y-14959072D01*
X10839768Y-14959072D02*
X10839768Y-15006691D01*
X10839768Y-15006691D02*
X10830244Y-15044786D01*
X10830244Y-15044786D02*
X10820720Y-15063833D01*
X10820720Y-15063833D02*
X10811197Y-15073357D01*
X10811197Y-15073357D02*
X10792149Y-15082881D01*
X10792149Y-15082881D02*
X10773101Y-15082881D01*
X10773101Y-15082881D02*
X10754054Y-15073357D01*
X10754054Y-15073357D02*
X10744530Y-15063833D01*
X10744530Y-15063833D02*
X10735006Y-15044786D01*
X10735006Y-15044786D02*
X10725482Y-15006691D01*
X10725482Y-15006691D02*
X10725482Y-14959072D01*
X10725482Y-14959072D02*
X10735006Y-14920976D01*
X10735006Y-14920976D02*
X10744530Y-14901929D01*
X10744530Y-14901929D02*
X10754054Y-14892405D01*
X10754054Y-14892405D02*
X10773101Y-14882881D01*
X10906435Y-14882881D02*
X11030244Y-14882881D01*
X11030244Y-14882881D02*
X10963577Y-14959072D01*
X10963577Y-14959072D02*
X10992149Y-14959072D01*
X10992149Y-14959072D02*
X11011197Y-14968595D01*
X11011197Y-14968595D02*
X11020720Y-14978119D01*
X11020720Y-14978119D02*
X11030244Y-14997167D01*
X11030244Y-14997167D02*
X11030244Y-15044786D01*
X11030244Y-15044786D02*
X11020720Y-15063833D01*
X11020720Y-15063833D02*
X11011197Y-15073357D01*
X11011197Y-15073357D02*
X10992149Y-15082881D01*
X10992149Y-15082881D02*
X10935006Y-15082881D01*
X10935006Y-15082881D02*
X10915958Y-15073357D01*
X10915958Y-15073357D02*
X10906435Y-15063833D01*
X11211196Y-14882881D02*
X11115958Y-14882881D01*
X11115958Y-14882881D02*
X11106435Y-14978119D01*
X11106435Y-14978119D02*
X11115958Y-14968595D01*
X11115958Y-14968595D02*
X11135006Y-14959072D01*
X11135006Y-14959072D02*
X11182625Y-14959072D01*
X11182625Y-14959072D02*
X11201673Y-14968595D01*
X11201673Y-14968595D02*
X11211196Y-14978119D01*
X11211196Y-14978119D02*
X11220720Y-14997167D01*
X11220720Y-14997167D02*
X11220720Y-15044786D01*
X11220720Y-15044786D02*
X11211196Y-15063833D01*
X11211196Y-15063833D02*
X11201673Y-15073357D01*
X11201673Y-15073357D02*
X11182625Y-15082881D01*
X11182625Y-15082881D02*
X11135006Y-15082881D01*
X11135006Y-15082881D02*
X11115958Y-15073357D01*
X11115958Y-15073357D02*
X11106435Y-15063833D01*
X11392149Y-14949548D02*
X11392149Y-15082881D01*
X11344530Y-14873357D02*
X11296911Y-15016214D01*
X11296911Y-15016214D02*
X11420720Y-15016214D01*
X11487387Y-14882881D02*
X11487387Y-14920976D01*
X11563577Y-14882881D02*
X11563577Y-14920976D01*
X11858816Y-15159072D02*
X11849292Y-15149548D01*
X11849292Y-15149548D02*
X11830244Y-15120976D01*
X11830244Y-15120976D02*
X11820720Y-15101929D01*
X11820720Y-15101929D02*
X11811197Y-15073357D01*
X11811197Y-15073357D02*
X11801673Y-15025738D01*
X11801673Y-15025738D02*
X11801673Y-14987643D01*
X11801673Y-14987643D02*
X11811197Y-14940024D01*
X11811197Y-14940024D02*
X11820720Y-14911453D01*
X11820720Y-14911453D02*
X11830244Y-14892405D01*
X11830244Y-14892405D02*
X11849292Y-14863833D01*
X11849292Y-14863833D02*
X11858816Y-14854310D01*
X11925482Y-14901929D02*
X11935006Y-14892405D01*
X11935006Y-14892405D02*
X11954054Y-14882881D01*
X11954054Y-14882881D02*
X12001673Y-14882881D01*
X12001673Y-14882881D02*
X12020720Y-14892405D01*
X12020720Y-14892405D02*
X12030244Y-14901929D01*
X12030244Y-14901929D02*
X12039768Y-14920976D01*
X12039768Y-14920976D02*
X12039768Y-14940024D01*
X12039768Y-14940024D02*
X12030244Y-14968595D01*
X12030244Y-14968595D02*
X11915958Y-15082881D01*
X11915958Y-15082881D02*
X12039768Y-15082881D01*
X12277863Y-15082881D02*
X12277863Y-14882881D01*
X12363578Y-15082881D02*
X12363578Y-14978119D01*
X12363578Y-14978119D02*
X12354054Y-14959072D01*
X12354054Y-14959072D02*
X12335006Y-14949548D01*
X12335006Y-14949548D02*
X12306435Y-14949548D01*
X12306435Y-14949548D02*
X12287387Y-14959072D01*
X12287387Y-14959072D02*
X12277863Y-14968595D01*
X12487387Y-15082881D02*
X12468339Y-15073357D01*
X12468339Y-15073357D02*
X12458816Y-15063833D01*
X12458816Y-15063833D02*
X12449292Y-15044786D01*
X12449292Y-15044786D02*
X12449292Y-14987643D01*
X12449292Y-14987643D02*
X12458816Y-14968595D01*
X12458816Y-14968595D02*
X12468339Y-14959072D01*
X12468339Y-14959072D02*
X12487387Y-14949548D01*
X12487387Y-14949548D02*
X12515959Y-14949548D01*
X12515959Y-14949548D02*
X12535006Y-14959072D01*
X12535006Y-14959072D02*
X12544530Y-14968595D01*
X12544530Y-14968595D02*
X12554054Y-14987643D01*
X12554054Y-14987643D02*
X12554054Y-15044786D01*
X12554054Y-15044786D02*
X12544530Y-15063833D01*
X12544530Y-15063833D02*
X12535006Y-15073357D01*
X12535006Y-15073357D02*
X12515959Y-15082881D01*
X12515959Y-15082881D02*
X12487387Y-15082881D01*
X12668339Y-15082881D02*
X12649292Y-15073357D01*
X12649292Y-15073357D02*
X12639768Y-15054310D01*
X12639768Y-15054310D02*
X12639768Y-14882881D01*
X12820720Y-15073357D02*
X12801673Y-15082881D01*
X12801673Y-15082881D02*
X12763578Y-15082881D01*
X12763578Y-15082881D02*
X12744530Y-15073357D01*
X12744530Y-15073357D02*
X12735006Y-15054310D01*
X12735006Y-15054310D02*
X12735006Y-14978119D01*
X12735006Y-14978119D02*
X12744530Y-14959072D01*
X12744530Y-14959072D02*
X12763578Y-14949548D01*
X12763578Y-14949548D02*
X12801673Y-14949548D01*
X12801673Y-14949548D02*
X12820720Y-14959072D01*
X12820720Y-14959072D02*
X12830244Y-14978119D01*
X12830244Y-14978119D02*
X12830244Y-14997167D01*
X12830244Y-14997167D02*
X12735006Y-15016214D01*
X12906435Y-15073357D02*
X12925482Y-15082881D01*
X12925482Y-15082881D02*
X12963578Y-15082881D01*
X12963578Y-15082881D02*
X12982625Y-15073357D01*
X12982625Y-15073357D02*
X12992149Y-15054310D01*
X12992149Y-15054310D02*
X12992149Y-15044786D01*
X12992149Y-15044786D02*
X12982625Y-15025738D01*
X12982625Y-15025738D02*
X12963578Y-15016214D01*
X12963578Y-15016214D02*
X12935006Y-15016214D01*
X12935006Y-15016214D02*
X12915959Y-15006691D01*
X12915959Y-15006691D02*
X12906435Y-14987643D01*
X12906435Y-14987643D02*
X12906435Y-14978119D01*
X12906435Y-14978119D02*
X12915959Y-14959072D01*
X12915959Y-14959072D02*
X12935006Y-14949548D01*
X12935006Y-14949548D02*
X12963578Y-14949548D01*
X12963578Y-14949548D02*
X12982625Y-14959072D01*
X13058816Y-15159072D02*
X13068340Y-15149548D01*
X13068340Y-15149548D02*
X13087387Y-15120976D01*
X13087387Y-15120976D02*
X13096911Y-15101929D01*
X13096911Y-15101929D02*
X13106435Y-15073357D01*
X13106435Y-15073357D02*
X13115959Y-15025738D01*
X13115959Y-15025738D02*
X13115959Y-14987643D01*
X13115959Y-14987643D02*
X13106435Y-14940024D01*
X13106435Y-14940024D02*
X13096911Y-14911453D01*
X13096911Y-14911453D02*
X13087387Y-14892405D01*
X13087387Y-14892405D02*
X13068340Y-14863833D01*
X13068340Y-14863833D02*
X13058816Y-14854310D01*
X13420721Y-15159072D02*
X13411197Y-15149548D01*
X13411197Y-15149548D02*
X13392149Y-15120976D01*
X13392149Y-15120976D02*
X13382625Y-15101929D01*
X13382625Y-15101929D02*
X13373101Y-15073357D01*
X13373101Y-15073357D02*
X13363578Y-15025738D01*
X13363578Y-15025738D02*
X13363578Y-14987643D01*
X13363578Y-14987643D02*
X13373101Y-14940024D01*
X13373101Y-14940024D02*
X13382625Y-14911453D01*
X13382625Y-14911453D02*
X13392149Y-14892405D01*
X13392149Y-14892405D02*
X13411197Y-14863833D01*
X13411197Y-14863833D02*
X13420721Y-14854310D01*
X13496911Y-14949548D02*
X13496911Y-15082881D01*
X13496911Y-14968595D02*
X13506435Y-14959072D01*
X13506435Y-14959072D02*
X13525482Y-14949548D01*
X13525482Y-14949548D02*
X13554054Y-14949548D01*
X13554054Y-14949548D02*
X13573101Y-14959072D01*
X13573101Y-14959072D02*
X13582625Y-14978119D01*
X13582625Y-14978119D02*
X13582625Y-15082881D01*
X13706435Y-15082881D02*
X13687387Y-15073357D01*
X13687387Y-15073357D02*
X13677863Y-15063833D01*
X13677863Y-15063833D02*
X13668340Y-15044786D01*
X13668340Y-15044786D02*
X13668340Y-14987643D01*
X13668340Y-14987643D02*
X13677863Y-14968595D01*
X13677863Y-14968595D02*
X13687387Y-14959072D01*
X13687387Y-14959072D02*
X13706435Y-14949548D01*
X13706435Y-14949548D02*
X13735006Y-14949548D01*
X13735006Y-14949548D02*
X13754054Y-14959072D01*
X13754054Y-14959072D02*
X13763578Y-14968595D01*
X13763578Y-14968595D02*
X13773101Y-14987643D01*
X13773101Y-14987643D02*
X13773101Y-15044786D01*
X13773101Y-15044786D02*
X13763578Y-15063833D01*
X13763578Y-15063833D02*
X13754054Y-15073357D01*
X13754054Y-15073357D02*
X13735006Y-15082881D01*
X13735006Y-15082881D02*
X13706435Y-15082881D01*
X13830244Y-14949548D02*
X13906435Y-14949548D01*
X13858816Y-14882881D02*
X13858816Y-15054310D01*
X13858816Y-15054310D02*
X13868340Y-15073357D01*
X13868340Y-15073357D02*
X13887387Y-15082881D01*
X13887387Y-15082881D02*
X13906435Y-15082881D01*
X14125482Y-14949548D02*
X14125482Y-15149548D01*
X14125482Y-14959072D02*
X14144530Y-14949548D01*
X14144530Y-14949548D02*
X14182625Y-14949548D01*
X14182625Y-14949548D02*
X14201673Y-14959072D01*
X14201673Y-14959072D02*
X14211197Y-14968595D01*
X14211197Y-14968595D02*
X14220721Y-14987643D01*
X14220721Y-14987643D02*
X14220721Y-15044786D01*
X14220721Y-15044786D02*
X14211197Y-15063833D01*
X14211197Y-15063833D02*
X14201673Y-15073357D01*
X14201673Y-15073357D02*
X14182625Y-15082881D01*
X14182625Y-15082881D02*
X14144530Y-15082881D01*
X14144530Y-15082881D02*
X14125482Y-15073357D01*
X14335006Y-15082881D02*
X14315959Y-15073357D01*
X14315959Y-15073357D02*
X14306435Y-15054310D01*
X14306435Y-15054310D02*
X14306435Y-14882881D01*
X14496911Y-15082881D02*
X14496911Y-14978119D01*
X14496911Y-14978119D02*
X14487387Y-14959072D01*
X14487387Y-14959072D02*
X14468340Y-14949548D01*
X14468340Y-14949548D02*
X14430244Y-14949548D01*
X14430244Y-14949548D02*
X14411197Y-14959072D01*
X14496911Y-15073357D02*
X14477863Y-15082881D01*
X14477863Y-15082881D02*
X14430244Y-15082881D01*
X14430244Y-15082881D02*
X14411197Y-15073357D01*
X14411197Y-15073357D02*
X14401673Y-15054310D01*
X14401673Y-15054310D02*
X14401673Y-15035262D01*
X14401673Y-15035262D02*
X14411197Y-15016214D01*
X14411197Y-15016214D02*
X14430244Y-15006691D01*
X14430244Y-15006691D02*
X14477863Y-15006691D01*
X14477863Y-15006691D02*
X14496911Y-14997167D01*
X14563578Y-14949548D02*
X14639768Y-14949548D01*
X14592149Y-14882881D02*
X14592149Y-15054310D01*
X14592149Y-15054310D02*
X14601673Y-15073357D01*
X14601673Y-15073357D02*
X14620721Y-15082881D01*
X14620721Y-15082881D02*
X14639768Y-15082881D01*
X14782625Y-15073357D02*
X14763578Y-15082881D01*
X14763578Y-15082881D02*
X14725482Y-15082881D01*
X14725482Y-15082881D02*
X14706435Y-15073357D01*
X14706435Y-15073357D02*
X14696911Y-15054310D01*
X14696911Y-15054310D02*
X14696911Y-14978119D01*
X14696911Y-14978119D02*
X14706435Y-14959072D01*
X14706435Y-14959072D02*
X14725482Y-14949548D01*
X14725482Y-14949548D02*
X14763578Y-14949548D01*
X14763578Y-14949548D02*
X14782625Y-14959072D01*
X14782625Y-14959072D02*
X14792149Y-14978119D01*
X14792149Y-14978119D02*
X14792149Y-14997167D01*
X14792149Y-14997167D02*
X14696911Y-15016214D01*
X14963578Y-15082881D02*
X14963578Y-14882881D01*
X14963578Y-15073357D02*
X14944530Y-15082881D01*
X14944530Y-15082881D02*
X14906435Y-15082881D01*
X14906435Y-15082881D02*
X14887387Y-15073357D01*
X14887387Y-15073357D02*
X14877863Y-15063833D01*
X14877863Y-15063833D02*
X14868340Y-15044786D01*
X14868340Y-15044786D02*
X14868340Y-14987643D01*
X14868340Y-14987643D02*
X14877863Y-14968595D01*
X14877863Y-14968595D02*
X14887387Y-14959072D01*
X14887387Y-14959072D02*
X14906435Y-14949548D01*
X14906435Y-14949548D02*
X14944530Y-14949548D01*
X14944530Y-14949548D02*
X14963578Y-14959072D01*
X15039768Y-15159072D02*
X15049292Y-15149548D01*
X15049292Y-15149548D02*
X15068340Y-15120976D01*
X15068340Y-15120976D02*
X15077863Y-15101929D01*
X15077863Y-15101929D02*
X15087387Y-15073357D01*
X15087387Y-15073357D02*
X15096911Y-15025738D01*
X15096911Y-15025738D02*
X15096911Y-14987643D01*
X15096911Y-14987643D02*
X15087387Y-14940024D01*
X15087387Y-14940024D02*
X15077863Y-14911453D01*
X15077863Y-14911453D02*
X15068340Y-14892405D01*
X15068340Y-14892405D02*
X15049292Y-14863833D01*
X15049292Y-14863833D02*
X15039768Y-14854310D01*
X8283753Y-15255397D02*
G75*
G03*
X8083753Y-15255397I-100000J0D01*
G01*
X8083753Y-15255397D02*
G75*
G03*
X8283753Y-15255397I100000J0D01*
G01*
X8525482Y-15146881D02*
X8649292Y-15146881D01*
X8649292Y-15146881D02*
X8582625Y-15223072D01*
X8582625Y-15223072D02*
X8611196Y-15223072D01*
X8611196Y-15223072D02*
X8630244Y-15232595D01*
X8630244Y-15232595D02*
X8639768Y-15242119D01*
X8639768Y-15242119D02*
X8649292Y-15261167D01*
X8649292Y-15261167D02*
X8649292Y-15308786D01*
X8649292Y-15308786D02*
X8639768Y-15327833D01*
X8639768Y-15327833D02*
X8630244Y-15337357D01*
X8630244Y-15337357D02*
X8611196Y-15346881D01*
X8611196Y-15346881D02*
X8554053Y-15346881D01*
X8554053Y-15346881D02*
X8535006Y-15337357D01*
X8535006Y-15337357D02*
X8525482Y-15327833D01*
X8735006Y-15327833D02*
X8744530Y-15337357D01*
X8744530Y-15337357D02*
X8735006Y-15346881D01*
X8735006Y-15346881D02*
X8725482Y-15337357D01*
X8725482Y-15337357D02*
X8735006Y-15327833D01*
X8735006Y-15327833D02*
X8735006Y-15346881D01*
X8868339Y-15146881D02*
X8887387Y-15146881D01*
X8887387Y-15146881D02*
X8906434Y-15156405D01*
X8906434Y-15156405D02*
X8915958Y-15165929D01*
X8915958Y-15165929D02*
X8925482Y-15184976D01*
X8925482Y-15184976D02*
X8935006Y-15223072D01*
X8935006Y-15223072D02*
X8935006Y-15270691D01*
X8935006Y-15270691D02*
X8925482Y-15308786D01*
X8925482Y-15308786D02*
X8915958Y-15327833D01*
X8915958Y-15327833D02*
X8906434Y-15337357D01*
X8906434Y-15337357D02*
X8887387Y-15346881D01*
X8887387Y-15346881D02*
X8868339Y-15346881D01*
X8868339Y-15346881D02*
X8849292Y-15337357D01*
X8849292Y-15337357D02*
X8839768Y-15327833D01*
X8839768Y-15327833D02*
X8830244Y-15308786D01*
X8830244Y-15308786D02*
X8820720Y-15270691D01*
X8820720Y-15270691D02*
X8820720Y-15223072D01*
X8820720Y-15223072D02*
X8830244Y-15184976D01*
X8830244Y-15184976D02*
X8839768Y-15165929D01*
X8839768Y-15165929D02*
X8849292Y-15156405D01*
X8849292Y-15156405D02*
X8868339Y-15146881D01*
X9058815Y-15146881D02*
X9077863Y-15146881D01*
X9077863Y-15146881D02*
X9096911Y-15156405D01*
X9096911Y-15156405D02*
X9106434Y-15165929D01*
X9106434Y-15165929D02*
X9115958Y-15184976D01*
X9115958Y-15184976D02*
X9125482Y-15223072D01*
X9125482Y-15223072D02*
X9125482Y-15270691D01*
X9125482Y-15270691D02*
X9115958Y-15308786D01*
X9115958Y-15308786D02*
X9106434Y-15327833D01*
X9106434Y-15327833D02*
X9096911Y-15337357D01*
X9096911Y-15337357D02*
X9077863Y-15346881D01*
X9077863Y-15346881D02*
X9058815Y-15346881D01*
X9058815Y-15346881D02*
X9039768Y-15337357D01*
X9039768Y-15337357D02*
X9030244Y-15327833D01*
X9030244Y-15327833D02*
X9020720Y-15308786D01*
X9020720Y-15308786D02*
X9011196Y-15270691D01*
X9011196Y-15270691D02*
X9011196Y-15223072D01*
X9011196Y-15223072D02*
X9020720Y-15184976D01*
X9020720Y-15184976D02*
X9030244Y-15165929D01*
X9030244Y-15165929D02*
X9039768Y-15156405D01*
X9039768Y-15156405D02*
X9058815Y-15146881D01*
X9249292Y-15146881D02*
X9268339Y-15146881D01*
X9268339Y-15146881D02*
X9287387Y-15156405D01*
X9287387Y-15156405D02*
X9296911Y-15165929D01*
X9296911Y-15165929D02*
X9306434Y-15184976D01*
X9306434Y-15184976D02*
X9315958Y-15223072D01*
X9315958Y-15223072D02*
X9315958Y-15270691D01*
X9315958Y-15270691D02*
X9306434Y-15308786D01*
X9306434Y-15308786D02*
X9296911Y-15327833D01*
X9296911Y-15327833D02*
X9287387Y-15337357D01*
X9287387Y-15337357D02*
X9268339Y-15346881D01*
X9268339Y-15346881D02*
X9249292Y-15346881D01*
X9249292Y-15346881D02*
X9230244Y-15337357D01*
X9230244Y-15337357D02*
X9220720Y-15327833D01*
X9220720Y-15327833D02*
X9211196Y-15308786D01*
X9211196Y-15308786D02*
X9201673Y-15270691D01*
X9201673Y-15270691D02*
X9201673Y-15223072D01*
X9201673Y-15223072D02*
X9211196Y-15184976D01*
X9211196Y-15184976D02*
X9220720Y-15165929D01*
X9220720Y-15165929D02*
X9230244Y-15156405D01*
X9230244Y-15156405D02*
X9249292Y-15146881D01*
X9401673Y-15346881D02*
X9401673Y-15213548D01*
X9401673Y-15232595D02*
X9411196Y-15223072D01*
X9411196Y-15223072D02*
X9430244Y-15213548D01*
X9430244Y-15213548D02*
X9458815Y-15213548D01*
X9458815Y-15213548D02*
X9477863Y-15223072D01*
X9477863Y-15223072D02*
X9487387Y-15242119D01*
X9487387Y-15242119D02*
X9487387Y-15346881D01*
X9487387Y-15242119D02*
X9496911Y-15223072D01*
X9496911Y-15223072D02*
X9515958Y-15213548D01*
X9515958Y-15213548D02*
X9544530Y-15213548D01*
X9544530Y-15213548D02*
X9563577Y-15223072D01*
X9563577Y-15223072D02*
X9573101Y-15242119D01*
X9573101Y-15242119D02*
X9573101Y-15346881D01*
X9668339Y-15346881D02*
X9668339Y-15213548D01*
X9668339Y-15232595D02*
X9677863Y-15223072D01*
X9677863Y-15223072D02*
X9696911Y-15213548D01*
X9696911Y-15213548D02*
X9725482Y-15213548D01*
X9725482Y-15213548D02*
X9744530Y-15223072D01*
X9744530Y-15223072D02*
X9754054Y-15242119D01*
X9754054Y-15242119D02*
X9754054Y-15346881D01*
X9754054Y-15242119D02*
X9763577Y-15223072D01*
X9763577Y-15223072D02*
X9782625Y-15213548D01*
X9782625Y-15213548D02*
X9811196Y-15213548D01*
X9811196Y-15213548D02*
X9830244Y-15223072D01*
X9830244Y-15223072D02*
X9839768Y-15242119D01*
X9839768Y-15242119D02*
X9839768Y-15346881D01*
X10230244Y-15137357D02*
X10058816Y-15394500D01*
X10487387Y-15146881D02*
X10506435Y-15146881D01*
X10506435Y-15146881D02*
X10525482Y-15156405D01*
X10525482Y-15156405D02*
X10535006Y-15165929D01*
X10535006Y-15165929D02*
X10544530Y-15184976D01*
X10544530Y-15184976D02*
X10554054Y-15223072D01*
X10554054Y-15223072D02*
X10554054Y-15270691D01*
X10554054Y-15270691D02*
X10544530Y-15308786D01*
X10544530Y-15308786D02*
X10535006Y-15327833D01*
X10535006Y-15327833D02*
X10525482Y-15337357D01*
X10525482Y-15337357D02*
X10506435Y-15346881D01*
X10506435Y-15346881D02*
X10487387Y-15346881D01*
X10487387Y-15346881D02*
X10468339Y-15337357D01*
X10468339Y-15337357D02*
X10458816Y-15327833D01*
X10458816Y-15327833D02*
X10449292Y-15308786D01*
X10449292Y-15308786D02*
X10439768Y-15270691D01*
X10439768Y-15270691D02*
X10439768Y-15223072D01*
X10439768Y-15223072D02*
X10449292Y-15184976D01*
X10449292Y-15184976D02*
X10458816Y-15165929D01*
X10458816Y-15165929D02*
X10468339Y-15156405D01*
X10468339Y-15156405D02*
X10487387Y-15146881D01*
X10639768Y-15327833D02*
X10649292Y-15337357D01*
X10649292Y-15337357D02*
X10639768Y-15346881D01*
X10639768Y-15346881D02*
X10630244Y-15337357D01*
X10630244Y-15337357D02*
X10639768Y-15327833D01*
X10639768Y-15327833D02*
X10639768Y-15346881D01*
X10839768Y-15346881D02*
X10725482Y-15346881D01*
X10782625Y-15346881D02*
X10782625Y-15146881D01*
X10782625Y-15146881D02*
X10763577Y-15175453D01*
X10763577Y-15175453D02*
X10744530Y-15194500D01*
X10744530Y-15194500D02*
X10725482Y-15204024D01*
X11030244Y-15346881D02*
X10915958Y-15346881D01*
X10973101Y-15346881D02*
X10973101Y-15146881D01*
X10973101Y-15146881D02*
X10954054Y-15175453D01*
X10954054Y-15175453D02*
X10935006Y-15194500D01*
X10935006Y-15194500D02*
X10915958Y-15204024D01*
X11144530Y-15232595D02*
X11125482Y-15223072D01*
X11125482Y-15223072D02*
X11115958Y-15213548D01*
X11115958Y-15213548D02*
X11106435Y-15194500D01*
X11106435Y-15194500D02*
X11106435Y-15184976D01*
X11106435Y-15184976D02*
X11115958Y-15165929D01*
X11115958Y-15165929D02*
X11125482Y-15156405D01*
X11125482Y-15156405D02*
X11144530Y-15146881D01*
X11144530Y-15146881D02*
X11182625Y-15146881D01*
X11182625Y-15146881D02*
X11201673Y-15156405D01*
X11201673Y-15156405D02*
X11211196Y-15165929D01*
X11211196Y-15165929D02*
X11220720Y-15184976D01*
X11220720Y-15184976D02*
X11220720Y-15194500D01*
X11220720Y-15194500D02*
X11211196Y-15213548D01*
X11211196Y-15213548D02*
X11201673Y-15223072D01*
X11201673Y-15223072D02*
X11182625Y-15232595D01*
X11182625Y-15232595D02*
X11144530Y-15232595D01*
X11144530Y-15232595D02*
X11125482Y-15242119D01*
X11125482Y-15242119D02*
X11115958Y-15251643D01*
X11115958Y-15251643D02*
X11106435Y-15270691D01*
X11106435Y-15270691D02*
X11106435Y-15308786D01*
X11106435Y-15308786D02*
X11115958Y-15327833D01*
X11115958Y-15327833D02*
X11125482Y-15337357D01*
X11125482Y-15337357D02*
X11144530Y-15346881D01*
X11144530Y-15346881D02*
X11182625Y-15346881D01*
X11182625Y-15346881D02*
X11201673Y-15337357D01*
X11201673Y-15337357D02*
X11211196Y-15327833D01*
X11211196Y-15327833D02*
X11220720Y-15308786D01*
X11220720Y-15308786D02*
X11220720Y-15270691D01*
X11220720Y-15270691D02*
X11211196Y-15251643D01*
X11211196Y-15251643D02*
X11201673Y-15242119D01*
X11201673Y-15242119D02*
X11182625Y-15232595D01*
X11411196Y-15346881D02*
X11296911Y-15346881D01*
X11354054Y-15346881D02*
X11354054Y-15146881D01*
X11354054Y-15146881D02*
X11335006Y-15175453D01*
X11335006Y-15175453D02*
X11315958Y-15194500D01*
X11315958Y-15194500D02*
X11296911Y-15204024D01*
X11487387Y-15146881D02*
X11487387Y-15184976D01*
X11563577Y-15146881D02*
X11563577Y-15184976D01*
X11858816Y-15423072D02*
X11849292Y-15413548D01*
X11849292Y-15413548D02*
X11830244Y-15384976D01*
X11830244Y-15384976D02*
X11820720Y-15365929D01*
X11820720Y-15365929D02*
X11811197Y-15337357D01*
X11811197Y-15337357D02*
X11801673Y-15289738D01*
X11801673Y-15289738D02*
X11801673Y-15251643D01*
X11801673Y-15251643D02*
X11811197Y-15204024D01*
X11811197Y-15204024D02*
X11820720Y-15175453D01*
X11820720Y-15175453D02*
X11830244Y-15156405D01*
X11830244Y-15156405D02*
X11849292Y-15127833D01*
X11849292Y-15127833D02*
X11858816Y-15118310D01*
X12030244Y-15146881D02*
X11935006Y-15146881D01*
X11935006Y-15146881D02*
X11925482Y-15242119D01*
X11925482Y-15242119D02*
X11935006Y-15232595D01*
X11935006Y-15232595D02*
X11954054Y-15223072D01*
X11954054Y-15223072D02*
X12001673Y-15223072D01*
X12001673Y-15223072D02*
X12020720Y-15232595D01*
X12020720Y-15232595D02*
X12030244Y-15242119D01*
X12030244Y-15242119D02*
X12039768Y-15261167D01*
X12039768Y-15261167D02*
X12039768Y-15308786D01*
X12039768Y-15308786D02*
X12030244Y-15327833D01*
X12030244Y-15327833D02*
X12020720Y-15337357D01*
X12020720Y-15337357D02*
X12001673Y-15346881D01*
X12001673Y-15346881D02*
X11954054Y-15346881D01*
X11954054Y-15346881D02*
X11935006Y-15337357D01*
X11935006Y-15337357D02*
X11925482Y-15327833D01*
X12154054Y-15232595D02*
X12135006Y-15223072D01*
X12135006Y-15223072D02*
X12125482Y-15213548D01*
X12125482Y-15213548D02*
X12115958Y-15194500D01*
X12115958Y-15194500D02*
X12115958Y-15184976D01*
X12115958Y-15184976D02*
X12125482Y-15165929D01*
X12125482Y-15165929D02*
X12135006Y-15156405D01*
X12135006Y-15156405D02*
X12154054Y-15146881D01*
X12154054Y-15146881D02*
X12192149Y-15146881D01*
X12192149Y-15146881D02*
X12211197Y-15156405D01*
X12211197Y-15156405D02*
X12220720Y-15165929D01*
X12220720Y-15165929D02*
X12230244Y-15184976D01*
X12230244Y-15184976D02*
X12230244Y-15194500D01*
X12230244Y-15194500D02*
X12220720Y-15213548D01*
X12220720Y-15213548D02*
X12211197Y-15223072D01*
X12211197Y-15223072D02*
X12192149Y-15232595D01*
X12192149Y-15232595D02*
X12154054Y-15232595D01*
X12154054Y-15232595D02*
X12135006Y-15242119D01*
X12135006Y-15242119D02*
X12125482Y-15251643D01*
X12125482Y-15251643D02*
X12115958Y-15270691D01*
X12115958Y-15270691D02*
X12115958Y-15308786D01*
X12115958Y-15308786D02*
X12125482Y-15327833D01*
X12125482Y-15327833D02*
X12135006Y-15337357D01*
X12135006Y-15337357D02*
X12154054Y-15346881D01*
X12154054Y-15346881D02*
X12192149Y-15346881D01*
X12192149Y-15346881D02*
X12211197Y-15337357D01*
X12211197Y-15337357D02*
X12220720Y-15327833D01*
X12220720Y-15327833D02*
X12230244Y-15308786D01*
X12230244Y-15308786D02*
X12230244Y-15270691D01*
X12230244Y-15270691D02*
X12220720Y-15251643D01*
X12220720Y-15251643D02*
X12211197Y-15242119D01*
X12211197Y-15242119D02*
X12192149Y-15232595D01*
X12468339Y-15346881D02*
X12468339Y-15146881D01*
X12554054Y-15346881D02*
X12554054Y-15242119D01*
X12554054Y-15242119D02*
X12544530Y-15223072D01*
X12544530Y-15223072D02*
X12525482Y-15213548D01*
X12525482Y-15213548D02*
X12496911Y-15213548D01*
X12496911Y-15213548D02*
X12477863Y-15223072D01*
X12477863Y-15223072D02*
X12468339Y-15232595D01*
X12677863Y-15346881D02*
X12658816Y-15337357D01*
X12658816Y-15337357D02*
X12649292Y-15327833D01*
X12649292Y-15327833D02*
X12639768Y-15308786D01*
X12639768Y-15308786D02*
X12639768Y-15251643D01*
X12639768Y-15251643D02*
X12649292Y-15232595D01*
X12649292Y-15232595D02*
X12658816Y-15223072D01*
X12658816Y-15223072D02*
X12677863Y-15213548D01*
X12677863Y-15213548D02*
X12706435Y-15213548D01*
X12706435Y-15213548D02*
X12725482Y-15223072D01*
X12725482Y-15223072D02*
X12735006Y-15232595D01*
X12735006Y-15232595D02*
X12744530Y-15251643D01*
X12744530Y-15251643D02*
X12744530Y-15308786D01*
X12744530Y-15308786D02*
X12735006Y-15327833D01*
X12735006Y-15327833D02*
X12725482Y-15337357D01*
X12725482Y-15337357D02*
X12706435Y-15346881D01*
X12706435Y-15346881D02*
X12677863Y-15346881D01*
X12858816Y-15346881D02*
X12839768Y-15337357D01*
X12839768Y-15337357D02*
X12830244Y-15318310D01*
X12830244Y-15318310D02*
X12830244Y-15146881D01*
X13011197Y-15337357D02*
X12992149Y-15346881D01*
X12992149Y-15346881D02*
X12954054Y-15346881D01*
X12954054Y-15346881D02*
X12935006Y-15337357D01*
X12935006Y-15337357D02*
X12925482Y-15318310D01*
X12925482Y-15318310D02*
X12925482Y-15242119D01*
X12925482Y-15242119D02*
X12935006Y-15223072D01*
X12935006Y-15223072D02*
X12954054Y-15213548D01*
X12954054Y-15213548D02*
X12992149Y-15213548D01*
X12992149Y-15213548D02*
X13011197Y-15223072D01*
X13011197Y-15223072D02*
X13020720Y-15242119D01*
X13020720Y-15242119D02*
X13020720Y-15261167D01*
X13020720Y-15261167D02*
X12925482Y-15280214D01*
X13096911Y-15337357D02*
X13115959Y-15346881D01*
X13115959Y-15346881D02*
X13154054Y-15346881D01*
X13154054Y-15346881D02*
X13173101Y-15337357D01*
X13173101Y-15337357D02*
X13182625Y-15318310D01*
X13182625Y-15318310D02*
X13182625Y-15308786D01*
X13182625Y-15308786D02*
X13173101Y-15289738D01*
X13173101Y-15289738D02*
X13154054Y-15280214D01*
X13154054Y-15280214D02*
X13125482Y-15280214D01*
X13125482Y-15280214D02*
X13106435Y-15270691D01*
X13106435Y-15270691D02*
X13096911Y-15251643D01*
X13096911Y-15251643D02*
X13096911Y-15242119D01*
X13096911Y-15242119D02*
X13106435Y-15223072D01*
X13106435Y-15223072D02*
X13125482Y-15213548D01*
X13125482Y-15213548D02*
X13154054Y-15213548D01*
X13154054Y-15213548D02*
X13173101Y-15223072D01*
X13249292Y-15423072D02*
X13258816Y-15413548D01*
X13258816Y-15413548D02*
X13277863Y-15384976D01*
X13277863Y-15384976D02*
X13287387Y-15365929D01*
X13287387Y-15365929D02*
X13296911Y-15337357D01*
X13296911Y-15337357D02*
X13306435Y-15289738D01*
X13306435Y-15289738D02*
X13306435Y-15251643D01*
X13306435Y-15251643D02*
X13296911Y-15204024D01*
X13296911Y-15204024D02*
X13287387Y-15175453D01*
X13287387Y-15175453D02*
X13277863Y-15156405D01*
X13277863Y-15156405D02*
X13258816Y-15127833D01*
X13258816Y-15127833D02*
X13249292Y-15118310D01*
X13611197Y-15423072D02*
X13601673Y-15413548D01*
X13601673Y-15413548D02*
X13582625Y-15384976D01*
X13582625Y-15384976D02*
X13573101Y-15365929D01*
X13573101Y-15365929D02*
X13563578Y-15337357D01*
X13563578Y-15337357D02*
X13554054Y-15289738D01*
X13554054Y-15289738D02*
X13554054Y-15251643D01*
X13554054Y-15251643D02*
X13563578Y-15204024D01*
X13563578Y-15204024D02*
X13573101Y-15175453D01*
X13573101Y-15175453D02*
X13582625Y-15156405D01*
X13582625Y-15156405D02*
X13601673Y-15127833D01*
X13601673Y-15127833D02*
X13611197Y-15118310D01*
X13687387Y-15213548D02*
X13687387Y-15346881D01*
X13687387Y-15232595D02*
X13696911Y-15223072D01*
X13696911Y-15223072D02*
X13715959Y-15213548D01*
X13715959Y-15213548D02*
X13744530Y-15213548D01*
X13744530Y-15213548D02*
X13763578Y-15223072D01*
X13763578Y-15223072D02*
X13773101Y-15242119D01*
X13773101Y-15242119D02*
X13773101Y-15346881D01*
X13896911Y-15346881D02*
X13877863Y-15337357D01*
X13877863Y-15337357D02*
X13868340Y-15327833D01*
X13868340Y-15327833D02*
X13858816Y-15308786D01*
X13858816Y-15308786D02*
X13858816Y-15251643D01*
X13858816Y-15251643D02*
X13868340Y-15232595D01*
X13868340Y-15232595D02*
X13877863Y-15223072D01*
X13877863Y-15223072D02*
X13896911Y-15213548D01*
X13896911Y-15213548D02*
X13925482Y-15213548D01*
X13925482Y-15213548D02*
X13944530Y-15223072D01*
X13944530Y-15223072D02*
X13954054Y-15232595D01*
X13954054Y-15232595D02*
X13963578Y-15251643D01*
X13963578Y-15251643D02*
X13963578Y-15308786D01*
X13963578Y-15308786D02*
X13954054Y-15327833D01*
X13954054Y-15327833D02*
X13944530Y-15337357D01*
X13944530Y-15337357D02*
X13925482Y-15346881D01*
X13925482Y-15346881D02*
X13896911Y-15346881D01*
X14020721Y-15213548D02*
X14096911Y-15213548D01*
X14049292Y-15146881D02*
X14049292Y-15318310D01*
X14049292Y-15318310D02*
X14058816Y-15337357D01*
X14058816Y-15337357D02*
X14077863Y-15346881D01*
X14077863Y-15346881D02*
X14096911Y-15346881D01*
X14315959Y-15213548D02*
X14315959Y-15413548D01*
X14315959Y-15223072D02*
X14335006Y-15213548D01*
X14335006Y-15213548D02*
X14373102Y-15213548D01*
X14373102Y-15213548D02*
X14392149Y-15223072D01*
X14392149Y-15223072D02*
X14401673Y-15232595D01*
X14401673Y-15232595D02*
X14411197Y-15251643D01*
X14411197Y-15251643D02*
X14411197Y-15308786D01*
X14411197Y-15308786D02*
X14401673Y-15327833D01*
X14401673Y-15327833D02*
X14392149Y-15337357D01*
X14392149Y-15337357D02*
X14373102Y-15346881D01*
X14373102Y-15346881D02*
X14335006Y-15346881D01*
X14335006Y-15346881D02*
X14315959Y-15337357D01*
X14525482Y-15346881D02*
X14506435Y-15337357D01*
X14506435Y-15337357D02*
X14496911Y-15318310D01*
X14496911Y-15318310D02*
X14496911Y-15146881D01*
X14687387Y-15346881D02*
X14687387Y-15242119D01*
X14687387Y-15242119D02*
X14677863Y-15223072D01*
X14677863Y-15223072D02*
X14658816Y-15213548D01*
X14658816Y-15213548D02*
X14620721Y-15213548D01*
X14620721Y-15213548D02*
X14601673Y-15223072D01*
X14687387Y-15337357D02*
X14668340Y-15346881D01*
X14668340Y-15346881D02*
X14620721Y-15346881D01*
X14620721Y-15346881D02*
X14601673Y-15337357D01*
X14601673Y-15337357D02*
X14592149Y-15318310D01*
X14592149Y-15318310D02*
X14592149Y-15299262D01*
X14592149Y-15299262D02*
X14601673Y-15280214D01*
X14601673Y-15280214D02*
X14620721Y-15270691D01*
X14620721Y-15270691D02*
X14668340Y-15270691D01*
X14668340Y-15270691D02*
X14687387Y-15261167D01*
X14754054Y-15213548D02*
X14830244Y-15213548D01*
X14782625Y-15146881D02*
X14782625Y-15318310D01*
X14782625Y-15318310D02*
X14792149Y-15337357D01*
X14792149Y-15337357D02*
X14811197Y-15346881D01*
X14811197Y-15346881D02*
X14830244Y-15346881D01*
X14973102Y-15337357D02*
X14954054Y-15346881D01*
X14954054Y-15346881D02*
X14915959Y-15346881D01*
X14915959Y-15346881D02*
X14896911Y-15337357D01*
X14896911Y-15337357D02*
X14887387Y-15318310D01*
X14887387Y-15318310D02*
X14887387Y-15242119D01*
X14887387Y-15242119D02*
X14896911Y-15223072D01*
X14896911Y-15223072D02*
X14915959Y-15213548D01*
X14915959Y-15213548D02*
X14954054Y-15213548D01*
X14954054Y-15213548D02*
X14973102Y-15223072D01*
X14973102Y-15223072D02*
X14982625Y-15242119D01*
X14982625Y-15242119D02*
X14982625Y-15261167D01*
X14982625Y-15261167D02*
X14887387Y-15280214D01*
X15154054Y-15346881D02*
X15154054Y-15146881D01*
X15154054Y-15337357D02*
X15135006Y-15346881D01*
X15135006Y-15346881D02*
X15096911Y-15346881D01*
X15096911Y-15346881D02*
X15077863Y-15337357D01*
X15077863Y-15337357D02*
X15068340Y-15327833D01*
X15068340Y-15327833D02*
X15058816Y-15308786D01*
X15058816Y-15308786D02*
X15058816Y-15251643D01*
X15058816Y-15251643D02*
X15068340Y-15232595D01*
X15068340Y-15232595D02*
X15077863Y-15223072D01*
X15077863Y-15223072D02*
X15096911Y-15213548D01*
X15096911Y-15213548D02*
X15135006Y-15213548D01*
X15135006Y-15213548D02*
X15154054Y-15223072D01*
X15230244Y-15423072D02*
X15239768Y-15413548D01*
X15239768Y-15413548D02*
X15258816Y-15384976D01*
X15258816Y-15384976D02*
X15268340Y-15365929D01*
X15268340Y-15365929D02*
X15277863Y-15337357D01*
X15277863Y-15337357D02*
X15287387Y-15289738D01*
X15287387Y-15289738D02*
X15287387Y-15251643D01*
X15287387Y-15251643D02*
X15277863Y-15204024D01*
X15277863Y-15204024D02*
X15268340Y-15175453D01*
X15268340Y-15175453D02*
X15258816Y-15156405D01*
X15258816Y-15156405D02*
X15239768Y-15127833D01*
X15239768Y-15127833D02*
X15230244Y-15118310D01*
X8183753Y-15475397D02*
X8183753Y-15675397D01*
X8083753Y-15575397D02*
X8283753Y-15575397D01*
X8630244Y-15533548D02*
X8630244Y-15666881D01*
X8582625Y-15457357D02*
X8535006Y-15600214D01*
X8535006Y-15600214D02*
X8658815Y-15600214D01*
X8735006Y-15647833D02*
X8744530Y-15657357D01*
X8744530Y-15657357D02*
X8735006Y-15666881D01*
X8735006Y-15666881D02*
X8725482Y-15657357D01*
X8725482Y-15657357D02*
X8735006Y-15647833D01*
X8735006Y-15647833D02*
X8735006Y-15666881D01*
X8811196Y-15466881D02*
X8944530Y-15466881D01*
X8944530Y-15466881D02*
X8858815Y-15666881D01*
X9058815Y-15466881D02*
X9077863Y-15466881D01*
X9077863Y-15466881D02*
X9096911Y-15476405D01*
X9096911Y-15476405D02*
X9106434Y-15485929D01*
X9106434Y-15485929D02*
X9115958Y-15504976D01*
X9115958Y-15504976D02*
X9125482Y-15543072D01*
X9125482Y-15543072D02*
X9125482Y-15590691D01*
X9125482Y-15590691D02*
X9115958Y-15628786D01*
X9115958Y-15628786D02*
X9106434Y-15647833D01*
X9106434Y-15647833D02*
X9096911Y-15657357D01*
X9096911Y-15657357D02*
X9077863Y-15666881D01*
X9077863Y-15666881D02*
X9058815Y-15666881D01*
X9058815Y-15666881D02*
X9039768Y-15657357D01*
X9039768Y-15657357D02*
X9030244Y-15647833D01*
X9030244Y-15647833D02*
X9020720Y-15628786D01*
X9020720Y-15628786D02*
X9011196Y-15590691D01*
X9011196Y-15590691D02*
X9011196Y-15543072D01*
X9011196Y-15543072D02*
X9020720Y-15504976D01*
X9020720Y-15504976D02*
X9030244Y-15485929D01*
X9030244Y-15485929D02*
X9039768Y-15476405D01*
X9039768Y-15476405D02*
X9058815Y-15466881D01*
X9249292Y-15466881D02*
X9268339Y-15466881D01*
X9268339Y-15466881D02*
X9287387Y-15476405D01*
X9287387Y-15476405D02*
X9296911Y-15485929D01*
X9296911Y-15485929D02*
X9306434Y-15504976D01*
X9306434Y-15504976D02*
X9315958Y-15543072D01*
X9315958Y-15543072D02*
X9315958Y-15590691D01*
X9315958Y-15590691D02*
X9306434Y-15628786D01*
X9306434Y-15628786D02*
X9296911Y-15647833D01*
X9296911Y-15647833D02*
X9287387Y-15657357D01*
X9287387Y-15657357D02*
X9268339Y-15666881D01*
X9268339Y-15666881D02*
X9249292Y-15666881D01*
X9249292Y-15666881D02*
X9230244Y-15657357D01*
X9230244Y-15657357D02*
X9220720Y-15647833D01*
X9220720Y-15647833D02*
X9211196Y-15628786D01*
X9211196Y-15628786D02*
X9201673Y-15590691D01*
X9201673Y-15590691D02*
X9201673Y-15543072D01*
X9201673Y-15543072D02*
X9211196Y-15504976D01*
X9211196Y-15504976D02*
X9220720Y-15485929D01*
X9220720Y-15485929D02*
X9230244Y-15476405D01*
X9230244Y-15476405D02*
X9249292Y-15466881D01*
X9401673Y-15666881D02*
X9401673Y-15533548D01*
X9401673Y-15552595D02*
X9411196Y-15543072D01*
X9411196Y-15543072D02*
X9430244Y-15533548D01*
X9430244Y-15533548D02*
X9458815Y-15533548D01*
X9458815Y-15533548D02*
X9477863Y-15543072D01*
X9477863Y-15543072D02*
X9487387Y-15562119D01*
X9487387Y-15562119D02*
X9487387Y-15666881D01*
X9487387Y-15562119D02*
X9496911Y-15543072D01*
X9496911Y-15543072D02*
X9515958Y-15533548D01*
X9515958Y-15533548D02*
X9544530Y-15533548D01*
X9544530Y-15533548D02*
X9563577Y-15543072D01*
X9563577Y-15543072D02*
X9573101Y-15562119D01*
X9573101Y-15562119D02*
X9573101Y-15666881D01*
X9668339Y-15666881D02*
X9668339Y-15533548D01*
X9668339Y-15552595D02*
X9677863Y-15543072D01*
X9677863Y-15543072D02*
X9696911Y-15533548D01*
X9696911Y-15533548D02*
X9725482Y-15533548D01*
X9725482Y-15533548D02*
X9744530Y-15543072D01*
X9744530Y-15543072D02*
X9754054Y-15562119D01*
X9754054Y-15562119D02*
X9754054Y-15666881D01*
X9754054Y-15562119D02*
X9763577Y-15543072D01*
X9763577Y-15543072D02*
X9782625Y-15533548D01*
X9782625Y-15533548D02*
X9811196Y-15533548D01*
X9811196Y-15533548D02*
X9830244Y-15543072D01*
X9830244Y-15543072D02*
X9839768Y-15562119D01*
X9839768Y-15562119D02*
X9839768Y-15666881D01*
X10230244Y-15457357D02*
X10058816Y-15714500D01*
X10487387Y-15466881D02*
X10506435Y-15466881D01*
X10506435Y-15466881D02*
X10525482Y-15476405D01*
X10525482Y-15476405D02*
X10535006Y-15485929D01*
X10535006Y-15485929D02*
X10544530Y-15504976D01*
X10544530Y-15504976D02*
X10554054Y-15543072D01*
X10554054Y-15543072D02*
X10554054Y-15590691D01*
X10554054Y-15590691D02*
X10544530Y-15628786D01*
X10544530Y-15628786D02*
X10535006Y-15647833D01*
X10535006Y-15647833D02*
X10525482Y-15657357D01*
X10525482Y-15657357D02*
X10506435Y-15666881D01*
X10506435Y-15666881D02*
X10487387Y-15666881D01*
X10487387Y-15666881D02*
X10468339Y-15657357D01*
X10468339Y-15657357D02*
X10458816Y-15647833D01*
X10458816Y-15647833D02*
X10449292Y-15628786D01*
X10449292Y-15628786D02*
X10439768Y-15590691D01*
X10439768Y-15590691D02*
X10439768Y-15543072D01*
X10439768Y-15543072D02*
X10449292Y-15504976D01*
X10449292Y-15504976D02*
X10458816Y-15485929D01*
X10458816Y-15485929D02*
X10468339Y-15476405D01*
X10468339Y-15476405D02*
X10487387Y-15466881D01*
X10639768Y-15647833D02*
X10649292Y-15657357D01*
X10649292Y-15657357D02*
X10639768Y-15666881D01*
X10639768Y-15666881D02*
X10630244Y-15657357D01*
X10630244Y-15657357D02*
X10639768Y-15647833D01*
X10639768Y-15647833D02*
X10639768Y-15666881D01*
X10839768Y-15666881D02*
X10725482Y-15666881D01*
X10782625Y-15666881D02*
X10782625Y-15466881D01*
X10782625Y-15466881D02*
X10763577Y-15495453D01*
X10763577Y-15495453D02*
X10744530Y-15514500D01*
X10744530Y-15514500D02*
X10725482Y-15524024D01*
X10954054Y-15552595D02*
X10935006Y-15543072D01*
X10935006Y-15543072D02*
X10925482Y-15533548D01*
X10925482Y-15533548D02*
X10915958Y-15514500D01*
X10915958Y-15514500D02*
X10915958Y-15504976D01*
X10915958Y-15504976D02*
X10925482Y-15485929D01*
X10925482Y-15485929D02*
X10935006Y-15476405D01*
X10935006Y-15476405D02*
X10954054Y-15466881D01*
X10954054Y-15466881D02*
X10992149Y-15466881D01*
X10992149Y-15466881D02*
X11011197Y-15476405D01*
X11011197Y-15476405D02*
X11020720Y-15485929D01*
X11020720Y-15485929D02*
X11030244Y-15504976D01*
X11030244Y-15504976D02*
X11030244Y-15514500D01*
X11030244Y-15514500D02*
X11020720Y-15533548D01*
X11020720Y-15533548D02*
X11011197Y-15543072D01*
X11011197Y-15543072D02*
X10992149Y-15552595D01*
X10992149Y-15552595D02*
X10954054Y-15552595D01*
X10954054Y-15552595D02*
X10935006Y-15562119D01*
X10935006Y-15562119D02*
X10925482Y-15571643D01*
X10925482Y-15571643D02*
X10915958Y-15590691D01*
X10915958Y-15590691D02*
X10915958Y-15628786D01*
X10915958Y-15628786D02*
X10925482Y-15647833D01*
X10925482Y-15647833D02*
X10935006Y-15657357D01*
X10935006Y-15657357D02*
X10954054Y-15666881D01*
X10954054Y-15666881D02*
X10992149Y-15666881D01*
X10992149Y-15666881D02*
X11011197Y-15657357D01*
X11011197Y-15657357D02*
X11020720Y-15647833D01*
X11020720Y-15647833D02*
X11030244Y-15628786D01*
X11030244Y-15628786D02*
X11030244Y-15590691D01*
X11030244Y-15590691D02*
X11020720Y-15571643D01*
X11020720Y-15571643D02*
X11011197Y-15562119D01*
X11011197Y-15562119D02*
X10992149Y-15552595D01*
X11211196Y-15466881D02*
X11115958Y-15466881D01*
X11115958Y-15466881D02*
X11106435Y-15562119D01*
X11106435Y-15562119D02*
X11115958Y-15552595D01*
X11115958Y-15552595D02*
X11135006Y-15543072D01*
X11135006Y-15543072D02*
X11182625Y-15543072D01*
X11182625Y-15543072D02*
X11201673Y-15552595D01*
X11201673Y-15552595D02*
X11211196Y-15562119D01*
X11211196Y-15562119D02*
X11220720Y-15581167D01*
X11220720Y-15581167D02*
X11220720Y-15628786D01*
X11220720Y-15628786D02*
X11211196Y-15647833D01*
X11211196Y-15647833D02*
X11201673Y-15657357D01*
X11201673Y-15657357D02*
X11182625Y-15666881D01*
X11182625Y-15666881D02*
X11135006Y-15666881D01*
X11135006Y-15666881D02*
X11115958Y-15657357D01*
X11115958Y-15657357D02*
X11106435Y-15647833D01*
X11344530Y-15466881D02*
X11363577Y-15466881D01*
X11363577Y-15466881D02*
X11382625Y-15476405D01*
X11382625Y-15476405D02*
X11392149Y-15485929D01*
X11392149Y-15485929D02*
X11401673Y-15504976D01*
X11401673Y-15504976D02*
X11411196Y-15543072D01*
X11411196Y-15543072D02*
X11411196Y-15590691D01*
X11411196Y-15590691D02*
X11401673Y-15628786D01*
X11401673Y-15628786D02*
X11392149Y-15647833D01*
X11392149Y-15647833D02*
X11382625Y-15657357D01*
X11382625Y-15657357D02*
X11363577Y-15666881D01*
X11363577Y-15666881D02*
X11344530Y-15666881D01*
X11344530Y-15666881D02*
X11325482Y-15657357D01*
X11325482Y-15657357D02*
X11315958Y-15647833D01*
X11315958Y-15647833D02*
X11306435Y-15628786D01*
X11306435Y-15628786D02*
X11296911Y-15590691D01*
X11296911Y-15590691D02*
X11296911Y-15543072D01*
X11296911Y-15543072D02*
X11306435Y-15504976D01*
X11306435Y-15504976D02*
X11315958Y-15485929D01*
X11315958Y-15485929D02*
X11325482Y-15476405D01*
X11325482Y-15476405D02*
X11344530Y-15466881D01*
X11487387Y-15466881D02*
X11487387Y-15504976D01*
X11563577Y-15466881D02*
X11563577Y-15504976D01*
X11858816Y-15743072D02*
X11849292Y-15733548D01*
X11849292Y-15733548D02*
X11830244Y-15704976D01*
X11830244Y-15704976D02*
X11820720Y-15685929D01*
X11820720Y-15685929D02*
X11811197Y-15657357D01*
X11811197Y-15657357D02*
X11801673Y-15609738D01*
X11801673Y-15609738D02*
X11801673Y-15571643D01*
X11801673Y-15571643D02*
X11811197Y-15524024D01*
X11811197Y-15524024D02*
X11820720Y-15495453D01*
X11820720Y-15495453D02*
X11830244Y-15476405D01*
X11830244Y-15476405D02*
X11849292Y-15447833D01*
X11849292Y-15447833D02*
X11858816Y-15438310D01*
X12030244Y-15466881D02*
X11935006Y-15466881D01*
X11935006Y-15466881D02*
X11925482Y-15562119D01*
X11925482Y-15562119D02*
X11935006Y-15552595D01*
X11935006Y-15552595D02*
X11954054Y-15543072D01*
X11954054Y-15543072D02*
X12001673Y-15543072D01*
X12001673Y-15543072D02*
X12020720Y-15552595D01*
X12020720Y-15552595D02*
X12030244Y-15562119D01*
X12030244Y-15562119D02*
X12039768Y-15581167D01*
X12039768Y-15581167D02*
X12039768Y-15628786D01*
X12039768Y-15628786D02*
X12030244Y-15647833D01*
X12030244Y-15647833D02*
X12020720Y-15657357D01*
X12020720Y-15657357D02*
X12001673Y-15666881D01*
X12001673Y-15666881D02*
X11954054Y-15666881D01*
X11954054Y-15666881D02*
X11935006Y-15657357D01*
X11935006Y-15657357D02*
X11925482Y-15647833D01*
X12277863Y-15666881D02*
X12277863Y-15466881D01*
X12363578Y-15666881D02*
X12363578Y-15562119D01*
X12363578Y-15562119D02*
X12354054Y-15543072D01*
X12354054Y-15543072D02*
X12335006Y-15533548D01*
X12335006Y-15533548D02*
X12306435Y-15533548D01*
X12306435Y-15533548D02*
X12287387Y-15543072D01*
X12287387Y-15543072D02*
X12277863Y-15552595D01*
X12487387Y-15666881D02*
X12468339Y-15657357D01*
X12468339Y-15657357D02*
X12458816Y-15647833D01*
X12458816Y-15647833D02*
X12449292Y-15628786D01*
X12449292Y-15628786D02*
X12449292Y-15571643D01*
X12449292Y-15571643D02*
X12458816Y-15552595D01*
X12458816Y-15552595D02*
X12468339Y-15543072D01*
X12468339Y-15543072D02*
X12487387Y-15533548D01*
X12487387Y-15533548D02*
X12515959Y-15533548D01*
X12515959Y-15533548D02*
X12535006Y-15543072D01*
X12535006Y-15543072D02*
X12544530Y-15552595D01*
X12544530Y-15552595D02*
X12554054Y-15571643D01*
X12554054Y-15571643D02*
X12554054Y-15628786D01*
X12554054Y-15628786D02*
X12544530Y-15647833D01*
X12544530Y-15647833D02*
X12535006Y-15657357D01*
X12535006Y-15657357D02*
X12515959Y-15666881D01*
X12515959Y-15666881D02*
X12487387Y-15666881D01*
X12668339Y-15666881D02*
X12649292Y-15657357D01*
X12649292Y-15657357D02*
X12639768Y-15638310D01*
X12639768Y-15638310D02*
X12639768Y-15466881D01*
X12820720Y-15657357D02*
X12801673Y-15666881D01*
X12801673Y-15666881D02*
X12763578Y-15666881D01*
X12763578Y-15666881D02*
X12744530Y-15657357D01*
X12744530Y-15657357D02*
X12735006Y-15638310D01*
X12735006Y-15638310D02*
X12735006Y-15562119D01*
X12735006Y-15562119D02*
X12744530Y-15543072D01*
X12744530Y-15543072D02*
X12763578Y-15533548D01*
X12763578Y-15533548D02*
X12801673Y-15533548D01*
X12801673Y-15533548D02*
X12820720Y-15543072D01*
X12820720Y-15543072D02*
X12830244Y-15562119D01*
X12830244Y-15562119D02*
X12830244Y-15581167D01*
X12830244Y-15581167D02*
X12735006Y-15600214D01*
X12906435Y-15657357D02*
X12925482Y-15666881D01*
X12925482Y-15666881D02*
X12963578Y-15666881D01*
X12963578Y-15666881D02*
X12982625Y-15657357D01*
X12982625Y-15657357D02*
X12992149Y-15638310D01*
X12992149Y-15638310D02*
X12992149Y-15628786D01*
X12992149Y-15628786D02*
X12982625Y-15609738D01*
X12982625Y-15609738D02*
X12963578Y-15600214D01*
X12963578Y-15600214D02*
X12935006Y-15600214D01*
X12935006Y-15600214D02*
X12915959Y-15590691D01*
X12915959Y-15590691D02*
X12906435Y-15571643D01*
X12906435Y-15571643D02*
X12906435Y-15562119D01*
X12906435Y-15562119D02*
X12915959Y-15543072D01*
X12915959Y-15543072D02*
X12935006Y-15533548D01*
X12935006Y-15533548D02*
X12963578Y-15533548D01*
X12963578Y-15533548D02*
X12982625Y-15543072D01*
X13058816Y-15743072D02*
X13068340Y-15733548D01*
X13068340Y-15733548D02*
X13087387Y-15704976D01*
X13087387Y-15704976D02*
X13096911Y-15685929D01*
X13096911Y-15685929D02*
X13106435Y-15657357D01*
X13106435Y-15657357D02*
X13115959Y-15609738D01*
X13115959Y-15609738D02*
X13115959Y-15571643D01*
X13115959Y-15571643D02*
X13106435Y-15524024D01*
X13106435Y-15524024D02*
X13096911Y-15495453D01*
X13096911Y-15495453D02*
X13087387Y-15476405D01*
X13087387Y-15476405D02*
X13068340Y-15447833D01*
X13068340Y-15447833D02*
X13058816Y-15438310D01*
X13420721Y-15743072D02*
X13411197Y-15733548D01*
X13411197Y-15733548D02*
X13392149Y-15704976D01*
X13392149Y-15704976D02*
X13382625Y-15685929D01*
X13382625Y-15685929D02*
X13373101Y-15657357D01*
X13373101Y-15657357D02*
X13363578Y-15609738D01*
X13363578Y-15609738D02*
X13363578Y-15571643D01*
X13363578Y-15571643D02*
X13373101Y-15524024D01*
X13373101Y-15524024D02*
X13382625Y-15495453D01*
X13382625Y-15495453D02*
X13392149Y-15476405D01*
X13392149Y-15476405D02*
X13411197Y-15447833D01*
X13411197Y-15447833D02*
X13420721Y-15438310D01*
X13496911Y-15533548D02*
X13496911Y-15666881D01*
X13496911Y-15552595D02*
X13506435Y-15543072D01*
X13506435Y-15543072D02*
X13525482Y-15533548D01*
X13525482Y-15533548D02*
X13554054Y-15533548D01*
X13554054Y-15533548D02*
X13573101Y-15543072D01*
X13573101Y-15543072D02*
X13582625Y-15562119D01*
X13582625Y-15562119D02*
X13582625Y-15666881D01*
X13706435Y-15666881D02*
X13687387Y-15657357D01*
X13687387Y-15657357D02*
X13677863Y-15647833D01*
X13677863Y-15647833D02*
X13668340Y-15628786D01*
X13668340Y-15628786D02*
X13668340Y-15571643D01*
X13668340Y-15571643D02*
X13677863Y-15552595D01*
X13677863Y-15552595D02*
X13687387Y-15543072D01*
X13687387Y-15543072D02*
X13706435Y-15533548D01*
X13706435Y-15533548D02*
X13735006Y-15533548D01*
X13735006Y-15533548D02*
X13754054Y-15543072D01*
X13754054Y-15543072D02*
X13763578Y-15552595D01*
X13763578Y-15552595D02*
X13773101Y-15571643D01*
X13773101Y-15571643D02*
X13773101Y-15628786D01*
X13773101Y-15628786D02*
X13763578Y-15647833D01*
X13763578Y-15647833D02*
X13754054Y-15657357D01*
X13754054Y-15657357D02*
X13735006Y-15666881D01*
X13735006Y-15666881D02*
X13706435Y-15666881D01*
X13830244Y-15533548D02*
X13906435Y-15533548D01*
X13858816Y-15466881D02*
X13858816Y-15638310D01*
X13858816Y-15638310D02*
X13868340Y-15657357D01*
X13868340Y-15657357D02*
X13887387Y-15666881D01*
X13887387Y-15666881D02*
X13906435Y-15666881D01*
X14125482Y-15533548D02*
X14125482Y-15733548D01*
X14125482Y-15543072D02*
X14144530Y-15533548D01*
X14144530Y-15533548D02*
X14182625Y-15533548D01*
X14182625Y-15533548D02*
X14201673Y-15543072D01*
X14201673Y-15543072D02*
X14211197Y-15552595D01*
X14211197Y-15552595D02*
X14220721Y-15571643D01*
X14220721Y-15571643D02*
X14220721Y-15628786D01*
X14220721Y-15628786D02*
X14211197Y-15647833D01*
X14211197Y-15647833D02*
X14201673Y-15657357D01*
X14201673Y-15657357D02*
X14182625Y-15666881D01*
X14182625Y-15666881D02*
X14144530Y-15666881D01*
X14144530Y-15666881D02*
X14125482Y-15657357D01*
X14335006Y-15666881D02*
X14315959Y-15657357D01*
X14315959Y-15657357D02*
X14306435Y-15638310D01*
X14306435Y-15638310D02*
X14306435Y-15466881D01*
X14496911Y-15666881D02*
X14496911Y-15562119D01*
X14496911Y-15562119D02*
X14487387Y-15543072D01*
X14487387Y-15543072D02*
X14468340Y-15533548D01*
X14468340Y-15533548D02*
X14430244Y-15533548D01*
X14430244Y-15533548D02*
X14411197Y-15543072D01*
X14496911Y-15657357D02*
X14477863Y-15666881D01*
X14477863Y-15666881D02*
X14430244Y-15666881D01*
X14430244Y-15666881D02*
X14411197Y-15657357D01*
X14411197Y-15657357D02*
X14401673Y-15638310D01*
X14401673Y-15638310D02*
X14401673Y-15619262D01*
X14401673Y-15619262D02*
X14411197Y-15600214D01*
X14411197Y-15600214D02*
X14430244Y-15590691D01*
X14430244Y-15590691D02*
X14477863Y-15590691D01*
X14477863Y-15590691D02*
X14496911Y-15581167D01*
X14563578Y-15533548D02*
X14639768Y-15533548D01*
X14592149Y-15466881D02*
X14592149Y-15638310D01*
X14592149Y-15638310D02*
X14601673Y-15657357D01*
X14601673Y-15657357D02*
X14620721Y-15666881D01*
X14620721Y-15666881D02*
X14639768Y-15666881D01*
X14782625Y-15657357D02*
X14763578Y-15666881D01*
X14763578Y-15666881D02*
X14725482Y-15666881D01*
X14725482Y-15666881D02*
X14706435Y-15657357D01*
X14706435Y-15657357D02*
X14696911Y-15638310D01*
X14696911Y-15638310D02*
X14696911Y-15562119D01*
X14696911Y-15562119D02*
X14706435Y-15543072D01*
X14706435Y-15543072D02*
X14725482Y-15533548D01*
X14725482Y-15533548D02*
X14763578Y-15533548D01*
X14763578Y-15533548D02*
X14782625Y-15543072D01*
X14782625Y-15543072D02*
X14792149Y-15562119D01*
X14792149Y-15562119D02*
X14792149Y-15581167D01*
X14792149Y-15581167D02*
X14696911Y-15600214D01*
X14963578Y-15666881D02*
X14963578Y-15466881D01*
X14963578Y-15657357D02*
X14944530Y-15666881D01*
X14944530Y-15666881D02*
X14906435Y-15666881D01*
X14906435Y-15666881D02*
X14887387Y-15657357D01*
X14887387Y-15657357D02*
X14877863Y-15647833D01*
X14877863Y-15647833D02*
X14868340Y-15628786D01*
X14868340Y-15628786D02*
X14868340Y-15571643D01*
X14868340Y-15571643D02*
X14877863Y-15552595D01*
X14877863Y-15552595D02*
X14887387Y-15543072D01*
X14887387Y-15543072D02*
X14906435Y-15533548D01*
X14906435Y-15533548D02*
X14944530Y-15533548D01*
X14944530Y-15533548D02*
X14963578Y-15543072D01*
X15039768Y-15743072D02*
X15049292Y-15733548D01*
X15049292Y-15733548D02*
X15068340Y-15704976D01*
X15068340Y-15704976D02*
X15077863Y-15685929D01*
X15077863Y-15685929D02*
X15087387Y-15657357D01*
X15087387Y-15657357D02*
X15096911Y-15609738D01*
X15096911Y-15609738D02*
X15096911Y-15571643D01*
X15096911Y-15571643D02*
X15087387Y-15524024D01*
X15087387Y-15524024D02*
X15077863Y-15495453D01*
X15077863Y-15495453D02*
X15068340Y-15476405D01*
X15068340Y-15476405D02*
X15049292Y-15447833D01*
X15049292Y-15447833D02*
X15039768Y-15438310D01*
X8254464Y-15966109D02*
X8254464Y-15824686D01*
X8113041Y-15824686D01*
X8113041Y-15966109D01*
X8254464Y-15966109D01*
X8639768Y-15786881D02*
X8544530Y-15786881D01*
X8544530Y-15786881D02*
X8535006Y-15882119D01*
X8535006Y-15882119D02*
X8544530Y-15872595D01*
X8544530Y-15872595D02*
X8563577Y-15863072D01*
X8563577Y-15863072D02*
X8611196Y-15863072D01*
X8611196Y-15863072D02*
X8630244Y-15872595D01*
X8630244Y-15872595D02*
X8639768Y-15882119D01*
X8639768Y-15882119D02*
X8649292Y-15901167D01*
X8649292Y-15901167D02*
X8649292Y-15948786D01*
X8649292Y-15948786D02*
X8639768Y-15967833D01*
X8639768Y-15967833D02*
X8630244Y-15977357D01*
X8630244Y-15977357D02*
X8611196Y-15986881D01*
X8611196Y-15986881D02*
X8563577Y-15986881D01*
X8563577Y-15986881D02*
X8544530Y-15977357D01*
X8544530Y-15977357D02*
X8535006Y-15967833D01*
X8735006Y-15967833D02*
X8744530Y-15977357D01*
X8744530Y-15977357D02*
X8735006Y-15986881D01*
X8735006Y-15986881D02*
X8725482Y-15977357D01*
X8725482Y-15977357D02*
X8735006Y-15967833D01*
X8735006Y-15967833D02*
X8735006Y-15986881D01*
X8820720Y-15805929D02*
X8830244Y-15796405D01*
X8830244Y-15796405D02*
X8849292Y-15786881D01*
X8849292Y-15786881D02*
X8896911Y-15786881D01*
X8896911Y-15786881D02*
X8915958Y-15796405D01*
X8915958Y-15796405D02*
X8925482Y-15805929D01*
X8925482Y-15805929D02*
X8935006Y-15824976D01*
X8935006Y-15824976D02*
X8935006Y-15844024D01*
X8935006Y-15844024D02*
X8925482Y-15872595D01*
X8925482Y-15872595D02*
X8811196Y-15986881D01*
X8811196Y-15986881D02*
X8935006Y-15986881D01*
X9115958Y-15786881D02*
X9020720Y-15786881D01*
X9020720Y-15786881D02*
X9011196Y-15882119D01*
X9011196Y-15882119D02*
X9020720Y-15872595D01*
X9020720Y-15872595D02*
X9039768Y-15863072D01*
X9039768Y-15863072D02*
X9087387Y-15863072D01*
X9087387Y-15863072D02*
X9106434Y-15872595D01*
X9106434Y-15872595D02*
X9115958Y-15882119D01*
X9115958Y-15882119D02*
X9125482Y-15901167D01*
X9125482Y-15901167D02*
X9125482Y-15948786D01*
X9125482Y-15948786D02*
X9115958Y-15967833D01*
X9115958Y-15967833D02*
X9106434Y-15977357D01*
X9106434Y-15977357D02*
X9087387Y-15986881D01*
X9087387Y-15986881D02*
X9039768Y-15986881D01*
X9039768Y-15986881D02*
X9020720Y-15977357D01*
X9020720Y-15977357D02*
X9011196Y-15967833D01*
X9249292Y-15786881D02*
X9268339Y-15786881D01*
X9268339Y-15786881D02*
X9287387Y-15796405D01*
X9287387Y-15796405D02*
X9296911Y-15805929D01*
X9296911Y-15805929D02*
X9306434Y-15824976D01*
X9306434Y-15824976D02*
X9315958Y-15863072D01*
X9315958Y-15863072D02*
X9315958Y-15910691D01*
X9315958Y-15910691D02*
X9306434Y-15948786D01*
X9306434Y-15948786D02*
X9296911Y-15967833D01*
X9296911Y-15967833D02*
X9287387Y-15977357D01*
X9287387Y-15977357D02*
X9268339Y-15986881D01*
X9268339Y-15986881D02*
X9249292Y-15986881D01*
X9249292Y-15986881D02*
X9230244Y-15977357D01*
X9230244Y-15977357D02*
X9220720Y-15967833D01*
X9220720Y-15967833D02*
X9211196Y-15948786D01*
X9211196Y-15948786D02*
X9201673Y-15910691D01*
X9201673Y-15910691D02*
X9201673Y-15863072D01*
X9201673Y-15863072D02*
X9211196Y-15824976D01*
X9211196Y-15824976D02*
X9220720Y-15805929D01*
X9220720Y-15805929D02*
X9230244Y-15796405D01*
X9230244Y-15796405D02*
X9249292Y-15786881D01*
X9401673Y-15986881D02*
X9401673Y-15853548D01*
X9401673Y-15872595D02*
X9411196Y-15863072D01*
X9411196Y-15863072D02*
X9430244Y-15853548D01*
X9430244Y-15853548D02*
X9458815Y-15853548D01*
X9458815Y-15853548D02*
X9477863Y-15863072D01*
X9477863Y-15863072D02*
X9487387Y-15882119D01*
X9487387Y-15882119D02*
X9487387Y-15986881D01*
X9487387Y-15882119D02*
X9496911Y-15863072D01*
X9496911Y-15863072D02*
X9515958Y-15853548D01*
X9515958Y-15853548D02*
X9544530Y-15853548D01*
X9544530Y-15853548D02*
X9563577Y-15863072D01*
X9563577Y-15863072D02*
X9573101Y-15882119D01*
X9573101Y-15882119D02*
X9573101Y-15986881D01*
X9668339Y-15986881D02*
X9668339Y-15853548D01*
X9668339Y-15872595D02*
X9677863Y-15863072D01*
X9677863Y-15863072D02*
X9696911Y-15853548D01*
X9696911Y-15853548D02*
X9725482Y-15853548D01*
X9725482Y-15853548D02*
X9744530Y-15863072D01*
X9744530Y-15863072D02*
X9754054Y-15882119D01*
X9754054Y-15882119D02*
X9754054Y-15986881D01*
X9754054Y-15882119D02*
X9763577Y-15863072D01*
X9763577Y-15863072D02*
X9782625Y-15853548D01*
X9782625Y-15853548D02*
X9811196Y-15853548D01*
X9811196Y-15853548D02*
X9830244Y-15863072D01*
X9830244Y-15863072D02*
X9839768Y-15882119D01*
X9839768Y-15882119D02*
X9839768Y-15986881D01*
X10230244Y-15777357D02*
X10058816Y-16034500D01*
X10487387Y-15786881D02*
X10506435Y-15786881D01*
X10506435Y-15786881D02*
X10525482Y-15796405D01*
X10525482Y-15796405D02*
X10535006Y-15805929D01*
X10535006Y-15805929D02*
X10544530Y-15824976D01*
X10544530Y-15824976D02*
X10554054Y-15863072D01*
X10554054Y-15863072D02*
X10554054Y-15910691D01*
X10554054Y-15910691D02*
X10544530Y-15948786D01*
X10544530Y-15948786D02*
X10535006Y-15967833D01*
X10535006Y-15967833D02*
X10525482Y-15977357D01*
X10525482Y-15977357D02*
X10506435Y-15986881D01*
X10506435Y-15986881D02*
X10487387Y-15986881D01*
X10487387Y-15986881D02*
X10468339Y-15977357D01*
X10468339Y-15977357D02*
X10458816Y-15967833D01*
X10458816Y-15967833D02*
X10449292Y-15948786D01*
X10449292Y-15948786D02*
X10439768Y-15910691D01*
X10439768Y-15910691D02*
X10439768Y-15863072D01*
X10439768Y-15863072D02*
X10449292Y-15824976D01*
X10449292Y-15824976D02*
X10458816Y-15805929D01*
X10458816Y-15805929D02*
X10468339Y-15796405D01*
X10468339Y-15796405D02*
X10487387Y-15786881D01*
X10639768Y-15967833D02*
X10649292Y-15977357D01*
X10649292Y-15977357D02*
X10639768Y-15986881D01*
X10639768Y-15986881D02*
X10630244Y-15977357D01*
X10630244Y-15977357D02*
X10639768Y-15967833D01*
X10639768Y-15967833D02*
X10639768Y-15986881D01*
X10725482Y-15805929D02*
X10735006Y-15796405D01*
X10735006Y-15796405D02*
X10754054Y-15786881D01*
X10754054Y-15786881D02*
X10801673Y-15786881D01*
X10801673Y-15786881D02*
X10820720Y-15796405D01*
X10820720Y-15796405D02*
X10830244Y-15805929D01*
X10830244Y-15805929D02*
X10839768Y-15824976D01*
X10839768Y-15824976D02*
X10839768Y-15844024D01*
X10839768Y-15844024D02*
X10830244Y-15872595D01*
X10830244Y-15872595D02*
X10715958Y-15986881D01*
X10715958Y-15986881D02*
X10839768Y-15986881D01*
X10963577Y-15786881D02*
X10982625Y-15786881D01*
X10982625Y-15786881D02*
X11001673Y-15796405D01*
X11001673Y-15796405D02*
X11011197Y-15805929D01*
X11011197Y-15805929D02*
X11020720Y-15824976D01*
X11020720Y-15824976D02*
X11030244Y-15863072D01*
X11030244Y-15863072D02*
X11030244Y-15910691D01*
X11030244Y-15910691D02*
X11020720Y-15948786D01*
X11020720Y-15948786D02*
X11011197Y-15967833D01*
X11011197Y-15967833D02*
X11001673Y-15977357D01*
X11001673Y-15977357D02*
X10982625Y-15986881D01*
X10982625Y-15986881D02*
X10963577Y-15986881D01*
X10963577Y-15986881D02*
X10944530Y-15977357D01*
X10944530Y-15977357D02*
X10935006Y-15967833D01*
X10935006Y-15967833D02*
X10925482Y-15948786D01*
X10925482Y-15948786D02*
X10915958Y-15910691D01*
X10915958Y-15910691D02*
X10915958Y-15863072D01*
X10915958Y-15863072D02*
X10925482Y-15824976D01*
X10925482Y-15824976D02*
X10935006Y-15805929D01*
X10935006Y-15805929D02*
X10944530Y-15796405D01*
X10944530Y-15796405D02*
X10963577Y-15786881D01*
X11201673Y-15786881D02*
X11163577Y-15786881D01*
X11163577Y-15786881D02*
X11144530Y-15796405D01*
X11144530Y-15796405D02*
X11135006Y-15805929D01*
X11135006Y-15805929D02*
X11115958Y-15834500D01*
X11115958Y-15834500D02*
X11106435Y-15872595D01*
X11106435Y-15872595D02*
X11106435Y-15948786D01*
X11106435Y-15948786D02*
X11115958Y-15967833D01*
X11115958Y-15967833D02*
X11125482Y-15977357D01*
X11125482Y-15977357D02*
X11144530Y-15986881D01*
X11144530Y-15986881D02*
X11182625Y-15986881D01*
X11182625Y-15986881D02*
X11201673Y-15977357D01*
X11201673Y-15977357D02*
X11211196Y-15967833D01*
X11211196Y-15967833D02*
X11220720Y-15948786D01*
X11220720Y-15948786D02*
X11220720Y-15901167D01*
X11220720Y-15901167D02*
X11211196Y-15882119D01*
X11211196Y-15882119D02*
X11201673Y-15872595D01*
X11201673Y-15872595D02*
X11182625Y-15863072D01*
X11182625Y-15863072D02*
X11144530Y-15863072D01*
X11144530Y-15863072D02*
X11125482Y-15872595D01*
X11125482Y-15872595D02*
X11115958Y-15882119D01*
X11115958Y-15882119D02*
X11106435Y-15901167D01*
X11287387Y-15786881D02*
X11420720Y-15786881D01*
X11420720Y-15786881D02*
X11335006Y-15986881D01*
X11487387Y-15786881D02*
X11487387Y-15824976D01*
X11563577Y-15786881D02*
X11563577Y-15824976D01*
X11858816Y-16063072D02*
X11849292Y-16053548D01*
X11849292Y-16053548D02*
X11830244Y-16024976D01*
X11830244Y-16024976D02*
X11820720Y-16005929D01*
X11820720Y-16005929D02*
X11811197Y-15977357D01*
X11811197Y-15977357D02*
X11801673Y-15929738D01*
X11801673Y-15929738D02*
X11801673Y-15891643D01*
X11801673Y-15891643D02*
X11811197Y-15844024D01*
X11811197Y-15844024D02*
X11820720Y-15815453D01*
X11820720Y-15815453D02*
X11830244Y-15796405D01*
X11830244Y-15796405D02*
X11849292Y-15767833D01*
X11849292Y-15767833D02*
X11858816Y-15758310D01*
X11925482Y-15805929D02*
X11935006Y-15796405D01*
X11935006Y-15796405D02*
X11954054Y-15786881D01*
X11954054Y-15786881D02*
X12001673Y-15786881D01*
X12001673Y-15786881D02*
X12020720Y-15796405D01*
X12020720Y-15796405D02*
X12030244Y-15805929D01*
X12030244Y-15805929D02*
X12039768Y-15824976D01*
X12039768Y-15824976D02*
X12039768Y-15844024D01*
X12039768Y-15844024D02*
X12030244Y-15872595D01*
X12030244Y-15872595D02*
X11915958Y-15986881D01*
X11915958Y-15986881D02*
X12039768Y-15986881D01*
X12135006Y-15986881D02*
X12173101Y-15986881D01*
X12173101Y-15986881D02*
X12192149Y-15977357D01*
X12192149Y-15977357D02*
X12201673Y-15967833D01*
X12201673Y-15967833D02*
X12220720Y-15939262D01*
X12220720Y-15939262D02*
X12230244Y-15901167D01*
X12230244Y-15901167D02*
X12230244Y-15824976D01*
X12230244Y-15824976D02*
X12220720Y-15805929D01*
X12220720Y-15805929D02*
X12211197Y-15796405D01*
X12211197Y-15796405D02*
X12192149Y-15786881D01*
X12192149Y-15786881D02*
X12154054Y-15786881D01*
X12154054Y-15786881D02*
X12135006Y-15796405D01*
X12135006Y-15796405D02*
X12125482Y-15805929D01*
X12125482Y-15805929D02*
X12115958Y-15824976D01*
X12115958Y-15824976D02*
X12115958Y-15872595D01*
X12115958Y-15872595D02*
X12125482Y-15891643D01*
X12125482Y-15891643D02*
X12135006Y-15901167D01*
X12135006Y-15901167D02*
X12154054Y-15910691D01*
X12154054Y-15910691D02*
X12192149Y-15910691D01*
X12192149Y-15910691D02*
X12211197Y-15901167D01*
X12211197Y-15901167D02*
X12220720Y-15891643D01*
X12220720Y-15891643D02*
X12230244Y-15872595D01*
X12468339Y-15986881D02*
X12468339Y-15786881D01*
X12554054Y-15986881D02*
X12554054Y-15882119D01*
X12554054Y-15882119D02*
X12544530Y-15863072D01*
X12544530Y-15863072D02*
X12525482Y-15853548D01*
X12525482Y-15853548D02*
X12496911Y-15853548D01*
X12496911Y-15853548D02*
X12477863Y-15863072D01*
X12477863Y-15863072D02*
X12468339Y-15872595D01*
X12677863Y-15986881D02*
X12658816Y-15977357D01*
X12658816Y-15977357D02*
X12649292Y-15967833D01*
X12649292Y-15967833D02*
X12639768Y-15948786D01*
X12639768Y-15948786D02*
X12639768Y-15891643D01*
X12639768Y-15891643D02*
X12649292Y-15872595D01*
X12649292Y-15872595D02*
X12658816Y-15863072D01*
X12658816Y-15863072D02*
X12677863Y-15853548D01*
X12677863Y-15853548D02*
X12706435Y-15853548D01*
X12706435Y-15853548D02*
X12725482Y-15863072D01*
X12725482Y-15863072D02*
X12735006Y-15872595D01*
X12735006Y-15872595D02*
X12744530Y-15891643D01*
X12744530Y-15891643D02*
X12744530Y-15948786D01*
X12744530Y-15948786D02*
X12735006Y-15967833D01*
X12735006Y-15967833D02*
X12725482Y-15977357D01*
X12725482Y-15977357D02*
X12706435Y-15986881D01*
X12706435Y-15986881D02*
X12677863Y-15986881D01*
X12858816Y-15986881D02*
X12839768Y-15977357D01*
X12839768Y-15977357D02*
X12830244Y-15958310D01*
X12830244Y-15958310D02*
X12830244Y-15786881D01*
X13011197Y-15977357D02*
X12992149Y-15986881D01*
X12992149Y-15986881D02*
X12954054Y-15986881D01*
X12954054Y-15986881D02*
X12935006Y-15977357D01*
X12935006Y-15977357D02*
X12925482Y-15958310D01*
X12925482Y-15958310D02*
X12925482Y-15882119D01*
X12925482Y-15882119D02*
X12935006Y-15863072D01*
X12935006Y-15863072D02*
X12954054Y-15853548D01*
X12954054Y-15853548D02*
X12992149Y-15853548D01*
X12992149Y-15853548D02*
X13011197Y-15863072D01*
X13011197Y-15863072D02*
X13020720Y-15882119D01*
X13020720Y-15882119D02*
X13020720Y-15901167D01*
X13020720Y-15901167D02*
X12925482Y-15920214D01*
X13096911Y-15977357D02*
X13115959Y-15986881D01*
X13115959Y-15986881D02*
X13154054Y-15986881D01*
X13154054Y-15986881D02*
X13173101Y-15977357D01*
X13173101Y-15977357D02*
X13182625Y-15958310D01*
X13182625Y-15958310D02*
X13182625Y-15948786D01*
X13182625Y-15948786D02*
X13173101Y-15929738D01*
X13173101Y-15929738D02*
X13154054Y-15920214D01*
X13154054Y-15920214D02*
X13125482Y-15920214D01*
X13125482Y-15920214D02*
X13106435Y-15910691D01*
X13106435Y-15910691D02*
X13096911Y-15891643D01*
X13096911Y-15891643D02*
X13096911Y-15882119D01*
X13096911Y-15882119D02*
X13106435Y-15863072D01*
X13106435Y-15863072D02*
X13125482Y-15853548D01*
X13125482Y-15853548D02*
X13154054Y-15853548D01*
X13154054Y-15853548D02*
X13173101Y-15863072D01*
X13249292Y-16063072D02*
X13258816Y-16053548D01*
X13258816Y-16053548D02*
X13277863Y-16024976D01*
X13277863Y-16024976D02*
X13287387Y-16005929D01*
X13287387Y-16005929D02*
X13296911Y-15977357D01*
X13296911Y-15977357D02*
X13306435Y-15929738D01*
X13306435Y-15929738D02*
X13306435Y-15891643D01*
X13306435Y-15891643D02*
X13296911Y-15844024D01*
X13296911Y-15844024D02*
X13287387Y-15815453D01*
X13287387Y-15815453D02*
X13277863Y-15796405D01*
X13277863Y-15796405D02*
X13258816Y-15767833D01*
X13258816Y-15767833D02*
X13249292Y-15758310D01*
X13611197Y-16063072D02*
X13601673Y-16053548D01*
X13601673Y-16053548D02*
X13582625Y-16024976D01*
X13582625Y-16024976D02*
X13573101Y-16005929D01*
X13573101Y-16005929D02*
X13563578Y-15977357D01*
X13563578Y-15977357D02*
X13554054Y-15929738D01*
X13554054Y-15929738D02*
X13554054Y-15891643D01*
X13554054Y-15891643D02*
X13563578Y-15844024D01*
X13563578Y-15844024D02*
X13573101Y-15815453D01*
X13573101Y-15815453D02*
X13582625Y-15796405D01*
X13582625Y-15796405D02*
X13601673Y-15767833D01*
X13601673Y-15767833D02*
X13611197Y-15758310D01*
X13687387Y-15853548D02*
X13687387Y-15986881D01*
X13687387Y-15872595D02*
X13696911Y-15863072D01*
X13696911Y-15863072D02*
X13715959Y-15853548D01*
X13715959Y-15853548D02*
X13744530Y-15853548D01*
X13744530Y-15853548D02*
X13763578Y-15863072D01*
X13763578Y-15863072D02*
X13773101Y-15882119D01*
X13773101Y-15882119D02*
X13773101Y-15986881D01*
X13896911Y-15986881D02*
X13877863Y-15977357D01*
X13877863Y-15977357D02*
X13868340Y-15967833D01*
X13868340Y-15967833D02*
X13858816Y-15948786D01*
X13858816Y-15948786D02*
X13858816Y-15891643D01*
X13858816Y-15891643D02*
X13868340Y-15872595D01*
X13868340Y-15872595D02*
X13877863Y-15863072D01*
X13877863Y-15863072D02*
X13896911Y-15853548D01*
X13896911Y-15853548D02*
X13925482Y-15853548D01*
X13925482Y-15853548D02*
X13944530Y-15863072D01*
X13944530Y-15863072D02*
X13954054Y-15872595D01*
X13954054Y-15872595D02*
X13963578Y-15891643D01*
X13963578Y-15891643D02*
X13963578Y-15948786D01*
X13963578Y-15948786D02*
X13954054Y-15967833D01*
X13954054Y-15967833D02*
X13944530Y-15977357D01*
X13944530Y-15977357D02*
X13925482Y-15986881D01*
X13925482Y-15986881D02*
X13896911Y-15986881D01*
X14020721Y-15853548D02*
X14096911Y-15853548D01*
X14049292Y-15786881D02*
X14049292Y-15958310D01*
X14049292Y-15958310D02*
X14058816Y-15977357D01*
X14058816Y-15977357D02*
X14077863Y-15986881D01*
X14077863Y-15986881D02*
X14096911Y-15986881D01*
X14315959Y-15853548D02*
X14315959Y-16053548D01*
X14315959Y-15863072D02*
X14335006Y-15853548D01*
X14335006Y-15853548D02*
X14373102Y-15853548D01*
X14373102Y-15853548D02*
X14392149Y-15863072D01*
X14392149Y-15863072D02*
X14401673Y-15872595D01*
X14401673Y-15872595D02*
X14411197Y-15891643D01*
X14411197Y-15891643D02*
X14411197Y-15948786D01*
X14411197Y-15948786D02*
X14401673Y-15967833D01*
X14401673Y-15967833D02*
X14392149Y-15977357D01*
X14392149Y-15977357D02*
X14373102Y-15986881D01*
X14373102Y-15986881D02*
X14335006Y-15986881D01*
X14335006Y-15986881D02*
X14315959Y-15977357D01*
X14525482Y-15986881D02*
X14506435Y-15977357D01*
X14506435Y-15977357D02*
X14496911Y-15958310D01*
X14496911Y-15958310D02*
X14496911Y-15786881D01*
X14687387Y-15986881D02*
X14687387Y-15882119D01*
X14687387Y-15882119D02*
X14677863Y-15863072D01*
X14677863Y-15863072D02*
X14658816Y-15853548D01*
X14658816Y-15853548D02*
X14620721Y-15853548D01*
X14620721Y-15853548D02*
X14601673Y-15863072D01*
X14687387Y-15977357D02*
X14668340Y-15986881D01*
X14668340Y-15986881D02*
X14620721Y-15986881D01*
X14620721Y-15986881D02*
X14601673Y-15977357D01*
X14601673Y-15977357D02*
X14592149Y-15958310D01*
X14592149Y-15958310D02*
X14592149Y-15939262D01*
X14592149Y-15939262D02*
X14601673Y-15920214D01*
X14601673Y-15920214D02*
X14620721Y-15910691D01*
X14620721Y-15910691D02*
X14668340Y-15910691D01*
X14668340Y-15910691D02*
X14687387Y-15901167D01*
X14754054Y-15853548D02*
X14830244Y-15853548D01*
X14782625Y-15786881D02*
X14782625Y-15958310D01*
X14782625Y-15958310D02*
X14792149Y-15977357D01*
X14792149Y-15977357D02*
X14811197Y-15986881D01*
X14811197Y-15986881D02*
X14830244Y-15986881D01*
X14973102Y-15977357D02*
X14954054Y-15986881D01*
X14954054Y-15986881D02*
X14915959Y-15986881D01*
X14915959Y-15986881D02*
X14896911Y-15977357D01*
X14896911Y-15977357D02*
X14887387Y-15958310D01*
X14887387Y-15958310D02*
X14887387Y-15882119D01*
X14887387Y-15882119D02*
X14896911Y-15863072D01*
X14896911Y-15863072D02*
X14915959Y-15853548D01*
X14915959Y-15853548D02*
X14954054Y-15853548D01*
X14954054Y-15853548D02*
X14973102Y-15863072D01*
X14973102Y-15863072D02*
X14982625Y-15882119D01*
X14982625Y-15882119D02*
X14982625Y-15901167D01*
X14982625Y-15901167D02*
X14887387Y-15920214D01*
X15154054Y-15986881D02*
X15154054Y-15786881D01*
X15154054Y-15977357D02*
X15135006Y-15986881D01*
X15135006Y-15986881D02*
X15096911Y-15986881D01*
X15096911Y-15986881D02*
X15077863Y-15977357D01*
X15077863Y-15977357D02*
X15068340Y-15967833D01*
X15068340Y-15967833D02*
X15058816Y-15948786D01*
X15058816Y-15948786D02*
X15058816Y-15891643D01*
X15058816Y-15891643D02*
X15068340Y-15872595D01*
X15068340Y-15872595D02*
X15077863Y-15863072D01*
X15077863Y-15863072D02*
X15096911Y-15853548D01*
X15096911Y-15853548D02*
X15135006Y-15853548D01*
X15135006Y-15853548D02*
X15154054Y-15863072D01*
X15230244Y-16063072D02*
X15239768Y-16053548D01*
X15239768Y-16053548D02*
X15258816Y-16024976D01*
X15258816Y-16024976D02*
X15268340Y-16005929D01*
X15268340Y-16005929D02*
X15277863Y-15977357D01*
X15277863Y-15977357D02*
X15287387Y-15929738D01*
X15287387Y-15929738D02*
X15287387Y-15891643D01*
X15287387Y-15891643D02*
X15277863Y-15844024D01*
X15277863Y-15844024D02*
X15268340Y-15815453D01*
X15268340Y-15815453D02*
X15258816Y-15796405D01*
X15258816Y-15796405D02*
X15239768Y-15767833D01*
X15239768Y-15767833D02*
X15230244Y-15758310D01*
M02*
