G04 #@! TF.GenerationSoftware,KiCad,Pcbnew,7.0.10*
G04 #@! TF.CreationDate,2024-03-21T01:04:01+01:00*
G04 #@! TF.ProjectId,allium58,616c6c69-756d-4353-982e-6b696361645f,rev?*
G04 #@! TF.SameCoordinates,Original*
G04 #@! TF.FileFunction,Soldermask,Bot*
G04 #@! TF.FilePolarity,Negative*
%FSLAX46Y46*%
G04 Gerber Fmt 4.6, Leading zero omitted, Abs format (unit mm)*
G04 Created by KiCad (PCBNEW 7.0.10) date 2024-03-21 01:04:01*
%MOMM*%
%LPD*%
G01*
G04 APERTURE LIST*
G04 Aperture macros list*
%AMRoundRect*
0 Rectangle with rounded corners*
0 $1 Rounding radius*
0 $2 $3 $4 $5 $6 $7 $8 $9 X,Y pos of 4 corners*
0 Add a 4 corners polygon primitive as box body*
4,1,4,$2,$3,$4,$5,$6,$7,$8,$9,$2,$3,0*
0 Add four circle primitives for the rounded corners*
1,1,$1+$1,$2,$3*
1,1,$1+$1,$4,$5*
1,1,$1+$1,$6,$7*
1,1,$1+$1,$8,$9*
0 Add four rect primitives between the rounded corners*
20,1,$1+$1,$2,$3,$4,$5,0*
20,1,$1+$1,$4,$5,$6,$7,0*
20,1,$1+$1,$6,$7,$8,$9,0*
20,1,$1+$1,$8,$9,$2,$3,0*%
G04 Aperture macros list end*
%ADD10C,5.100000*%
%ADD11C,1.924000*%
%ADD12C,2.900000*%
%ADD13C,3.000000*%
%ADD14C,5.250000*%
%ADD15RoundRect,0.580000X-0.870000X-0.895000X0.870000X-0.895000X0.870000X0.895000X-0.870000X0.895000X0*%
%ADD16RoundRect,0.580000X-1.210093X0.305942X-0.340093X-1.200942X1.210093X-0.305942X0.340093X1.200942X0*%
%ADD17C,4.400000*%
%ADD18O,2.150000X1.600000*%
%ADD19RoundRect,0.333333X-0.741667X0.466667X-0.741667X-0.466667X0.741667X-0.466667X0.741667X0.466667X0*%
%ADD20RoundRect,0.200000X-0.500000X0.700000X-0.500000X-0.700000X0.500000X-0.700000X0.500000X0.700000X0*%
%ADD21RoundRect,0.200000X-0.500000X-0.400000X0.500000X-0.400000X0.500000X0.400000X-0.500000X0.400000X0*%
%ADD22C,1.300000*%
%ADD23RoundRect,0.200000X-0.350000X-0.750000X0.350000X-0.750000X0.350000X0.750000X-0.350000X0.750000X0*%
G04 APERTURE END LIST*
D10*
X129600000Y-59600000D03*
X205800000Y-61800000D03*
X129600000Y-97600000D03*
X205800000Y-100000000D03*
X105000000Y-114800000D03*
D11*
X108611400Y-41522000D03*
X108611400Y-44062000D03*
X108611400Y-46602000D03*
X108611400Y-49142000D03*
X108611400Y-51682000D03*
X108611400Y-54222000D03*
X108611400Y-56762000D03*
X108611400Y-59302000D03*
X108611400Y-61842000D03*
X108611400Y-64382000D03*
X108611400Y-66922000D03*
X108611400Y-69462000D03*
X93391400Y-69462000D03*
X93391400Y-66922000D03*
X93391400Y-64382000D03*
X93391400Y-61842000D03*
X93391400Y-59302000D03*
X93391400Y-56762000D03*
X93391400Y-54222000D03*
X93391400Y-51682000D03*
X93391400Y-49142000D03*
X93391400Y-46602000D03*
X93391400Y-44062000D03*
X93391400Y-41522000D03*
D12*
X86360000Y-46505000D03*
X86360000Y-40005000D03*
D13*
X116100000Y-54700000D03*
D14*
X120500000Y-50000000D03*
D13*
X123100000Y-55750000D03*
D15*
X112425000Y-54700000D03*
X126775000Y-55750000D03*
D13*
X135100000Y-52300000D03*
D14*
X139500000Y-47600000D03*
D13*
X142100000Y-53350000D03*
D15*
X131425000Y-52300000D03*
X145775000Y-53350000D03*
D13*
X154200000Y-50910000D03*
D14*
X158600000Y-46210000D03*
D13*
X161200000Y-51960000D03*
D15*
X150525000Y-50910000D03*
X164875000Y-51960000D03*
D13*
X173200000Y-52300000D03*
D14*
X177600000Y-47600000D03*
D13*
X180200000Y-53350000D03*
D15*
X169525000Y-52300000D03*
X183875000Y-53350000D03*
D13*
X192300000Y-57100000D03*
D14*
X196700000Y-52400000D03*
D13*
X199300000Y-58150000D03*
D15*
X188625000Y-57100000D03*
X202975000Y-58150000D03*
D13*
X211300000Y-58600000D03*
D14*
X215700000Y-53900000D03*
D13*
X218300000Y-59650000D03*
D15*
X207625000Y-58600000D03*
X221975000Y-59650000D03*
D13*
X116100000Y-73800000D03*
D14*
X120500000Y-69100000D03*
D13*
X123100000Y-74850000D03*
D15*
X112425000Y-73800000D03*
X126775000Y-74850000D03*
D13*
X135100000Y-71400000D03*
D14*
X139500000Y-66700000D03*
D13*
X142100000Y-72450000D03*
D15*
X131425000Y-71400000D03*
X145775000Y-72450000D03*
D13*
X154200000Y-70000000D03*
D14*
X158600000Y-65300000D03*
D13*
X161200000Y-71050000D03*
D15*
X150525000Y-70000000D03*
X164875000Y-71050000D03*
D13*
X173200000Y-71300000D03*
D14*
X177600000Y-66600000D03*
D13*
X180200000Y-72350000D03*
D15*
X169525000Y-71300000D03*
X183875000Y-72350000D03*
D13*
X192300000Y-76000000D03*
D14*
X196700000Y-71300000D03*
D13*
X199300000Y-77050000D03*
D15*
X188625000Y-76000000D03*
X202975000Y-77050000D03*
D13*
X211300000Y-77500000D03*
D14*
X215700000Y-72800000D03*
D13*
X218300000Y-78550000D03*
D15*
X207625000Y-77500000D03*
X221975000Y-78550000D03*
D13*
X116100000Y-92800000D03*
D14*
X120500000Y-88100000D03*
D13*
X123100000Y-93850000D03*
D15*
X112425000Y-92800000D03*
X126775000Y-93850000D03*
D13*
X135100000Y-90400000D03*
D14*
X139500000Y-85700000D03*
D13*
X142100000Y-91450000D03*
D15*
X131425000Y-90400000D03*
X145775000Y-91450000D03*
D13*
X154200000Y-89100000D03*
D14*
X158600000Y-84400000D03*
D13*
X161200000Y-90150000D03*
D15*
X150525000Y-89100000D03*
X164875000Y-90150000D03*
D13*
X173200000Y-90400000D03*
D14*
X177600000Y-85700000D03*
D13*
X180200000Y-91450000D03*
D15*
X169525000Y-90400000D03*
X183875000Y-91450000D03*
D13*
X192300000Y-95200000D03*
D14*
X196700000Y-90500000D03*
D13*
X199300000Y-96250000D03*
D15*
X188625000Y-95200000D03*
X202975000Y-96250000D03*
D13*
X211300000Y-96700000D03*
D14*
X215700000Y-92000000D03*
D13*
X218300000Y-97750000D03*
D15*
X207625000Y-96700000D03*
X221975000Y-97750000D03*
D13*
X116100000Y-111800000D03*
D14*
X120500000Y-107100000D03*
D13*
X123100000Y-112850000D03*
D15*
X112425000Y-111800000D03*
X126775000Y-112850000D03*
D13*
X135100000Y-109500000D03*
D14*
X139500000Y-104800000D03*
D13*
X142100000Y-110550000D03*
D15*
X131425000Y-109500000D03*
X145775000Y-110550000D03*
D13*
X154200000Y-108100000D03*
D14*
X158600000Y-103400000D03*
D13*
X161200000Y-109150000D03*
D15*
X150525000Y-108100000D03*
X164875000Y-109150000D03*
D13*
X173200000Y-109500000D03*
D14*
X177600000Y-104800000D03*
D13*
X180200000Y-110550000D03*
D15*
X169525000Y-109500000D03*
X183875000Y-110550000D03*
D13*
X192300000Y-114200000D03*
D14*
X196700000Y-109500000D03*
D13*
X199300000Y-115250000D03*
D15*
X188625000Y-114200000D03*
X202975000Y-115250000D03*
D13*
X211350000Y-115700000D03*
D14*
X215750000Y-111000000D03*
D13*
X218350000Y-116750000D03*
D15*
X207675000Y-115700000D03*
X222025000Y-116750000D03*
D13*
X97000000Y-102200000D03*
D14*
X101400000Y-97500000D03*
D13*
X104000000Y-103250000D03*
D15*
X93325000Y-102200000D03*
X107675000Y-103250000D03*
D13*
X98729681Y-125539488D03*
D14*
X105000000Y-127000000D03*
D13*
X101320354Y-132126666D03*
D16*
X96892181Y-122356845D03*
X103157854Y-135309309D03*
D13*
X125600000Y-130700000D03*
D14*
X130000000Y-126000000D03*
D13*
X132600000Y-131750000D03*
D15*
X121925000Y-130700000D03*
X136275000Y-131750000D03*
D13*
X144600000Y-128450000D03*
D14*
X149000000Y-123750000D03*
D13*
X151600000Y-129500000D03*
D15*
X140925000Y-128450000D03*
X155275000Y-129500000D03*
D13*
X163700000Y-128450000D03*
D14*
X168100000Y-123750000D03*
D13*
X170700000Y-129500000D03*
D15*
X160025000Y-128450000D03*
X174375000Y-129500000D03*
D17*
X86000000Y-85000000D03*
X108000000Y-85000000D03*
D18*
X101179800Y-75930000D03*
D19*
X101179800Y-73930000D03*
D20*
X126500000Y-48225000D03*
X126500000Y-51775000D03*
X145500000Y-45825000D03*
X145500000Y-49375000D03*
X164600000Y-44435000D03*
X164600000Y-47985000D03*
X183600000Y-45825000D03*
X183600000Y-49375000D03*
X202700000Y-50625000D03*
X202700000Y-54175000D03*
X221700000Y-52125000D03*
X221700000Y-55675000D03*
X126500000Y-67325000D03*
X126500000Y-70875000D03*
X145500000Y-64925000D03*
X145500000Y-68475000D03*
X164600000Y-63525000D03*
X164600000Y-67075000D03*
X183600000Y-64825000D03*
X183600000Y-68375000D03*
X202700000Y-69525000D03*
X202700000Y-73075000D03*
X221700000Y-71025000D03*
X221700000Y-74575000D03*
X126500000Y-86325000D03*
X126500000Y-89875000D03*
X145500000Y-83925000D03*
X145500000Y-87475000D03*
X164600000Y-82625000D03*
X164600000Y-86175000D03*
X183600000Y-83925000D03*
X183600000Y-87475000D03*
X202700000Y-88725000D03*
X202700000Y-92275000D03*
X221700000Y-90225000D03*
X221700000Y-93775000D03*
X126500000Y-105325000D03*
X126500000Y-108875000D03*
X145500000Y-103025000D03*
X145500000Y-106575000D03*
X164600000Y-101625000D03*
X164600000Y-105175000D03*
X183600000Y-103025000D03*
X183600000Y-106575000D03*
X202700000Y-107725000D03*
X202700000Y-111275000D03*
X221750000Y-109225000D03*
X221750000Y-112775000D03*
X107400000Y-95725000D03*
X107400000Y-99275000D03*
X111000000Y-125225000D03*
X111000000Y-128775000D03*
X136000000Y-124225000D03*
X136000000Y-127775000D03*
X155000000Y-121975000D03*
X155000000Y-125525000D03*
X174100000Y-121975000D03*
X174100000Y-125525000D03*
D21*
X97350000Y-37653000D03*
X97350000Y-39863000D03*
D22*
X99500000Y-38753000D03*
X102500000Y-38753000D03*
D21*
X104650000Y-37653000D03*
X104650000Y-39863000D03*
D23*
X98750000Y-40513000D03*
X101750000Y-40513000D03*
X103250000Y-40513000D03*
M02*
