G04 #@! TF.GenerationSoftware,KiCad,Pcbnew,7.0.10*
G04 #@! TF.CreationDate,2024-03-21T01:04:01+01:00*
G04 #@! TF.ProjectId,allium58,616c6c69-756d-4353-982e-6b696361645f,rev?*
G04 #@! TF.SameCoordinates,Original*
G04 #@! TF.FileFunction,Legend,Bot*
G04 #@! TF.FilePolarity,Positive*
%FSLAX46Y46*%
G04 Gerber Fmt 4.6, Leading zero omitted, Abs format (unit mm)*
G04 Created by KiCad (PCBNEW 7.0.10) date 2024-03-21 01:04:01*
%MOMM*%
%LPD*%
G01*
G04 APERTURE LIST*
G04 Aperture macros list*
%AMRoundRect*
0 Rectangle with rounded corners*
0 $1 Rounding radius*
0 $2 $3 $4 $5 $6 $7 $8 $9 X,Y pos of 4 corners*
0 Add a 4 corners polygon primitive as box body*
4,1,4,$2,$3,$4,$5,$6,$7,$8,$9,$2,$3,0*
0 Add four circle primitives for the rounded corners*
1,1,$1+$1,$2,$3*
1,1,$1+$1,$4,$5*
1,1,$1+$1,$6,$7*
1,1,$1+$1,$8,$9*
0 Add four rect primitives between the rounded corners*
20,1,$1+$1,$2,$3,$4,$5,0*
20,1,$1+$1,$4,$5,$6,$7,0*
20,1,$1+$1,$6,$7,$8,$9,0*
20,1,$1+$1,$8,$9,$2,$3,0*%
G04 Aperture macros list end*
%ADD10C,0.150000*%
%ADD11C,0.100000*%
%ADD12C,0.120000*%
%ADD13C,5.100000*%
%ADD14C,1.924000*%
%ADD15C,2.900000*%
%ADD16C,3.000000*%
%ADD17C,5.250000*%
%ADD18RoundRect,0.580000X-0.870000X-0.895000X0.870000X-0.895000X0.870000X0.895000X-0.870000X0.895000X0*%
%ADD19RoundRect,0.580000X-1.210093X0.305942X-0.340093X-1.200942X1.210093X-0.305942X0.340093X1.200942X0*%
%ADD20C,4.400000*%
%ADD21O,2.150000X1.600000*%
%ADD22RoundRect,0.333333X-0.741667X0.466667X-0.741667X-0.466667X0.741667X-0.466667X0.741667X0.466667X0*%
%ADD23RoundRect,0.200000X-0.500000X0.700000X-0.500000X-0.700000X0.500000X-0.700000X0.500000X0.700000X0*%
%ADD24RoundRect,0.200000X-0.500000X-0.400000X0.500000X-0.400000X0.500000X0.400000X-0.500000X0.400000X0*%
%ADD25C,1.300000*%
%ADD26RoundRect,0.200000X-0.350000X-0.750000X0.350000X-0.750000X0.350000X0.750000X-0.350000X0.750000X0*%
G04 APERTURE END LIST*
D10*
X103460344Y-41974419D02*
X103269868Y-41974419D01*
X103269868Y-41974419D02*
X103174630Y-42022038D01*
X103174630Y-42022038D02*
X103079392Y-42117276D01*
X103079392Y-42117276D02*
X103031773Y-42307752D01*
X103031773Y-42307752D02*
X103031773Y-42641085D01*
X103031773Y-42641085D02*
X103079392Y-42831561D01*
X103079392Y-42831561D02*
X103174630Y-42926800D01*
X103174630Y-42926800D02*
X103269868Y-42974419D01*
X103269868Y-42974419D02*
X103460344Y-42974419D01*
X103460344Y-42974419D02*
X103555582Y-42926800D01*
X103555582Y-42926800D02*
X103650820Y-42831561D01*
X103650820Y-42831561D02*
X103698439Y-42641085D01*
X103698439Y-42641085D02*
X103698439Y-42307752D01*
X103698439Y-42307752D02*
X103650820Y-42117276D01*
X103650820Y-42117276D02*
X103555582Y-42022038D01*
X103555582Y-42022038D02*
X103460344Y-41974419D01*
X102603201Y-42974419D02*
X102603201Y-41974419D01*
X102603201Y-41974419D02*
X102031773Y-42974419D01*
X102031773Y-42974419D02*
X102031773Y-41974419D01*
X100841297Y-41926800D02*
X101698439Y-43212514D01*
X100317487Y-41974419D02*
X100127011Y-41974419D01*
X100127011Y-41974419D02*
X100031773Y-42022038D01*
X100031773Y-42022038D02*
X99936535Y-42117276D01*
X99936535Y-42117276D02*
X99888916Y-42307752D01*
X99888916Y-42307752D02*
X99888916Y-42641085D01*
X99888916Y-42641085D02*
X99936535Y-42831561D01*
X99936535Y-42831561D02*
X100031773Y-42926800D01*
X100031773Y-42926800D02*
X100127011Y-42974419D01*
X100127011Y-42974419D02*
X100317487Y-42974419D01*
X100317487Y-42974419D02*
X100412725Y-42926800D01*
X100412725Y-42926800D02*
X100507963Y-42831561D01*
X100507963Y-42831561D02*
X100555582Y-42641085D01*
X100555582Y-42641085D02*
X100555582Y-42307752D01*
X100555582Y-42307752D02*
X100507963Y-42117276D01*
X100507963Y-42117276D02*
X100412725Y-42022038D01*
X100412725Y-42022038D02*
X100317487Y-41974419D01*
X99127011Y-42450609D02*
X99460344Y-42450609D01*
X99460344Y-42974419D02*
X99460344Y-41974419D01*
X99460344Y-41974419D02*
X98984154Y-41974419D01*
X98269868Y-42450609D02*
X98603201Y-42450609D01*
X98603201Y-42974419D02*
X98603201Y-41974419D01*
X98603201Y-41974419D02*
X98127011Y-41974419D01*
X102674513Y-38326219D02*
X102674513Y-37326219D01*
X102674513Y-37326219D02*
X102293561Y-37326219D01*
X102293561Y-37326219D02*
X102198323Y-37373838D01*
X102198323Y-37373838D02*
X102150704Y-37421457D01*
X102150704Y-37421457D02*
X102103085Y-37516695D01*
X102103085Y-37516695D02*
X102103085Y-37659552D01*
X102103085Y-37659552D02*
X102150704Y-37754790D01*
X102150704Y-37754790D02*
X102198323Y-37802409D01*
X102198323Y-37802409D02*
X102293561Y-37850028D01*
X102293561Y-37850028D02*
X102674513Y-37850028D01*
X101722132Y-38278600D02*
X101579275Y-38326219D01*
X101579275Y-38326219D02*
X101341180Y-38326219D01*
X101341180Y-38326219D02*
X101245942Y-38278600D01*
X101245942Y-38278600D02*
X101198323Y-38230980D01*
X101198323Y-38230980D02*
X101150704Y-38135742D01*
X101150704Y-38135742D02*
X101150704Y-38040504D01*
X101150704Y-38040504D02*
X101198323Y-37945266D01*
X101198323Y-37945266D02*
X101245942Y-37897647D01*
X101245942Y-37897647D02*
X101341180Y-37850028D01*
X101341180Y-37850028D02*
X101531656Y-37802409D01*
X101531656Y-37802409D02*
X101626894Y-37754790D01*
X101626894Y-37754790D02*
X101674513Y-37707171D01*
X101674513Y-37707171D02*
X101722132Y-37611933D01*
X101722132Y-37611933D02*
X101722132Y-37516695D01*
X101722132Y-37516695D02*
X101674513Y-37421457D01*
X101674513Y-37421457D02*
X101626894Y-37373838D01*
X101626894Y-37373838D02*
X101531656Y-37326219D01*
X101531656Y-37326219D02*
X101293561Y-37326219D01*
X101293561Y-37326219D02*
X101150704Y-37373838D01*
X100817370Y-37326219D02*
X100579275Y-38326219D01*
X100579275Y-38326219D02*
X100388799Y-37611933D01*
X100388799Y-37611933D02*
X100198323Y-38326219D01*
X100198323Y-38326219D02*
X99960228Y-37326219D01*
X99055466Y-38326219D02*
X99626894Y-38326219D01*
X99341180Y-38326219D02*
X99341180Y-37326219D01*
X99341180Y-37326219D02*
X99436418Y-37469076D01*
X99436418Y-37469076D02*
X99531656Y-37564314D01*
X99531656Y-37564314D02*
X99626894Y-37611933D01*
D11*
X113685000Y-52525000D02*
X113685000Y-56875000D01*
X113685000Y-52525000D02*
X117905000Y-52525000D01*
X113685000Y-56875000D02*
X117905000Y-56875000D01*
X117905000Y-52525000D02*
X120105000Y-53575000D01*
X117905000Y-56875000D02*
X120105000Y-57925000D01*
X120105000Y-57700000D02*
X120105000Y-57925000D01*
X120905000Y-57700000D02*
X120105000Y-57700000D01*
X120905000Y-57925000D02*
X120905000Y-57700000D01*
X125525000Y-53575000D02*
X120105000Y-53575000D01*
X125525000Y-53575000D02*
X125525000Y-57925000D01*
X125525000Y-57925000D02*
X120905000Y-57925000D01*
X132685000Y-50125000D02*
X132685000Y-54475000D01*
X132685000Y-50125000D02*
X136905000Y-50125000D01*
X132685000Y-54475000D02*
X136905000Y-54475000D01*
X136905000Y-50125000D02*
X139105000Y-51175000D01*
X136905000Y-54475000D02*
X139105000Y-55525000D01*
X139105000Y-55300000D02*
X139105000Y-55525000D01*
X139905000Y-55300000D02*
X139105000Y-55300000D01*
X139905000Y-55525000D02*
X139905000Y-55300000D01*
X144525000Y-51175000D02*
X139105000Y-51175000D01*
X144525000Y-51175000D02*
X144525000Y-55525000D01*
X144525000Y-55525000D02*
X139905000Y-55525000D01*
X151785000Y-48735000D02*
X151785000Y-53085000D01*
X151785000Y-48735000D02*
X156005000Y-48735000D01*
X151785000Y-53085000D02*
X156005000Y-53085000D01*
X156005000Y-48735000D02*
X158205000Y-49785000D01*
X156005000Y-53085000D02*
X158205000Y-54135000D01*
X158205000Y-53910000D02*
X158205000Y-54135000D01*
X159005000Y-53910000D02*
X158205000Y-53910000D01*
X159005000Y-54135000D02*
X159005000Y-53910000D01*
X163625000Y-49785000D02*
X158205000Y-49785000D01*
X163625000Y-49785000D02*
X163625000Y-54135000D01*
X163625000Y-54135000D02*
X159005000Y-54135000D01*
X170785000Y-50125000D02*
X170785000Y-54475000D01*
X170785000Y-50125000D02*
X175005000Y-50125000D01*
X170785000Y-54475000D02*
X175005000Y-54475000D01*
X175005000Y-50125000D02*
X177205000Y-51175000D01*
X175005000Y-54475000D02*
X177205000Y-55525000D01*
X177205000Y-55300000D02*
X177205000Y-55525000D01*
X178005000Y-55300000D02*
X177205000Y-55300000D01*
X178005000Y-55525000D02*
X178005000Y-55300000D01*
X182625000Y-51175000D02*
X177205000Y-51175000D01*
X182625000Y-51175000D02*
X182625000Y-55525000D01*
X182625000Y-55525000D02*
X178005000Y-55525000D01*
X189885000Y-54925000D02*
X189885000Y-59275000D01*
X189885000Y-54925000D02*
X194105000Y-54925000D01*
X189885000Y-59275000D02*
X194105000Y-59275000D01*
X194105000Y-54925000D02*
X196305000Y-55975000D01*
X194105000Y-59275000D02*
X196305000Y-60325000D01*
X196305000Y-60100000D02*
X196305000Y-60325000D01*
X197105000Y-60100000D02*
X196305000Y-60100000D01*
X197105000Y-60325000D02*
X197105000Y-60100000D01*
X201725000Y-55975000D02*
X196305000Y-55975000D01*
X201725000Y-55975000D02*
X201725000Y-60325000D01*
X201725000Y-60325000D02*
X197105000Y-60325000D01*
X208885000Y-56425000D02*
X208885000Y-60775000D01*
X208885000Y-56425000D02*
X213105000Y-56425000D01*
X208885000Y-60775000D02*
X213105000Y-60775000D01*
X213105000Y-56425000D02*
X215305000Y-57475000D01*
X213105000Y-60775000D02*
X215305000Y-61825000D01*
X215305000Y-61600000D02*
X215305000Y-61825000D01*
X216105000Y-61600000D02*
X215305000Y-61600000D01*
X216105000Y-61825000D02*
X216105000Y-61600000D01*
X220725000Y-57475000D02*
X215305000Y-57475000D01*
X220725000Y-57475000D02*
X220725000Y-61825000D01*
X220725000Y-61825000D02*
X216105000Y-61825000D01*
X113685000Y-71625000D02*
X113685000Y-75975000D01*
X113685000Y-71625000D02*
X117905000Y-71625000D01*
X113685000Y-75975000D02*
X117905000Y-75975000D01*
X117905000Y-71625000D02*
X120105000Y-72675000D01*
X117905000Y-75975000D02*
X120105000Y-77025000D01*
X120105000Y-76800000D02*
X120105000Y-77025000D01*
X120905000Y-76800000D02*
X120105000Y-76800000D01*
X120905000Y-77025000D02*
X120905000Y-76800000D01*
X125525000Y-72675000D02*
X120105000Y-72675000D01*
X125525000Y-72675000D02*
X125525000Y-77025000D01*
X125525000Y-77025000D02*
X120905000Y-77025000D01*
X132685000Y-69225000D02*
X132685000Y-73575000D01*
X132685000Y-69225000D02*
X136905000Y-69225000D01*
X132685000Y-73575000D02*
X136905000Y-73575000D01*
X136905000Y-69225000D02*
X139105000Y-70275000D01*
X136905000Y-73575000D02*
X139105000Y-74625000D01*
X139105000Y-74400000D02*
X139105000Y-74625000D01*
X139905000Y-74400000D02*
X139105000Y-74400000D01*
X139905000Y-74625000D02*
X139905000Y-74400000D01*
X144525000Y-70275000D02*
X139105000Y-70275000D01*
X144525000Y-70275000D02*
X144525000Y-74625000D01*
X144525000Y-74625000D02*
X139905000Y-74625000D01*
X151785000Y-67825000D02*
X151785000Y-72175000D01*
X151785000Y-67825000D02*
X156005000Y-67825000D01*
X151785000Y-72175000D02*
X156005000Y-72175000D01*
X156005000Y-67825000D02*
X158205000Y-68875000D01*
X156005000Y-72175000D02*
X158205000Y-73225000D01*
X158205000Y-73000000D02*
X158205000Y-73225000D01*
X159005000Y-73000000D02*
X158205000Y-73000000D01*
X159005000Y-73225000D02*
X159005000Y-73000000D01*
X163625000Y-68875000D02*
X158205000Y-68875000D01*
X163625000Y-68875000D02*
X163625000Y-73225000D01*
X163625000Y-73225000D02*
X159005000Y-73225000D01*
X170785000Y-69125000D02*
X170785000Y-73475000D01*
X170785000Y-69125000D02*
X175005000Y-69125000D01*
X170785000Y-73475000D02*
X175005000Y-73475000D01*
X175005000Y-69125000D02*
X177205000Y-70175000D01*
X175005000Y-73475000D02*
X177205000Y-74525000D01*
X177205000Y-74300000D02*
X177205000Y-74525000D01*
X178005000Y-74300000D02*
X177205000Y-74300000D01*
X178005000Y-74525000D02*
X178005000Y-74300000D01*
X182625000Y-70175000D02*
X177205000Y-70175000D01*
X182625000Y-70175000D02*
X182625000Y-74525000D01*
X182625000Y-74525000D02*
X178005000Y-74525000D01*
X189885000Y-73825000D02*
X189885000Y-78175000D01*
X189885000Y-73825000D02*
X194105000Y-73825000D01*
X189885000Y-78175000D02*
X194105000Y-78175000D01*
X194105000Y-73825000D02*
X196305000Y-74875000D01*
X194105000Y-78175000D02*
X196305000Y-79225000D01*
X196305000Y-79000000D02*
X196305000Y-79225000D01*
X197105000Y-79000000D02*
X196305000Y-79000000D01*
X197105000Y-79225000D02*
X197105000Y-79000000D01*
X201725000Y-74875000D02*
X196305000Y-74875000D01*
X201725000Y-74875000D02*
X201725000Y-79225000D01*
X201725000Y-79225000D02*
X197105000Y-79225000D01*
X208885000Y-75325000D02*
X208885000Y-79675000D01*
X208885000Y-75325000D02*
X213105000Y-75325000D01*
X208885000Y-79675000D02*
X213105000Y-79675000D01*
X213105000Y-75325000D02*
X215305000Y-76375000D01*
X213105000Y-79675000D02*
X215305000Y-80725000D01*
X215305000Y-80500000D02*
X215305000Y-80725000D01*
X216105000Y-80500000D02*
X215305000Y-80500000D01*
X216105000Y-80725000D02*
X216105000Y-80500000D01*
X220725000Y-76375000D02*
X215305000Y-76375000D01*
X220725000Y-76375000D02*
X220725000Y-80725000D01*
X220725000Y-80725000D02*
X216105000Y-80725000D01*
X113685000Y-90625000D02*
X113685000Y-94975000D01*
X113685000Y-90625000D02*
X117905000Y-90625000D01*
X113685000Y-94975000D02*
X117905000Y-94975000D01*
X117905000Y-90625000D02*
X120105000Y-91675000D01*
X117905000Y-94975000D02*
X120105000Y-96025000D01*
X120105000Y-95800000D02*
X120105000Y-96025000D01*
X120905000Y-95800000D02*
X120105000Y-95800000D01*
X120905000Y-96025000D02*
X120905000Y-95800000D01*
X125525000Y-91675000D02*
X120105000Y-91675000D01*
X125525000Y-91675000D02*
X125525000Y-96025000D01*
X125525000Y-96025000D02*
X120905000Y-96025000D01*
X132685000Y-88225000D02*
X132685000Y-92575000D01*
X132685000Y-88225000D02*
X136905000Y-88225000D01*
X132685000Y-92575000D02*
X136905000Y-92575000D01*
X136905000Y-88225000D02*
X139105000Y-89275000D01*
X136905000Y-92575000D02*
X139105000Y-93625000D01*
X139105000Y-93400000D02*
X139105000Y-93625000D01*
X139905000Y-93400000D02*
X139105000Y-93400000D01*
X139905000Y-93625000D02*
X139905000Y-93400000D01*
X144525000Y-89275000D02*
X139105000Y-89275000D01*
X144525000Y-89275000D02*
X144525000Y-93625000D01*
X144525000Y-93625000D02*
X139905000Y-93625000D01*
X151785000Y-86925000D02*
X151785000Y-91275000D01*
X151785000Y-86925000D02*
X156005000Y-86925000D01*
X151785000Y-91275000D02*
X156005000Y-91275000D01*
X156005000Y-86925000D02*
X158205000Y-87975000D01*
X156005000Y-91275000D02*
X158205000Y-92325000D01*
X158205000Y-92100000D02*
X158205000Y-92325000D01*
X159005000Y-92100000D02*
X158205000Y-92100000D01*
X159005000Y-92325000D02*
X159005000Y-92100000D01*
X163625000Y-87975000D02*
X158205000Y-87975000D01*
X163625000Y-87975000D02*
X163625000Y-92325000D01*
X163625000Y-92325000D02*
X159005000Y-92325000D01*
X170785000Y-88225000D02*
X170785000Y-92575000D01*
X170785000Y-88225000D02*
X175005000Y-88225000D01*
X170785000Y-92575000D02*
X175005000Y-92575000D01*
X175005000Y-88225000D02*
X177205000Y-89275000D01*
X175005000Y-92575000D02*
X177205000Y-93625000D01*
X177205000Y-93400000D02*
X177205000Y-93625000D01*
X178005000Y-93400000D02*
X177205000Y-93400000D01*
X178005000Y-93625000D02*
X178005000Y-93400000D01*
X182625000Y-89275000D02*
X177205000Y-89275000D01*
X182625000Y-89275000D02*
X182625000Y-93625000D01*
X182625000Y-93625000D02*
X178005000Y-93625000D01*
X189885000Y-93025000D02*
X189885000Y-97375000D01*
X189885000Y-93025000D02*
X194105000Y-93025000D01*
X189885000Y-97375000D02*
X194105000Y-97375000D01*
X194105000Y-93025000D02*
X196305000Y-94075000D01*
X194105000Y-97375000D02*
X196305000Y-98425000D01*
X196305000Y-98200000D02*
X196305000Y-98425000D01*
X197105000Y-98200000D02*
X196305000Y-98200000D01*
X197105000Y-98425000D02*
X197105000Y-98200000D01*
X201725000Y-94075000D02*
X196305000Y-94075000D01*
X201725000Y-94075000D02*
X201725000Y-98425000D01*
X201725000Y-98425000D02*
X197105000Y-98425000D01*
X208885000Y-94525000D02*
X208885000Y-98875000D01*
X208885000Y-94525000D02*
X213105000Y-94525000D01*
X208885000Y-98875000D02*
X213105000Y-98875000D01*
X213105000Y-94525000D02*
X215305000Y-95575000D01*
X213105000Y-98875000D02*
X215305000Y-99925000D01*
X215305000Y-99700000D02*
X215305000Y-99925000D01*
X216105000Y-99700000D02*
X215305000Y-99700000D01*
X216105000Y-99925000D02*
X216105000Y-99700000D01*
X220725000Y-95575000D02*
X215305000Y-95575000D01*
X220725000Y-95575000D02*
X220725000Y-99925000D01*
X220725000Y-99925000D02*
X216105000Y-99925000D01*
X113685000Y-109625000D02*
X113685000Y-113975000D01*
X113685000Y-109625000D02*
X117905000Y-109625000D01*
X113685000Y-113975000D02*
X117905000Y-113975000D01*
X117905000Y-109625000D02*
X120105000Y-110675000D01*
X117905000Y-113975000D02*
X120105000Y-115025000D01*
X120105000Y-114800000D02*
X120105000Y-115025000D01*
X120905000Y-114800000D02*
X120105000Y-114800000D01*
X120905000Y-115025000D02*
X120905000Y-114800000D01*
X125525000Y-110675000D02*
X120105000Y-110675000D01*
X125525000Y-110675000D02*
X125525000Y-115025000D01*
X125525000Y-115025000D02*
X120905000Y-115025000D01*
X132685000Y-107325000D02*
X132685000Y-111675000D01*
X132685000Y-107325000D02*
X136905000Y-107325000D01*
X132685000Y-111675000D02*
X136905000Y-111675000D01*
X136905000Y-107325000D02*
X139105000Y-108375000D01*
X136905000Y-111675000D02*
X139105000Y-112725000D01*
X139105000Y-112500000D02*
X139105000Y-112725000D01*
X139905000Y-112500000D02*
X139105000Y-112500000D01*
X139905000Y-112725000D02*
X139905000Y-112500000D01*
X144525000Y-108375000D02*
X139105000Y-108375000D01*
X144525000Y-108375000D02*
X144525000Y-112725000D01*
X144525000Y-112725000D02*
X139905000Y-112725000D01*
X151785000Y-105925000D02*
X151785000Y-110275000D01*
X151785000Y-105925000D02*
X156005000Y-105925000D01*
X151785000Y-110275000D02*
X156005000Y-110275000D01*
X156005000Y-105925000D02*
X158205000Y-106975000D01*
X156005000Y-110275000D02*
X158205000Y-111325000D01*
X158205000Y-111100000D02*
X158205000Y-111325000D01*
X159005000Y-111100000D02*
X158205000Y-111100000D01*
X159005000Y-111325000D02*
X159005000Y-111100000D01*
X163625000Y-106975000D02*
X158205000Y-106975000D01*
X163625000Y-106975000D02*
X163625000Y-111325000D01*
X163625000Y-111325000D02*
X159005000Y-111325000D01*
X170785000Y-107325000D02*
X170785000Y-111675000D01*
X170785000Y-107325000D02*
X175005000Y-107325000D01*
X170785000Y-111675000D02*
X175005000Y-111675000D01*
X175005000Y-107325000D02*
X177205000Y-108375000D01*
X175005000Y-111675000D02*
X177205000Y-112725000D01*
X177205000Y-112500000D02*
X177205000Y-112725000D01*
X178005000Y-112500000D02*
X177205000Y-112500000D01*
X178005000Y-112725000D02*
X178005000Y-112500000D01*
X182625000Y-108375000D02*
X177205000Y-108375000D01*
X182625000Y-108375000D02*
X182625000Y-112725000D01*
X182625000Y-112725000D02*
X178005000Y-112725000D01*
X189885000Y-112025000D02*
X189885000Y-116375000D01*
X189885000Y-112025000D02*
X194105000Y-112025000D01*
X189885000Y-116375000D02*
X194105000Y-116375000D01*
X194105000Y-112025000D02*
X196305000Y-113075000D01*
X194105000Y-116375000D02*
X196305000Y-117425000D01*
X196305000Y-117200000D02*
X196305000Y-117425000D01*
X197105000Y-117200000D02*
X196305000Y-117200000D01*
X197105000Y-117425000D02*
X197105000Y-117200000D01*
X201725000Y-113075000D02*
X196305000Y-113075000D01*
X201725000Y-113075000D02*
X201725000Y-117425000D01*
X201725000Y-117425000D02*
X197105000Y-117425000D01*
X208935000Y-113525000D02*
X208935000Y-117875000D01*
X208935000Y-113525000D02*
X213155000Y-113525000D01*
X208935000Y-117875000D02*
X213155000Y-117875000D01*
X213155000Y-113525000D02*
X215355000Y-114575000D01*
X213155000Y-117875000D02*
X215355000Y-118925000D01*
X215355000Y-118700000D02*
X215355000Y-118925000D01*
X216155000Y-118700000D02*
X215355000Y-118700000D01*
X216155000Y-118925000D02*
X216155000Y-118700000D01*
X220775000Y-114575000D02*
X215355000Y-114575000D01*
X220775000Y-114575000D02*
X220775000Y-118925000D01*
X220775000Y-118925000D02*
X216155000Y-118925000D01*
X94585000Y-100025000D02*
X94585000Y-104375000D01*
X94585000Y-100025000D02*
X98805000Y-100025000D01*
X94585000Y-104375000D02*
X98805000Y-104375000D01*
X98805000Y-100025000D02*
X101005000Y-101075000D01*
X98805000Y-104375000D02*
X101005000Y-105425000D01*
X101005000Y-105200000D02*
X101005000Y-105425000D01*
X101805000Y-105200000D02*
X101005000Y-105200000D01*
X101805000Y-105425000D02*
X101805000Y-105200000D01*
X106425000Y-101075000D02*
X101005000Y-101075000D01*
X106425000Y-101075000D02*
X106425000Y-105425000D01*
X106425000Y-105425000D02*
X101805000Y-105425000D01*
X99405786Y-122360537D02*
X95638575Y-124535537D01*
X99405786Y-122360537D02*
X101515786Y-126015164D01*
X95638575Y-124535537D02*
X97748575Y-128190164D01*
X101515786Y-126015164D02*
X101706459Y-128445420D01*
X97748575Y-128190164D02*
X97939249Y-130620420D01*
X98134104Y-130507920D02*
X97939249Y-130620420D01*
X98534104Y-131200740D02*
X98134104Y-130507920D01*
X98339249Y-131313240D02*
X98534104Y-131200740D01*
X104416459Y-133139278D02*
X101706459Y-128445420D01*
X104416459Y-133139278D02*
X100649249Y-135314278D01*
X100649249Y-135314278D02*
X98339249Y-131313240D01*
X123185000Y-128525000D02*
X123185000Y-132875000D01*
X123185000Y-128525000D02*
X127405000Y-128525000D01*
X123185000Y-132875000D02*
X127405000Y-132875000D01*
X127405000Y-128525000D02*
X129605000Y-129575000D01*
X127405000Y-132875000D02*
X129605000Y-133925000D01*
X129605000Y-133700000D02*
X129605000Y-133925000D01*
X130405000Y-133700000D02*
X129605000Y-133700000D01*
X130405000Y-133925000D02*
X130405000Y-133700000D01*
X135025000Y-129575000D02*
X129605000Y-129575000D01*
X135025000Y-129575000D02*
X135025000Y-133925000D01*
X135025000Y-133925000D02*
X130405000Y-133925000D01*
X142185000Y-126275000D02*
X142185000Y-130625000D01*
X142185000Y-126275000D02*
X146405000Y-126275000D01*
X142185000Y-130625000D02*
X146405000Y-130625000D01*
X146405000Y-126275000D02*
X148605000Y-127325000D01*
X146405000Y-130625000D02*
X148605000Y-131675000D01*
X148605000Y-131450000D02*
X148605000Y-131675000D01*
X149405000Y-131450000D02*
X148605000Y-131450000D01*
X149405000Y-131675000D02*
X149405000Y-131450000D01*
X154025000Y-127325000D02*
X148605000Y-127325000D01*
X154025000Y-127325000D02*
X154025000Y-131675000D01*
X154025000Y-131675000D02*
X149405000Y-131675000D01*
X161285000Y-126275000D02*
X161285000Y-130625000D01*
X161285000Y-126275000D02*
X165505000Y-126275000D01*
X161285000Y-130625000D02*
X165505000Y-130625000D01*
X165505000Y-126275000D02*
X167705000Y-127325000D01*
X165505000Y-130625000D02*
X167705000Y-131675000D01*
X167705000Y-131450000D02*
X167705000Y-131675000D01*
X168505000Y-131450000D02*
X167705000Y-131450000D01*
X168505000Y-131675000D02*
X168505000Y-131450000D01*
X173125000Y-127325000D02*
X167705000Y-127325000D01*
X173125000Y-127325000D02*
X173125000Y-131675000D01*
X173125000Y-131675000D02*
X168505000Y-131675000D01*
D10*
X127250000Y-47300000D02*
X127250000Y-52700000D01*
X125750000Y-47300000D02*
X127250000Y-47300000D01*
X126000000Y-49500000D02*
X127000000Y-49500000D01*
X126500000Y-49600000D02*
X126000000Y-50500000D01*
X127000000Y-50500000D02*
X126500000Y-49600000D01*
X126000000Y-50500000D02*
X127000000Y-50500000D01*
X125750000Y-52700000D02*
X125750000Y-47300000D01*
X125750000Y-52700000D02*
X127250000Y-52700000D01*
X146250000Y-44900000D02*
X146250000Y-50300000D01*
X144750000Y-44900000D02*
X146250000Y-44900000D01*
X145000000Y-47100000D02*
X146000000Y-47100000D01*
X145500000Y-47200000D02*
X145000000Y-48100000D01*
X146000000Y-48100000D02*
X145500000Y-47200000D01*
X145000000Y-48100000D02*
X146000000Y-48100000D01*
X144750000Y-50300000D02*
X144750000Y-44900000D01*
X144750000Y-50300000D02*
X146250000Y-50300000D01*
X165350000Y-43510000D02*
X165350000Y-48910000D01*
X163850000Y-43510000D02*
X165350000Y-43510000D01*
X164100000Y-45710000D02*
X165100000Y-45710000D01*
X164600000Y-45810000D02*
X164100000Y-46710000D01*
X165100000Y-46710000D02*
X164600000Y-45810000D01*
X164100000Y-46710000D02*
X165100000Y-46710000D01*
X163850000Y-48910000D02*
X163850000Y-43510000D01*
X163850000Y-48910000D02*
X165350000Y-48910000D01*
X184350000Y-44900000D02*
X184350000Y-50300000D01*
X182850000Y-44900000D02*
X184350000Y-44900000D01*
X183100000Y-47100000D02*
X184100000Y-47100000D01*
X183600000Y-47200000D02*
X183100000Y-48100000D01*
X184100000Y-48100000D02*
X183600000Y-47200000D01*
X183100000Y-48100000D02*
X184100000Y-48100000D01*
X182850000Y-50300000D02*
X182850000Y-44900000D01*
X182850000Y-50300000D02*
X184350000Y-50300000D01*
X203450000Y-49700000D02*
X203450000Y-55100000D01*
X201950000Y-49700000D02*
X203450000Y-49700000D01*
X202200000Y-51900000D02*
X203200000Y-51900000D01*
X202700000Y-52000000D02*
X202200000Y-52900000D01*
X203200000Y-52900000D02*
X202700000Y-52000000D01*
X202200000Y-52900000D02*
X203200000Y-52900000D01*
X201950000Y-55100000D02*
X201950000Y-49700000D01*
X201950000Y-55100000D02*
X203450000Y-55100000D01*
X222450000Y-51200000D02*
X222450000Y-56600000D01*
X220950000Y-51200000D02*
X222450000Y-51200000D01*
X221200000Y-53400000D02*
X222200000Y-53400000D01*
X221700000Y-53500000D02*
X221200000Y-54400000D01*
X222200000Y-54400000D02*
X221700000Y-53500000D01*
X221200000Y-54400000D02*
X222200000Y-54400000D01*
X220950000Y-56600000D02*
X220950000Y-51200000D01*
X220950000Y-56600000D02*
X222450000Y-56600000D01*
X127250000Y-66400000D02*
X127250000Y-71800000D01*
X125750000Y-66400000D02*
X127250000Y-66400000D01*
X126000000Y-68600000D02*
X127000000Y-68600000D01*
X126500000Y-68700000D02*
X126000000Y-69600000D01*
X127000000Y-69600000D02*
X126500000Y-68700000D01*
X126000000Y-69600000D02*
X127000000Y-69600000D01*
X125750000Y-71800000D02*
X125750000Y-66400000D01*
X125750000Y-71800000D02*
X127250000Y-71800000D01*
X146250000Y-64000000D02*
X146250000Y-69400000D01*
X144750000Y-64000000D02*
X146250000Y-64000000D01*
X145000000Y-66200000D02*
X146000000Y-66200000D01*
X145500000Y-66300000D02*
X145000000Y-67200000D01*
X146000000Y-67200000D02*
X145500000Y-66300000D01*
X145000000Y-67200000D02*
X146000000Y-67200000D01*
X144750000Y-69400000D02*
X144750000Y-64000000D01*
X144750000Y-69400000D02*
X146250000Y-69400000D01*
X165350000Y-62600000D02*
X165350000Y-68000000D01*
X163850000Y-62600000D02*
X165350000Y-62600000D01*
X164100000Y-64800000D02*
X165100000Y-64800000D01*
X164600000Y-64900000D02*
X164100000Y-65800000D01*
X165100000Y-65800000D02*
X164600000Y-64900000D01*
X164100000Y-65800000D02*
X165100000Y-65800000D01*
X163850000Y-68000000D02*
X163850000Y-62600000D01*
X163850000Y-68000000D02*
X165350000Y-68000000D01*
X184350000Y-63900000D02*
X184350000Y-69300000D01*
X182850000Y-63900000D02*
X184350000Y-63900000D01*
X183100000Y-66100000D02*
X184100000Y-66100000D01*
X183600000Y-66200000D02*
X183100000Y-67100000D01*
X184100000Y-67100000D02*
X183600000Y-66200000D01*
X183100000Y-67100000D02*
X184100000Y-67100000D01*
X182850000Y-69300000D02*
X182850000Y-63900000D01*
X182850000Y-69300000D02*
X184350000Y-69300000D01*
X203450000Y-68600000D02*
X203450000Y-74000000D01*
X201950000Y-68600000D02*
X203450000Y-68600000D01*
X202200000Y-70800000D02*
X203200000Y-70800000D01*
X202700000Y-70900000D02*
X202200000Y-71800000D01*
X203200000Y-71800000D02*
X202700000Y-70900000D01*
X202200000Y-71800000D02*
X203200000Y-71800000D01*
X201950000Y-74000000D02*
X201950000Y-68600000D01*
X201950000Y-74000000D02*
X203450000Y-74000000D01*
X222450000Y-70100000D02*
X222450000Y-75500000D01*
X220950000Y-70100000D02*
X222450000Y-70100000D01*
X221200000Y-72300000D02*
X222200000Y-72300000D01*
X221700000Y-72400000D02*
X221200000Y-73300000D01*
X222200000Y-73300000D02*
X221700000Y-72400000D01*
X221200000Y-73300000D02*
X222200000Y-73300000D01*
X220950000Y-75500000D02*
X220950000Y-70100000D01*
X220950000Y-75500000D02*
X222450000Y-75500000D01*
X127250000Y-85400000D02*
X127250000Y-90800000D01*
X125750000Y-85400000D02*
X127250000Y-85400000D01*
X126000000Y-87600000D02*
X127000000Y-87600000D01*
X126500000Y-87700000D02*
X126000000Y-88600000D01*
X127000000Y-88600000D02*
X126500000Y-87700000D01*
X126000000Y-88600000D02*
X127000000Y-88600000D01*
X125750000Y-90800000D02*
X125750000Y-85400000D01*
X125750000Y-90800000D02*
X127250000Y-90800000D01*
X146250000Y-83000000D02*
X146250000Y-88400000D01*
X144750000Y-83000000D02*
X146250000Y-83000000D01*
X145000000Y-85200000D02*
X146000000Y-85200000D01*
X145500000Y-85300000D02*
X145000000Y-86200000D01*
X146000000Y-86200000D02*
X145500000Y-85300000D01*
X145000000Y-86200000D02*
X146000000Y-86200000D01*
X144750000Y-88400000D02*
X144750000Y-83000000D01*
X144750000Y-88400000D02*
X146250000Y-88400000D01*
X165350000Y-81700000D02*
X165350000Y-87100000D01*
X163850000Y-81700000D02*
X165350000Y-81700000D01*
X164100000Y-83900000D02*
X165100000Y-83900000D01*
X164600000Y-84000000D02*
X164100000Y-84900000D01*
X165100000Y-84900000D02*
X164600000Y-84000000D01*
X164100000Y-84900000D02*
X165100000Y-84900000D01*
X163850000Y-87100000D02*
X163850000Y-81700000D01*
X163850000Y-87100000D02*
X165350000Y-87100000D01*
X184350000Y-83000000D02*
X184350000Y-88400000D01*
X182850000Y-83000000D02*
X184350000Y-83000000D01*
X183100000Y-85200000D02*
X184100000Y-85200000D01*
X183600000Y-85300000D02*
X183100000Y-86200000D01*
X184100000Y-86200000D02*
X183600000Y-85300000D01*
X183100000Y-86200000D02*
X184100000Y-86200000D01*
X182850000Y-88400000D02*
X182850000Y-83000000D01*
X182850000Y-88400000D02*
X184350000Y-88400000D01*
X203450000Y-87800000D02*
X203450000Y-93200000D01*
X201950000Y-87800000D02*
X203450000Y-87800000D01*
X202200000Y-90000000D02*
X203200000Y-90000000D01*
X202700000Y-90100000D02*
X202200000Y-91000000D01*
X203200000Y-91000000D02*
X202700000Y-90100000D01*
X202200000Y-91000000D02*
X203200000Y-91000000D01*
X201950000Y-93200000D02*
X201950000Y-87800000D01*
X201950000Y-93200000D02*
X203450000Y-93200000D01*
X222450000Y-89300000D02*
X222450000Y-94700000D01*
X220950000Y-89300000D02*
X222450000Y-89300000D01*
X221200000Y-91500000D02*
X222200000Y-91500000D01*
X221700000Y-91600000D02*
X221200000Y-92500000D01*
X222200000Y-92500000D02*
X221700000Y-91600000D01*
X221200000Y-92500000D02*
X222200000Y-92500000D01*
X220950000Y-94700000D02*
X220950000Y-89300000D01*
X220950000Y-94700000D02*
X222450000Y-94700000D01*
X127250000Y-104400000D02*
X127250000Y-109800000D01*
X125750000Y-104400000D02*
X127250000Y-104400000D01*
X126000000Y-106600000D02*
X127000000Y-106600000D01*
X126500000Y-106700000D02*
X126000000Y-107600000D01*
X127000000Y-107600000D02*
X126500000Y-106700000D01*
X126000000Y-107600000D02*
X127000000Y-107600000D01*
X125750000Y-109800000D02*
X125750000Y-104400000D01*
X125750000Y-109800000D02*
X127250000Y-109800000D01*
X146250000Y-102100000D02*
X146250000Y-107500000D01*
X144750000Y-102100000D02*
X146250000Y-102100000D01*
X145000000Y-104300000D02*
X146000000Y-104300000D01*
X145500000Y-104400000D02*
X145000000Y-105300000D01*
X146000000Y-105300000D02*
X145500000Y-104400000D01*
X145000000Y-105300000D02*
X146000000Y-105300000D01*
X144750000Y-107500000D02*
X144750000Y-102100000D01*
X144750000Y-107500000D02*
X146250000Y-107500000D01*
X165350000Y-100700000D02*
X165350000Y-106100000D01*
X163850000Y-100700000D02*
X165350000Y-100700000D01*
X164100000Y-102900000D02*
X165100000Y-102900000D01*
X164600000Y-103000000D02*
X164100000Y-103900000D01*
X165100000Y-103900000D02*
X164600000Y-103000000D01*
X164100000Y-103900000D02*
X165100000Y-103900000D01*
X163850000Y-106100000D02*
X163850000Y-100700000D01*
X163850000Y-106100000D02*
X165350000Y-106100000D01*
X184350000Y-102100000D02*
X184350000Y-107500000D01*
X182850000Y-102100000D02*
X184350000Y-102100000D01*
X183100000Y-104300000D02*
X184100000Y-104300000D01*
X183600000Y-104400000D02*
X183100000Y-105300000D01*
X184100000Y-105300000D02*
X183600000Y-104400000D01*
X183100000Y-105300000D02*
X184100000Y-105300000D01*
X182850000Y-107500000D02*
X182850000Y-102100000D01*
X182850000Y-107500000D02*
X184350000Y-107500000D01*
X203450000Y-106800000D02*
X203450000Y-112200000D01*
X201950000Y-106800000D02*
X203450000Y-106800000D01*
X202200000Y-109000000D02*
X203200000Y-109000000D01*
X202700000Y-109100000D02*
X202200000Y-110000000D01*
X203200000Y-110000000D02*
X202700000Y-109100000D01*
X202200000Y-110000000D02*
X203200000Y-110000000D01*
X201950000Y-112200000D02*
X201950000Y-106800000D01*
X201950000Y-112200000D02*
X203450000Y-112200000D01*
X222500000Y-108300000D02*
X222500000Y-113700000D01*
X221000000Y-108300000D02*
X222500000Y-108300000D01*
X221250000Y-110500000D02*
X222250000Y-110500000D01*
X221750000Y-110600000D02*
X221250000Y-111500000D01*
X222250000Y-111500000D02*
X221750000Y-110600000D01*
X221250000Y-111500000D02*
X222250000Y-111500000D01*
X221000000Y-113700000D02*
X221000000Y-108300000D01*
X221000000Y-113700000D02*
X222500000Y-113700000D01*
X108150000Y-94800000D02*
X108150000Y-100200000D01*
X106650000Y-94800000D02*
X108150000Y-94800000D01*
X106900000Y-97000000D02*
X107900000Y-97000000D01*
X107400000Y-97100000D02*
X106900000Y-98000000D01*
X107900000Y-98000000D02*
X107400000Y-97100000D01*
X106900000Y-98000000D02*
X107900000Y-98000000D01*
X106650000Y-100200000D02*
X106650000Y-94800000D01*
X106650000Y-100200000D02*
X108150000Y-100200000D01*
X111750000Y-124300000D02*
X111750000Y-129700000D01*
X110250000Y-124300000D02*
X111750000Y-124300000D01*
X110500000Y-126500000D02*
X111500000Y-126500000D01*
X111000000Y-126600000D02*
X110500000Y-127500000D01*
X111500000Y-127500000D02*
X111000000Y-126600000D01*
X110500000Y-127500000D02*
X111500000Y-127500000D01*
X110250000Y-129700000D02*
X110250000Y-124300000D01*
X110250000Y-129700000D02*
X111750000Y-129700000D01*
X136750000Y-123300000D02*
X136750000Y-128700000D01*
X135250000Y-123300000D02*
X136750000Y-123300000D01*
X135500000Y-125500000D02*
X136500000Y-125500000D01*
X136000000Y-125600000D02*
X135500000Y-126500000D01*
X136500000Y-126500000D02*
X136000000Y-125600000D01*
X135500000Y-126500000D02*
X136500000Y-126500000D01*
X135250000Y-128700000D02*
X135250000Y-123300000D01*
X135250000Y-128700000D02*
X136750000Y-128700000D01*
X155750000Y-121050000D02*
X155750000Y-126450000D01*
X154250000Y-121050000D02*
X155750000Y-121050000D01*
X154500000Y-123250000D02*
X155500000Y-123250000D01*
X155000000Y-123350000D02*
X154500000Y-124250000D01*
X155500000Y-124250000D02*
X155000000Y-123350000D01*
X154500000Y-124250000D02*
X155500000Y-124250000D01*
X154250000Y-126450000D02*
X154250000Y-121050000D01*
X154250000Y-126450000D02*
X155750000Y-126450000D01*
X174850000Y-121050000D02*
X174850000Y-126450000D01*
X173350000Y-121050000D02*
X174850000Y-121050000D01*
X173600000Y-123250000D02*
X174600000Y-123250000D01*
X174100000Y-123350000D02*
X173600000Y-124250000D01*
X174600000Y-124250000D02*
X174100000Y-123350000D01*
X173600000Y-124250000D02*
X174600000Y-124250000D01*
X173350000Y-126450000D02*
X173350000Y-121050000D01*
X173350000Y-126450000D02*
X174850000Y-126450000D01*
D12*
X97550000Y-39153000D02*
X97550000Y-38363000D01*
X98150000Y-37353000D02*
X103850000Y-37353000D01*
X99400000Y-40203000D02*
X101100000Y-40203000D01*
X99600000Y-36063000D02*
X99800000Y-35853000D01*
X99600000Y-37353000D02*
X99600000Y-36063000D01*
X99800000Y-35853000D02*
X100700000Y-35853000D01*
X100900000Y-36063000D02*
X100700000Y-35853000D01*
X100900000Y-36063000D02*
X100900000Y-37353000D01*
X102400000Y-40203000D02*
X102600000Y-40203000D01*
X104450000Y-38363000D02*
X104450000Y-39153000D01*
%LPC*%
D13*
X129600000Y-59600000D03*
X205800000Y-61800000D03*
X129600000Y-97600000D03*
X205800000Y-100000000D03*
X105000000Y-114800000D03*
D14*
X108611400Y-41522000D03*
X108611400Y-44062000D03*
X108611400Y-46602000D03*
X108611400Y-49142000D03*
X108611400Y-51682000D03*
X108611400Y-54222000D03*
X108611400Y-56762000D03*
X108611400Y-59302000D03*
X108611400Y-61842000D03*
X108611400Y-64382000D03*
X108611400Y-66922000D03*
X108611400Y-69462000D03*
X93391400Y-69462000D03*
X93391400Y-66922000D03*
X93391400Y-64382000D03*
X93391400Y-61842000D03*
X93391400Y-59302000D03*
X93391400Y-56762000D03*
X93391400Y-54222000D03*
X93391400Y-51682000D03*
X93391400Y-49142000D03*
X93391400Y-46602000D03*
X93391400Y-44062000D03*
X93391400Y-41522000D03*
D15*
X86360000Y-46505000D03*
X86360000Y-40005000D03*
D16*
X116100000Y-54700000D03*
D17*
X120500000Y-50000000D03*
D16*
X123100000Y-55750000D03*
D18*
X112425000Y-54700000D03*
X126775000Y-55750000D03*
D16*
X135100000Y-52300000D03*
D17*
X139500000Y-47600000D03*
D16*
X142100000Y-53350000D03*
D18*
X131425000Y-52300000D03*
X145775000Y-53350000D03*
D16*
X154200000Y-50910000D03*
D17*
X158600000Y-46210000D03*
D16*
X161200000Y-51960000D03*
D18*
X150525000Y-50910000D03*
X164875000Y-51960000D03*
D16*
X173200000Y-52300000D03*
D17*
X177600000Y-47600000D03*
D16*
X180200000Y-53350000D03*
D18*
X169525000Y-52300000D03*
X183875000Y-53350000D03*
D16*
X192300000Y-57100000D03*
D17*
X196700000Y-52400000D03*
D16*
X199300000Y-58150000D03*
D18*
X188625000Y-57100000D03*
X202975000Y-58150000D03*
D16*
X211300000Y-58600000D03*
D17*
X215700000Y-53900000D03*
D16*
X218300000Y-59650000D03*
D18*
X207625000Y-58600000D03*
X221975000Y-59650000D03*
D16*
X116100000Y-73800000D03*
D17*
X120500000Y-69100000D03*
D16*
X123100000Y-74850000D03*
D18*
X112425000Y-73800000D03*
X126775000Y-74850000D03*
D16*
X135100000Y-71400000D03*
D17*
X139500000Y-66700000D03*
D16*
X142100000Y-72450000D03*
D18*
X131425000Y-71400000D03*
X145775000Y-72450000D03*
D16*
X154200000Y-70000000D03*
D17*
X158600000Y-65300000D03*
D16*
X161200000Y-71050000D03*
D18*
X150525000Y-70000000D03*
X164875000Y-71050000D03*
D16*
X173200000Y-71300000D03*
D17*
X177600000Y-66600000D03*
D16*
X180200000Y-72350000D03*
D18*
X169525000Y-71300000D03*
X183875000Y-72350000D03*
D16*
X192300000Y-76000000D03*
D17*
X196700000Y-71300000D03*
D16*
X199300000Y-77050000D03*
D18*
X188625000Y-76000000D03*
X202975000Y-77050000D03*
D16*
X211300000Y-77500000D03*
D17*
X215700000Y-72800000D03*
D16*
X218300000Y-78550000D03*
D18*
X207625000Y-77500000D03*
X221975000Y-78550000D03*
D16*
X116100000Y-92800000D03*
D17*
X120500000Y-88100000D03*
D16*
X123100000Y-93850000D03*
D18*
X112425000Y-92800000D03*
X126775000Y-93850000D03*
D16*
X135100000Y-90400000D03*
D17*
X139500000Y-85700000D03*
D16*
X142100000Y-91450000D03*
D18*
X131425000Y-90400000D03*
X145775000Y-91450000D03*
D16*
X154200000Y-89100000D03*
D17*
X158600000Y-84400000D03*
D16*
X161200000Y-90150000D03*
D18*
X150525000Y-89100000D03*
X164875000Y-90150000D03*
D16*
X173200000Y-90400000D03*
D17*
X177600000Y-85700000D03*
D16*
X180200000Y-91450000D03*
D18*
X169525000Y-90400000D03*
X183875000Y-91450000D03*
D16*
X192300000Y-95200000D03*
D17*
X196700000Y-90500000D03*
D16*
X199300000Y-96250000D03*
D18*
X188625000Y-95200000D03*
X202975000Y-96250000D03*
D16*
X211300000Y-96700000D03*
D17*
X215700000Y-92000000D03*
D16*
X218300000Y-97750000D03*
D18*
X207625000Y-96700000D03*
X221975000Y-97750000D03*
D16*
X116100000Y-111800000D03*
D17*
X120500000Y-107100000D03*
D16*
X123100000Y-112850000D03*
D18*
X112425000Y-111800000D03*
X126775000Y-112850000D03*
D16*
X135100000Y-109500000D03*
D17*
X139500000Y-104800000D03*
D16*
X142100000Y-110550000D03*
D18*
X131425000Y-109500000D03*
X145775000Y-110550000D03*
D16*
X154200000Y-108100000D03*
D17*
X158600000Y-103400000D03*
D16*
X161200000Y-109150000D03*
D18*
X150525000Y-108100000D03*
X164875000Y-109150000D03*
D16*
X173200000Y-109500000D03*
D17*
X177600000Y-104800000D03*
D16*
X180200000Y-110550000D03*
D18*
X169525000Y-109500000D03*
X183875000Y-110550000D03*
D16*
X192300000Y-114200000D03*
D17*
X196700000Y-109500000D03*
D16*
X199300000Y-115250000D03*
D18*
X188625000Y-114200000D03*
X202975000Y-115250000D03*
D16*
X211350000Y-115700000D03*
D17*
X215750000Y-111000000D03*
D16*
X218350000Y-116750000D03*
D18*
X207675000Y-115700000D03*
X222025000Y-116750000D03*
D16*
X97000000Y-102200000D03*
D17*
X101400000Y-97500000D03*
D16*
X104000000Y-103250000D03*
D18*
X93325000Y-102200000D03*
X107675000Y-103250000D03*
D16*
X98729681Y-125539488D03*
D17*
X105000000Y-127000000D03*
D16*
X101320354Y-132126666D03*
D19*
X96892181Y-122356845D03*
X103157854Y-135309309D03*
D16*
X125600000Y-130700000D03*
D17*
X130000000Y-126000000D03*
D16*
X132600000Y-131750000D03*
D18*
X121925000Y-130700000D03*
X136275000Y-131750000D03*
D16*
X144600000Y-128450000D03*
D17*
X149000000Y-123750000D03*
D16*
X151600000Y-129500000D03*
D18*
X140925000Y-128450000D03*
X155275000Y-129500000D03*
D16*
X163700000Y-128450000D03*
D17*
X168100000Y-123750000D03*
D16*
X170700000Y-129500000D03*
D18*
X160025000Y-128450000D03*
X174375000Y-129500000D03*
D20*
X86000000Y-85000000D03*
X108000000Y-85000000D03*
D21*
X101179800Y-75930000D03*
D22*
X101179800Y-73930000D03*
D23*
X126500000Y-48225000D03*
X126500000Y-51775000D03*
X145500000Y-45825000D03*
X145500000Y-49375000D03*
X164600000Y-44435000D03*
X164600000Y-47985000D03*
X183600000Y-45825000D03*
X183600000Y-49375000D03*
X202700000Y-50625000D03*
X202700000Y-54175000D03*
X221700000Y-52125000D03*
X221700000Y-55675000D03*
X126500000Y-67325000D03*
X126500000Y-70875000D03*
X145500000Y-64925000D03*
X145500000Y-68475000D03*
X164600000Y-63525000D03*
X164600000Y-67075000D03*
X183600000Y-64825000D03*
X183600000Y-68375000D03*
X202700000Y-69525000D03*
X202700000Y-73075000D03*
X221700000Y-71025000D03*
X221700000Y-74575000D03*
X126500000Y-86325000D03*
X126500000Y-89875000D03*
X145500000Y-83925000D03*
X145500000Y-87475000D03*
X164600000Y-82625000D03*
X164600000Y-86175000D03*
X183600000Y-83925000D03*
X183600000Y-87475000D03*
X202700000Y-88725000D03*
X202700000Y-92275000D03*
X221700000Y-90225000D03*
X221700000Y-93775000D03*
X126500000Y-105325000D03*
X126500000Y-108875000D03*
X145500000Y-103025000D03*
X145500000Y-106575000D03*
X164600000Y-101625000D03*
X164600000Y-105175000D03*
X183600000Y-103025000D03*
X183600000Y-106575000D03*
X202700000Y-107725000D03*
X202700000Y-111275000D03*
X221750000Y-109225000D03*
X221750000Y-112775000D03*
X107400000Y-95725000D03*
X107400000Y-99275000D03*
X111000000Y-125225000D03*
X111000000Y-128775000D03*
X136000000Y-124225000D03*
X136000000Y-127775000D03*
X155000000Y-121975000D03*
X155000000Y-125525000D03*
X174100000Y-121975000D03*
X174100000Y-125525000D03*
D24*
X97350000Y-37653000D03*
X97350000Y-39863000D03*
D25*
X99500000Y-38753000D03*
X102500000Y-38753000D03*
D24*
X104650000Y-37653000D03*
X104650000Y-39863000D03*
D26*
X98750000Y-40513000D03*
X101750000Y-40513000D03*
X103250000Y-40513000D03*
%LPD*%
M02*
