G04 #@! TF.GenerationSoftware,KiCad,Pcbnew,7.0.10*
G04 #@! TF.CreationDate,2024-03-21T01:04:01+01:00*
G04 #@! TF.ProjectId,allium58,616c6c69-756d-4353-982e-6b696361645f,rev?*
G04 #@! TF.SameCoordinates,Original*
G04 #@! TF.FileFunction,Soldermask,Top*
G04 #@! TF.FilePolarity,Negative*
%FSLAX46Y46*%
G04 Gerber Fmt 4.6, Leading zero omitted, Abs format (unit mm)*
G04 Created by KiCad (PCBNEW 7.0.10) date 2024-03-21 01:04:01*
%MOMM*%
%LPD*%
G01*
G04 APERTURE LIST*
G04 Aperture macros list*
%AMRoundRect*
0 Rectangle with rounded corners*
0 $1 Rounding radius*
0 $2 $3 $4 $5 $6 $7 $8 $9 X,Y pos of 4 corners*
0 Add a 4 corners polygon primitive as box body*
4,1,4,$2,$3,$4,$5,$6,$7,$8,$9,$2,$3,0*
0 Add four circle primitives for the rounded corners*
1,1,$1+$1,$2,$3*
1,1,$1+$1,$4,$5*
1,1,$1+$1,$6,$7*
1,1,$1+$1,$8,$9*
0 Add four rect primitives between the rounded corners*
20,1,$1+$1,$2,$3,$4,$5,0*
20,1,$1+$1,$4,$5,$6,$7,0*
20,1,$1+$1,$6,$7,$8,$9,0*
20,1,$1+$1,$8,$9,$2,$3,0*%
G04 Aperture macros list end*
%ADD10C,5.100000*%
%ADD11C,2.900000*%
%ADD12C,3.000000*%
%ADD13C,5.250000*%
%ADD14C,4.400000*%
%ADD15O,2.150000X1.600000*%
%ADD16RoundRect,0.333333X-0.741667X0.466667X-0.741667X-0.466667X0.741667X-0.466667X0.741667X0.466667X0*%
%ADD17C,1.300000*%
G04 APERTURE END LIST*
D10*
X129600000Y-59600000D03*
X205800000Y-61800000D03*
X129600000Y-97600000D03*
X205800000Y-100000000D03*
X105000000Y-114800000D03*
D11*
X86360000Y-46505000D03*
X86360000Y-40005000D03*
D12*
X116100000Y-54700000D03*
D13*
X120500000Y-50000000D03*
D12*
X123100000Y-55750000D03*
X135100000Y-52300000D03*
D13*
X139500000Y-47600000D03*
D12*
X142100000Y-53350000D03*
X154200000Y-50910000D03*
D13*
X158600000Y-46210000D03*
D12*
X161200000Y-51960000D03*
X173200000Y-52300000D03*
D13*
X177600000Y-47600000D03*
D12*
X180200000Y-53350000D03*
X192300000Y-57100000D03*
D13*
X196700000Y-52400000D03*
D12*
X199300000Y-58150000D03*
X211300000Y-58600000D03*
D13*
X215700000Y-53900000D03*
D12*
X218300000Y-59650000D03*
X116100000Y-73800000D03*
D13*
X120500000Y-69100000D03*
D12*
X123100000Y-74850000D03*
X135100000Y-71400000D03*
D13*
X139500000Y-66700000D03*
D12*
X142100000Y-72450000D03*
X154200000Y-70000000D03*
D13*
X158600000Y-65300000D03*
D12*
X161200000Y-71050000D03*
X173200000Y-71300000D03*
D13*
X177600000Y-66600000D03*
D12*
X180200000Y-72350000D03*
X192300000Y-76000000D03*
D13*
X196700000Y-71300000D03*
D12*
X199300000Y-77050000D03*
X211300000Y-77500000D03*
D13*
X215700000Y-72800000D03*
D12*
X218300000Y-78550000D03*
X116100000Y-92800000D03*
D13*
X120500000Y-88100000D03*
D12*
X123100000Y-93850000D03*
X135100000Y-90400000D03*
D13*
X139500000Y-85700000D03*
D12*
X142100000Y-91450000D03*
X154200000Y-89100000D03*
D13*
X158600000Y-84400000D03*
D12*
X161200000Y-90150000D03*
X173200000Y-90400000D03*
D13*
X177600000Y-85700000D03*
D12*
X180200000Y-91450000D03*
X192300000Y-95200000D03*
D13*
X196700000Y-90500000D03*
D12*
X199300000Y-96250000D03*
X211300000Y-96700000D03*
D13*
X215700000Y-92000000D03*
D12*
X218300000Y-97750000D03*
X116100000Y-111800000D03*
D13*
X120500000Y-107100000D03*
D12*
X123100000Y-112850000D03*
X135100000Y-109500000D03*
D13*
X139500000Y-104800000D03*
D12*
X142100000Y-110550000D03*
X154200000Y-108100000D03*
D13*
X158600000Y-103400000D03*
D12*
X161200000Y-109150000D03*
X173200000Y-109500000D03*
D13*
X177600000Y-104800000D03*
D12*
X180200000Y-110550000D03*
X192300000Y-114200000D03*
D13*
X196700000Y-109500000D03*
D12*
X199300000Y-115250000D03*
X211350000Y-115700000D03*
D13*
X215750000Y-111000000D03*
D12*
X218350000Y-116750000D03*
X97000000Y-102200000D03*
D13*
X101400000Y-97500000D03*
D12*
X104000000Y-103250000D03*
X98729681Y-125539488D03*
D13*
X105000000Y-127000000D03*
D12*
X101320354Y-132126666D03*
X125600000Y-130700000D03*
D13*
X130000000Y-126000000D03*
D12*
X132600000Y-131750000D03*
X144600000Y-128450000D03*
D13*
X149000000Y-123750000D03*
D12*
X151600000Y-129500000D03*
X163700000Y-128450000D03*
D13*
X168100000Y-123750000D03*
D12*
X170700000Y-129500000D03*
D14*
X86000000Y-85000000D03*
X108000000Y-85000000D03*
D15*
X101179800Y-75930000D03*
D16*
X101179800Y-73930000D03*
D17*
X99500000Y-38753000D03*
X102500000Y-38753000D03*
M02*
