M48
; DRILL file {KiCad 7.0.10} date Thu 21 Mar 2024 01:04:32 AM CET
; FORMAT={-:-/ absolute / metric / decimal}
; #@! TF.CreationDate,2024-03-21T01:04:32+01:00
; #@! TF.GenerationSoftware,Kicad,Pcbnew,7.0.10
; #@! TF.FileFunction,NonPlated,1,2,NPTH
FMAT,2
METRIC
; #@! TA.AperFunction,NonPlated,NPTH,ComponentDrill
T1C0.900
; #@! TA.AperFunction,NonPlated,NPTH,ComponentDrill
T2C3.000
; #@! TA.AperFunction,NonPlated,NPTH,ComponentDrill
T3C4.700
; #@! TA.AperFunction,NonPlated,NPTH,ComponentDrill
T4C5.250
%
G90
G05
T1
X99.5Y-38.753
X102.5Y-38.753
T2
X97.0Y-102.2
X98.73Y-125.539
X101.32Y-132.127
X104.0Y-103.25
X116.1Y-54.7
X116.1Y-73.8
X116.1Y-92.8
X116.1Y-111.8
X123.1Y-55.75
X123.1Y-74.85
X123.1Y-93.85
X123.1Y-112.85
X125.6Y-130.7
X132.6Y-131.75
X135.1Y-52.3
X135.1Y-71.4
X135.1Y-90.4
X135.1Y-109.5
X142.1Y-53.35
X142.1Y-72.45
X142.1Y-91.45
X142.1Y-110.55
X144.6Y-128.45
X151.6Y-129.5
X154.2Y-50.91
X154.2Y-70.0
X154.2Y-89.1
X154.2Y-108.1
X161.2Y-51.96
X161.2Y-71.05
X161.2Y-90.15
X161.2Y-109.15
X163.7Y-128.45
X170.7Y-129.5
X173.2Y-52.3
X173.2Y-71.3
X173.2Y-90.4
X173.2Y-109.5
X180.2Y-53.35
X180.2Y-72.35
X180.2Y-91.45
X180.2Y-110.55
X192.3Y-57.1
X192.3Y-76.0
X192.3Y-95.2
X192.3Y-114.2
X199.3Y-58.15
X199.3Y-77.05
X199.3Y-96.25
X199.3Y-115.25
X211.3Y-58.6
X211.3Y-77.5
X211.3Y-96.7
X211.35Y-115.7
X218.3Y-59.65
X218.3Y-78.55
X218.3Y-97.75
X218.35Y-116.75
T3
X105.0Y-114.8
X129.6Y-59.6
X129.6Y-97.6
X205.8Y-61.8
X205.8Y-100.0
T4
X101.4Y-97.5
X105.0Y-127.0
X120.5Y-50.0
X120.5Y-69.1
X120.5Y-88.1
X120.5Y-107.1
X130.0Y-126.0
X139.5Y-47.6
X139.5Y-66.7
X139.5Y-85.7
X139.5Y-104.8
X149.0Y-123.75
X158.6Y-46.21
X158.6Y-65.3
X158.6Y-84.4
X158.6Y-103.4
X168.1Y-123.75
X177.6Y-47.6
X177.6Y-66.6
X177.6Y-85.7
X177.6Y-104.8
X196.7Y-52.4
X196.7Y-71.3
X196.7Y-90.5
X196.7Y-109.5
X215.7Y-53.9
X215.7Y-72.8
X215.7Y-92.0
X215.75Y-111.0
M30
