M48
; DRILL file {KiCad 7.0.10} date Thu 21 Mar 2024 01:04:32 AM CET
; FORMAT={-:-/ absolute / metric / decimal}
; #@! TF.CreationDate,2024-03-21T01:04:32+01:00
; #@! TF.GenerationSoftware,Kicad,Pcbnew,7.0.10
; #@! TF.FileFunction,Plated,1,2,PTH
FMAT,2
METRIC
; #@! TA.AperFunction,Plated,PTH,ViaDrill
T1C0.300
; #@! TA.AperFunction,Plated,PTH,ComponentDrill
T2C0.750
; #@! TA.AperFunction,Plated,PTH,ComponentDrill
T3C0.813
; #@! TA.AperFunction,Plated,PTH,ComponentDrill
T4C1.300
; #@! TA.AperFunction,Plated,PTH,ComponentDrill
T5C2.400
%
G90
G05
T1
X91.669Y-115.646
X93.421Y-119.151
X94.183Y-105.994
X100.813Y-40.843
X101.117Y-117.704
X110.85Y-123.012
X111.684Y-102.667
X111.8Y-83.591
X112.522Y-114.071
X125.298Y-118.379
X126.568Y-103.835
X126.594Y-62.611
X126.67Y-45.11
X126.67Y-83.642
X130.81Y-116.459
X134.872Y-65.098
X136.068Y-122.733
X143.281Y-119.014
X145.517Y-81.051
X145.542Y-62.738
X145.593Y-43.561
X145.593Y-101.651
X150.139Y-117.932
X155.067Y-120.675
X160.071Y-119.71
X164.44Y-61.519
X164.541Y-42.647
X164.719Y-80.797
X164.871Y-99.974
X169.494Y-118.542
X173.838Y-120.802
X183.54Y-43.79
X183.54Y-61.595
X183.744Y-101.473
X183.896Y-81.864
X188.646Y-118.72
X189.315Y-59.147
X202.54Y-66.751
X202.692Y-48.209
X202.743Y-86.004
X202.768Y-106.147
X221.666Y-86.055
X221.717Y-49.911
X221.767Y-68.199
X221.767Y-107.467
T2
X101.18Y-73.93
X101.18Y-75.93
T3
X93.391Y-41.522
X93.391Y-44.062
X93.391Y-46.602
X93.391Y-49.142
X93.391Y-51.682
X93.391Y-54.222
X93.391Y-56.762
X93.391Y-59.302
X93.391Y-61.842
X93.391Y-64.382
X93.391Y-66.922
X93.391Y-69.462
X108.611Y-41.522
X108.611Y-44.062
X108.611Y-46.602
X108.611Y-49.142
X108.611Y-51.682
X108.611Y-54.222
X108.611Y-56.762
X108.611Y-59.302
X108.611Y-61.842
X108.611Y-64.382
X108.611Y-66.922
X108.611Y-69.462
T4
X86.36Y-40.005
X86.36Y-46.505
T5
X86.0Y-85.0
X108.0Y-85.0
M30
