%TF.GenerationSoftware,KiCad,Pcbnew,7.0.10*%
%TF.CreationDate,2024-03-21T01:04:33+01:00*%
%TF.ProjectId,allium58,616c6c69-756d-4353-982e-6b696361645f,rev?*%
%TF.SameCoordinates,Original*%
%TF.FileFunction,Drillmap*%
%TF.FilePolarity,Positive*%
%FSLAX45Y45*%
G04 Gerber Fmt 4.5, Leading zero omitted, Abs format (unit mm)*
G04 Created by KiCad (PCBNEW 7.0.10) date 2024-03-21 01:04:33*
%MOMM*%
%LPD*%
G01*
G04 APERTURE LIST*
%ADD10C,0.200000*%
%ADD11C,0.100000*%
%ADD12C,0.130000*%
%ADD13C,0.240000*%
G04 APERTURE END LIST*
D10*
X9439604Y-3708676D02*
X8398821Y-3708676D01*
X22426249Y-12075929D02*
X22396000Y-12078973D01*
X10948384Y-14036134D02*
X11115954Y-13939120D01*
X8377646Y-3710807D02*
X8398821Y-3708676D01*
X17831935Y-13159797D02*
X17831935Y-13281601D01*
X11115954Y-13939120D02*
X11283523Y-13842106D01*
X17831935Y-12672581D02*
X17831935Y-12794385D01*
X8999287Y-11998842D02*
X9166856Y-12285474D01*
X18708693Y-12078973D02*
X19235451Y-12078973D01*
X8324557Y-3739412D02*
X8340094Y-3726596D01*
X19762209Y-12078973D02*
X20288967Y-12078973D01*
X18991954Y-3758537D02*
X17898956Y-3721565D01*
X10428886Y-14335728D02*
X10445676Y-14327176D01*
X8293753Y-8228530D02*
X8293753Y-7597836D01*
X14643521Y-3708676D02*
X13602738Y-3708676D01*
X18111352Y-12086078D02*
X18181935Y-12078973D01*
X10413021Y-14340447D02*
X10428886Y-14335728D01*
X22546000Y-4343676D02*
X22427847Y-4215619D01*
X18045633Y-12106456D02*
X18111352Y-12086078D01*
X17986177Y-12138706D02*
X18045633Y-12106456D01*
X10613245Y-14230162D02*
X10780815Y-14133148D01*
X11786317Y-13551166D02*
X12523269Y-13551166D01*
X8311741Y-3754949D02*
X8324557Y-3739412D01*
X22502091Y-12035065D02*
X22479896Y-12053374D01*
X17831935Y-13401166D02*
X17828890Y-13431415D01*
X8357930Y-3716921D02*
X8377646Y-3710807D01*
X14734126Y-13551166D02*
X15471078Y-13551166D01*
X21342484Y-12078973D02*
X21869242Y-12078973D01*
X22546000Y-10980811D02*
X22546000Y-11928973D01*
X22454415Y-12067195D02*
X22426249Y-12075929D01*
X9166856Y-12285474D02*
X9334426Y-12572106D01*
X22546000Y-11928973D02*
X22542955Y-11959223D01*
X22427847Y-4215619D02*
X22088932Y-4096385D01*
X22546000Y-5291838D02*
X22546000Y-6240000D01*
X17740350Y-13539388D02*
X17712184Y-13548121D01*
X8293753Y-4444370D02*
X8293753Y-3813676D01*
X12561954Y-3708676D02*
X11521171Y-3708676D01*
X17828890Y-13431415D02*
X17820157Y-13459581D01*
X16725088Y-3708676D02*
X15684305Y-3708676D01*
X17788026Y-13507257D02*
X17765831Y-13525566D01*
X16944983Y-13551166D02*
X17681935Y-13551166D01*
X13602738Y-3708676D02*
X12561954Y-3708676D01*
X15684305Y-3708676D02*
X14643521Y-3708676D01*
X17820157Y-13459581D02*
X17806335Y-13485062D01*
X10780815Y-14133148D02*
X10948384Y-14036134D01*
X8349030Y-9665766D02*
X8402097Y-10069083D01*
X21552570Y-3988516D02*
X20842076Y-3894556D01*
X11451092Y-13745092D02*
X11618662Y-13648078D01*
X8293753Y-6336449D02*
X8293753Y-5705756D01*
X18181935Y-12078973D02*
X18708693Y-12078973D01*
X17831935Y-13281601D02*
X17831935Y-13401166D01*
X22546000Y-4343676D02*
X22546000Y-5291838D01*
X11521171Y-3708676D02*
X10480388Y-3708676D01*
X22546000Y-7188162D02*
X22546000Y-8136324D01*
X11283523Y-13842106D02*
X11451092Y-13745092D01*
X17891668Y-12233216D02*
X17934388Y-12181427D01*
X8293753Y-7597836D02*
X8293753Y-6967143D01*
X22542955Y-11959223D02*
X22534222Y-11987389D01*
X8302066Y-3772785D02*
X8311741Y-3754949D01*
X9501995Y-12858738D02*
X9669565Y-13145370D01*
X9837134Y-13432002D02*
X10004704Y-13718634D01*
X10480388Y-3708676D02*
X9439604Y-3708676D01*
X13997174Y-13551166D02*
X14734126Y-13551166D01*
X17839039Y-12358391D02*
X17859417Y-12292671D01*
X22546000Y-6240000D02*
X22546000Y-7188162D01*
X17806335Y-13485062D02*
X17788026Y-13507257D01*
X9334426Y-12572106D02*
X9501995Y-12858738D01*
X17831935Y-12428973D02*
X17831935Y-12550777D01*
X8474708Y-10469525D02*
X8568800Y-10864913D01*
X22479896Y-12053374D02*
X22454415Y-12067195D01*
X20288967Y-12078973D02*
X20815726Y-12078973D01*
X17831935Y-12916189D02*
X17831935Y-13037993D01*
X10384247Y-14338644D02*
X10398125Y-14341397D01*
X20842076Y-3894556D02*
X19980765Y-3817049D01*
X22520400Y-12012870D02*
X22502091Y-12035065D01*
X10349184Y-14308815D02*
X10359730Y-14322288D01*
X8340094Y-3726596D02*
X8357930Y-3716921D01*
X16208030Y-13551166D02*
X16944983Y-13551166D01*
X10445676Y-14327176D02*
X10613245Y-14230162D01*
X19980765Y-3817049D02*
X18991954Y-3758537D01*
X22534222Y-11987389D02*
X22520400Y-12012870D01*
X8402097Y-10069083D02*
X8474708Y-10469525D01*
X21869242Y-12078973D02*
X22396000Y-12078973D01*
X10004704Y-13718634D02*
X10172273Y-14005266D01*
X11618662Y-13648078D02*
X11786231Y-13551064D01*
X22088932Y-4096385D02*
X21552570Y-3988516D01*
X9669565Y-13145370D02*
X9837134Y-13432002D01*
X22546000Y-8136324D02*
X22546000Y-9084487D01*
X17831935Y-12550777D02*
X17831935Y-12672581D01*
X8295952Y-3792501D02*
X8302066Y-3772785D01*
X8568800Y-10864913D02*
X8686311Y-11253067D01*
X17859417Y-12292671D02*
X17891668Y-12233216D01*
X19235451Y-12078973D02*
X19762209Y-12078973D01*
X10339843Y-14291898D02*
X10349184Y-14308815D01*
X8293821Y-3813676D02*
X8295952Y-3792501D01*
X8829176Y-11631807D02*
X8999333Y-11998954D01*
X8313569Y-9261756D02*
X8349030Y-9665766D01*
X17831935Y-12428973D02*
X17839039Y-12358391D01*
X17765831Y-13525566D02*
X17740350Y-13539388D01*
X8293753Y-6967143D02*
X8293753Y-6336449D01*
X8293753Y-5705756D02*
X8293753Y-5075063D01*
X10172273Y-14005266D02*
X10339843Y-14291898D01*
X10359730Y-14322288D02*
X10371433Y-14332253D01*
X17831935Y-12794385D02*
X17831935Y-12916189D01*
X22546000Y-10032649D02*
X22546000Y-10980811D01*
X8293753Y-8859223D02*
X8293753Y-8228530D01*
X17831935Y-13037993D02*
X17831935Y-13159797D01*
X10371433Y-14332253D02*
X10384247Y-14338644D01*
X17898956Y-3721565D02*
X16725088Y-3708676D01*
X8293753Y-5075063D02*
X8293753Y-4444370D01*
X17934388Y-12181427D02*
X17986177Y-12138706D01*
X20815726Y-12078973D02*
X21342484Y-12078973D01*
X13260222Y-13551166D02*
X13997174Y-13551166D01*
X15471078Y-13551166D02*
X16208030Y-13551166D01*
X12523269Y-13551166D02*
X13260222Y-13551166D01*
X22546000Y-9084487D02*
X22546000Y-10032649D01*
X17712184Y-13548121D02*
X17681935Y-13551166D01*
X8293778Y-8859232D02*
X8313569Y-9261756D01*
X10398125Y-14341397D02*
X10413021Y-14340447D01*
X8686311Y-11253067D02*
X8829176Y-11631807D01*
D11*
X9151860Y-11549620D02*
X9181860Y-11579620D01*
X9181860Y-11549620D02*
X9151860Y-11579620D01*
X9327120Y-11900140D02*
X9357120Y-11930140D01*
X9357120Y-11900140D02*
X9327120Y-11930140D01*
X9403320Y-10584400D02*
X9433320Y-10614400D01*
X9433320Y-10584400D02*
X9403320Y-10614400D01*
X10066300Y-4069320D02*
X10096300Y-4099320D01*
X10096300Y-4069320D02*
X10066300Y-4099320D01*
X10096740Y-11755360D02*
X10126740Y-11785360D01*
X10126740Y-11755360D02*
X10096740Y-11785360D01*
X11070000Y-12286200D02*
X11100000Y-12316200D01*
X11100000Y-12286200D02*
X11070000Y-12316200D01*
X11153400Y-10251700D02*
X11183400Y-10281700D01*
X11183400Y-10251700D02*
X11153400Y-10281700D01*
X11165050Y-8344140D02*
X11195050Y-8374140D01*
X11195050Y-8344140D02*
X11165050Y-8374140D01*
X11237200Y-11392100D02*
X11267200Y-11422100D01*
X11267200Y-11392100D02*
X11237200Y-11422100D01*
X12514800Y-11822900D02*
X12544800Y-11852900D01*
X12544800Y-11822900D02*
X12514800Y-11852900D01*
X12641800Y-10368500D02*
X12671800Y-10398500D01*
X12671800Y-10368500D02*
X12641800Y-10398500D01*
X12644400Y-6246100D02*
X12674400Y-6276100D01*
X12674400Y-6246100D02*
X12644400Y-6276100D01*
X12652000Y-4496040D02*
X12682000Y-4526040D01*
X12682000Y-4496040D02*
X12652000Y-4526040D01*
X12652000Y-8349220D02*
X12682000Y-8379220D01*
X12682000Y-8349220D02*
X12652000Y-8379220D01*
X13066000Y-11630900D02*
X13096000Y-11660900D01*
X13096000Y-11630900D02*
X13066000Y-11660900D01*
X13472200Y-6494780D02*
X13502200Y-6524780D01*
X13502200Y-6494780D02*
X13472200Y-6524780D01*
X13591800Y-12258300D02*
X13621800Y-12288300D01*
X13621800Y-12258300D02*
X13591800Y-12288300D01*
X14313100Y-11886400D02*
X14343100Y-11916400D01*
X14343100Y-11886400D02*
X14313100Y-11916400D01*
X14536700Y-8090140D02*
X14566700Y-8120140D01*
X14566700Y-8090140D02*
X14536700Y-8120140D01*
X14539200Y-6258800D02*
X14569200Y-6288800D01*
X14569200Y-6258800D02*
X14539200Y-6288800D01*
X14544300Y-4341100D02*
X14574300Y-4371100D01*
X14574300Y-4341100D02*
X14544300Y-4371100D01*
X14544300Y-10150100D02*
X14574300Y-10180100D01*
X14574300Y-10150100D02*
X14544300Y-10180100D01*
X14998900Y-11778200D02*
X15028900Y-11808200D01*
X15028900Y-11778200D02*
X14998900Y-11808200D01*
X15491700Y-12052500D02*
X15521700Y-12082500D01*
X15521700Y-12052500D02*
X15491700Y-12082500D01*
X15992100Y-11956000D02*
X16022100Y-11986000D01*
X16022100Y-11956000D02*
X15992100Y-11986000D01*
X16429000Y-6136880D02*
X16459000Y-6166880D01*
X16459000Y-6136880D02*
X16429000Y-6166880D01*
X16439100Y-4249660D02*
X16469100Y-4279660D01*
X16469100Y-4249660D02*
X16439100Y-4279660D01*
X16456900Y-8064740D02*
X16486900Y-8094740D01*
X16486900Y-8064740D02*
X16456900Y-8094740D01*
X16472100Y-9982440D02*
X16502100Y-10012440D01*
X16502100Y-9982440D02*
X16472100Y-10012440D01*
X16934400Y-11839200D02*
X16964400Y-11869200D01*
X16964400Y-11839200D02*
X16934400Y-11869200D01*
X17368800Y-12065200D02*
X17398800Y-12095200D01*
X17398800Y-12065200D02*
X17368800Y-12095200D01*
X18339000Y-4363960D02*
X18369000Y-4393960D01*
X18369000Y-4363960D02*
X18339000Y-4393960D01*
X18339000Y-6144500D02*
X18369000Y-6174500D01*
X18369000Y-6144500D02*
X18339000Y-6174500D01*
X18359400Y-10132300D02*
X18389400Y-10162300D01*
X18389400Y-10132300D02*
X18359400Y-10162300D01*
X18374600Y-8171420D02*
X18404600Y-8201420D01*
X18404600Y-8171420D02*
X18374600Y-8201420D01*
X18849600Y-11857000D02*
X18879600Y-11887000D01*
X18879600Y-11857000D02*
X18849600Y-11887000D01*
X18916500Y-5899740D02*
X18946500Y-5929740D01*
X18946500Y-5899740D02*
X18916500Y-5929740D01*
X20239000Y-6660120D02*
X20269000Y-6690120D01*
X20269000Y-6660120D02*
X20239000Y-6690120D01*
X20254200Y-4805920D02*
X20284200Y-4835920D01*
X20284200Y-4805920D02*
X20254200Y-4835920D01*
X20259300Y-8585440D02*
X20289300Y-8615440D01*
X20289300Y-8585440D02*
X20259300Y-8615440D01*
X20261800Y-10599700D02*
X20291800Y-10629700D01*
X20291800Y-10599700D02*
X20261800Y-10629700D01*
X22151600Y-8590520D02*
X22181600Y-8620520D01*
X22181600Y-8590520D02*
X22151600Y-8620520D01*
X22156700Y-4976100D02*
X22186700Y-5006100D01*
X22186700Y-4976100D02*
X22156700Y-5006100D01*
X22161700Y-6804900D02*
X22191700Y-6834900D01*
X22191700Y-6804900D02*
X22161700Y-6834900D01*
X22161700Y-10731700D02*
X22191700Y-10761700D01*
X22191700Y-10731700D02*
X22161700Y-10761700D01*
X10155480Y-7393000D02*
G75*
G03*
X10080480Y-7393000I-37500J0D01*
G01*
X10080480Y-7393000D02*
G75*
G03*
X10155480Y-7393000I37500J0D01*
G01*
X10155480Y-7593000D02*
G75*
G03*
X10080480Y-7593000I-37500J0D01*
G01*
X10080480Y-7593000D02*
G75*
G03*
X10155480Y-7593000I37500J0D01*
G01*
X9339140Y-4111560D02*
X9339140Y-4192840D01*
X9298500Y-4152200D02*
X9379780Y-4152200D01*
X9339140Y-4365560D02*
X9339140Y-4446840D01*
X9298500Y-4406200D02*
X9379780Y-4406200D01*
X9339140Y-4619560D02*
X9339140Y-4700840D01*
X9298500Y-4660200D02*
X9379780Y-4660200D01*
X9339140Y-4873560D02*
X9339140Y-4954840D01*
X9298500Y-4914200D02*
X9379780Y-4914200D01*
X9339140Y-5127560D02*
X9339140Y-5208840D01*
X9298500Y-5168200D02*
X9379780Y-5168200D01*
X9339140Y-5381560D02*
X9339140Y-5462840D01*
X9298500Y-5422200D02*
X9379780Y-5422200D01*
X9339140Y-5635560D02*
X9339140Y-5716840D01*
X9298500Y-5676200D02*
X9379780Y-5676200D01*
X9339140Y-5889560D02*
X9339140Y-5970840D01*
X9298500Y-5930200D02*
X9379780Y-5930200D01*
X9339140Y-6143560D02*
X9339140Y-6224840D01*
X9298500Y-6184200D02*
X9379780Y-6184200D01*
X9339140Y-6397560D02*
X9339140Y-6478840D01*
X9298500Y-6438200D02*
X9379780Y-6438200D01*
X9339140Y-6651560D02*
X9339140Y-6732840D01*
X9298500Y-6692200D02*
X9379780Y-6692200D01*
X9339140Y-6905560D02*
X9339140Y-6986840D01*
X9298500Y-6946200D02*
X9379780Y-6946200D01*
X10861140Y-4111560D02*
X10861140Y-4192840D01*
X10820500Y-4152200D02*
X10901780Y-4152200D01*
X10861140Y-4365560D02*
X10861140Y-4446840D01*
X10820500Y-4406200D02*
X10901780Y-4406200D01*
X10861140Y-4619560D02*
X10861140Y-4700840D01*
X10820500Y-4660200D02*
X10901780Y-4660200D01*
X10861140Y-4873560D02*
X10861140Y-4954840D01*
X10820500Y-4914200D02*
X10901780Y-4914200D01*
X10861140Y-5127560D02*
X10861140Y-5208840D01*
X10820500Y-5168200D02*
X10901780Y-5168200D01*
X10861140Y-5381560D02*
X10861140Y-5462840D01*
X10820500Y-5422200D02*
X10901780Y-5422200D01*
X10861140Y-5635560D02*
X10861140Y-5716840D01*
X10820500Y-5676200D02*
X10901780Y-5676200D01*
X10861140Y-5889560D02*
X10861140Y-5970840D01*
X10820500Y-5930200D02*
X10901780Y-5930200D01*
X10861140Y-6143560D02*
X10861140Y-6224840D01*
X10820500Y-6184200D02*
X10901780Y-6184200D01*
X10861140Y-6397560D02*
X10861140Y-6478840D01*
X10820500Y-6438200D02*
X10901780Y-6438200D01*
X10861140Y-6651560D02*
X10861140Y-6732840D01*
X10820500Y-6692200D02*
X10901780Y-6692200D01*
X10861140Y-6905560D02*
X10861140Y-6986840D01*
X10820500Y-6946200D02*
X10901780Y-6946200D01*
D12*
X8681962Y-4046462D02*
X8681962Y-3954538D01*
X8590038Y-3954538D01*
X8590038Y-4046462D01*
X8681962Y-4046462D01*
X8681962Y-4696462D02*
X8681962Y-4604538D01*
X8590038Y-4604538D01*
X8590038Y-4696462D01*
X8681962Y-4696462D01*
D13*
X8600000Y-8620000D02*
X8720000Y-8500000D01*
X8600000Y-8380000D01*
X8480000Y-8500000D01*
X8600000Y-8620000D01*
X10800000Y-8620000D02*
X10920000Y-8500000D01*
X10800000Y-8380000D01*
X10680000Y-8500000D01*
X10800000Y-8620000D01*
D10*
X8544530Y-14662881D02*
X8544530Y-14462881D01*
X8544530Y-14462881D02*
X8592149Y-14462881D01*
X8592149Y-14462881D02*
X8620720Y-14472405D01*
X8620720Y-14472405D02*
X8639768Y-14491453D01*
X8639768Y-14491453D02*
X8649292Y-14510500D01*
X8649292Y-14510500D02*
X8658815Y-14548595D01*
X8658815Y-14548595D02*
X8658815Y-14577167D01*
X8658815Y-14577167D02*
X8649292Y-14615262D01*
X8649292Y-14615262D02*
X8639768Y-14634310D01*
X8639768Y-14634310D02*
X8620720Y-14653357D01*
X8620720Y-14653357D02*
X8592149Y-14662881D01*
X8592149Y-14662881D02*
X8544530Y-14662881D01*
X8744530Y-14662881D02*
X8744530Y-14529548D01*
X8744530Y-14567643D02*
X8754053Y-14548595D01*
X8754053Y-14548595D02*
X8763577Y-14539072D01*
X8763577Y-14539072D02*
X8782625Y-14529548D01*
X8782625Y-14529548D02*
X8801673Y-14529548D01*
X8868339Y-14662881D02*
X8868339Y-14529548D01*
X8868339Y-14462881D02*
X8858815Y-14472405D01*
X8858815Y-14472405D02*
X8868339Y-14481929D01*
X8868339Y-14481929D02*
X8877863Y-14472405D01*
X8877863Y-14472405D02*
X8868339Y-14462881D01*
X8868339Y-14462881D02*
X8868339Y-14481929D01*
X8992149Y-14662881D02*
X8973101Y-14653357D01*
X8973101Y-14653357D02*
X8963577Y-14634310D01*
X8963577Y-14634310D02*
X8963577Y-14462881D01*
X9096911Y-14662881D02*
X9077863Y-14653357D01*
X9077863Y-14653357D02*
X9068339Y-14634310D01*
X9068339Y-14634310D02*
X9068339Y-14462881D01*
X9325482Y-14662881D02*
X9325482Y-14462881D01*
X9325482Y-14462881D02*
X9392149Y-14605738D01*
X9392149Y-14605738D02*
X9458815Y-14462881D01*
X9458815Y-14462881D02*
X9458815Y-14662881D01*
X9639768Y-14662881D02*
X9639768Y-14558119D01*
X9639768Y-14558119D02*
X9630244Y-14539072D01*
X9630244Y-14539072D02*
X9611196Y-14529548D01*
X9611196Y-14529548D02*
X9573101Y-14529548D01*
X9573101Y-14529548D02*
X9554053Y-14539072D01*
X9639768Y-14653357D02*
X9620720Y-14662881D01*
X9620720Y-14662881D02*
X9573101Y-14662881D01*
X9573101Y-14662881D02*
X9554053Y-14653357D01*
X9554053Y-14653357D02*
X9544530Y-14634310D01*
X9544530Y-14634310D02*
X9544530Y-14615262D01*
X9544530Y-14615262D02*
X9554053Y-14596214D01*
X9554053Y-14596214D02*
X9573101Y-14586691D01*
X9573101Y-14586691D02*
X9620720Y-14586691D01*
X9620720Y-14586691D02*
X9639768Y-14577167D01*
X9735006Y-14529548D02*
X9735006Y-14729548D01*
X9735006Y-14539072D02*
X9754053Y-14529548D01*
X9754053Y-14529548D02*
X9792149Y-14529548D01*
X9792149Y-14529548D02*
X9811196Y-14539072D01*
X9811196Y-14539072D02*
X9820720Y-14548595D01*
X9820720Y-14548595D02*
X9830244Y-14567643D01*
X9830244Y-14567643D02*
X9830244Y-14624786D01*
X9830244Y-14624786D02*
X9820720Y-14643833D01*
X9820720Y-14643833D02*
X9811196Y-14653357D01*
X9811196Y-14653357D02*
X9792149Y-14662881D01*
X9792149Y-14662881D02*
X9754053Y-14662881D01*
X9754053Y-14662881D02*
X9735006Y-14653357D01*
X9915958Y-14643833D02*
X9925482Y-14653357D01*
X9925482Y-14653357D02*
X9915958Y-14662881D01*
X9915958Y-14662881D02*
X9906434Y-14653357D01*
X9906434Y-14653357D02*
X9915958Y-14643833D01*
X9915958Y-14643833D02*
X9915958Y-14662881D01*
X9915958Y-14539072D02*
X9925482Y-14548595D01*
X9925482Y-14548595D02*
X9915958Y-14558119D01*
X9915958Y-14558119D02*
X9906434Y-14548595D01*
X9906434Y-14548595D02*
X9915958Y-14539072D01*
X9915958Y-14539072D02*
X9915958Y-14558119D01*
D11*
X8253753Y-14976397D02*
X8283753Y-15006397D01*
X8283753Y-14976397D02*
X8253753Y-15006397D01*
D10*
X8582625Y-14882881D02*
X8601673Y-14882881D01*
X8601673Y-14882881D02*
X8620720Y-14892405D01*
X8620720Y-14892405D02*
X8630244Y-14901929D01*
X8630244Y-14901929D02*
X8639768Y-14920976D01*
X8639768Y-14920976D02*
X8649292Y-14959072D01*
X8649292Y-14959072D02*
X8649292Y-15006691D01*
X8649292Y-15006691D02*
X8639768Y-15044786D01*
X8639768Y-15044786D02*
X8630244Y-15063833D01*
X8630244Y-15063833D02*
X8620720Y-15073357D01*
X8620720Y-15073357D02*
X8601673Y-15082881D01*
X8601673Y-15082881D02*
X8582625Y-15082881D01*
X8582625Y-15082881D02*
X8563577Y-15073357D01*
X8563577Y-15073357D02*
X8554053Y-15063833D01*
X8554053Y-15063833D02*
X8544530Y-15044786D01*
X8544530Y-15044786D02*
X8535006Y-15006691D01*
X8535006Y-15006691D02*
X8535006Y-14959072D01*
X8535006Y-14959072D02*
X8544530Y-14920976D01*
X8544530Y-14920976D02*
X8554053Y-14901929D01*
X8554053Y-14901929D02*
X8563577Y-14892405D01*
X8563577Y-14892405D02*
X8582625Y-14882881D01*
X8735006Y-15063833D02*
X8744530Y-15073357D01*
X8744530Y-15073357D02*
X8735006Y-15082881D01*
X8735006Y-15082881D02*
X8725482Y-15073357D01*
X8725482Y-15073357D02*
X8735006Y-15063833D01*
X8735006Y-15063833D02*
X8735006Y-15082881D01*
X8811196Y-14882881D02*
X8935006Y-14882881D01*
X8935006Y-14882881D02*
X8868339Y-14959072D01*
X8868339Y-14959072D02*
X8896911Y-14959072D01*
X8896911Y-14959072D02*
X8915958Y-14968595D01*
X8915958Y-14968595D02*
X8925482Y-14978119D01*
X8925482Y-14978119D02*
X8935006Y-14997167D01*
X8935006Y-14997167D02*
X8935006Y-15044786D01*
X8935006Y-15044786D02*
X8925482Y-15063833D01*
X8925482Y-15063833D02*
X8915958Y-15073357D01*
X8915958Y-15073357D02*
X8896911Y-15082881D01*
X8896911Y-15082881D02*
X8839768Y-15082881D01*
X8839768Y-15082881D02*
X8820720Y-15073357D01*
X8820720Y-15073357D02*
X8811196Y-15063833D01*
X9058815Y-14882881D02*
X9077863Y-14882881D01*
X9077863Y-14882881D02*
X9096911Y-14892405D01*
X9096911Y-14892405D02*
X9106434Y-14901929D01*
X9106434Y-14901929D02*
X9115958Y-14920976D01*
X9115958Y-14920976D02*
X9125482Y-14959072D01*
X9125482Y-14959072D02*
X9125482Y-15006691D01*
X9125482Y-15006691D02*
X9115958Y-15044786D01*
X9115958Y-15044786D02*
X9106434Y-15063833D01*
X9106434Y-15063833D02*
X9096911Y-15073357D01*
X9096911Y-15073357D02*
X9077863Y-15082881D01*
X9077863Y-15082881D02*
X9058815Y-15082881D01*
X9058815Y-15082881D02*
X9039768Y-15073357D01*
X9039768Y-15073357D02*
X9030244Y-15063833D01*
X9030244Y-15063833D02*
X9020720Y-15044786D01*
X9020720Y-15044786D02*
X9011196Y-15006691D01*
X9011196Y-15006691D02*
X9011196Y-14959072D01*
X9011196Y-14959072D02*
X9020720Y-14920976D01*
X9020720Y-14920976D02*
X9030244Y-14901929D01*
X9030244Y-14901929D02*
X9039768Y-14892405D01*
X9039768Y-14892405D02*
X9058815Y-14882881D01*
X9249292Y-14882881D02*
X9268339Y-14882881D01*
X9268339Y-14882881D02*
X9287387Y-14892405D01*
X9287387Y-14892405D02*
X9296911Y-14901929D01*
X9296911Y-14901929D02*
X9306434Y-14920976D01*
X9306434Y-14920976D02*
X9315958Y-14959072D01*
X9315958Y-14959072D02*
X9315958Y-15006691D01*
X9315958Y-15006691D02*
X9306434Y-15044786D01*
X9306434Y-15044786D02*
X9296911Y-15063833D01*
X9296911Y-15063833D02*
X9287387Y-15073357D01*
X9287387Y-15073357D02*
X9268339Y-15082881D01*
X9268339Y-15082881D02*
X9249292Y-15082881D01*
X9249292Y-15082881D02*
X9230244Y-15073357D01*
X9230244Y-15073357D02*
X9220720Y-15063833D01*
X9220720Y-15063833D02*
X9211196Y-15044786D01*
X9211196Y-15044786D02*
X9201673Y-15006691D01*
X9201673Y-15006691D02*
X9201673Y-14959072D01*
X9201673Y-14959072D02*
X9211196Y-14920976D01*
X9211196Y-14920976D02*
X9220720Y-14901929D01*
X9220720Y-14901929D02*
X9230244Y-14892405D01*
X9230244Y-14892405D02*
X9249292Y-14882881D01*
X9401673Y-15082881D02*
X9401673Y-14949548D01*
X9401673Y-14968595D02*
X9411196Y-14959072D01*
X9411196Y-14959072D02*
X9430244Y-14949548D01*
X9430244Y-14949548D02*
X9458815Y-14949548D01*
X9458815Y-14949548D02*
X9477863Y-14959072D01*
X9477863Y-14959072D02*
X9487387Y-14978119D01*
X9487387Y-14978119D02*
X9487387Y-15082881D01*
X9487387Y-14978119D02*
X9496911Y-14959072D01*
X9496911Y-14959072D02*
X9515958Y-14949548D01*
X9515958Y-14949548D02*
X9544530Y-14949548D01*
X9544530Y-14949548D02*
X9563577Y-14959072D01*
X9563577Y-14959072D02*
X9573101Y-14978119D01*
X9573101Y-14978119D02*
X9573101Y-15082881D01*
X9668339Y-15082881D02*
X9668339Y-14949548D01*
X9668339Y-14968595D02*
X9677863Y-14959072D01*
X9677863Y-14959072D02*
X9696911Y-14949548D01*
X9696911Y-14949548D02*
X9725482Y-14949548D01*
X9725482Y-14949548D02*
X9744530Y-14959072D01*
X9744530Y-14959072D02*
X9754054Y-14978119D01*
X9754054Y-14978119D02*
X9754054Y-15082881D01*
X9754054Y-14978119D02*
X9763577Y-14959072D01*
X9763577Y-14959072D02*
X9782625Y-14949548D01*
X9782625Y-14949548D02*
X9811196Y-14949548D01*
X9811196Y-14949548D02*
X9830244Y-14959072D01*
X9830244Y-14959072D02*
X9839768Y-14978119D01*
X9839768Y-14978119D02*
X9839768Y-15082881D01*
X10230244Y-14873357D02*
X10058816Y-15130500D01*
X10487387Y-14882881D02*
X10506435Y-14882881D01*
X10506435Y-14882881D02*
X10525482Y-14892405D01*
X10525482Y-14892405D02*
X10535006Y-14901929D01*
X10535006Y-14901929D02*
X10544530Y-14920976D01*
X10544530Y-14920976D02*
X10554054Y-14959072D01*
X10554054Y-14959072D02*
X10554054Y-15006691D01*
X10554054Y-15006691D02*
X10544530Y-15044786D01*
X10544530Y-15044786D02*
X10535006Y-15063833D01*
X10535006Y-15063833D02*
X10525482Y-15073357D01*
X10525482Y-15073357D02*
X10506435Y-15082881D01*
X10506435Y-15082881D02*
X10487387Y-15082881D01*
X10487387Y-15082881D02*
X10468339Y-15073357D01*
X10468339Y-15073357D02*
X10458816Y-15063833D01*
X10458816Y-15063833D02*
X10449292Y-15044786D01*
X10449292Y-15044786D02*
X10439768Y-15006691D01*
X10439768Y-15006691D02*
X10439768Y-14959072D01*
X10439768Y-14959072D02*
X10449292Y-14920976D01*
X10449292Y-14920976D02*
X10458816Y-14901929D01*
X10458816Y-14901929D02*
X10468339Y-14892405D01*
X10468339Y-14892405D02*
X10487387Y-14882881D01*
X10639768Y-15063833D02*
X10649292Y-15073357D01*
X10649292Y-15073357D02*
X10639768Y-15082881D01*
X10639768Y-15082881D02*
X10630244Y-15073357D01*
X10630244Y-15073357D02*
X10639768Y-15063833D01*
X10639768Y-15063833D02*
X10639768Y-15082881D01*
X10773101Y-14882881D02*
X10792149Y-14882881D01*
X10792149Y-14882881D02*
X10811197Y-14892405D01*
X10811197Y-14892405D02*
X10820720Y-14901929D01*
X10820720Y-14901929D02*
X10830244Y-14920976D01*
X10830244Y-14920976D02*
X10839768Y-14959072D01*
X10839768Y-14959072D02*
X10839768Y-15006691D01*
X10839768Y-15006691D02*
X10830244Y-15044786D01*
X10830244Y-15044786D02*
X10820720Y-15063833D01*
X10820720Y-15063833D02*
X10811197Y-15073357D01*
X10811197Y-15073357D02*
X10792149Y-15082881D01*
X10792149Y-15082881D02*
X10773101Y-15082881D01*
X10773101Y-15082881D02*
X10754054Y-15073357D01*
X10754054Y-15073357D02*
X10744530Y-15063833D01*
X10744530Y-15063833D02*
X10735006Y-15044786D01*
X10735006Y-15044786D02*
X10725482Y-15006691D01*
X10725482Y-15006691D02*
X10725482Y-14959072D01*
X10725482Y-14959072D02*
X10735006Y-14920976D01*
X10735006Y-14920976D02*
X10744530Y-14901929D01*
X10744530Y-14901929D02*
X10754054Y-14892405D01*
X10754054Y-14892405D02*
X10773101Y-14882881D01*
X11030244Y-15082881D02*
X10915958Y-15082881D01*
X10973101Y-15082881D02*
X10973101Y-14882881D01*
X10973101Y-14882881D02*
X10954054Y-14911453D01*
X10954054Y-14911453D02*
X10935006Y-14930500D01*
X10935006Y-14930500D02*
X10915958Y-14940024D01*
X11220720Y-15082881D02*
X11106435Y-15082881D01*
X11163577Y-15082881D02*
X11163577Y-14882881D01*
X11163577Y-14882881D02*
X11144530Y-14911453D01*
X11144530Y-14911453D02*
X11125482Y-14930500D01*
X11125482Y-14930500D02*
X11106435Y-14940024D01*
X11335006Y-14968595D02*
X11315958Y-14959072D01*
X11315958Y-14959072D02*
X11306435Y-14949548D01*
X11306435Y-14949548D02*
X11296911Y-14930500D01*
X11296911Y-14930500D02*
X11296911Y-14920976D01*
X11296911Y-14920976D02*
X11306435Y-14901929D01*
X11306435Y-14901929D02*
X11315958Y-14892405D01*
X11315958Y-14892405D02*
X11335006Y-14882881D01*
X11335006Y-14882881D02*
X11373101Y-14882881D01*
X11373101Y-14882881D02*
X11392149Y-14892405D01*
X11392149Y-14892405D02*
X11401673Y-14901929D01*
X11401673Y-14901929D02*
X11411196Y-14920976D01*
X11411196Y-14920976D02*
X11411196Y-14930500D01*
X11411196Y-14930500D02*
X11401673Y-14949548D01*
X11401673Y-14949548D02*
X11392149Y-14959072D01*
X11392149Y-14959072D02*
X11373101Y-14968595D01*
X11373101Y-14968595D02*
X11335006Y-14968595D01*
X11335006Y-14968595D02*
X11315958Y-14978119D01*
X11315958Y-14978119D02*
X11306435Y-14987643D01*
X11306435Y-14987643D02*
X11296911Y-15006691D01*
X11296911Y-15006691D02*
X11296911Y-15044786D01*
X11296911Y-15044786D02*
X11306435Y-15063833D01*
X11306435Y-15063833D02*
X11315958Y-15073357D01*
X11315958Y-15073357D02*
X11335006Y-15082881D01*
X11335006Y-15082881D02*
X11373101Y-15082881D01*
X11373101Y-15082881D02*
X11392149Y-15073357D01*
X11392149Y-15073357D02*
X11401673Y-15063833D01*
X11401673Y-15063833D02*
X11411196Y-15044786D01*
X11411196Y-15044786D02*
X11411196Y-15006691D01*
X11411196Y-15006691D02*
X11401673Y-14987643D01*
X11401673Y-14987643D02*
X11392149Y-14978119D01*
X11392149Y-14978119D02*
X11373101Y-14968595D01*
X11487387Y-14882881D02*
X11487387Y-14920976D01*
X11563577Y-14882881D02*
X11563577Y-14920976D01*
X11858816Y-15159072D02*
X11849292Y-15149548D01*
X11849292Y-15149548D02*
X11830244Y-15120976D01*
X11830244Y-15120976D02*
X11820720Y-15101929D01*
X11820720Y-15101929D02*
X11811197Y-15073357D01*
X11811197Y-15073357D02*
X11801673Y-15025738D01*
X11801673Y-15025738D02*
X11801673Y-14987643D01*
X11801673Y-14987643D02*
X11811197Y-14940024D01*
X11811197Y-14940024D02*
X11820720Y-14911453D01*
X11820720Y-14911453D02*
X11830244Y-14892405D01*
X11830244Y-14892405D02*
X11849292Y-14863833D01*
X11849292Y-14863833D02*
X11858816Y-14854310D01*
X12020720Y-14949548D02*
X12020720Y-15082881D01*
X11973101Y-14873357D02*
X11925482Y-15016214D01*
X11925482Y-15016214D02*
X12049292Y-15016214D01*
X12220720Y-14882881D02*
X12125482Y-14882881D01*
X12125482Y-14882881D02*
X12115958Y-14978119D01*
X12115958Y-14978119D02*
X12125482Y-14968595D01*
X12125482Y-14968595D02*
X12144530Y-14959072D01*
X12144530Y-14959072D02*
X12192149Y-14959072D01*
X12192149Y-14959072D02*
X12211197Y-14968595D01*
X12211197Y-14968595D02*
X12220720Y-14978119D01*
X12220720Y-14978119D02*
X12230244Y-14997167D01*
X12230244Y-14997167D02*
X12230244Y-15044786D01*
X12230244Y-15044786D02*
X12220720Y-15063833D01*
X12220720Y-15063833D02*
X12211197Y-15073357D01*
X12211197Y-15073357D02*
X12192149Y-15082881D01*
X12192149Y-15082881D02*
X12144530Y-15082881D01*
X12144530Y-15082881D02*
X12125482Y-15073357D01*
X12125482Y-15073357D02*
X12115958Y-15063833D01*
X12468339Y-15082881D02*
X12468339Y-14882881D01*
X12554054Y-15082881D02*
X12554054Y-14978119D01*
X12554054Y-14978119D02*
X12544530Y-14959072D01*
X12544530Y-14959072D02*
X12525482Y-14949548D01*
X12525482Y-14949548D02*
X12496911Y-14949548D01*
X12496911Y-14949548D02*
X12477863Y-14959072D01*
X12477863Y-14959072D02*
X12468339Y-14968595D01*
X12677863Y-15082881D02*
X12658816Y-15073357D01*
X12658816Y-15073357D02*
X12649292Y-15063833D01*
X12649292Y-15063833D02*
X12639768Y-15044786D01*
X12639768Y-15044786D02*
X12639768Y-14987643D01*
X12639768Y-14987643D02*
X12649292Y-14968595D01*
X12649292Y-14968595D02*
X12658816Y-14959072D01*
X12658816Y-14959072D02*
X12677863Y-14949548D01*
X12677863Y-14949548D02*
X12706435Y-14949548D01*
X12706435Y-14949548D02*
X12725482Y-14959072D01*
X12725482Y-14959072D02*
X12735006Y-14968595D01*
X12735006Y-14968595D02*
X12744530Y-14987643D01*
X12744530Y-14987643D02*
X12744530Y-15044786D01*
X12744530Y-15044786D02*
X12735006Y-15063833D01*
X12735006Y-15063833D02*
X12725482Y-15073357D01*
X12725482Y-15073357D02*
X12706435Y-15082881D01*
X12706435Y-15082881D02*
X12677863Y-15082881D01*
X12858816Y-15082881D02*
X12839768Y-15073357D01*
X12839768Y-15073357D02*
X12830244Y-15054310D01*
X12830244Y-15054310D02*
X12830244Y-14882881D01*
X13011197Y-15073357D02*
X12992149Y-15082881D01*
X12992149Y-15082881D02*
X12954054Y-15082881D01*
X12954054Y-15082881D02*
X12935006Y-15073357D01*
X12935006Y-15073357D02*
X12925482Y-15054310D01*
X12925482Y-15054310D02*
X12925482Y-14978119D01*
X12925482Y-14978119D02*
X12935006Y-14959072D01*
X12935006Y-14959072D02*
X12954054Y-14949548D01*
X12954054Y-14949548D02*
X12992149Y-14949548D01*
X12992149Y-14949548D02*
X13011197Y-14959072D01*
X13011197Y-14959072D02*
X13020720Y-14978119D01*
X13020720Y-14978119D02*
X13020720Y-14997167D01*
X13020720Y-14997167D02*
X12925482Y-15016214D01*
X13096911Y-15073357D02*
X13115959Y-15082881D01*
X13115959Y-15082881D02*
X13154054Y-15082881D01*
X13154054Y-15082881D02*
X13173101Y-15073357D01*
X13173101Y-15073357D02*
X13182625Y-15054310D01*
X13182625Y-15054310D02*
X13182625Y-15044786D01*
X13182625Y-15044786D02*
X13173101Y-15025738D01*
X13173101Y-15025738D02*
X13154054Y-15016214D01*
X13154054Y-15016214D02*
X13125482Y-15016214D01*
X13125482Y-15016214D02*
X13106435Y-15006691D01*
X13106435Y-15006691D02*
X13096911Y-14987643D01*
X13096911Y-14987643D02*
X13096911Y-14978119D01*
X13096911Y-14978119D02*
X13106435Y-14959072D01*
X13106435Y-14959072D02*
X13125482Y-14949548D01*
X13125482Y-14949548D02*
X13154054Y-14949548D01*
X13154054Y-14949548D02*
X13173101Y-14959072D01*
X13249292Y-15159072D02*
X13258816Y-15149548D01*
X13258816Y-15149548D02*
X13277863Y-15120976D01*
X13277863Y-15120976D02*
X13287387Y-15101929D01*
X13287387Y-15101929D02*
X13296911Y-15073357D01*
X13296911Y-15073357D02*
X13306435Y-15025738D01*
X13306435Y-15025738D02*
X13306435Y-14987643D01*
X13306435Y-14987643D02*
X13296911Y-14940024D01*
X13296911Y-14940024D02*
X13287387Y-14911453D01*
X13287387Y-14911453D02*
X13277863Y-14892405D01*
X13277863Y-14892405D02*
X13258816Y-14863833D01*
X13258816Y-14863833D02*
X13249292Y-14854310D01*
D11*
X8283753Y-15255397D02*
G75*
G03*
X8208753Y-15255397I-37500J0D01*
G01*
X8208753Y-15255397D02*
G75*
G03*
X8283753Y-15255397I37500J0D01*
G01*
D10*
X8582625Y-15146881D02*
X8601673Y-15146881D01*
X8601673Y-15146881D02*
X8620720Y-15156405D01*
X8620720Y-15156405D02*
X8630244Y-15165929D01*
X8630244Y-15165929D02*
X8639768Y-15184976D01*
X8639768Y-15184976D02*
X8649292Y-15223072D01*
X8649292Y-15223072D02*
X8649292Y-15270691D01*
X8649292Y-15270691D02*
X8639768Y-15308786D01*
X8639768Y-15308786D02*
X8630244Y-15327833D01*
X8630244Y-15327833D02*
X8620720Y-15337357D01*
X8620720Y-15337357D02*
X8601673Y-15346881D01*
X8601673Y-15346881D02*
X8582625Y-15346881D01*
X8582625Y-15346881D02*
X8563577Y-15337357D01*
X8563577Y-15337357D02*
X8554053Y-15327833D01*
X8554053Y-15327833D02*
X8544530Y-15308786D01*
X8544530Y-15308786D02*
X8535006Y-15270691D01*
X8535006Y-15270691D02*
X8535006Y-15223072D01*
X8535006Y-15223072D02*
X8544530Y-15184976D01*
X8544530Y-15184976D02*
X8554053Y-15165929D01*
X8554053Y-15165929D02*
X8563577Y-15156405D01*
X8563577Y-15156405D02*
X8582625Y-15146881D01*
X8735006Y-15327833D02*
X8744530Y-15337357D01*
X8744530Y-15337357D02*
X8735006Y-15346881D01*
X8735006Y-15346881D02*
X8725482Y-15337357D01*
X8725482Y-15337357D02*
X8735006Y-15327833D01*
X8735006Y-15327833D02*
X8735006Y-15346881D01*
X8811196Y-15146881D02*
X8944530Y-15146881D01*
X8944530Y-15146881D02*
X8858815Y-15346881D01*
X9115958Y-15146881D02*
X9020720Y-15146881D01*
X9020720Y-15146881D02*
X9011196Y-15242119D01*
X9011196Y-15242119D02*
X9020720Y-15232595D01*
X9020720Y-15232595D02*
X9039768Y-15223072D01*
X9039768Y-15223072D02*
X9087387Y-15223072D01*
X9087387Y-15223072D02*
X9106434Y-15232595D01*
X9106434Y-15232595D02*
X9115958Y-15242119D01*
X9115958Y-15242119D02*
X9125482Y-15261167D01*
X9125482Y-15261167D02*
X9125482Y-15308786D01*
X9125482Y-15308786D02*
X9115958Y-15327833D01*
X9115958Y-15327833D02*
X9106434Y-15337357D01*
X9106434Y-15337357D02*
X9087387Y-15346881D01*
X9087387Y-15346881D02*
X9039768Y-15346881D01*
X9039768Y-15346881D02*
X9020720Y-15337357D01*
X9020720Y-15337357D02*
X9011196Y-15327833D01*
X9249292Y-15146881D02*
X9268339Y-15146881D01*
X9268339Y-15146881D02*
X9287387Y-15156405D01*
X9287387Y-15156405D02*
X9296911Y-15165929D01*
X9296911Y-15165929D02*
X9306434Y-15184976D01*
X9306434Y-15184976D02*
X9315958Y-15223072D01*
X9315958Y-15223072D02*
X9315958Y-15270691D01*
X9315958Y-15270691D02*
X9306434Y-15308786D01*
X9306434Y-15308786D02*
X9296911Y-15327833D01*
X9296911Y-15327833D02*
X9287387Y-15337357D01*
X9287387Y-15337357D02*
X9268339Y-15346881D01*
X9268339Y-15346881D02*
X9249292Y-15346881D01*
X9249292Y-15346881D02*
X9230244Y-15337357D01*
X9230244Y-15337357D02*
X9220720Y-15327833D01*
X9220720Y-15327833D02*
X9211196Y-15308786D01*
X9211196Y-15308786D02*
X9201673Y-15270691D01*
X9201673Y-15270691D02*
X9201673Y-15223072D01*
X9201673Y-15223072D02*
X9211196Y-15184976D01*
X9211196Y-15184976D02*
X9220720Y-15165929D01*
X9220720Y-15165929D02*
X9230244Y-15156405D01*
X9230244Y-15156405D02*
X9249292Y-15146881D01*
X9401673Y-15346881D02*
X9401673Y-15213548D01*
X9401673Y-15232595D02*
X9411196Y-15223072D01*
X9411196Y-15223072D02*
X9430244Y-15213548D01*
X9430244Y-15213548D02*
X9458815Y-15213548D01*
X9458815Y-15213548D02*
X9477863Y-15223072D01*
X9477863Y-15223072D02*
X9487387Y-15242119D01*
X9487387Y-15242119D02*
X9487387Y-15346881D01*
X9487387Y-15242119D02*
X9496911Y-15223072D01*
X9496911Y-15223072D02*
X9515958Y-15213548D01*
X9515958Y-15213548D02*
X9544530Y-15213548D01*
X9544530Y-15213548D02*
X9563577Y-15223072D01*
X9563577Y-15223072D02*
X9573101Y-15242119D01*
X9573101Y-15242119D02*
X9573101Y-15346881D01*
X9668339Y-15346881D02*
X9668339Y-15213548D01*
X9668339Y-15232595D02*
X9677863Y-15223072D01*
X9677863Y-15223072D02*
X9696911Y-15213548D01*
X9696911Y-15213548D02*
X9725482Y-15213548D01*
X9725482Y-15213548D02*
X9744530Y-15223072D01*
X9744530Y-15223072D02*
X9754054Y-15242119D01*
X9754054Y-15242119D02*
X9754054Y-15346881D01*
X9754054Y-15242119D02*
X9763577Y-15223072D01*
X9763577Y-15223072D02*
X9782625Y-15213548D01*
X9782625Y-15213548D02*
X9811196Y-15213548D01*
X9811196Y-15213548D02*
X9830244Y-15223072D01*
X9830244Y-15223072D02*
X9839768Y-15242119D01*
X9839768Y-15242119D02*
X9839768Y-15346881D01*
X10230244Y-15137357D02*
X10058816Y-15394500D01*
X10487387Y-15146881D02*
X10506435Y-15146881D01*
X10506435Y-15146881D02*
X10525482Y-15156405D01*
X10525482Y-15156405D02*
X10535006Y-15165929D01*
X10535006Y-15165929D02*
X10544530Y-15184976D01*
X10544530Y-15184976D02*
X10554054Y-15223072D01*
X10554054Y-15223072D02*
X10554054Y-15270691D01*
X10554054Y-15270691D02*
X10544530Y-15308786D01*
X10544530Y-15308786D02*
X10535006Y-15327833D01*
X10535006Y-15327833D02*
X10525482Y-15337357D01*
X10525482Y-15337357D02*
X10506435Y-15346881D01*
X10506435Y-15346881D02*
X10487387Y-15346881D01*
X10487387Y-15346881D02*
X10468339Y-15337357D01*
X10468339Y-15337357D02*
X10458816Y-15327833D01*
X10458816Y-15327833D02*
X10449292Y-15308786D01*
X10449292Y-15308786D02*
X10439768Y-15270691D01*
X10439768Y-15270691D02*
X10439768Y-15223072D01*
X10439768Y-15223072D02*
X10449292Y-15184976D01*
X10449292Y-15184976D02*
X10458816Y-15165929D01*
X10458816Y-15165929D02*
X10468339Y-15156405D01*
X10468339Y-15156405D02*
X10487387Y-15146881D01*
X10639768Y-15327833D02*
X10649292Y-15337357D01*
X10649292Y-15337357D02*
X10639768Y-15346881D01*
X10639768Y-15346881D02*
X10630244Y-15337357D01*
X10630244Y-15337357D02*
X10639768Y-15327833D01*
X10639768Y-15327833D02*
X10639768Y-15346881D01*
X10773101Y-15146881D02*
X10792149Y-15146881D01*
X10792149Y-15146881D02*
X10811197Y-15156405D01*
X10811197Y-15156405D02*
X10820720Y-15165929D01*
X10820720Y-15165929D02*
X10830244Y-15184976D01*
X10830244Y-15184976D02*
X10839768Y-15223072D01*
X10839768Y-15223072D02*
X10839768Y-15270691D01*
X10839768Y-15270691D02*
X10830244Y-15308786D01*
X10830244Y-15308786D02*
X10820720Y-15327833D01*
X10820720Y-15327833D02*
X10811197Y-15337357D01*
X10811197Y-15337357D02*
X10792149Y-15346881D01*
X10792149Y-15346881D02*
X10773101Y-15346881D01*
X10773101Y-15346881D02*
X10754054Y-15337357D01*
X10754054Y-15337357D02*
X10744530Y-15327833D01*
X10744530Y-15327833D02*
X10735006Y-15308786D01*
X10735006Y-15308786D02*
X10725482Y-15270691D01*
X10725482Y-15270691D02*
X10725482Y-15223072D01*
X10725482Y-15223072D02*
X10735006Y-15184976D01*
X10735006Y-15184976D02*
X10744530Y-15165929D01*
X10744530Y-15165929D02*
X10754054Y-15156405D01*
X10754054Y-15156405D02*
X10773101Y-15146881D01*
X10915958Y-15165929D02*
X10925482Y-15156405D01*
X10925482Y-15156405D02*
X10944530Y-15146881D01*
X10944530Y-15146881D02*
X10992149Y-15146881D01*
X10992149Y-15146881D02*
X11011197Y-15156405D01*
X11011197Y-15156405D02*
X11020720Y-15165929D01*
X11020720Y-15165929D02*
X11030244Y-15184976D01*
X11030244Y-15184976D02*
X11030244Y-15204024D01*
X11030244Y-15204024D02*
X11020720Y-15232595D01*
X11020720Y-15232595D02*
X10906435Y-15346881D01*
X10906435Y-15346881D02*
X11030244Y-15346881D01*
X11125482Y-15346881D02*
X11163577Y-15346881D01*
X11163577Y-15346881D02*
X11182625Y-15337357D01*
X11182625Y-15337357D02*
X11192149Y-15327833D01*
X11192149Y-15327833D02*
X11211196Y-15299262D01*
X11211196Y-15299262D02*
X11220720Y-15261167D01*
X11220720Y-15261167D02*
X11220720Y-15184976D01*
X11220720Y-15184976D02*
X11211196Y-15165929D01*
X11211196Y-15165929D02*
X11201673Y-15156405D01*
X11201673Y-15156405D02*
X11182625Y-15146881D01*
X11182625Y-15146881D02*
X11144530Y-15146881D01*
X11144530Y-15146881D02*
X11125482Y-15156405D01*
X11125482Y-15156405D02*
X11115958Y-15165929D01*
X11115958Y-15165929D02*
X11106435Y-15184976D01*
X11106435Y-15184976D02*
X11106435Y-15232595D01*
X11106435Y-15232595D02*
X11115958Y-15251643D01*
X11115958Y-15251643D02*
X11125482Y-15261167D01*
X11125482Y-15261167D02*
X11144530Y-15270691D01*
X11144530Y-15270691D02*
X11182625Y-15270691D01*
X11182625Y-15270691D02*
X11201673Y-15261167D01*
X11201673Y-15261167D02*
X11211196Y-15251643D01*
X11211196Y-15251643D02*
X11220720Y-15232595D01*
X11401673Y-15146881D02*
X11306435Y-15146881D01*
X11306435Y-15146881D02*
X11296911Y-15242119D01*
X11296911Y-15242119D02*
X11306435Y-15232595D01*
X11306435Y-15232595D02*
X11325482Y-15223072D01*
X11325482Y-15223072D02*
X11373101Y-15223072D01*
X11373101Y-15223072D02*
X11392149Y-15232595D01*
X11392149Y-15232595D02*
X11401673Y-15242119D01*
X11401673Y-15242119D02*
X11411196Y-15261167D01*
X11411196Y-15261167D02*
X11411196Y-15308786D01*
X11411196Y-15308786D02*
X11401673Y-15327833D01*
X11401673Y-15327833D02*
X11392149Y-15337357D01*
X11392149Y-15337357D02*
X11373101Y-15346881D01*
X11373101Y-15346881D02*
X11325482Y-15346881D01*
X11325482Y-15346881D02*
X11306435Y-15337357D01*
X11306435Y-15337357D02*
X11296911Y-15327833D01*
X11487387Y-15146881D02*
X11487387Y-15184976D01*
X11563577Y-15146881D02*
X11563577Y-15184976D01*
X11858816Y-15423072D02*
X11849292Y-15413548D01*
X11849292Y-15413548D02*
X11830244Y-15384976D01*
X11830244Y-15384976D02*
X11820720Y-15365929D01*
X11820720Y-15365929D02*
X11811197Y-15337357D01*
X11811197Y-15337357D02*
X11801673Y-15289738D01*
X11801673Y-15289738D02*
X11801673Y-15251643D01*
X11801673Y-15251643D02*
X11811197Y-15204024D01*
X11811197Y-15204024D02*
X11820720Y-15175453D01*
X11820720Y-15175453D02*
X11830244Y-15156405D01*
X11830244Y-15156405D02*
X11849292Y-15127833D01*
X11849292Y-15127833D02*
X11858816Y-15118310D01*
X11925482Y-15165929D02*
X11935006Y-15156405D01*
X11935006Y-15156405D02*
X11954054Y-15146881D01*
X11954054Y-15146881D02*
X12001673Y-15146881D01*
X12001673Y-15146881D02*
X12020720Y-15156405D01*
X12020720Y-15156405D02*
X12030244Y-15165929D01*
X12030244Y-15165929D02*
X12039768Y-15184976D01*
X12039768Y-15184976D02*
X12039768Y-15204024D01*
X12039768Y-15204024D02*
X12030244Y-15232595D01*
X12030244Y-15232595D02*
X11915958Y-15346881D01*
X11915958Y-15346881D02*
X12039768Y-15346881D01*
X12277863Y-15346881D02*
X12277863Y-15146881D01*
X12363578Y-15346881D02*
X12363578Y-15242119D01*
X12363578Y-15242119D02*
X12354054Y-15223072D01*
X12354054Y-15223072D02*
X12335006Y-15213548D01*
X12335006Y-15213548D02*
X12306435Y-15213548D01*
X12306435Y-15213548D02*
X12287387Y-15223072D01*
X12287387Y-15223072D02*
X12277863Y-15232595D01*
X12487387Y-15346881D02*
X12468339Y-15337357D01*
X12468339Y-15337357D02*
X12458816Y-15327833D01*
X12458816Y-15327833D02*
X12449292Y-15308786D01*
X12449292Y-15308786D02*
X12449292Y-15251643D01*
X12449292Y-15251643D02*
X12458816Y-15232595D01*
X12458816Y-15232595D02*
X12468339Y-15223072D01*
X12468339Y-15223072D02*
X12487387Y-15213548D01*
X12487387Y-15213548D02*
X12515959Y-15213548D01*
X12515959Y-15213548D02*
X12535006Y-15223072D01*
X12535006Y-15223072D02*
X12544530Y-15232595D01*
X12544530Y-15232595D02*
X12554054Y-15251643D01*
X12554054Y-15251643D02*
X12554054Y-15308786D01*
X12554054Y-15308786D02*
X12544530Y-15327833D01*
X12544530Y-15327833D02*
X12535006Y-15337357D01*
X12535006Y-15337357D02*
X12515959Y-15346881D01*
X12515959Y-15346881D02*
X12487387Y-15346881D01*
X12668339Y-15346881D02*
X12649292Y-15337357D01*
X12649292Y-15337357D02*
X12639768Y-15318310D01*
X12639768Y-15318310D02*
X12639768Y-15146881D01*
X12820720Y-15337357D02*
X12801673Y-15346881D01*
X12801673Y-15346881D02*
X12763578Y-15346881D01*
X12763578Y-15346881D02*
X12744530Y-15337357D01*
X12744530Y-15337357D02*
X12735006Y-15318310D01*
X12735006Y-15318310D02*
X12735006Y-15242119D01*
X12735006Y-15242119D02*
X12744530Y-15223072D01*
X12744530Y-15223072D02*
X12763578Y-15213548D01*
X12763578Y-15213548D02*
X12801673Y-15213548D01*
X12801673Y-15213548D02*
X12820720Y-15223072D01*
X12820720Y-15223072D02*
X12830244Y-15242119D01*
X12830244Y-15242119D02*
X12830244Y-15261167D01*
X12830244Y-15261167D02*
X12735006Y-15280214D01*
X12906435Y-15337357D02*
X12925482Y-15346881D01*
X12925482Y-15346881D02*
X12963578Y-15346881D01*
X12963578Y-15346881D02*
X12982625Y-15337357D01*
X12982625Y-15337357D02*
X12992149Y-15318310D01*
X12992149Y-15318310D02*
X12992149Y-15308786D01*
X12992149Y-15308786D02*
X12982625Y-15289738D01*
X12982625Y-15289738D02*
X12963578Y-15280214D01*
X12963578Y-15280214D02*
X12935006Y-15280214D01*
X12935006Y-15280214D02*
X12915959Y-15270691D01*
X12915959Y-15270691D02*
X12906435Y-15251643D01*
X12906435Y-15251643D02*
X12906435Y-15242119D01*
X12906435Y-15242119D02*
X12915959Y-15223072D01*
X12915959Y-15223072D02*
X12935006Y-15213548D01*
X12935006Y-15213548D02*
X12963578Y-15213548D01*
X12963578Y-15213548D02*
X12982625Y-15223072D01*
X13058816Y-15423072D02*
X13068340Y-15413548D01*
X13068340Y-15413548D02*
X13087387Y-15384976D01*
X13087387Y-15384976D02*
X13096911Y-15365929D01*
X13096911Y-15365929D02*
X13106435Y-15337357D01*
X13106435Y-15337357D02*
X13115959Y-15289738D01*
X13115959Y-15289738D02*
X13115959Y-15251643D01*
X13115959Y-15251643D02*
X13106435Y-15204024D01*
X13106435Y-15204024D02*
X13096911Y-15175453D01*
X13096911Y-15175453D02*
X13087387Y-15156405D01*
X13087387Y-15156405D02*
X13068340Y-15127833D01*
X13068340Y-15127833D02*
X13058816Y-15118310D01*
D11*
X8243113Y-15478757D02*
X8243113Y-15560037D01*
X8202473Y-15519397D02*
X8283753Y-15519397D01*
D10*
X8582625Y-15410881D02*
X8601673Y-15410881D01*
X8601673Y-15410881D02*
X8620720Y-15420405D01*
X8620720Y-15420405D02*
X8630244Y-15429929D01*
X8630244Y-15429929D02*
X8639768Y-15448976D01*
X8639768Y-15448976D02*
X8649292Y-15487072D01*
X8649292Y-15487072D02*
X8649292Y-15534691D01*
X8649292Y-15534691D02*
X8639768Y-15572786D01*
X8639768Y-15572786D02*
X8630244Y-15591833D01*
X8630244Y-15591833D02*
X8620720Y-15601357D01*
X8620720Y-15601357D02*
X8601673Y-15610881D01*
X8601673Y-15610881D02*
X8582625Y-15610881D01*
X8582625Y-15610881D02*
X8563577Y-15601357D01*
X8563577Y-15601357D02*
X8554053Y-15591833D01*
X8554053Y-15591833D02*
X8544530Y-15572786D01*
X8544530Y-15572786D02*
X8535006Y-15534691D01*
X8535006Y-15534691D02*
X8535006Y-15487072D01*
X8535006Y-15487072D02*
X8544530Y-15448976D01*
X8544530Y-15448976D02*
X8554053Y-15429929D01*
X8554053Y-15429929D02*
X8563577Y-15420405D01*
X8563577Y-15420405D02*
X8582625Y-15410881D01*
X8735006Y-15591833D02*
X8744530Y-15601357D01*
X8744530Y-15601357D02*
X8735006Y-15610881D01*
X8735006Y-15610881D02*
X8725482Y-15601357D01*
X8725482Y-15601357D02*
X8735006Y-15591833D01*
X8735006Y-15591833D02*
X8735006Y-15610881D01*
X8858815Y-15496595D02*
X8839768Y-15487072D01*
X8839768Y-15487072D02*
X8830244Y-15477548D01*
X8830244Y-15477548D02*
X8820720Y-15458500D01*
X8820720Y-15458500D02*
X8820720Y-15448976D01*
X8820720Y-15448976D02*
X8830244Y-15429929D01*
X8830244Y-15429929D02*
X8839768Y-15420405D01*
X8839768Y-15420405D02*
X8858815Y-15410881D01*
X8858815Y-15410881D02*
X8896911Y-15410881D01*
X8896911Y-15410881D02*
X8915958Y-15420405D01*
X8915958Y-15420405D02*
X8925482Y-15429929D01*
X8925482Y-15429929D02*
X8935006Y-15448976D01*
X8935006Y-15448976D02*
X8935006Y-15458500D01*
X8935006Y-15458500D02*
X8925482Y-15477548D01*
X8925482Y-15477548D02*
X8915958Y-15487072D01*
X8915958Y-15487072D02*
X8896911Y-15496595D01*
X8896911Y-15496595D02*
X8858815Y-15496595D01*
X8858815Y-15496595D02*
X8839768Y-15506119D01*
X8839768Y-15506119D02*
X8830244Y-15515643D01*
X8830244Y-15515643D02*
X8820720Y-15534691D01*
X8820720Y-15534691D02*
X8820720Y-15572786D01*
X8820720Y-15572786D02*
X8830244Y-15591833D01*
X8830244Y-15591833D02*
X8839768Y-15601357D01*
X8839768Y-15601357D02*
X8858815Y-15610881D01*
X8858815Y-15610881D02*
X8896911Y-15610881D01*
X8896911Y-15610881D02*
X8915958Y-15601357D01*
X8915958Y-15601357D02*
X8925482Y-15591833D01*
X8925482Y-15591833D02*
X8935006Y-15572786D01*
X8935006Y-15572786D02*
X8935006Y-15534691D01*
X8935006Y-15534691D02*
X8925482Y-15515643D01*
X8925482Y-15515643D02*
X8915958Y-15506119D01*
X8915958Y-15506119D02*
X8896911Y-15496595D01*
X9125482Y-15610881D02*
X9011196Y-15610881D01*
X9068339Y-15610881D02*
X9068339Y-15410881D01*
X9068339Y-15410881D02*
X9049292Y-15439453D01*
X9049292Y-15439453D02*
X9030244Y-15458500D01*
X9030244Y-15458500D02*
X9011196Y-15468024D01*
X9192149Y-15410881D02*
X9315958Y-15410881D01*
X9315958Y-15410881D02*
X9249292Y-15487072D01*
X9249292Y-15487072D02*
X9277863Y-15487072D01*
X9277863Y-15487072D02*
X9296911Y-15496595D01*
X9296911Y-15496595D02*
X9306434Y-15506119D01*
X9306434Y-15506119D02*
X9315958Y-15525167D01*
X9315958Y-15525167D02*
X9315958Y-15572786D01*
X9315958Y-15572786D02*
X9306434Y-15591833D01*
X9306434Y-15591833D02*
X9296911Y-15601357D01*
X9296911Y-15601357D02*
X9277863Y-15610881D01*
X9277863Y-15610881D02*
X9220720Y-15610881D01*
X9220720Y-15610881D02*
X9201673Y-15601357D01*
X9201673Y-15601357D02*
X9192149Y-15591833D01*
X9401673Y-15610881D02*
X9401673Y-15477548D01*
X9401673Y-15496595D02*
X9411196Y-15487072D01*
X9411196Y-15487072D02*
X9430244Y-15477548D01*
X9430244Y-15477548D02*
X9458815Y-15477548D01*
X9458815Y-15477548D02*
X9477863Y-15487072D01*
X9477863Y-15487072D02*
X9487387Y-15506119D01*
X9487387Y-15506119D02*
X9487387Y-15610881D01*
X9487387Y-15506119D02*
X9496911Y-15487072D01*
X9496911Y-15487072D02*
X9515958Y-15477548D01*
X9515958Y-15477548D02*
X9544530Y-15477548D01*
X9544530Y-15477548D02*
X9563577Y-15487072D01*
X9563577Y-15487072D02*
X9573101Y-15506119D01*
X9573101Y-15506119D02*
X9573101Y-15610881D01*
X9668339Y-15610881D02*
X9668339Y-15477548D01*
X9668339Y-15496595D02*
X9677863Y-15487072D01*
X9677863Y-15487072D02*
X9696911Y-15477548D01*
X9696911Y-15477548D02*
X9725482Y-15477548D01*
X9725482Y-15477548D02*
X9744530Y-15487072D01*
X9744530Y-15487072D02*
X9754054Y-15506119D01*
X9754054Y-15506119D02*
X9754054Y-15610881D01*
X9754054Y-15506119D02*
X9763577Y-15487072D01*
X9763577Y-15487072D02*
X9782625Y-15477548D01*
X9782625Y-15477548D02*
X9811196Y-15477548D01*
X9811196Y-15477548D02*
X9830244Y-15487072D01*
X9830244Y-15487072D02*
X9839768Y-15506119D01*
X9839768Y-15506119D02*
X9839768Y-15610881D01*
X10230244Y-15401357D02*
X10058816Y-15658500D01*
X10487387Y-15410881D02*
X10506435Y-15410881D01*
X10506435Y-15410881D02*
X10525482Y-15420405D01*
X10525482Y-15420405D02*
X10535006Y-15429929D01*
X10535006Y-15429929D02*
X10544530Y-15448976D01*
X10544530Y-15448976D02*
X10554054Y-15487072D01*
X10554054Y-15487072D02*
X10554054Y-15534691D01*
X10554054Y-15534691D02*
X10544530Y-15572786D01*
X10544530Y-15572786D02*
X10535006Y-15591833D01*
X10535006Y-15591833D02*
X10525482Y-15601357D01*
X10525482Y-15601357D02*
X10506435Y-15610881D01*
X10506435Y-15610881D02*
X10487387Y-15610881D01*
X10487387Y-15610881D02*
X10468339Y-15601357D01*
X10468339Y-15601357D02*
X10458816Y-15591833D01*
X10458816Y-15591833D02*
X10449292Y-15572786D01*
X10449292Y-15572786D02*
X10439768Y-15534691D01*
X10439768Y-15534691D02*
X10439768Y-15487072D01*
X10439768Y-15487072D02*
X10449292Y-15448976D01*
X10449292Y-15448976D02*
X10458816Y-15429929D01*
X10458816Y-15429929D02*
X10468339Y-15420405D01*
X10468339Y-15420405D02*
X10487387Y-15410881D01*
X10639768Y-15591833D02*
X10649292Y-15601357D01*
X10649292Y-15601357D02*
X10639768Y-15610881D01*
X10639768Y-15610881D02*
X10630244Y-15601357D01*
X10630244Y-15601357D02*
X10639768Y-15591833D01*
X10639768Y-15591833D02*
X10639768Y-15610881D01*
X10773101Y-15410881D02*
X10792149Y-15410881D01*
X10792149Y-15410881D02*
X10811197Y-15420405D01*
X10811197Y-15420405D02*
X10820720Y-15429929D01*
X10820720Y-15429929D02*
X10830244Y-15448976D01*
X10830244Y-15448976D02*
X10839768Y-15487072D01*
X10839768Y-15487072D02*
X10839768Y-15534691D01*
X10839768Y-15534691D02*
X10830244Y-15572786D01*
X10830244Y-15572786D02*
X10820720Y-15591833D01*
X10820720Y-15591833D02*
X10811197Y-15601357D01*
X10811197Y-15601357D02*
X10792149Y-15610881D01*
X10792149Y-15610881D02*
X10773101Y-15610881D01*
X10773101Y-15610881D02*
X10754054Y-15601357D01*
X10754054Y-15601357D02*
X10744530Y-15591833D01*
X10744530Y-15591833D02*
X10735006Y-15572786D01*
X10735006Y-15572786D02*
X10725482Y-15534691D01*
X10725482Y-15534691D02*
X10725482Y-15487072D01*
X10725482Y-15487072D02*
X10735006Y-15448976D01*
X10735006Y-15448976D02*
X10744530Y-15429929D01*
X10744530Y-15429929D02*
X10754054Y-15420405D01*
X10754054Y-15420405D02*
X10773101Y-15410881D01*
X10906435Y-15410881D02*
X11030244Y-15410881D01*
X11030244Y-15410881D02*
X10963577Y-15487072D01*
X10963577Y-15487072D02*
X10992149Y-15487072D01*
X10992149Y-15487072D02*
X11011197Y-15496595D01*
X11011197Y-15496595D02*
X11020720Y-15506119D01*
X11020720Y-15506119D02*
X11030244Y-15525167D01*
X11030244Y-15525167D02*
X11030244Y-15572786D01*
X11030244Y-15572786D02*
X11020720Y-15591833D01*
X11020720Y-15591833D02*
X11011197Y-15601357D01*
X11011197Y-15601357D02*
X10992149Y-15610881D01*
X10992149Y-15610881D02*
X10935006Y-15610881D01*
X10935006Y-15610881D02*
X10915958Y-15601357D01*
X10915958Y-15601357D02*
X10906435Y-15591833D01*
X11106435Y-15429929D02*
X11115958Y-15420405D01*
X11115958Y-15420405D02*
X11135006Y-15410881D01*
X11135006Y-15410881D02*
X11182625Y-15410881D01*
X11182625Y-15410881D02*
X11201673Y-15420405D01*
X11201673Y-15420405D02*
X11211196Y-15429929D01*
X11211196Y-15429929D02*
X11220720Y-15448976D01*
X11220720Y-15448976D02*
X11220720Y-15468024D01*
X11220720Y-15468024D02*
X11211196Y-15496595D01*
X11211196Y-15496595D02*
X11096911Y-15610881D01*
X11096911Y-15610881D02*
X11220720Y-15610881D01*
X11344530Y-15410881D02*
X11363577Y-15410881D01*
X11363577Y-15410881D02*
X11382625Y-15420405D01*
X11382625Y-15420405D02*
X11392149Y-15429929D01*
X11392149Y-15429929D02*
X11401673Y-15448976D01*
X11401673Y-15448976D02*
X11411196Y-15487072D01*
X11411196Y-15487072D02*
X11411196Y-15534691D01*
X11411196Y-15534691D02*
X11401673Y-15572786D01*
X11401673Y-15572786D02*
X11392149Y-15591833D01*
X11392149Y-15591833D02*
X11382625Y-15601357D01*
X11382625Y-15601357D02*
X11363577Y-15610881D01*
X11363577Y-15610881D02*
X11344530Y-15610881D01*
X11344530Y-15610881D02*
X11325482Y-15601357D01*
X11325482Y-15601357D02*
X11315958Y-15591833D01*
X11315958Y-15591833D02*
X11306435Y-15572786D01*
X11306435Y-15572786D02*
X11296911Y-15534691D01*
X11296911Y-15534691D02*
X11296911Y-15487072D01*
X11296911Y-15487072D02*
X11306435Y-15448976D01*
X11306435Y-15448976D02*
X11315958Y-15429929D01*
X11315958Y-15429929D02*
X11325482Y-15420405D01*
X11325482Y-15420405D02*
X11344530Y-15410881D01*
X11487387Y-15410881D02*
X11487387Y-15448976D01*
X11563577Y-15410881D02*
X11563577Y-15448976D01*
X11858816Y-15687072D02*
X11849292Y-15677548D01*
X11849292Y-15677548D02*
X11830244Y-15648976D01*
X11830244Y-15648976D02*
X11820720Y-15629929D01*
X11820720Y-15629929D02*
X11811197Y-15601357D01*
X11811197Y-15601357D02*
X11801673Y-15553738D01*
X11801673Y-15553738D02*
X11801673Y-15515643D01*
X11801673Y-15515643D02*
X11811197Y-15468024D01*
X11811197Y-15468024D02*
X11820720Y-15439453D01*
X11820720Y-15439453D02*
X11830244Y-15420405D01*
X11830244Y-15420405D02*
X11849292Y-15391833D01*
X11849292Y-15391833D02*
X11858816Y-15382310D01*
X11925482Y-15429929D02*
X11935006Y-15420405D01*
X11935006Y-15420405D02*
X11954054Y-15410881D01*
X11954054Y-15410881D02*
X12001673Y-15410881D01*
X12001673Y-15410881D02*
X12020720Y-15420405D01*
X12020720Y-15420405D02*
X12030244Y-15429929D01*
X12030244Y-15429929D02*
X12039768Y-15448976D01*
X12039768Y-15448976D02*
X12039768Y-15468024D01*
X12039768Y-15468024D02*
X12030244Y-15496595D01*
X12030244Y-15496595D02*
X11915958Y-15610881D01*
X11915958Y-15610881D02*
X12039768Y-15610881D01*
X12211197Y-15477548D02*
X12211197Y-15610881D01*
X12163577Y-15401357D02*
X12115958Y-15544214D01*
X12115958Y-15544214D02*
X12239768Y-15544214D01*
X12468339Y-15610881D02*
X12468339Y-15410881D01*
X12554054Y-15610881D02*
X12554054Y-15506119D01*
X12554054Y-15506119D02*
X12544530Y-15487072D01*
X12544530Y-15487072D02*
X12525482Y-15477548D01*
X12525482Y-15477548D02*
X12496911Y-15477548D01*
X12496911Y-15477548D02*
X12477863Y-15487072D01*
X12477863Y-15487072D02*
X12468339Y-15496595D01*
X12677863Y-15610881D02*
X12658816Y-15601357D01*
X12658816Y-15601357D02*
X12649292Y-15591833D01*
X12649292Y-15591833D02*
X12639768Y-15572786D01*
X12639768Y-15572786D02*
X12639768Y-15515643D01*
X12639768Y-15515643D02*
X12649292Y-15496595D01*
X12649292Y-15496595D02*
X12658816Y-15487072D01*
X12658816Y-15487072D02*
X12677863Y-15477548D01*
X12677863Y-15477548D02*
X12706435Y-15477548D01*
X12706435Y-15477548D02*
X12725482Y-15487072D01*
X12725482Y-15487072D02*
X12735006Y-15496595D01*
X12735006Y-15496595D02*
X12744530Y-15515643D01*
X12744530Y-15515643D02*
X12744530Y-15572786D01*
X12744530Y-15572786D02*
X12735006Y-15591833D01*
X12735006Y-15591833D02*
X12725482Y-15601357D01*
X12725482Y-15601357D02*
X12706435Y-15610881D01*
X12706435Y-15610881D02*
X12677863Y-15610881D01*
X12858816Y-15610881D02*
X12839768Y-15601357D01*
X12839768Y-15601357D02*
X12830244Y-15582310D01*
X12830244Y-15582310D02*
X12830244Y-15410881D01*
X13011197Y-15601357D02*
X12992149Y-15610881D01*
X12992149Y-15610881D02*
X12954054Y-15610881D01*
X12954054Y-15610881D02*
X12935006Y-15601357D01*
X12935006Y-15601357D02*
X12925482Y-15582310D01*
X12925482Y-15582310D02*
X12925482Y-15506119D01*
X12925482Y-15506119D02*
X12935006Y-15487072D01*
X12935006Y-15487072D02*
X12954054Y-15477548D01*
X12954054Y-15477548D02*
X12992149Y-15477548D01*
X12992149Y-15477548D02*
X13011197Y-15487072D01*
X13011197Y-15487072D02*
X13020720Y-15506119D01*
X13020720Y-15506119D02*
X13020720Y-15525167D01*
X13020720Y-15525167D02*
X12925482Y-15544214D01*
X13096911Y-15601357D02*
X13115959Y-15610881D01*
X13115959Y-15610881D02*
X13154054Y-15610881D01*
X13154054Y-15610881D02*
X13173101Y-15601357D01*
X13173101Y-15601357D02*
X13182625Y-15582310D01*
X13182625Y-15582310D02*
X13182625Y-15572786D01*
X13182625Y-15572786D02*
X13173101Y-15553738D01*
X13173101Y-15553738D02*
X13154054Y-15544214D01*
X13154054Y-15544214D02*
X13125482Y-15544214D01*
X13125482Y-15544214D02*
X13106435Y-15534691D01*
X13106435Y-15534691D02*
X13096911Y-15515643D01*
X13096911Y-15515643D02*
X13096911Y-15506119D01*
X13096911Y-15506119D02*
X13106435Y-15487072D01*
X13106435Y-15487072D02*
X13125482Y-15477548D01*
X13125482Y-15477548D02*
X13154054Y-15477548D01*
X13154054Y-15477548D02*
X13173101Y-15487072D01*
X13249292Y-15687072D02*
X13258816Y-15677548D01*
X13258816Y-15677548D02*
X13277863Y-15648976D01*
X13277863Y-15648976D02*
X13287387Y-15629929D01*
X13287387Y-15629929D02*
X13296911Y-15601357D01*
X13296911Y-15601357D02*
X13306435Y-15553738D01*
X13306435Y-15553738D02*
X13306435Y-15515643D01*
X13306435Y-15515643D02*
X13296911Y-15468024D01*
X13296911Y-15468024D02*
X13287387Y-15439453D01*
X13287387Y-15439453D02*
X13277863Y-15420405D01*
X13277863Y-15420405D02*
X13258816Y-15391833D01*
X13258816Y-15391833D02*
X13249292Y-15382310D01*
D12*
X8264715Y-15829360D02*
X8264715Y-15737435D01*
X8172790Y-15737435D01*
X8172790Y-15829360D01*
X8264715Y-15829360D01*
D10*
X8649292Y-15874881D02*
X8535006Y-15874881D01*
X8592149Y-15874881D02*
X8592149Y-15674881D01*
X8592149Y-15674881D02*
X8573101Y-15703453D01*
X8573101Y-15703453D02*
X8554053Y-15722500D01*
X8554053Y-15722500D02*
X8535006Y-15732024D01*
X8735006Y-15855833D02*
X8744530Y-15865357D01*
X8744530Y-15865357D02*
X8735006Y-15874881D01*
X8735006Y-15874881D02*
X8725482Y-15865357D01*
X8725482Y-15865357D02*
X8735006Y-15855833D01*
X8735006Y-15855833D02*
X8735006Y-15874881D01*
X8811196Y-15674881D02*
X8935006Y-15674881D01*
X8935006Y-15674881D02*
X8868339Y-15751072D01*
X8868339Y-15751072D02*
X8896911Y-15751072D01*
X8896911Y-15751072D02*
X8915958Y-15760595D01*
X8915958Y-15760595D02*
X8925482Y-15770119D01*
X8925482Y-15770119D02*
X8935006Y-15789167D01*
X8935006Y-15789167D02*
X8935006Y-15836786D01*
X8935006Y-15836786D02*
X8925482Y-15855833D01*
X8925482Y-15855833D02*
X8915958Y-15865357D01*
X8915958Y-15865357D02*
X8896911Y-15874881D01*
X8896911Y-15874881D02*
X8839768Y-15874881D01*
X8839768Y-15874881D02*
X8820720Y-15865357D01*
X8820720Y-15865357D02*
X8811196Y-15855833D01*
X9058815Y-15674881D02*
X9077863Y-15674881D01*
X9077863Y-15674881D02*
X9096911Y-15684405D01*
X9096911Y-15684405D02*
X9106434Y-15693929D01*
X9106434Y-15693929D02*
X9115958Y-15712976D01*
X9115958Y-15712976D02*
X9125482Y-15751072D01*
X9125482Y-15751072D02*
X9125482Y-15798691D01*
X9125482Y-15798691D02*
X9115958Y-15836786D01*
X9115958Y-15836786D02*
X9106434Y-15855833D01*
X9106434Y-15855833D02*
X9096911Y-15865357D01*
X9096911Y-15865357D02*
X9077863Y-15874881D01*
X9077863Y-15874881D02*
X9058815Y-15874881D01*
X9058815Y-15874881D02*
X9039768Y-15865357D01*
X9039768Y-15865357D02*
X9030244Y-15855833D01*
X9030244Y-15855833D02*
X9020720Y-15836786D01*
X9020720Y-15836786D02*
X9011196Y-15798691D01*
X9011196Y-15798691D02*
X9011196Y-15751072D01*
X9011196Y-15751072D02*
X9020720Y-15712976D01*
X9020720Y-15712976D02*
X9030244Y-15693929D01*
X9030244Y-15693929D02*
X9039768Y-15684405D01*
X9039768Y-15684405D02*
X9058815Y-15674881D01*
X9249292Y-15674881D02*
X9268339Y-15674881D01*
X9268339Y-15674881D02*
X9287387Y-15684405D01*
X9287387Y-15684405D02*
X9296911Y-15693929D01*
X9296911Y-15693929D02*
X9306434Y-15712976D01*
X9306434Y-15712976D02*
X9315958Y-15751072D01*
X9315958Y-15751072D02*
X9315958Y-15798691D01*
X9315958Y-15798691D02*
X9306434Y-15836786D01*
X9306434Y-15836786D02*
X9296911Y-15855833D01*
X9296911Y-15855833D02*
X9287387Y-15865357D01*
X9287387Y-15865357D02*
X9268339Y-15874881D01*
X9268339Y-15874881D02*
X9249292Y-15874881D01*
X9249292Y-15874881D02*
X9230244Y-15865357D01*
X9230244Y-15865357D02*
X9220720Y-15855833D01*
X9220720Y-15855833D02*
X9211196Y-15836786D01*
X9211196Y-15836786D02*
X9201673Y-15798691D01*
X9201673Y-15798691D02*
X9201673Y-15751072D01*
X9201673Y-15751072D02*
X9211196Y-15712976D01*
X9211196Y-15712976D02*
X9220720Y-15693929D01*
X9220720Y-15693929D02*
X9230244Y-15684405D01*
X9230244Y-15684405D02*
X9249292Y-15674881D01*
X9401673Y-15874881D02*
X9401673Y-15741548D01*
X9401673Y-15760595D02*
X9411196Y-15751072D01*
X9411196Y-15751072D02*
X9430244Y-15741548D01*
X9430244Y-15741548D02*
X9458815Y-15741548D01*
X9458815Y-15741548D02*
X9477863Y-15751072D01*
X9477863Y-15751072D02*
X9487387Y-15770119D01*
X9487387Y-15770119D02*
X9487387Y-15874881D01*
X9487387Y-15770119D02*
X9496911Y-15751072D01*
X9496911Y-15751072D02*
X9515958Y-15741548D01*
X9515958Y-15741548D02*
X9544530Y-15741548D01*
X9544530Y-15741548D02*
X9563577Y-15751072D01*
X9563577Y-15751072D02*
X9573101Y-15770119D01*
X9573101Y-15770119D02*
X9573101Y-15874881D01*
X9668339Y-15874881D02*
X9668339Y-15741548D01*
X9668339Y-15760595D02*
X9677863Y-15751072D01*
X9677863Y-15751072D02*
X9696911Y-15741548D01*
X9696911Y-15741548D02*
X9725482Y-15741548D01*
X9725482Y-15741548D02*
X9744530Y-15751072D01*
X9744530Y-15751072D02*
X9754054Y-15770119D01*
X9754054Y-15770119D02*
X9754054Y-15874881D01*
X9754054Y-15770119D02*
X9763577Y-15751072D01*
X9763577Y-15751072D02*
X9782625Y-15741548D01*
X9782625Y-15741548D02*
X9811196Y-15741548D01*
X9811196Y-15741548D02*
X9830244Y-15751072D01*
X9830244Y-15751072D02*
X9839768Y-15770119D01*
X9839768Y-15770119D02*
X9839768Y-15874881D01*
X10230244Y-15665357D02*
X10058816Y-15922500D01*
X10487387Y-15674881D02*
X10506435Y-15674881D01*
X10506435Y-15674881D02*
X10525482Y-15684405D01*
X10525482Y-15684405D02*
X10535006Y-15693929D01*
X10535006Y-15693929D02*
X10544530Y-15712976D01*
X10544530Y-15712976D02*
X10554054Y-15751072D01*
X10554054Y-15751072D02*
X10554054Y-15798691D01*
X10554054Y-15798691D02*
X10544530Y-15836786D01*
X10544530Y-15836786D02*
X10535006Y-15855833D01*
X10535006Y-15855833D02*
X10525482Y-15865357D01*
X10525482Y-15865357D02*
X10506435Y-15874881D01*
X10506435Y-15874881D02*
X10487387Y-15874881D01*
X10487387Y-15874881D02*
X10468339Y-15865357D01*
X10468339Y-15865357D02*
X10458816Y-15855833D01*
X10458816Y-15855833D02*
X10449292Y-15836786D01*
X10449292Y-15836786D02*
X10439768Y-15798691D01*
X10439768Y-15798691D02*
X10439768Y-15751072D01*
X10439768Y-15751072D02*
X10449292Y-15712976D01*
X10449292Y-15712976D02*
X10458816Y-15693929D01*
X10458816Y-15693929D02*
X10468339Y-15684405D01*
X10468339Y-15684405D02*
X10487387Y-15674881D01*
X10639768Y-15855833D02*
X10649292Y-15865357D01*
X10649292Y-15865357D02*
X10639768Y-15874881D01*
X10639768Y-15874881D02*
X10630244Y-15865357D01*
X10630244Y-15865357D02*
X10639768Y-15855833D01*
X10639768Y-15855833D02*
X10639768Y-15874881D01*
X10773101Y-15674881D02*
X10792149Y-15674881D01*
X10792149Y-15674881D02*
X10811197Y-15684405D01*
X10811197Y-15684405D02*
X10820720Y-15693929D01*
X10820720Y-15693929D02*
X10830244Y-15712976D01*
X10830244Y-15712976D02*
X10839768Y-15751072D01*
X10839768Y-15751072D02*
X10839768Y-15798691D01*
X10839768Y-15798691D02*
X10830244Y-15836786D01*
X10830244Y-15836786D02*
X10820720Y-15855833D01*
X10820720Y-15855833D02*
X10811197Y-15865357D01*
X10811197Y-15865357D02*
X10792149Y-15874881D01*
X10792149Y-15874881D02*
X10773101Y-15874881D01*
X10773101Y-15874881D02*
X10754054Y-15865357D01*
X10754054Y-15865357D02*
X10744530Y-15855833D01*
X10744530Y-15855833D02*
X10735006Y-15836786D01*
X10735006Y-15836786D02*
X10725482Y-15798691D01*
X10725482Y-15798691D02*
X10725482Y-15751072D01*
X10725482Y-15751072D02*
X10735006Y-15712976D01*
X10735006Y-15712976D02*
X10744530Y-15693929D01*
X10744530Y-15693929D02*
X10754054Y-15684405D01*
X10754054Y-15684405D02*
X10773101Y-15674881D01*
X11020720Y-15674881D02*
X10925482Y-15674881D01*
X10925482Y-15674881D02*
X10915958Y-15770119D01*
X10915958Y-15770119D02*
X10925482Y-15760595D01*
X10925482Y-15760595D02*
X10944530Y-15751072D01*
X10944530Y-15751072D02*
X10992149Y-15751072D01*
X10992149Y-15751072D02*
X11011197Y-15760595D01*
X11011197Y-15760595D02*
X11020720Y-15770119D01*
X11020720Y-15770119D02*
X11030244Y-15789167D01*
X11030244Y-15789167D02*
X11030244Y-15836786D01*
X11030244Y-15836786D02*
X11020720Y-15855833D01*
X11020720Y-15855833D02*
X11011197Y-15865357D01*
X11011197Y-15865357D02*
X10992149Y-15874881D01*
X10992149Y-15874881D02*
X10944530Y-15874881D01*
X10944530Y-15874881D02*
X10925482Y-15865357D01*
X10925482Y-15865357D02*
X10915958Y-15855833D01*
X11220720Y-15874881D02*
X11106435Y-15874881D01*
X11163577Y-15874881D02*
X11163577Y-15674881D01*
X11163577Y-15674881D02*
X11144530Y-15703453D01*
X11144530Y-15703453D02*
X11125482Y-15722500D01*
X11125482Y-15722500D02*
X11106435Y-15732024D01*
X11296911Y-15693929D02*
X11306435Y-15684405D01*
X11306435Y-15684405D02*
X11325482Y-15674881D01*
X11325482Y-15674881D02*
X11373101Y-15674881D01*
X11373101Y-15674881D02*
X11392149Y-15684405D01*
X11392149Y-15684405D02*
X11401673Y-15693929D01*
X11401673Y-15693929D02*
X11411196Y-15712976D01*
X11411196Y-15712976D02*
X11411196Y-15732024D01*
X11411196Y-15732024D02*
X11401673Y-15760595D01*
X11401673Y-15760595D02*
X11287387Y-15874881D01*
X11287387Y-15874881D02*
X11411196Y-15874881D01*
X11487387Y-15674881D02*
X11487387Y-15712976D01*
X11563577Y-15674881D02*
X11563577Y-15712976D01*
X11858816Y-15951072D02*
X11849292Y-15941548D01*
X11849292Y-15941548D02*
X11830244Y-15912976D01*
X11830244Y-15912976D02*
X11820720Y-15893929D01*
X11820720Y-15893929D02*
X11811197Y-15865357D01*
X11811197Y-15865357D02*
X11801673Y-15817738D01*
X11801673Y-15817738D02*
X11801673Y-15779643D01*
X11801673Y-15779643D02*
X11811197Y-15732024D01*
X11811197Y-15732024D02*
X11820720Y-15703453D01*
X11820720Y-15703453D02*
X11830244Y-15684405D01*
X11830244Y-15684405D02*
X11849292Y-15655833D01*
X11849292Y-15655833D02*
X11858816Y-15646310D01*
X11925482Y-15693929D02*
X11935006Y-15684405D01*
X11935006Y-15684405D02*
X11954054Y-15674881D01*
X11954054Y-15674881D02*
X12001673Y-15674881D01*
X12001673Y-15674881D02*
X12020720Y-15684405D01*
X12020720Y-15684405D02*
X12030244Y-15693929D01*
X12030244Y-15693929D02*
X12039768Y-15712976D01*
X12039768Y-15712976D02*
X12039768Y-15732024D01*
X12039768Y-15732024D02*
X12030244Y-15760595D01*
X12030244Y-15760595D02*
X11915958Y-15874881D01*
X11915958Y-15874881D02*
X12039768Y-15874881D01*
X12277863Y-15874881D02*
X12277863Y-15674881D01*
X12363578Y-15874881D02*
X12363578Y-15770119D01*
X12363578Y-15770119D02*
X12354054Y-15751072D01*
X12354054Y-15751072D02*
X12335006Y-15741548D01*
X12335006Y-15741548D02*
X12306435Y-15741548D01*
X12306435Y-15741548D02*
X12287387Y-15751072D01*
X12287387Y-15751072D02*
X12277863Y-15760595D01*
X12487387Y-15874881D02*
X12468339Y-15865357D01*
X12468339Y-15865357D02*
X12458816Y-15855833D01*
X12458816Y-15855833D02*
X12449292Y-15836786D01*
X12449292Y-15836786D02*
X12449292Y-15779643D01*
X12449292Y-15779643D02*
X12458816Y-15760595D01*
X12458816Y-15760595D02*
X12468339Y-15751072D01*
X12468339Y-15751072D02*
X12487387Y-15741548D01*
X12487387Y-15741548D02*
X12515959Y-15741548D01*
X12515959Y-15741548D02*
X12535006Y-15751072D01*
X12535006Y-15751072D02*
X12544530Y-15760595D01*
X12544530Y-15760595D02*
X12554054Y-15779643D01*
X12554054Y-15779643D02*
X12554054Y-15836786D01*
X12554054Y-15836786D02*
X12544530Y-15855833D01*
X12544530Y-15855833D02*
X12535006Y-15865357D01*
X12535006Y-15865357D02*
X12515959Y-15874881D01*
X12515959Y-15874881D02*
X12487387Y-15874881D01*
X12668339Y-15874881D02*
X12649292Y-15865357D01*
X12649292Y-15865357D02*
X12639768Y-15846310D01*
X12639768Y-15846310D02*
X12639768Y-15674881D01*
X12820720Y-15865357D02*
X12801673Y-15874881D01*
X12801673Y-15874881D02*
X12763578Y-15874881D01*
X12763578Y-15874881D02*
X12744530Y-15865357D01*
X12744530Y-15865357D02*
X12735006Y-15846310D01*
X12735006Y-15846310D02*
X12735006Y-15770119D01*
X12735006Y-15770119D02*
X12744530Y-15751072D01*
X12744530Y-15751072D02*
X12763578Y-15741548D01*
X12763578Y-15741548D02*
X12801673Y-15741548D01*
X12801673Y-15741548D02*
X12820720Y-15751072D01*
X12820720Y-15751072D02*
X12830244Y-15770119D01*
X12830244Y-15770119D02*
X12830244Y-15789167D01*
X12830244Y-15789167D02*
X12735006Y-15808214D01*
X12906435Y-15865357D02*
X12925482Y-15874881D01*
X12925482Y-15874881D02*
X12963578Y-15874881D01*
X12963578Y-15874881D02*
X12982625Y-15865357D01*
X12982625Y-15865357D02*
X12992149Y-15846310D01*
X12992149Y-15846310D02*
X12992149Y-15836786D01*
X12992149Y-15836786D02*
X12982625Y-15817738D01*
X12982625Y-15817738D02*
X12963578Y-15808214D01*
X12963578Y-15808214D02*
X12935006Y-15808214D01*
X12935006Y-15808214D02*
X12915959Y-15798691D01*
X12915959Y-15798691D02*
X12906435Y-15779643D01*
X12906435Y-15779643D02*
X12906435Y-15770119D01*
X12906435Y-15770119D02*
X12915959Y-15751072D01*
X12915959Y-15751072D02*
X12935006Y-15741548D01*
X12935006Y-15741548D02*
X12963578Y-15741548D01*
X12963578Y-15741548D02*
X12982625Y-15751072D01*
X13058816Y-15951072D02*
X13068340Y-15941548D01*
X13068340Y-15941548D02*
X13087387Y-15912976D01*
X13087387Y-15912976D02*
X13096911Y-15893929D01*
X13096911Y-15893929D02*
X13106435Y-15865357D01*
X13106435Y-15865357D02*
X13115959Y-15817738D01*
X13115959Y-15817738D02*
X13115959Y-15779643D01*
X13115959Y-15779643D02*
X13106435Y-15732024D01*
X13106435Y-15732024D02*
X13096911Y-15703453D01*
X13096911Y-15703453D02*
X13087387Y-15684405D01*
X13087387Y-15684405D02*
X13068340Y-15655833D01*
X13068340Y-15655833D02*
X13058816Y-15646310D01*
X8183753Y-16147397D02*
X8283753Y-16047397D01*
X8183753Y-15947397D01*
X8083753Y-16047397D01*
X8183753Y-16147397D01*
X8535006Y-15957929D02*
X8544530Y-15948405D01*
X8544530Y-15948405D02*
X8563577Y-15938881D01*
X8563577Y-15938881D02*
X8611196Y-15938881D01*
X8611196Y-15938881D02*
X8630244Y-15948405D01*
X8630244Y-15948405D02*
X8639768Y-15957929D01*
X8639768Y-15957929D02*
X8649292Y-15976976D01*
X8649292Y-15976976D02*
X8649292Y-15996024D01*
X8649292Y-15996024D02*
X8639768Y-16024595D01*
X8639768Y-16024595D02*
X8525482Y-16138881D01*
X8525482Y-16138881D02*
X8649292Y-16138881D01*
X8735006Y-16119833D02*
X8744530Y-16129357D01*
X8744530Y-16129357D02*
X8735006Y-16138881D01*
X8735006Y-16138881D02*
X8725482Y-16129357D01*
X8725482Y-16129357D02*
X8735006Y-16119833D01*
X8735006Y-16119833D02*
X8735006Y-16138881D01*
X8915958Y-16005548D02*
X8915958Y-16138881D01*
X8868339Y-15929357D02*
X8820720Y-16072214D01*
X8820720Y-16072214D02*
X8944530Y-16072214D01*
X9058815Y-15938881D02*
X9077863Y-15938881D01*
X9077863Y-15938881D02*
X9096911Y-15948405D01*
X9096911Y-15948405D02*
X9106434Y-15957929D01*
X9106434Y-15957929D02*
X9115958Y-15976976D01*
X9115958Y-15976976D02*
X9125482Y-16015072D01*
X9125482Y-16015072D02*
X9125482Y-16062691D01*
X9125482Y-16062691D02*
X9115958Y-16100786D01*
X9115958Y-16100786D02*
X9106434Y-16119833D01*
X9106434Y-16119833D02*
X9096911Y-16129357D01*
X9096911Y-16129357D02*
X9077863Y-16138881D01*
X9077863Y-16138881D02*
X9058815Y-16138881D01*
X9058815Y-16138881D02*
X9039768Y-16129357D01*
X9039768Y-16129357D02*
X9030244Y-16119833D01*
X9030244Y-16119833D02*
X9020720Y-16100786D01*
X9020720Y-16100786D02*
X9011196Y-16062691D01*
X9011196Y-16062691D02*
X9011196Y-16015072D01*
X9011196Y-16015072D02*
X9020720Y-15976976D01*
X9020720Y-15976976D02*
X9030244Y-15957929D01*
X9030244Y-15957929D02*
X9039768Y-15948405D01*
X9039768Y-15948405D02*
X9058815Y-15938881D01*
X9249292Y-15938881D02*
X9268339Y-15938881D01*
X9268339Y-15938881D02*
X9287387Y-15948405D01*
X9287387Y-15948405D02*
X9296911Y-15957929D01*
X9296911Y-15957929D02*
X9306434Y-15976976D01*
X9306434Y-15976976D02*
X9315958Y-16015072D01*
X9315958Y-16015072D02*
X9315958Y-16062691D01*
X9315958Y-16062691D02*
X9306434Y-16100786D01*
X9306434Y-16100786D02*
X9296911Y-16119833D01*
X9296911Y-16119833D02*
X9287387Y-16129357D01*
X9287387Y-16129357D02*
X9268339Y-16138881D01*
X9268339Y-16138881D02*
X9249292Y-16138881D01*
X9249292Y-16138881D02*
X9230244Y-16129357D01*
X9230244Y-16129357D02*
X9220720Y-16119833D01*
X9220720Y-16119833D02*
X9211196Y-16100786D01*
X9211196Y-16100786D02*
X9201673Y-16062691D01*
X9201673Y-16062691D02*
X9201673Y-16015072D01*
X9201673Y-16015072D02*
X9211196Y-15976976D01*
X9211196Y-15976976D02*
X9220720Y-15957929D01*
X9220720Y-15957929D02*
X9230244Y-15948405D01*
X9230244Y-15948405D02*
X9249292Y-15938881D01*
X9401673Y-16138881D02*
X9401673Y-16005548D01*
X9401673Y-16024595D02*
X9411196Y-16015072D01*
X9411196Y-16015072D02*
X9430244Y-16005548D01*
X9430244Y-16005548D02*
X9458815Y-16005548D01*
X9458815Y-16005548D02*
X9477863Y-16015072D01*
X9477863Y-16015072D02*
X9487387Y-16034119D01*
X9487387Y-16034119D02*
X9487387Y-16138881D01*
X9487387Y-16034119D02*
X9496911Y-16015072D01*
X9496911Y-16015072D02*
X9515958Y-16005548D01*
X9515958Y-16005548D02*
X9544530Y-16005548D01*
X9544530Y-16005548D02*
X9563577Y-16015072D01*
X9563577Y-16015072D02*
X9573101Y-16034119D01*
X9573101Y-16034119D02*
X9573101Y-16138881D01*
X9668339Y-16138881D02*
X9668339Y-16005548D01*
X9668339Y-16024595D02*
X9677863Y-16015072D01*
X9677863Y-16015072D02*
X9696911Y-16005548D01*
X9696911Y-16005548D02*
X9725482Y-16005548D01*
X9725482Y-16005548D02*
X9744530Y-16015072D01*
X9744530Y-16015072D02*
X9754054Y-16034119D01*
X9754054Y-16034119D02*
X9754054Y-16138881D01*
X9754054Y-16034119D02*
X9763577Y-16015072D01*
X9763577Y-16015072D02*
X9782625Y-16005548D01*
X9782625Y-16005548D02*
X9811196Y-16005548D01*
X9811196Y-16005548D02*
X9830244Y-16015072D01*
X9830244Y-16015072D02*
X9839768Y-16034119D01*
X9839768Y-16034119D02*
X9839768Y-16138881D01*
X10230244Y-15929357D02*
X10058816Y-16186500D01*
X10487387Y-15938881D02*
X10506435Y-15938881D01*
X10506435Y-15938881D02*
X10525482Y-15948405D01*
X10525482Y-15948405D02*
X10535006Y-15957929D01*
X10535006Y-15957929D02*
X10544530Y-15976976D01*
X10544530Y-15976976D02*
X10554054Y-16015072D01*
X10554054Y-16015072D02*
X10554054Y-16062691D01*
X10554054Y-16062691D02*
X10544530Y-16100786D01*
X10544530Y-16100786D02*
X10535006Y-16119833D01*
X10535006Y-16119833D02*
X10525482Y-16129357D01*
X10525482Y-16129357D02*
X10506435Y-16138881D01*
X10506435Y-16138881D02*
X10487387Y-16138881D01*
X10487387Y-16138881D02*
X10468339Y-16129357D01*
X10468339Y-16129357D02*
X10458816Y-16119833D01*
X10458816Y-16119833D02*
X10449292Y-16100786D01*
X10449292Y-16100786D02*
X10439768Y-16062691D01*
X10439768Y-16062691D02*
X10439768Y-16015072D01*
X10439768Y-16015072D02*
X10449292Y-15976976D01*
X10449292Y-15976976D02*
X10458816Y-15957929D01*
X10458816Y-15957929D02*
X10468339Y-15948405D01*
X10468339Y-15948405D02*
X10487387Y-15938881D01*
X10639768Y-16119833D02*
X10649292Y-16129357D01*
X10649292Y-16129357D02*
X10639768Y-16138881D01*
X10639768Y-16138881D02*
X10630244Y-16129357D01*
X10630244Y-16129357D02*
X10639768Y-16119833D01*
X10639768Y-16119833D02*
X10639768Y-16138881D01*
X10773101Y-15938881D02*
X10792149Y-15938881D01*
X10792149Y-15938881D02*
X10811197Y-15948405D01*
X10811197Y-15948405D02*
X10820720Y-15957929D01*
X10820720Y-15957929D02*
X10830244Y-15976976D01*
X10830244Y-15976976D02*
X10839768Y-16015072D01*
X10839768Y-16015072D02*
X10839768Y-16062691D01*
X10839768Y-16062691D02*
X10830244Y-16100786D01*
X10830244Y-16100786D02*
X10820720Y-16119833D01*
X10820720Y-16119833D02*
X10811197Y-16129357D01*
X10811197Y-16129357D02*
X10792149Y-16138881D01*
X10792149Y-16138881D02*
X10773101Y-16138881D01*
X10773101Y-16138881D02*
X10754054Y-16129357D01*
X10754054Y-16129357D02*
X10744530Y-16119833D01*
X10744530Y-16119833D02*
X10735006Y-16100786D01*
X10735006Y-16100786D02*
X10725482Y-16062691D01*
X10725482Y-16062691D02*
X10725482Y-16015072D01*
X10725482Y-16015072D02*
X10735006Y-15976976D01*
X10735006Y-15976976D02*
X10744530Y-15957929D01*
X10744530Y-15957929D02*
X10754054Y-15948405D01*
X10754054Y-15948405D02*
X10773101Y-15938881D01*
X10935006Y-16138881D02*
X10973101Y-16138881D01*
X10973101Y-16138881D02*
X10992149Y-16129357D01*
X10992149Y-16129357D02*
X11001673Y-16119833D01*
X11001673Y-16119833D02*
X11020720Y-16091262D01*
X11020720Y-16091262D02*
X11030244Y-16053167D01*
X11030244Y-16053167D02*
X11030244Y-15976976D01*
X11030244Y-15976976D02*
X11020720Y-15957929D01*
X11020720Y-15957929D02*
X11011197Y-15948405D01*
X11011197Y-15948405D02*
X10992149Y-15938881D01*
X10992149Y-15938881D02*
X10954054Y-15938881D01*
X10954054Y-15938881D02*
X10935006Y-15948405D01*
X10935006Y-15948405D02*
X10925482Y-15957929D01*
X10925482Y-15957929D02*
X10915958Y-15976976D01*
X10915958Y-15976976D02*
X10915958Y-16024595D01*
X10915958Y-16024595D02*
X10925482Y-16043643D01*
X10925482Y-16043643D02*
X10935006Y-16053167D01*
X10935006Y-16053167D02*
X10954054Y-16062691D01*
X10954054Y-16062691D02*
X10992149Y-16062691D01*
X10992149Y-16062691D02*
X11011197Y-16053167D01*
X11011197Y-16053167D02*
X11020720Y-16043643D01*
X11020720Y-16043643D02*
X11030244Y-16024595D01*
X11201673Y-16005548D02*
X11201673Y-16138881D01*
X11154054Y-15929357D02*
X11106435Y-16072214D01*
X11106435Y-16072214D02*
X11230244Y-16072214D01*
X11401673Y-15938881D02*
X11306435Y-15938881D01*
X11306435Y-15938881D02*
X11296911Y-16034119D01*
X11296911Y-16034119D02*
X11306435Y-16024595D01*
X11306435Y-16024595D02*
X11325482Y-16015072D01*
X11325482Y-16015072D02*
X11373101Y-16015072D01*
X11373101Y-16015072D02*
X11392149Y-16024595D01*
X11392149Y-16024595D02*
X11401673Y-16034119D01*
X11401673Y-16034119D02*
X11411196Y-16053167D01*
X11411196Y-16053167D02*
X11411196Y-16100786D01*
X11411196Y-16100786D02*
X11401673Y-16119833D01*
X11401673Y-16119833D02*
X11392149Y-16129357D01*
X11392149Y-16129357D02*
X11373101Y-16138881D01*
X11373101Y-16138881D02*
X11325482Y-16138881D01*
X11325482Y-16138881D02*
X11306435Y-16129357D01*
X11306435Y-16129357D02*
X11296911Y-16119833D01*
X11487387Y-15938881D02*
X11487387Y-15976976D01*
X11563577Y-15938881D02*
X11563577Y-15976976D01*
X11858816Y-16215072D02*
X11849292Y-16205548D01*
X11849292Y-16205548D02*
X11830244Y-16176976D01*
X11830244Y-16176976D02*
X11820720Y-16157929D01*
X11820720Y-16157929D02*
X11811197Y-16129357D01*
X11811197Y-16129357D02*
X11801673Y-16081738D01*
X11801673Y-16081738D02*
X11801673Y-16043643D01*
X11801673Y-16043643D02*
X11811197Y-15996024D01*
X11811197Y-15996024D02*
X11820720Y-15967453D01*
X11820720Y-15967453D02*
X11830244Y-15948405D01*
X11830244Y-15948405D02*
X11849292Y-15919833D01*
X11849292Y-15919833D02*
X11858816Y-15910310D01*
X11925482Y-15957929D02*
X11935006Y-15948405D01*
X11935006Y-15948405D02*
X11954054Y-15938881D01*
X11954054Y-15938881D02*
X12001673Y-15938881D01*
X12001673Y-15938881D02*
X12020720Y-15948405D01*
X12020720Y-15948405D02*
X12030244Y-15957929D01*
X12030244Y-15957929D02*
X12039768Y-15976976D01*
X12039768Y-15976976D02*
X12039768Y-15996024D01*
X12039768Y-15996024D02*
X12030244Y-16024595D01*
X12030244Y-16024595D02*
X11915958Y-16138881D01*
X11915958Y-16138881D02*
X12039768Y-16138881D01*
X12277863Y-16138881D02*
X12277863Y-15938881D01*
X12363578Y-16138881D02*
X12363578Y-16034119D01*
X12363578Y-16034119D02*
X12354054Y-16015072D01*
X12354054Y-16015072D02*
X12335006Y-16005548D01*
X12335006Y-16005548D02*
X12306435Y-16005548D01*
X12306435Y-16005548D02*
X12287387Y-16015072D01*
X12287387Y-16015072D02*
X12277863Y-16024595D01*
X12487387Y-16138881D02*
X12468339Y-16129357D01*
X12468339Y-16129357D02*
X12458816Y-16119833D01*
X12458816Y-16119833D02*
X12449292Y-16100786D01*
X12449292Y-16100786D02*
X12449292Y-16043643D01*
X12449292Y-16043643D02*
X12458816Y-16024595D01*
X12458816Y-16024595D02*
X12468339Y-16015072D01*
X12468339Y-16015072D02*
X12487387Y-16005548D01*
X12487387Y-16005548D02*
X12515959Y-16005548D01*
X12515959Y-16005548D02*
X12535006Y-16015072D01*
X12535006Y-16015072D02*
X12544530Y-16024595D01*
X12544530Y-16024595D02*
X12554054Y-16043643D01*
X12554054Y-16043643D02*
X12554054Y-16100786D01*
X12554054Y-16100786D02*
X12544530Y-16119833D01*
X12544530Y-16119833D02*
X12535006Y-16129357D01*
X12535006Y-16129357D02*
X12515959Y-16138881D01*
X12515959Y-16138881D02*
X12487387Y-16138881D01*
X12668339Y-16138881D02*
X12649292Y-16129357D01*
X12649292Y-16129357D02*
X12639768Y-16110310D01*
X12639768Y-16110310D02*
X12639768Y-15938881D01*
X12820720Y-16129357D02*
X12801673Y-16138881D01*
X12801673Y-16138881D02*
X12763578Y-16138881D01*
X12763578Y-16138881D02*
X12744530Y-16129357D01*
X12744530Y-16129357D02*
X12735006Y-16110310D01*
X12735006Y-16110310D02*
X12735006Y-16034119D01*
X12735006Y-16034119D02*
X12744530Y-16015072D01*
X12744530Y-16015072D02*
X12763578Y-16005548D01*
X12763578Y-16005548D02*
X12801673Y-16005548D01*
X12801673Y-16005548D02*
X12820720Y-16015072D01*
X12820720Y-16015072D02*
X12830244Y-16034119D01*
X12830244Y-16034119D02*
X12830244Y-16053167D01*
X12830244Y-16053167D02*
X12735006Y-16072214D01*
X12906435Y-16129357D02*
X12925482Y-16138881D01*
X12925482Y-16138881D02*
X12963578Y-16138881D01*
X12963578Y-16138881D02*
X12982625Y-16129357D01*
X12982625Y-16129357D02*
X12992149Y-16110310D01*
X12992149Y-16110310D02*
X12992149Y-16100786D01*
X12992149Y-16100786D02*
X12982625Y-16081738D01*
X12982625Y-16081738D02*
X12963578Y-16072214D01*
X12963578Y-16072214D02*
X12935006Y-16072214D01*
X12935006Y-16072214D02*
X12915959Y-16062691D01*
X12915959Y-16062691D02*
X12906435Y-16043643D01*
X12906435Y-16043643D02*
X12906435Y-16034119D01*
X12906435Y-16034119D02*
X12915959Y-16015072D01*
X12915959Y-16015072D02*
X12935006Y-16005548D01*
X12935006Y-16005548D02*
X12963578Y-16005548D01*
X12963578Y-16005548D02*
X12982625Y-16015072D01*
X13058816Y-16215072D02*
X13068340Y-16205548D01*
X13068340Y-16205548D02*
X13087387Y-16176976D01*
X13087387Y-16176976D02*
X13096911Y-16157929D01*
X13096911Y-16157929D02*
X13106435Y-16129357D01*
X13106435Y-16129357D02*
X13115959Y-16081738D01*
X13115959Y-16081738D02*
X13115959Y-16043643D01*
X13115959Y-16043643D02*
X13106435Y-15996024D01*
X13106435Y-15996024D02*
X13096911Y-15967453D01*
X13096911Y-15967453D02*
X13087387Y-15948405D01*
X13087387Y-15948405D02*
X13068340Y-15919833D01*
X13068340Y-15919833D02*
X13058816Y-15910310D01*
M02*
